<?xml version="1.0" standalone="no"?>
<!DOCTYPE svg PUBLIC "-//W3C//DTD SVG 1.1//EN" "http://www.w3.org/Graphics/SVG/1.1/DTD/svg11.dtd" >
<svg xmlns="http://www.w3.org/2000/svg" xmlns:xlink="http://www.w3.org/1999/xlink" version="1.1">
<metadata></metadata>
<defs>
<font id="latin_modern_mono_light10Bd" horiz-adv-x="1075" >
<font-face units-per-em="2048" ascent="1604" descent="-444" />
<missing-glyph horiz-adv-x="500" />
<glyph horiz-adv-x="0" />
<glyph horiz-adv-x="682" />
<glyph unicode=" " />
<glyph unicode="!" d="M420 117q0 47 34 80.5t83 33.5t82.5 -33t33.5 -81q0 -50 -33.5 -83.5t-82.5 -33.5t-83 34t-34 83zM420 1143q0 35 10.5 61t24.5 38.5t32.5 20.5t29.5 9.5t20 1.5t20 -1.5t29 -9.5t32 -20.5t24.5 -38.5t10.5 -61l-18 -664q-5 -73 -21 -92.5t-77 -19.5q-95 0 -97 67z" />
<glyph unicode="&#x22;" d="M250 1147q-4 68 29.5 97.5t76.5 29.5q15 0 31 -5t35 -17t30 -39.5t9 -65.5l-27 -408q-4 -84 -78 -84q-75 0 -80 86zM612 1147q-4 68 29.5 97.5t77.5 29.5q15 0 31 -5t34.5 -17t29.5 -39.5t9 -65.5l-26 -408q-4 -84 -78 -84q-75 0 -80 86z" />
<glyph unicode="#" d="M68 412q0 86 110 86h82l33 258h-115q-110 0 -110 86t110 86h139l27 227q13 96 88 96q37 0 64.5 -26t19.5 -86l-24 -211h172l28 227q1 21 6.5 39t26.5 37.5t55 19.5q37 0 64.5 -26t19.5 -86l-26 -211h57q111 0 111 -86t-111 -86h-80l-33 -258h113q111 0 111 -86t-111 -86 h-137l-31 -230q-13 -96 -86 -96q-37 0 -61.5 25.5t-24.5 60.5q0 11 29 240h-172l-31 -230q-13 -96 -88 -96q-37 0 -61.5 25.5t-24.5 60.5q0 11 31 240h-60q-110 0 -110 86zM434 498h174l33 258h-174z" />
<glyph unicode="$" d="M113 348q0 30 9.5 52.5t22 34t29 18.5t26.5 8.5t19 1.5q39 0 72 -29.5t33 -77.5t-31 -75q40 -110 168 -134v433q-80 16 -142 44.5t-98 63t-59.5 67.5t-33 69t-12.5 55.5t-3 38.5q0 120 94 217.5t254 121.5v62q0 20 2 32.5t8.5 30t23.5 26.5t44 9q26 0 42.5 -9t23 -26.5 t8 -30t1.5 -32.5v-59q168 -18 257.5 -111.5t89.5 -220.5q0 -59 -32 -86t-75 -27q-46 0 -75 31t-29 72q0 43 28 71q-37 93 -164 115v-385q83 -17 147.5 -51t101 -73t60 -85.5t31 -83t7.5 -70.5q0 -55 -20.5 -110t-61 -106.5t-109 -90.5t-156.5 -55v-62q0 -20 -1.5 -32.5 t-8 -30t-23 -26.5t-42.5 -9q-27 0 -44 9t-23.5 26.5t-8.5 30t-2 32.5v60q-166 21 -257 121.5t-91 234.5zM268 926q0 -63 55.5 -109.5t137.5 -64.5v350q-85 -18 -139 -66t-54 -110zM614 152q85 19 138 74.5t53 123.5t-52 121.5t-139 75.5v-395z" />
<glyph unicode="%" d="M59 1135q0 120 56 201t135 81q78 0 134 -80t56 -202q0 -120 -55.5 -201.5t-134.5 -81.5q-78 0 -134.5 80.5t-56.5 202.5zM172 -80q0 14 12 49l545 1372q6 16 11.5 26.5t15 23.5t24.5 19.5t35 6.5q36 0 61 -26t25 -60q0 -15 -12 -49l-547 -1380q-7 -19 -13.5 -31 t-25.5 -24.5t-45 -12.5q-35 0 -60.5 25.5t-25.5 60.5zM205 1135q0 -54 14.5 -90.5t30.5 -36.5t30.5 36.5t14.5 90.5q0 53 -13.5 90t-31.5 37t-31.5 -37t-13.5 -90zM633 117q0 118 55 199t135 81t135.5 -81t55.5 -199q0 -119 -55.5 -201t-135.5 -82t-135 81.5t-55 201.5z M778 117q0 -55 14.5 -91t30.5 -36t30.5 36t14.5 91q0 54 -14.5 89.5t-30.5 35.5t-30.5 -35.5t-14.5 -89.5z" />
<glyph unicode="&#x26;" d="M53 289q0 129 76 223q3 1 27.5 27.5t57.5 63t42 46.5q-53 167 -53 320q0 147 67.5 226t155.5 79q54 0 95 -26.5t63 -70.5t32.5 -92.5t10.5 -101.5q0 -166 -199 -377q36 -93 127 -237q55 113 152 370q-74 4 -74 78q0 76 94 76h184q20 0 32.5 -2t29.5 -8.5t26 -23.5t9 -44 q0 -21 -7 -36t-16 -22.5t-24 -12t-25 -5t-25 -0.5h-51l-115 -301q-54 -131 -98 -205q82 -102 150 -102q50 0 61 98q0 13 3.5 28t21 32.5t47.5 17.5q3 0 7.5 -0.5t17 -4.5t22 -11.5t17 -24.5t7.5 -41q0 -40 -12.5 -82t-36 -80t-64.5 -62t-91 -24q-120 0 -234 132 q-115 -132 -248 -132q-117 0 -189.5 93t-72.5 219zM219 295q0 -22 3.5 -46t12 -53t28.5 -47t48 -18q80 0 156 100q-78 110 -154 261q-60 -67 -77 -101.5t-17 -95.5zM344 969q0 -89 23 -193q112 128 112 207q0 15 -1 30t-5.5 43.5t-17 46t-31.5 17.5q-32 0 -56 -39.5 t-24 -111.5z" />
<glyph unicode="'" d="M432 1147q-4 68 29.5 97.5t77.5 29.5q15 0 31 -5t34.5 -17t29.5 -39.5t9 -65.5l-27 -408q-4 -84 -77 -84q-75 0 -80 86z" />
<glyph unicode="(" d="M346 627q0 107 23.5 208t61 178t85 144.5t96 114t93 80t75.5 49.5t45 16q31 0 50 -14.5t23.5 -28.5t4.5 -28q0 -26 -10 -38.5t-41 -35.5q-94 -64 -162.5 -147t-105.5 -170.5t-53.5 -168t-16.5 -159.5q0 -181 81.5 -354.5t252.5 -288.5q34 -24 44.5 -37t10.5 -39 q0 -10 -3 -20t-10.5 -23t-24 -21t-40.5 -8q-41 0 -140 79t-175 185q-67 95 -115.5 229.5t-48.5 297.5z" />
<glyph unicode=")" d="M172 -92q0 26 10.5 39.5t40.5 34.5q94 64 163 147t105.5 170.5t53 168t16.5 159.5q0 48 -5.5 97t-26.5 126.5t-56.5 146.5t-103 146.5t-158.5 138.5q-39 26 -39 64q0 23 18.5 47t59.5 24t140 -79t175 -185q67 -96 115.5 -229.5t48.5 -296.5q0 -107 -23.5 -208t-61 -178 t-85 -144.5t-96 -114.5t-93 -80.5t-75.5 -49.5t-45 -16q-41 0 -59.5 24.5t-18.5 47.5z" />
<glyph unicode="*" d="M133 442q0 32 15 48.5t45 31.5l188 105l-191 104q-29 14 -43 30t-14 48q0 30 23.5 56t58.5 26q20 0 55 -21l189 -110l-4 213q0 8 0.5 14.5t3 19.5t8 23t14 20t23 15.5t33.5 5.5q81 0 81 -98l-4 -213l226 131q28 0 48.5 -8t30 -18t15 -24t6 -20t0.5 -12q0 -31 -15.5 -48 t-43.5 -32l-189 -104q20 -11 69 -36t87 -45.5t57 -33.5q35 -26 35 -68q0 -30 -23.5 -56t-58.5 -26q-15 0 -28.5 5.5t-53.5 29.5l-162 97l4 -213q0 -99 -81 -99q-28 0 -46.5 12t-25 31t-8.5 31t-2 25l4 213l-226 -132q-28 0 -48.5 8t-30 18t-15 24t-6 20t-0.5 12z" />
<glyph unicode="+" d="M74 627q0 86 110 86h267v268q0 111 86 111t86 -111v-268h266q110 0 110 -86t-110 -86h-266v-269q0 -110 -86 -110t-86 110v269h-267q-110 0 -110 86z" />
<glyph unicode="," d="M356 -197q0 54 68 70q66 26 99 71q19 27 30 58q-6 -2 -16 -2q-58 0 -99 39t-41 102q0 57 38.5 98.5t103.5 41.5q75 0 128.5 -59.5t53.5 -155.5q0 -66 -23 -124t-57.5 -96.5t-74.5 -67t-74 -41.5t-56 -13q-30 0 -55 25t-25 54z" />
<glyph unicode="-" d="M109 627q0 86 110 86h635q111 0 111 -86t-111 -86h-635q-110 0 -110 86z" />
<glyph unicode="." d="M397 141q0 55 40 97.5t102 42.5q56 0 97.5 -40.5t41.5 -101.5q0 -55 -39.5 -97t-101.5 -42q-56 0 -98 40.5t-42 100.5z" />
<glyph unicode="/" d="M113 -80q0 13 18 55l660 1377q7 19 15 31.5t25.5 23t42.5 10.5q36 0 61.5 -26t25.5 -60q0 -11 -19 -55l-659 -1376q-12 -30 -30 -48t-54 -18t-61 26t-25 60z" />
<glyph unicode="0" d="M98 627q0 182 62 332t162.5 232.5t214.5 82.5q84 0 163.5 -48t140 -132t97.5 -206.5t37 -262.5q0 -137 -36.5 -259t-96.5 -206.5t-140 -133.5t-165 -49q-84 0 -163.5 48.5t-140.5 132.5t-98 207t-37 262zM266 647q0 -214 79.5 -365t191.5 -151t191 151t79 365 q0 204 -81 338.5t-189 134.5q-109 0 -190 -134t-81 -339z" />
<glyph unicode="1" d="M209 952q0 32 15 50t31.5 22.5t41.5 5.5q18 2 37.5 9t49.5 25t61 57.5t55 95.5q11 27 27 42t48 15q25 0 42 -9t23.5 -26t8.5 -30.5t2 -32.5v-1022h166q20 0 32 -2t28.5 -8.5t25 -23.5t8.5 -44q0 -21 -6.5 -36t-15.5 -22.5t-23.5 -12t-24 -5t-24.5 -0.5h-502 q-19 0 -31.5 1.5t-29.5 8t-26 23.5t-9 43q0 22 6.5 37.5t15.5 23t24 12t25 5t25 0.5h166v792q-96 -69 -192 -69q-80 0 -80 75z" />
<glyph unicode="2" d="M102 78q0 24 8 37t27 28l441 373q107 86 166 171.5t59 180.5q0 118 -89 185t-214 67q-73 0 -131.5 -36.5t-81.5 -96.5q24 -31 24 -69q0 -47 -32 -76t-72 -29q-38 0 -71.5 26.5t-33.5 84.5q0 139 115 244.5t293 105.5q195 0 328 -112t133 -294q0 -214 -221 -411 q-44 -39 -178.5 -149.5t-184.5 -153.5h416q0 49 16 71.5t70 22.5q24 0 40 -6.5t24 -14t12.5 -23t5 -25.5t0.5 -29v-52q0 -59 -18 -78.5t-76 -19.5h-678q-20 0 -32.5 2t-29.5 8.5t-26 23.5t-9 44z" />
<glyph unicode="3" d="M86 287q0 54 30.5 82t73.5 28q44 0 74.5 -30.5t30.5 -73.5q0 -39 -21 -64q37 -53 115 -75.5t152 -22.5q122 0 199 70t77 161t-75.5 162.5t-206.5 71.5h-93q-15 0 -25 0.5t-25 5t-24 12t-15.5 23t-6.5 37.5q0 50 31.5 66t128.5 16q56 0 94.5 11t81.5 46q37 30 57.5 74 t20.5 88q0 62 -62.5 103.5t-156.5 41.5q-140 0 -201 -49q12 -24 12 -51q0 -47 -31.5 -77t-70.5 -30q-41 0 -74 28.5t-33 82.5q0 110 105.5 180t290.5 70q174 0 282.5 -88t108.5 -209q0 -82 -39.5 -159.5t-112.5 -133.5q95 -51 152 -135.5t57 -186.5q0 -73 -32 -142 t-88.5 -123t-141.5 -87t-184 -33q-195 0 -325 87t-130 223z" />
<glyph unicode="4" d="M55 432q0 34 3 46.5t18 33.5l454 715q23 33 40 41t59 8h55q61 0 79.5 -19.5t18.5 -78.5v-686h140q15 0 25 -0.5t25 -5t24 -12t15.5 -23t6.5 -37.5q0 -26 -9 -43t-26 -23.5t-29.5 -8t-31.5 -1.5h-140v-184h107q20 0 33 -2t29.5 -8.5t25 -23.5t8.5 -44q0 -26 -9 -43 t-26 -23.5t-29.5 -8t-31.5 -1.5h-359q-19 0 -31.5 1.5t-29.5 8t-26 23.5t-9 43q0 22 6.5 37.5t15.5 23t24 12t25 5t25 0.5h109v184h-487q-57 0 -77 18.5t-20 75.5zM238 492h397v624z" />
<glyph unicode="5" d="M102 299q0 61 34 87t71 26q40 0 72 -29.5t32 -77.5q0 -39 -22 -65q25 -43 71 -69.5t81 -33t67 -6.5q122 0 208.5 76t86.5 188q0 99 -65 179.5t-173 80.5q-158 0 -239 -94q-15 -21 -28.5 -29t-43.5 -8q-22 0 -38 6.5t-24 15.5t-12.5 24t-5 25.5t-0.5 27.5v530 q0 59 18 78.5t76 19.5h539q20 0 32 -1.5t28.5 -8t25 -23.5t8.5 -44q0 -26 -9 -43t-25.5 -23.5t-29 -8t-30.5 -1.5h-465v-338q103 49 225 49q89 0 166 -35.5t128 -93.5t80.5 -132.5t29.5 -152.5q0 -173 -134.5 -295.5t-328.5 -122.5q-172 0 -289 95.5t-117 226.5z" />
<glyph unicode="6" d="M104 612q0 150 47 277t125 210t175.5 129t201.5 46q74 0 131 -20t89 -53t47.5 -70.5t15.5 -77.5q0 -52 -30.5 -81.5t-76.5 -29.5q-45 0 -73.5 30.5t-28.5 74.5q0 37 12 55q-32 18 -86 18q-127 0 -234.5 -106.5t-135.5 -284.5q117 92 276 92q171 0 290.5 -122t119.5 -298 q0 -121 -60 -219.5t-157.5 -151.5t-210.5 -53q-64 0 -123.5 18.5t-117.5 65t-100.5 117t-69 182t-26.5 252.5zM293 459q0 -68 16 -119q30 -94 87.5 -151.5t144.5 -57.5q105 0 182.5 76t77.5 194q0 108 -70.5 186.5t-181.5 78.5q-106 0 -181 -60t-75 -147z" />
<glyph unicode="7" d="M86 1102v84q0 22 2 35t9 30t25.5 25t47.5 8q55 0 74 -33h647q21 0 33.5 -1.5t29 -8t25 -23.5t8.5 -44q0 -25 -7.5 -37.5t-41.5 -42.5q-46 -45 -91.5 -97.5t-109 -151t-111 -205t-82.5 -257t-38 -309.5q0 -49 -24 -73t-60 -24q-84 0 -84 111q0 73 8.5 153.5t35 190.5 t68 215.5t113.5 226t166 224.5h-473q-2 -50 -18 -72t-68 -22q-29 0 -47.5 8t-25.5 24.5t-9 29.5t-2 36z" />
<glyph unicode="8" d="M86 362q0 103 69.5 186.5t176.5 125.5q-104 43 -161.5 112.5t-57.5 151.5q0 131 121.5 233.5t302.5 102.5q180 0 302 -102t122 -234q0 -82 -57.5 -151t-162.5 -113q107 -42 176.5 -125.5t69.5 -186.5q0 -100 -57 -188t-161.5 -142.5t-231.5 -54.5q-191 0 -321 115.5 t-130 269.5zM256 365q0 -97 82 -165.5t199 -68.5t198.5 68.5t81.5 165.5q0 91 -78 161t-202 70t-202.5 -70t-78.5 -161zM283 936q0 -77 76 -131.5t178 -54.5q103 0 178.5 54t75.5 132q0 74 -73.5 129t-180.5 55q-108 0 -181 -55t-73 -129z" />
<glyph unicode="9" d="M104 850q0 122 62 220.5t162 151t215 52.5q62 0 119.5 -18t114.5 -63.5t98.5 -115t67.5 -182.5t26 -256q0 -148 -44 -274t-117 -210t-168 -131t-196 -47q-65 0 -116.5 11.5t-83.5 31.5t-54.5 42.5t-33 49t-15 47t-4.5 40.5q0 52 30.5 81t76.5 29q45 0 73.5 -30t28.5 -74 q0 -34 -10 -51q45 -23 108 -23q128 0 226 112t123 279q-120 -92 -279 -92q-171 0 -290.5 122t-119.5 298zM272 850q0 -108 70.5 -186t181.5 -78q112 0 185 63t73 144q0 55 -14 110.5t-42 105t-75.5 80.5t-107.5 31q-107 0 -189 -76t-82 -194z" />
<glyph unicode=":" d="M397 141q0 55 40 97.5t102 42.5q56 0 97.5 -40.5t41.5 -101.5q0 -55 -39.5 -97t-101.5 -42q-56 0 -98 40.5t-42 100.5zM397 752q0 55 40 98t102 43q56 0 97.5 -41t41.5 -102q0 -55 -39.5 -97.5t-101.5 -42.5q-56 0 -98 41t-42 101z" />
<glyph unicode=";" d="M356 -197q0 41 50 66q89 46 118 131q-65 7 -96 49t-31 92q0 59 39.5 99.5t100.5 40.5q65 0 108 -54.5t43 -156.5q0 -82 -32.5 -152.5t-76.5 -110t-83 -61.5t-60 -22q-32 0 -56 24.5t-24 54.5zM397 752q0 55 40 98t102 43q56 0 97.5 -41t41.5 -102q0 -55 -39.5 -97.5 t-101.5 -42.5q-56 0 -98 41t-42 101z" />
<glyph unicode="&#x3c;" d="M109 627q0 48 53 80l655 411q23 16 33 19.5t29 3.5q32 0 59 -22.5t27 -61.5q0 -21 -10 -38t-19.5 -25t-26.5 -19l-553 -348l553 -348q17 -11 26.5 -19t19.5 -25t10 -38q0 -39 -27 -61.5t-59 -22.5q-14 0 -19.5 0.5t-16 5.5t-26.5 16l-663 416q-45 32 -45 76z" />
<glyph unicode="=" d="M74 475q0 86 106 86h713q106 0 106 -86t-116 -86h-693q-116 0 -116 86zM74 778q0 86 116 86h693q116 0 116 -86t-106 -86h-713q-106 0 -106 86z" />
<glyph unicode="&#x3e;" d="M109 197q0 30 15 48t40 34l553 348l-553 348q-16 10 -26 18.5t-19.5 25.5t-9.5 38q0 39 27 61.5t59 22.5q19 0 28.5 -3.5t32.5 -19.5l664 -416q45 -32 45 -75q0 -47 -54 -80l-655 -412q-23 -16 -32.5 -19t-28.5 -3q-32 0 -59 22.5t-27 61.5z" />
<glyph unicode="?" d="M121 1004q0 47 21 90.5t65 83t124 63t185 23.5q110 0 193.5 -20.5t128 -49.5t72 -68.5t35 -68.5t7.5 -58q0 -128 -141 -206q-209 -116 -209 -295v-35q0 -59 -20 -77.5t-76 -18.5q-65 0 -79.5 22.5t-14.5 97.5q0 26 0.5 41.5t7 50.5t17.5 62t34.5 66.5t56.5 73.5t86 74 t119 77q49 29 49 67q0 47 -66 79t-200 32q-141 0 -201 -55q17 -30 17 -56q0 -47 -32.5 -75.5t-72.5 -28.5q-41 0 -73.5 28.5t-32.5 80.5zM389 117q0 47 34 80.5t83 33.5t83 -33.5t34 -80.5q0 -49 -33.5 -83t-83.5 -34t-83.5 34t-33.5 83z" />
<glyph unicode="@" d="M86 627q0 135 44.5 254.5t118 203t171 131.5t201.5 48q58 0 107.5 -17t84.5 -43.5t63.5 -67.5t46 -80.5t30.5 -91t19.5 -90.5t10 -87.5t4 -73t0.5 -56.5q0 -103 -22 -184t-55.5 -129t-76.5 -79t-80 -42.5t-71 -11.5q-120 0 -211.5 118t-91.5 298q0 175 89.5 294 t215.5 119q44 0 94 -20q-53 90 -157 90q-155 0 -273.5 -138.5t-118.5 -346.5q0 -203 117.5 -343.5t276.5 -140.5q111 0 202 82q17 17 28.5 21t41.5 4q92 0 92 -72q0 -23 -31 -55t-79 -61.5t-116.5 -50.5t-135.5 -21q-106 0 -205 49t-172.5 132.5t-117.5 203.5t-44 254z M526 625q0 -108 48 -184t114 -76q62 0 111 75t49 185q0 111 -48.5 186.5t-113.5 75.5q-62 0 -111 -75t-49 -187z" />
<glyph unicode="A" d="M51 76q0 49 43 71q21 7 80 7l240 1034q7 32 17 50t27.5 26t32.5 10t46 2q60 0 84 -15t38 -75l240 -1032q62 0 80 -9q43 -18 43 -69q0 -25 -9.5 -42t-27 -23.5t-31.5 -8.5t-34 -2h-203q-22 0 -35.5 1.5t-31 8.5t-26 23.5t-8.5 42.5q0 48 24.5 62t84.5 16l-39 176h-299 l-39 -176q60 -2 84.5 -16t24.5 -62q0 -26 -8.5 -42.5t-26 -23.5t-31 -8.5t-35.5 -1.5h-202q-20 0 -34 2t-32 8.5t-27.5 23.5t-9.5 42zM424 483h225l-112 533z" />
<glyph unicode="B" d="M43 76q0 27 9 44t26.5 23.5t30 8.5t32.5 2h37v944h-37q-20 0 -32.5 2t-30 8.5t-26.5 23.5t-9 44q0 26 9 42.5t26.5 23t29.5 8t31 1.5h451q84 0 153.5 -29t113.5 -76t67.5 -104t23.5 -116q0 -86 -49 -157.5t-133 -111.5q105 -37 165 -121.5t60 -185.5q0 -63 -23.5 -124 t-67.5 -112t-114 -82.5t-155 -31.5h-492q-14 0 -24 0.5t-24.5 5t-24 12t-16.5 22.5t-7 36zM350 154h238q113 0 174 61t61 137q0 34 -11.5 70.5t-35 71t-67 57t-99.5 22.5h-260v-419zM350 727h189q65 0 114 19.5t75.5 51t39 63.5t12.5 63q0 26 -9.5 53.5t-29.5 56t-61 46.5 t-96 18h-234v-371z" />
<glyph unicode="C" d="M78 627q0 137 40.5 258t108 206t158.5 134t190 49q137 0 254 -88q20 43 21 45q29 43 70 43q26 0 42.5 -9t23 -26.5t8 -30t1.5 -32.5v-277q0 -24 -2 -37t-9.5 -29.5t-26 -24t-48.5 -7.5q-26 0 -42.5 5.5t-25 19t-11.5 23t-7 30.5q-18 113 -85 177t-156 64 q-132 0 -233 -142t-101 -351q0 -211 101 -353.5t235 -142.5q26 0 54 6t61 22t59 40.5t45 66t22 94.5q6 72 84 72q12 0 19.5 -0.5t22 -4.5t22.5 -12t15 -24t7 -39q0 -70 -32 -138t-87 -120.5t-134 -84.5t-167 -32q-99 0 -190 49.5t-158.5 134.5t-108 207t-40.5 259z" />
<glyph unicode="D" d="M35 76q0 27 9 44t26.5 23.5t30 8.5t32.5 2h29v944h-29q-19 0 -32 1.5t-30 8t-26.5 23.5t-9.5 43q0 27 9 44t26.5 23.5t30 8t32.5 1.5h412q132 0 237 -90.5t160 -234.5t55 -310q0 -165 -56.5 -305.5t-161 -225.5t-234.5 -85h-412q-19 0 -32 1.5t-30 8t-26.5 23.5t-9.5 43z M332 154h176q77 0 139.5 40t101.5 106.5t59.5 148t20.5 167.5t-20 169.5t-58.5 154.5t-101.5 114.5t-141 43.5h-176v-944z" />
<glyph unicode="E" d="M49 76q0 27 9 44t26.5 23.5t30 8.5t32.5 2h43v944h-43q-19 0 -32 2t-30 8.5t-26.5 23.5t-9.5 44q0 21 7 36t16.5 22.5t24.5 11.5t25 4.5t25 0.5h746q58 0 76 -20t18 -78v-145q0 -24 -1.5 -36.5t-9 -29.5t-26 -25t-49.5 -8q-29 0 -47.5 8.5t-25.5 25t-9 30t-2 35.5v90 h-457v-373h230q2 66 17 89.5t69 23.5q29 0 47.5 -8t25.5 -24.5t9 -29.5t2 -35v-186q0 -23 -2 -36t-9 -29.5t-25.5 -24.5t-47.5 -8q-54 0 -69 23t-17 91h-230v-417h502v120q0 24 2 37t9.5 30t26 24.5t48.5 7.5q29 0 47.5 -8t25.5 -25t9 -30t2 -36v-176q0 -59 -19 -78.5 t-77 -19.5h-789q-19 0 -32 1.5t-30 8t-26.5 23.5t-9.5 43z" />
<glyph unicode="F" d="M53 76q0 22 7 37.5t16 23t24.5 12t26 5t25.5 0.5h49v944h-49q-19 0 -32 1.5t-30.5 8t-27 23.5t-9.5 43q0 22 7 37t16 23t24.5 12t25.5 4.5t26 0.5h759q60 0 78.5 -20.5t18.5 -77.5v-145q0 -23 -2 -36t-9.5 -30t-26 -25t-48.5 -8q-29 0 -47.5 8.5t-25.5 25t-9 30t-2 35.5 v90h-467v-396h239q0 68 15 91.5t71 23.5q29 0 47.5 -8t25.5 -25t9 -30t2 -35v-187q0 -22 -2 -35t-9 -30t-25.5 -25t-47.5 -8q-56 0 -71 23.5t-15 91.5h-239v-395h88q15 0 25 -0.5t25 -5t24 -12t15.5 -23t6.5 -37.5q0 -26 -9 -43t-26 -23.5t-29.5 -8t-31.5 -1.5h-307 q-19 0 -32 1.5t-30.5 8t-27 23.5t-9.5 43z" />
<glyph unicode="G" d="M74 627q0 181 64 330.5t169.5 233t227.5 83.5q124 0 227 -80q23 47 40 63.5t48 16.5q21 0 36 -7t22.5 -16t12 -24t5 -25.5t0.5 -25.5v-277q0 -24 -2 -37t-9.5 -29.5t-26 -24t-48.5 -7.5q-44 0 -61.5 17.5t-22.5 53.5q-11 72 -36.5 124t-57.5 77t-61.5 36t-57.5 11 q-118 0 -208.5 -141t-90.5 -354q0 -208 89 -351t208 -143q78 0 134.5 71.5t74.5 215.5h-66q-15 0 -25 0.5t-25 5t-24 12t-15.5 23t-6.5 37.5q0 25 9 41.5t26 23t30 8.5t31 2h238q19 0 32 -2t30 -8.5t26.5 -23t9.5 -41.5q0 -47 -24.5 -62.5t-69.5 -15.5v-320q0 -23 -2 -36 t-9 -29.5t-25.5 -24.5t-47.5 -8q-44 0 -62.5 16t-21.5 47q-94 -86 -223 -86q-91 0 -175 49t-147 134t-101 207t-38 260z" />
<glyph unicode="H" d="M41 76q0 22 6.5 37.5t15.5 23t24 12t25 5t25 0.5h35v944h-35q-19 0 -31.5 1.5t-29.5 8t-26 23.5t-9 43q0 22 6.5 37t15.5 23t24 12t24.5 4.5t25.5 0.5h238q16 0 25.5 -0.5t24.5 -4.5t24 -12t15.5 -23t6.5 -37q0 -26 -9 -43t-26 -23.5t-29.5 -8t-31.5 -1.5h-33v-371h389 v371h-33q-15 0 -25 0.5t-25 5t-24 12t-15.5 23t-6.5 37.5q0 26 9 42.5t26 23t29.5 8t31.5 1.5h238q16 0 25.5 -0.5t24.5 -4.5t24 -12t15.5 -23t6.5 -37q0 -26 -9 -43t-26 -23.5t-29.5 -8t-31.5 -1.5h-35v-944h35q15 0 25 -0.5t25 -5t24 -12t15.5 -23t6.5 -37.5q0 -26 -9 -43 t-26 -23.5t-29.5 -8t-31.5 -1.5h-238q-15 0 -25 0.5t-25 5t-24 12t-15.5 23t-6.5 37.5q0 26 9 43t26 23.5t29.5 8t31.5 1.5h33v419h-389v-419h33q15 0 25 -0.5t25 -5t24 -12t15.5 -23t6.5 -37.5q0 -26 -9 -43t-26 -23.5t-29.5 -8t-31.5 -1.5h-238q-19 0 -31.5 1.5t-29.5 8 t-26 23.5t-9 43z" />
<glyph unicode="I" d="M156 78q0 26 9.5 43t26.5 23.5t30 8t32 1.5h199v944h-199q-19 0 -32 2t-30 8.5t-26.5 23.5t-9.5 44q0 21 7 36t16.5 22.5t24.5 11.5t25 4.5t25 0.5h567q20 0 32.5 -1.5t30 -8t27 -23.5t9.5 -44q0 -26 -9.5 -43t-27 -23.5t-30.5 -8t-32 -1.5h-198v-944h198q19 0 32 -2 t30.5 -8.5t27 -23.5t9.5 -44q0 -26 -9.5 -43t-27 -23.5t-30.5 -8t-32 -1.5h-567q-19 0 -32 2t-30 8.5t-26.5 23.5t-9.5 44z" />
<glyph unicode="J" d="M139 213q0 54 31.5 82.5t75.5 28.5t74 -31t30 -74q0 -32 -10 -49q53 -39 147 -39q16 0 33.5 2t47 11.5t51.5 25.5t38.5 48.5t16.5 76.5v803h-150q-14 0 -24 0.5t-24.5 5t-24 12t-16.5 23t-7 37.5q0 26 9 42.5t26.5 23t29.5 8t31 1.5h363q15 0 25 -0.5t25 -4.5t24.5 -11.5 t16.5 -22.5t7 -36q0 -27 -9 -44t-26.5 -23.5t-30 -8.5t-32.5 -2h-45v-815q0 -137 -104.5 -221.5t-250.5 -84.5q-156 0 -252 67t-96 169z" />
<glyph unicode="K" d="M49 78q0 26 9.5 43t26.5 23.5t30 8t32 1.5h29v944h-29q-20 0 -32.5 2t-30 8.5t-26.5 23.5t-9 44q0 21 7 36t16.5 22.5t24.5 11.5t25 4.5t25 0.5h199q20 0 32.5 -1.5t30 -8t26.5 -23.5t9 -44q0 -26 -9.5 -43t-26.5 -23.5t-30 -8t-32 -1.5h-27v-469l373 471q-65 8 -65 74 q0 22 7 37t16 23t24.5 12t25.5 4.5t25 0.5h174q19 0 31 -1.5t30 -8t27.5 -23t9.5 -42.5q0 -49 -27.5 -63.5t-92.5 -14.5l-293 -369l323 -575q56 0 83.5 -15t27.5 -63q0 -26 -9.5 -43t-26.5 -23.5t-30 -8t-32 -1.5h-150q-20 0 -32.5 2t-30 8.5t-26.5 23.5t-9 44q0 70 69 74 l-256 456l-166 -211v-243h27q20 0 32.5 -2t30 -8.5t26.5 -23.5t9 -44q0 -26 -9.5 -43t-26.5 -23.5t-30 -8t-32 -1.5h-199q-20 0 -32.5 2t-30 8.5t-26.5 23.5t-9 44z" />
<glyph unicode="L" d="M61 76q0 27 9 44t26 23.5t29.5 8.5t32.5 2h57v944h-57q-15 0 -25 0.5t-25 5t-24 12t-16 22.5t-7 36q0 27 9 44t26 23.5t29.5 8t32.5 1.5h323q19 0 31 -1.5t29.5 -8t27 -23.5t9.5 -44q0 -76 -97 -76h-96v-944h449v120q0 24 2 37.5t9.5 30t26 24t48.5 7.5q24 0 40.5 -6 t25 -14t12.5 -23.5t5 -26t1 -29.5v-176q0 -59 -19 -78.5t-78 -19.5h-749q-15 0 -25 0.5t-25 5t-24 12t-16 22.5t-7 36z" />
<glyph unicode="M" d="M31 76q0 47 25.5 62.5t80.5 15.5v944q-55 0 -80.5 15.5t-25.5 62.5q0 26 9 42.5t26 23t29.5 8.5t31.5 1h113q86 0 112 -57l185 -578l174 545q17 51 39 70.5t84 19.5h112q19 0 31.5 -1.5t29.5 -8t26 -23t9 -42.5q0 -47 -25.5 -62.5t-80.5 -15.5v-944q55 0 80.5 -15 t25.5 -63q0 -26 -9 -43t-26 -23.5t-29.5 -8t-31.5 -1.5h-164q-19 0 -31.5 1.5t-29.5 8t-26 23.5t-9 43q0 47 25.5 62.5t81.5 15.5v835l-172 -528q-13 -25 -36.5 -39t-47.5 -14q-48 0 -74 38l-180 543v-835q53 0 78.5 -15t25.5 -63q0 -26 -9 -43t-26 -23.5t-29.5 -8 t-31.5 -1.5h-164q-19 0 -31.5 1.5t-29.5 8t-26 23.5t-9 43z" />
<glyph unicode="N" d="M53 78q0 21 7 36t16 22.5t24 12t25 5t25 0.5h34v944h-34q-20 0 -32.5 2t-29.5 8.5t-26 23.5t-9 44q0 26 9 42.5t26.5 23t30 8t31.5 1.5h135q51 0 77.5 -15t45.5 -67l337 -915v844h-32q-15 0 -25 0.5t-25 5t-24 12t-16 22.5t-7 36q0 27 9 44t26 23.5t29.5 8t32.5 1.5h211 q16 0 25.5 -0.5t24.5 -4.5t24 -12t15.5 -23t6.5 -37q0 -26 -9 -43t-26 -23.5t-29.5 -8t-31.5 -1.5h-35v-1000q0 -64 -20 -81t-78 -17q-27 0 -41 1.5t-31.5 9t-29.5 25t-23 46.5l-338 915v-843h32q20 0 32.5 -2t29.5 -8.5t26 -23.5t9 -44q0 -21 -7 -36t-16 -22.5t-24 -12 t-25 -5t-25 -0.5h-210q-20 0 -32.5 2t-29.5 8.5t-26 23.5t-9 44z" />
<glyph unicode="O" d="M109 625q0 119 2.5 199.5t11.5 153t20.5 115.5t37 79.5t53 54t76.5 29.5t99 15t128 3t128.5 -3t99 -15.5t76 -29.5t53 -54t37 -80t20.5 -115.5t11.5 -152.5t2.5 -199t-2.5 -199t-11.5 -152t-21 -115.5t-37.5 -80t-53 -53.5t-76 -29.5t-98.5 -15.5t-128 -3t-128.5 3 t-99 15.5t-76 29.5t-53 53.5t-37 79.5t-20.5 115.5t-11.5 152.5t-2.5 199zM279 643q0 -287 24 -381q18 -73 66.5 -102t167.5 -29q122 0 171 30.5t64 110.5q23 106 23 371q0 269 -25 361q-19 72 -69.5 94t-163.5 22q-120 0 -169.5 -27.5t-70.5 -117.5q-18 -90 -18 -332z" />
<glyph unicode="P" d="M49 76q0 27 9 44t26.5 23.5t30 8.5t32.5 2h43v944h-43q-19 0 -32 2t-30 8.5t-26.5 23.5t-9.5 44q0 21 7 36t16.5 22.5t24.5 11.5t25 4.5t25 0.5h447q116 0 207.5 -55.5t138.5 -141.5t47 -184q0 -73 -28 -141.5t-77.5 -122t-124.5 -85.5t-163 -32h-234v-335h43q19 0 32 -2 t30.5 -8.5t27 -23.5t9.5 -44q0 -26 -9.5 -43t-27 -23.5t-30.5 -8t-32 -1.5h-256q-19 0 -32 1.5t-30 8t-26.5 23.5t-9.5 43zM362 643h195q64 0 116 21t83 55t47 73t16 78q0 38 -16 77t-47 73.5t-83 56t-116 21.5h-195v-455z" />
<glyph unicode="Q" d="M109 625q0 119 2.5 199.5t11.5 153t20.5 115.5t37 79.5t53 54t76.5 29.5t99 15t128 3t128.5 -3t99 -15.5t76 -29.5t53 -54t37 -80t20.5 -115.5t11.5 -152.5t2.5 -199q0 -218 -13 -336q-13 -120 -44 -182t-91 -91l57 -104q64 -131 64 -135q0 -33 -21.5 -43t-58.5 -10h-18 q-35 0 -52.5 5t-31.5 25l-117 226l-102 -3q-78 0 -128.5 3t-99 15.5t-76 29.5t-53 53.5t-37 79.5t-20.5 115.5t-11.5 152.5t-2.5 199zM279 625q0 -242 18 -342q10 -54 29 -85t66 -49t128 -18h39l-80 154q-10 18 -10 34q0 33 22 43.5t58 10.5h22q36 0 46.5 -5.5t27.5 -33.5 l86 -158q21 17 33.5 50t21.5 132t9 269q0 236 -19 342q-15 90 -64 120.5t-175 30.5q-125 0 -172 -29t-66 -108q-20 -94 -20 -358z" />
<glyph unicode="R" d="M43 76q0 27 8.5 44t25 23.5t28.5 8.5t32 2h35v944h-35q-15 0 -24.5 0.5t-24 5t-23.5 12t-15.5 22.5t-6.5 36q0 27 8.5 44t25 23.5t28.5 8t32 1.5h355q178 0 290.5 -105.5t112.5 -246.5q0 -71 -38 -148t-122 -130q62 -53 86 -113q13 -36 16 -66.5t3 -128.5v-47.5 t1.5 -41.5t4 -39t6.5 -27.5t11.5 -20.5t17.5 -6q20 0 20 49q0 35 9 57.5t25 31t26.5 10.5t25.5 2t25 -1.5t26 -8t24.5 -24.5t8.5 -46q0 -33 -11 -70t-32 -72.5t-59 -58.5t-86 -23q-115 0 -172 101q-27 46 -33 95.5t-6 166.5q0 48 -1.5 69.5t-10 46t-27.5 42.5 q-59 51 -152 51h-139v-395h33q15 0 25 -0.5t25 -5t24 -12t15.5 -23t6.5 -37.5q0 -26 -9 -43t-26 -23.5t-29.5 -8t-31.5 -1.5h-238q-15 0 -24.5 0.5t-24 5t-23.5 12t-15.5 22.5t-6.5 36zM340 702h129q119 0 187.5 61t68.5 136q0 76 -68 137.5t-188 61.5h-129v-396z" />
<glyph unicode="S" d="M102 76v264q0 24 1.5 36t8.5 28.5t25.5 24t48.5 7.5q29 0 46.5 -6.5t25 -21t9.5 -25t3 -31.5q7 -108 99 -168q87 -53 213 -53q104 0 166.5 63.5t62.5 143.5q0 46 -17.5 83t-40.5 58t-56.5 36.5t-53.5 21.5t-43 10l-229 55q-126 35 -197.5 127t-71.5 201q0 138 109.5 241 t277.5 103q157 0 271 -82q13 44 30 63t52 19q21 0 36 -7t22.5 -16t12 -24t5 -25.5t0.5 -25.5v-265q0 -22 -2 -35.5t-9.5 -29.5t-26.5 -23.5t-49 -7.5q-38 0 -57.5 15t-25.5 53q-40 237 -261 237q-97 0 -161 -54.5t-64 -127.5q0 -61 43.5 -107t106.5 -65l159 -37 q132 -31 186 -53t113 -80q20 -20 39.5 -47t40.5 -84t21 -117q0 -70 -27.5 -136.5t-76.5 -118.5t-124 -84t-163 -32q-193 0 -320 82q-14 -45 -31.5 -63.5t-50.5 -18.5q-21 0 -36 7t-22.5 16t-12 24.5t-5 26t-0.5 25.5z" />
<glyph unicode="T" d="M49 1008v145q0 60 19.5 79t78.5 19h781q60 0 78 -20t18 -78v-145q0 -23 -2 -36t-9.5 -30t-26 -25t-48.5 -8q-29 0 -47.5 8.5t-25.5 25t-9 30t-2 35.5v90h-231v-944h88q15 0 25 -0.5t25 -5t24 -12t15.5 -23t6.5 -37.5q0 -26 -9 -43t-26 -23.5t-29.5 -8t-31.5 -1.5h-346 q-20 0 -32.5 2t-29.5 8.5t-26 23.5t-9 44q0 21 7 36t16 22.5t24 12t25 5t25 0.5h88v944h-234v-90q0 -23 -2 -36t-9.5 -30t-26 -25t-48.5 -8q-29 0 -47.5 8.5t-25.5 25t-9 30t-2 35.5z" />
<glyph unicode="U" d="M6 1176q0 21 7 36t16.5 22.5t24.5 11.5t25 4.5t25 0.5h256q20 0 32.5 -1.5t30 -8t27 -23t9.5 -42.5q0 -27 -9.5 -44t-27 -23.5t-30.5 -8.5t-32 -2h-43v-666q0 -140 68 -220.5t152 -80.5q83 0 151 80.5t68 220.5v666h-43q-19 0 -32 2t-30.5 8.5t-27 23.5t-9.5 44 q0 26 9.5 42.5t27 23t30 8t32.5 1.5h256q15 0 25 -0.5t25 -4.5t24.5 -11.5t16.5 -22.5t7 -36q0 -27 -9 -44t-26.5 -23.5t-30 -8.5t-32.5 -2h-43v-674q0 -189 -115.5 -318t-273.5 -129t-274 129t-116 318v674h-43q-19 0 -32 2t-30 8.5t-26.5 23.5t-9.5 44z" />
<glyph unicode="V" d="M33 1176q0 21 7 36t16.5 22.5t24.5 11.5t25 4.5t25 0.5h205q19 0 31 -1.5t29.5 -8t26.5 -23t9 -42.5q0 -46 -24 -61t-82 -17l211 -871l211 871q-58 2 -82.5 17t-24.5 61q0 26 9 42.5t26.5 23t29.5 7.5t31 2h205q15 0 25 -0.5t25 -4.5t24.5 -11.5t16.5 -22.5t7 -36 q0 -49 -27 -63.5t-91 -14.5l-260 -1028q-7 -30 -18.5 -48.5t-30 -26t-33.5 -9.5t-43 -2q-30 0 -45 2t-32.5 10t-28.5 26t-19 50l-260 1026q-64 0 -91.5 14.5t-27.5 63.5z" />
<glyph unicode="W" d="M20 1174q0 27 9.5 44t27 23.5t29.5 8t31 1.5h157q20 0 32.5 -1.5t29.5 -8t26 -23.5t9 -44q0 -21 -7 -36t-16 -22.5t-24 -12t-25 -5t-25 -0.5h-30l104 -834l94 445q25 55 95 55q76 0 96 -57l92 -441l104 832h-30q-15 0 -25 0.5t-25 5t-24 12t-16 22.5t-7 36q0 27 9 44 t26 23.5t29.5 8t32.5 1.5h157q19 0 31 -1.5t29.5 -8t27 -23.5t9.5 -44q0 -71 -78 -76l-141 -1030q-4 -29 -15.5 -48t-28.5 -26t-28 -8.5t-27 -1.5q-77 0 -94 61l-102 481l-109 -491q-26 -51 -92 -51q-13 0 -21 0.5t-22.5 5t-23.5 12.5t-18.5 25t-12.5 41l-142 1030 q-78 5 -78 76z" />
<glyph unicode="X" d="M51 76q0 22 6.5 37.5t15.5 23t24 12t25 5t25 0.5h35l256 510l-231 434h-35q-19 0 -32 2t-30 8.5t-26.5 23.5t-9.5 44q0 21 7 36t16.5 22.5t24.5 11.5t25 4.5t25 0.5h207q19 0 31.5 -1.5t29.5 -8t26 -23t9 -42.5q0 -42 -20.5 -58t-55.5 -20l127 -240l117 240 q-39 2 -60.5 18.5t-21.5 59.5q0 26 9 42.5t26 23t29 8t30 1.5h209q20 0 32.5 -1.5t30 -8t27 -23.5t9.5 -44q0 -26 -9.5 -43t-27 -23.5t-30.5 -8t-32 -1.5h-35l-217 -430l273 -514h37q19 0 32 -2t30 -8.5t26.5 -23.5t9.5 -44q0 -26 -9.5 -43t-26.5 -23.5t-30 -8t-32 -1.5 h-207q-15 0 -25 0.5t-25 5t-24 12t-16 22.5t-7 36q0 44 20.5 60t59.5 18l-172 335l-157 -335q39 -2 61.5 -18.5t22.5 -59.5q0 -26 -9.5 -43t-27 -23.5t-30.5 -8t-32 -1.5h-207q-19 0 -31.5 1.5t-29.5 8t-26 23.5t-9 43z" />
<glyph unicode="Y" d="M35 1176q0 26 9 42.5t26 23t29.5 8t31.5 1.5h209q18 0 30 -1.5t29 -8t26 -23t9 -42.5q0 -43 -21.5 -59.5t-60.5 -18.5l187 -416l182 416q-39 2 -60.5 18.5t-21.5 59.5q0 26 9 42.5t26 23t29 8t30 1.5h209q16 0 25.5 -0.5t24.5 -4.5t24 -12t15.5 -23t6.5 -37q0 -26 -9 -43 t-26 -23.5t-29.5 -8t-31.5 -1.5h-33l-286 -598v-346h32q20 0 33 -2t30 -8.5t25.5 -23.5t8.5 -44q0 -21 -7 -36t-16 -22.5t-24 -12t-25 -5t-25 -0.5h-235q-20 0 -33 2t-29.5 8.5t-25 23.5t-8.5 44q0 26 9 43t26 23.5t29.5 8t31.5 1.5h33v346l-289 598h-33q-15 0 -25 0.5 t-25 5t-24 12t-15.5 23t-6.5 37.5z" />
<glyph unicode="Z" d="M94 84q0 37 23 70l639 944h-469v-90q0 -24 -1.5 -36.5t-9 -29.5t-26 -25t-49.5 -8q-29 0 -47.5 8.5t-25.5 25t-9 30t-2 35.5v145q0 60 19.5 79t78.5 19h668q22 0 35 -2t29 -9t24 -25.5t8 -47.5q0 -36 -23 -69l-639 -944h502v127q0 24 2 37t9.5 29.5t26 24t48.5 7.5 q29 0 47.5 -8t25.5 -24.5t9 -29.5t2 -36v-183q0 -59 -18.5 -78.5t-77.5 -19.5h-703q-22 0 -35 2t-29 9t-24 25.5t-8 47.5z" />
<glyph unicode="[" d="M446 -68v1387q0 58 18.5 78t76.5 20h362q20 0 32 -2t28.5 -8.5t25 -23.5t8.5 -44q0 -26 -8.5 -42.5t-25.5 -23t-29 -8t-31 -1.5h-289v-1276h289q20 0 32 -2t28.5 -8.5t25 -23.5t8.5 -44q0 -21 -6.5 -36t-15.5 -22.5t-23.5 -12t-24 -5t-24.5 -0.5h-362q-58 0 -76.5 20.5 t-18.5 77.5z" />
<glyph unicode="\" d="M113 1331q0 34 25 60t61 26q59 0 84 -63l661 -1379q17 -40 17 -55q0 -34 -25.5 -60t-61.5 -26q-57 0 -83 64l-662 1378q-16 37 -16 55z" />
<glyph unicode="]" d="M76 -88q0 21 6.5 36t15.5 22.5t23.5 12t24 5t24.5 0.5h289v1276h-289q-20 0 -32 1.5t-28.5 8t-25 23.5t-8.5 44q0 21 6.5 36t15.5 22.5t23.5 12t24 5t24.5 0.5h362q58 0 76.5 -20.5t18.5 -77.5v-1387q0 -58 -18.5 -78t-76.5 -20h-362q-20 0 -32 2t-28.5 8.5t-25 23.5 t-8.5 44z" />
<glyph unicode="^" d="M142 1069.5q9 29.5 40 44.5l326 158q30 13 59 0l326 -158q31 -15 39.5 -44.5t-4.5 -54t-37.5 -39t-59.5 0.5l-294 127l-295 -127q-34 -15 -58 -0.5t-37.5 39t-4.5 54z" />
<glyph unicode="_" d="M109 -240q0 86 110 86h635q111 0 111 -86t-111 -86h-635q-110 0 -110 86z" />
<glyph unicode="`" d="M309 1188q0 37 24.5 61.5t61.5 24.5q18 0 45 -12l265 -119q30 -12 44.5 -27.5t14.5 -46.5q0 -13 -6.5 -33t-26.5 -40.5t-49 -20.5q-20 0 -43 10l-264 119q-66 29 -66 84z" />
<glyph unicode="a" d="M109 272q0 143 163 224.5t435 87.5q-4 87 -68 129.5t-170 42.5l-98 -6q-1 -58 -35 -83.5t-70 -25.5q-44 0 -74 28.5t-30 78.5q0 161 305 161q107 0 189.5 -29.5t128.5 -77.5t69 -103t23 -113v-420q32 -12 104 -12q19 0 31.5 -1t29.5 -8t26 -24t9 -43q0 -50 -27.5 -64 t-88.5 -14q-75 0 -130.5 11t-89.5 48q-117 -71 -286 -71q-155 0 -250.5 85t-95.5 199zM276 272q0 -55 53 -93t136 -38q102 0 172 33q24 11 39 23.5t20.5 28.5t7 27t1.5 30v151q-199 -7 -314 -50.5t-115 -111.5z" />
<glyph unicode="b" d="M20 1174q0 22 7 37t16 23t24.5 12t25.5 4.5t26 0.5h145q60 0 78 -20t18 -78v-328q108 78 238 78q166 0 286 -133.5t120 -323.5q0 -96 -35.5 -182t-94.5 -146t-137 -95t-162 -35q-120 0 -217 82q-2 -34 -20 -52t-62 -18q-30 0 -48.5 7.5t-26 24t-9.5 29.5t-2 37v1000h-73 q-18 0 -30.5 2t-30 8t-27 23t-9.5 43zM362 397q0 -36 13 -78.5t37 -83t66 -67.5t93 -27q104 0 184.5 87t80.5 218q0 124 -72.5 214t-175.5 90q-88 0 -157 -62t-69 -145v-146z" />
<glyph unicode="c" d="M143 446q0 58 15.5 118.5t52 123t90 111t137 79.5t185.5 31q313 0 313 -161q0 -49 -31 -78t-76 -29t-73 27.5t-29 85.5l-104 2q-73 0 -130 -24t-90 -58.5t-54.5 -79t-28.5 -80.5t-7 -68q0 -128 88 -216.5t209 -88.5q46 0 81.5 13t56 34t30 35.5t15.5 28.5q12 34 30 43.5 t51 9.5q10 0 20.5 -1.5t27.5 -7.5t28 -22.5t11 -40.5q0 -14 -9 -39.5t-35 -62t-64 -67.5t-105 -53.5t-150 -22.5q-127 0 -232 62.5t-164 167.5t-59 228z" />
<glyph unicode="d" d="M70 444q0 194 127 326.5t299 132.5q120 0 217 -72v267h-74q-14 0 -24 0.5t-24.5 5t-24 12t-16.5 22.5t-7 36q0 27 9 44t26.5 23.5t30 8t32.5 1.5h145q60 0 78.5 -20.5t18.5 -77.5v-999h73q18 0 30.5 -2t30 -8t27 -23t9.5 -43q0 -22 -7 -37.5t-16 -23t-24.5 -12t-26 -5 t-25.5 -0.5h-145q-57 0 -75 17t-21 63q-103 -92 -236 -92q-166 0 -286.5 133t-120.5 323zM238 444q0 -126 72 -214.5t173 -88.5q67 0 121.5 44.5t80.5 103.5t26 114v142q0 79 -61 142t-148 63q-104 0 -184 -87t-80 -219z" />
<glyph unicode="e" d="M106 449q0 190 131 325t316 135q98 0 175.5 -35t126.5 -95.5t75 -139t26 -168.5q0 -32 -7 -51.5t-23 -27.5t-28.5 -9.5t-37.5 -1.5h-575q27 -110 115.5 -175t195.5 -65q23 0 46.5 4.5t52.5 15.5t54 34.5t39 56.5q13 33 30 43t52 10q10 0 20 -1.5t27.5 -7.5t28 -22.5 t10.5 -40.5q0 -18 -11.5 -46t-40.5 -63t-69.5 -65t-107 -50.5t-145.5 -20.5q-130 0 -240 62.5t-173 168.5t-63 230zM287 532h493q-8 64 -31.5 109.5t-56 69.5t-67 34.5t-72.5 10.5q-94 0 -167.5 -63t-98.5 -161z" />
<glyph unicode="f" d="M80 78q0 26 9.5 43t26.5 23.5t30 8t32 1.5h187v585h-187q-19 0 -31.5 1.5t-29.5 8t-26 23.5t-9 43t9 43t26 24t30.5 9t32.5 2h185v88q0 88 47.5 154t120.5 97.5t159 31.5q14 0 29 -1t41.5 -5t48.5 -13t43.5 -23t34 -38.5t12.5 -55.5q0 -48 -31.5 -76t-70.5 -28 q-43 0 -67.5 27.5t-33.5 58.5q-166 0 -166 -139v-78h230q20 0 32 -2t28.5 -8.5t25 -23.5t8.5 -44q0 -26 -9 -43t-25.5 -23.5t-29 -8t-30.5 -1.5h-230v-585h187q19 0 32 -2t30 -8.5t26.5 -23.5t9.5 -44q0 -26 -9.5 -43t-26.5 -23.5t-30 -8t-32 -1.5h-541q-19 0 -32 2t-30 8.5 t-26.5 23.5t-9.5 44z" />
<glyph unicode="g" d="M55 -147q0 18 3 37.5t14.5 59t43.5 80.5t81 74q-39 63 -39 140q0 74 37 135q-62 82 -62 190q0 136 100 235t246 99q105 0 193 -55q97 65 213 65q82 0 122 -38t40 -84q0 -48 -30.5 -73.5t-66.5 -25.5q-23 0 -50.5 16.5t-39.5 51.5q-43 -8 -82 -25q47 -80 47 -166 q0 -140 -101 -239t-245 -99q-92 0 -170 43q-6 -21 -6 -32q3 -39 21 -62q11 -13 26.5 -19.5t24.5 -7.5t32 0t27 1h141q181 0 297 -60q74 -40 110 -107.5t36 -133.5q0 -131 -140 -220.5t-341 -89.5t-341.5 89t-140.5 221zM203 -147q0 -64 97.5 -111t236.5 -47t236 47t97 111 q0 23 -5.5 42.5t-19 34t-27 26t-37 19.5t-41.5 14t-49 9.5t-50 5.5t-54 3t-52 1h-52q-112 0 -142 -3.5t-62 -24.5q-40 -25 -58 -60.5t-18 -66.5zM301 567q0 -74 51.5 -129t124.5 -55q72 0 124 54t52 132q0 73 -51.5 128t-124.5 55t-124.5 -54t-51.5 -131z" />
<glyph unicode="h" d="M23 76q0 22 6.5 37.5t15.5 23t24 12t25 5t25 0.5h71v944h-73q-13 0 -22.5 0.5t-24.5 5t-24 12t-16 22.5t-7 36q0 22 6.5 37t15.5 23t24 12t24.5 4.5t25.5 0.5h145q60 0 78 -20t18 -78v-336q108 86 246 86q131 0 204 -74t73 -229v-446h71q20 0 32.5 -2t29.5 -8.5t26 -23.5 t9 -44q0 -26 -9.5 -43t-26.5 -23t-29.5 -8t-29.5 -2h-305q-14 0 -24 0.5t-25 5t-25 12t-17 22.5t-7 36q0 27 9 44t26.5 23.5t30 8.5t32.5 2h62v436q0 86 -25 123t-94 37q-38 0 -77 -15t-75 -44t-59 -81t-23 -118v-338h72q20 0 32.5 -2t30 -8.5t26.5 -23.5t9 -44 q0 -21 -7 -36t-16.5 -22.5t-24 -12t-24.5 -5t-24 -0.5h-317q-13 0 -22.5 0.5t-24.5 5t-24 12t-16 22.5t-7 36z" />
<glyph unicode="i" d="M154 76q0 27 9 44t26.5 23.5t30 8.5t32.5 2h225v585h-209q-19 0 -32 2t-30 8.5t-26.5 23.5t-9.5 44q0 76 98 76h283q60 0 78 -20t18 -78v-641h193q19 0 32 -2t30 -8.5t26.5 -23.5t9.5 -44q0 -26 -9.5 -43t-26.5 -23.5t-30 -8t-32 -1.5h-588q-19 0 -32 1.5t-30 8 t-26.5 23.5t-9.5 43zM422 1126q0 48 34 81.5t83 33.5t82.5 -33.5t33.5 -81.5q0 -50 -33.5 -83t-82.5 -33q-50 0 -83.5 33.5t-33.5 82.5z" />
<glyph unicode="j" d="M90 -287q0 49 32.5 78t74.5 29q40 0 72 -29t32 -76v-10q37 -6 92 -6q30 0 49 2.5t50.5 21t56.5 54.5q43 63 43 162v800h-244q-19 0 -31.5 1.5t-29.5 8t-26 23.5t-9 43t9 43t26 24t30.5 9t32.5 2h316q60 0 78 -20t18 -78v-867q0 -44 -10 -91t-36.5 -100.5t-67 -95 t-109 -69t-154.5 -27.5q-295 0 -295 168zM537 1126q0 48 33.5 81.5t82.5 33.5t83 -33.5t34 -81.5q0 -49 -33.5 -82.5t-83.5 -33.5q-49 0 -82.5 33t-33.5 83z" />
<glyph unicode="k" d="M39 78q0 26 9 43t26 23.5t29.5 8t31.5 1.5h82v944h-82q-15 0 -25 0.5t-25 5t-24 12t-15.5 23t-6.5 37.5q0 26 9 42.5t26 23t29.5 8t31.5 1.5h131q58 0 76 -20t18 -78v-666l269 252h-35q-15 0 -24.5 0.5t-24 5t-23.5 12t-15.5 22.5t-6.5 36q0 27 8.5 44t25 23.5t28.5 8.5 t32 2h307q98 0 98 -78q0 -26 -9.5 -43t-26.5 -23.5t-30 -8t-32 -1.5h-63l-230 -217l283 -368h55q19 0 32 -2t30 -8.5t26.5 -23.5t9.5 -44q0 -26 -9.5 -43t-26.5 -23.5t-30 -8t-32 -1.5h-235q-15 0 -25 0.5t-25 5t-24 12t-16 22.5t-7 36q0 45 23 60.5t74 17.5l-209 270 l-142 -131v-139h82q20 0 32.5 -2t29.5 -8.5t26 -23.5t9 -44q0 -21 -7 -36t-16 -22.5t-24 -12t-25 -5t-25 -0.5h-307q-15 0 -25 0.5t-25 5t-24 12t-15.5 23t-6.5 37.5z" />
<glyph unicode="l" d="M113 76q0 27 9 44t26.5 23.5t30 8.5t32.5 2h242v944h-244q-14 0 -24 0.5t-24.5 5t-24 12t-16.5 22.5t-7 36q0 27 9 44t26.5 23.5t30 8t32.5 1.5h315q60 0 78.5 -20.5t18.5 -77.5v-999h243q20 0 32.5 -2t29.5 -8.5t26 -23.5t9 -44q0 -21 -7 -36t-16 -22.5t-24 -12t-25 -5 t-25 -0.5h-657q-14 0 -24 0.5t-24.5 5t-24 12t-16.5 22.5t-7 36z" />
<glyph unicode="m" d="M0 76q0 48 26 63.5t87 14.5v585q-61 0 -87 15t-26 63q0 76 98 76h64q24 0 38 -2t29.5 -13t22.5 -32q72 57 162 57q100 0 153 -90q41 47 93.5 68.5t101.5 21.5q45 0 80 -17t55 -47t33 -60t18 -66.5t6.5 -55t1.5 -36.5v-467q61 0 87 -14.5t26 -63.5q0 -26 -9.5 -43 t-26.5 -23.5t-30 -8t-32 -1.5h-150q-13 0 -22.5 0.5t-23.5 5t-22.5 12t-15 22.5t-6.5 36q0 45 21 60.5t59 17.5v448q0 85 -13 116.5t-44 31.5q-61 0 -104.5 -68.5t-43.5 -185.5v-342q60 0 84.5 -14.5t24.5 -63.5q0 -26 -8.5 -43t-24.5 -23.5t-28 -8t-31 -1.5h-150 q-14 0 -23.5 0.5t-23.5 5t-23 12t-15.5 22.5t-6.5 36q0 45 21.5 60.5t60.5 17.5v448q0 84 -13.5 116t-43.5 32q-62 0 -105 -68t-43 -186v-342q60 0 83.5 -14.5t23.5 -63.5q0 -21 -6.5 -36t-15 -22.5t-23 -12t-24 -5t-24.5 -0.5h-174q-14 0 -24 0.5t-25 5t-25 12t-17 22.5 t-7 36z" />
<glyph unicode="n" d="M23 76q0 22 6.5 37.5t15.5 23t24 12t25 5t25 0.5h71v585h-73q-13 0 -22.5 0.5t-24.5 5t-24 12t-16 22.5t-7 36q0 26 9 43t25.5 24t29.5 9t32 2h145q57 0 75.5 -17.5t20.5 -58.5q108 86 246 86q131 0 204 -74t73 -229v-446h71q20 0 32.5 -2t29.5 -8.5t26 -23.5t9 -44 q0 -26 -9.5 -43t-26.5 -23t-29.5 -8t-29.5 -2h-305q-14 0 -24 0.5t-25 5t-25 12t-17 22.5t-7 36q0 27 9 44t26.5 23.5t30 8.5t32.5 2h62v436q0 86 -25 123t-94 37q-38 0 -77 -15t-75 -44t-59 -81t-23 -118v-338h72q20 0 32.5 -2t30 -8.5t26.5 -23.5t9 -44q0 -21 -7 -36 t-16.5 -22.5t-24 -12t-24.5 -5t-24 -0.5h-317q-13 0 -22.5 0.5t-24.5 5t-24 12t-16 22.5t-7 36z" />
<glyph unicode="o" d="M111 446q0 193 125.5 328t300.5 135t300.5 -135t125.5 -328q0 -192 -126.5 -325t-299.5 -133t-299.5 132.5t-126.5 325.5zM281 461q0 -132 75.5 -226t180.5 -94t180.5 94t75.5 226q0 126 -76 210.5t-180 84.5q-103 0 -179.5 -84.5t-76.5 -210.5z" />
<glyph unicode="p" d="M20 -367q0 22 7 37.5t16 23t24.5 12t26 5t25.5 0.5h71v1028h-73q-18 0 -30.5 2t-30 8t-27 23t-9.5 43t9.5 43t26.5 24t30.5 9t32.5 2h145q53 0 72.5 -16.5t21.5 -53.5q107 80 240 80q166 0 286 -133.5t120 -323.5q0 -96 -35.5 -182t-94.5 -146t-137 -95t-162 -35 q-121 0 -215 82v-359h72q20 0 32.5 -2t30 -8.5t26.5 -23.5t9 -44q0 -26 -9 -42.5t-26.5 -23t-29.5 -8t-31 -1.5h-317q-19 0 -31 1.5t-29.5 8t-27 23t-9.5 42.5zM362 397q0 -36 13 -78.5t37 -83t66 -67.5t93 -27q104 0 184.5 87t80.5 218q0 124 -72.5 214t-175.5 90 q-88 0 -157 -62t-69 -145v-146z" />
<glyph unicode="q" d="M80 444q0 128 62.5 234.5t163.5 165.5t216 59q135 0 234 -88q2 50 19 69t67 19q29 0 47.5 -8t25.5 -24t9 -29t2 -35v-1096h82q20 0 32 -2t28.5 -8.5t25 -23.5t8.5 -44q0 -26 -8.5 -42.5t-25.5 -23t-29 -8t-31 -1.5h-334q-16 0 -25.5 0.5t-24.5 4.5t-24 12t-15.5 23 t-6.5 37q0 25 9 42t25.5 23.5t30 8.5t31.5 2h82v375q-111 -98 -254 -98q-172 0 -297 133t-125 323zM246 444q0 -126 78 -214.5t184 -88.5q72 0 130.5 44t87 103t28.5 115v78q0 100 -63 184.5t-161 84.5q-116 0 -200 -88.5t-84 -217.5z" />
<glyph unicode="r" d="M61 78q0 21 7 36t16 22.5t24 12t25 5t25 0.5h145v585h-145q-20 0 -32.5 2t-29.5 8.5t-26 23.5t-9 44q0 76 97 76h219q60 0 78 -20t18 -78v-29q137 137 324 137q51 0 90 -10.5t60 -25.5t34 -35t16.5 -36t3.5 -32q0 -46 -29 -73t-71 -27q-40 0 -70 25t-30 61 q-80 -2 -144 -34t-103.5 -84t-60 -114.5t-20.5 -130.5v-233h205q19 0 32 -2t30 -8.5t26.5 -23.5t9.5 -44q0 -26 -9.5 -43t-26.5 -23.5t-30 -8t-32 -1.5h-520q-20 0 -32.5 2t-29.5 8.5t-26 23.5t-9 44z" />
<glyph unicode="s" d="M141 86v193q0 24 2 37t9.5 29.5t26 24t48.5 7.5q44 0 60 -15.5t26 -54.5q17 -52 44 -87t61.5 -51t65.5 -22t69 -6q120 0 180 34.5t60 90.5q0 22 -11 40.5t-33 31.5t-43.5 22.5t-54 17t-52 11t-50.5 8.5q-50 8 -84 14t-80.5 17t-77.5 23.5t-65.5 32.5t-54.5 44t-33 57.5 t-13 73.5q0 27 7 55t32 64.5t65.5 64t116.5 47t175 19.5q118 0 204 -35q17 35 70 35q25 0 42 -9t23.5 -25.5t8.5 -29.5t2 -32v-139q0 -23 -2 -36t-9.5 -29t-26 -23.5t-48.5 -7.5q-27 0 -44.5 6.5t-25.5 19.5t-10.5 24.5t-3.5 30.5q-4 28 -17 47t-55.5 34.5t-112.5 15.5 q-121 0 -179 -28.5t-58 -68.5q0 -57 108 -81l207 -37q20 -3 40 -7t55.5 -14t65.5 -23t63.5 -35t57 -48.5t39 -64.5t15.5 -83q0 -34 -9 -67.5t-35.5 -73t-68.5 -69t-115 -49t-167 -19.5q-150 0 -252 67q-12 -31 -29.5 -47t-27.5 -18t-25 -2q-21 0 -36 7t-22.5 16t-12 24 t-5 25.5t-0.5 25.5z" />
<glyph unicode="t" d="M47 815q0 26 9 43t25.5 24t29.5 9t32 2h158v147q0 23 2 36t9.5 29.5t26 24t48.5 7.5q29 0 47.5 -8t25.5 -24.5t9 -29.5t2 -35v-147h311q20 0 32.5 -2t29.5 -8.5t26 -23.5t9 -44q0 -21 -7 -36t-16 -22.5t-24 -12t-25 -5t-25 -0.5h-311v-460q0 -19 1 -31.5t8 -35t20.5 -36 t41 -24.5t66.5 -11q20 0 41.5 5t47 17.5t42 40t17.5 66.5q0 20 2 32t9 27.5t25 23t46 7.5q31 0 49.5 -7.5t26 -23.5t9 -27.5t1.5 -33.5q0 -68 -28.5 -122.5t-75.5 -88t-103.5 -51.5t-116.5 -18q-61 0 -113 15.5t-94.5 48t-67 88t-24.5 128.5v471h-160q-15 0 -24.5 0.5t-24 5 t-23.5 12t-15.5 22.5t-6.5 36z" />
<glyph unicode="u" d="M23 815q0 26 9 43t25.5 24t29.5 9t32 3h145q60 0 78 -20.5t18 -78.5v-539q0 -28 3 -43.5t15.5 -34.5t43 -28t80.5 -9q22 0 45 3.5t54 15.5t55 31.5t40.5 55.5t16.5 83v409h-74q-14 0 -24 0.5t-24.5 5t-24 12t-16.5 22.5t-7 36q0 26 9 43t26 24t30.5 9t32.5 3h145 q59 0 78 -21t19 -78v-641h73q17 0 29.5 -2t29.5 -8t26.5 -23t9.5 -43q0 -27 -9 -44t-26 -23.5t-29.5 -8.5t-32.5 -2h-145q-18 0 -29.5 1t-26 6t-24 16t-14.5 28q-98 -63 -223 -63q-302 0 -302 256v495h-73q-13 0 -22.5 0.5t-24.5 5t-24 12t-16 22.5t-7 36z" />
<glyph unicode="v" d="M45 815q0 22 6.5 37.5t15.5 23t24 12t25 5t25 0.5h234q15 0 25 -0.5t25 -5t24 -12t15.5 -23t6.5 -37.5q0 -26 -9 -43t-26 -23.5t-29.5 -8t-31.5 -1.5h-33l195 -577l194 577h-33q-15 0 -25 0.5t-25 5t-24 12t-15.5 23t-6.5 37.5q0 25 9 42t25.5 23.5t30 8.5t31.5 2h234 q15 0 25 -0.5t25 -5t24 -12t15.5 -23t6.5 -37.5q0 -26 -9 -43t-26 -23.5t-29.5 -8t-31.5 -1.5h-49l-226 -669q-9 -27 -22.5 -44t-31.5 -24t-31.5 -8.5t-34.5 -1.5q-23 0 -35.5 1.5t-31 8t-31.5 23.5t-23 45l-226 669h-49q-19 0 -31.5 1.5t-29.5 8t-26 23.5t-9 43z" />
<glyph unicode="w" d="M29 817q0 26 9 42t25.5 23t31 9t34.5 2h229q22 0 36.5 -2t31 -9t25 -24t8.5 -43t-8.5 -42.5t-26 -23.5t-31 -8.5t-35.5 -1.5h-77l88 -508l77 265q27 53 95 53q56 0 76.5 -27t50.5 -133l39 -153l86 503h-78q-23 0 -36.5 1.5t-30.5 8.5t-25.5 24t-8.5 44q0 26 8.5 42 t25.5 23t31.5 9t35.5 2h229q20 0 34.5 -2t31 -9t25.5 -23t9 -42q0 -48 -25 -63t-79 -15l-119 -657q-4 -24 -7.5 -37t-14 -27t-30 -20t-50.5 -6q-68 0 -98 43l-78 297l-51 -189q-25 -102 -46 -126.5t-86 -24.5q-63 0 -82 20.5t-26 69.5l-119 657q-54 0 -79 15t-25 63z" />
<glyph unicode="x" d="M51 76q0 27 9.5 44t27 23.5t30.5 8.5t32 2h71l236 305l-224 280h-71q-14 0 -24 0.5t-25.5 5t-25 12t-17 22.5t-7.5 36q0 78 99 78h233q97 0 97 -76q0 -43 -21 -59.5t-61 -18.5l120 -159l117 159q-41 2 -61.5 18.5t-20.5 59.5q0 76 94 76h234q98 0 98 -78q0 -21 -7 -36 t-17 -22.5t-25 -12t-25 -5t-24 -0.5h-72l-215 -280l244 -305h72q19 0 32 -2t30 -8.5t26.5 -23.5t9.5 -44q0 -21 -7 -36t-17 -22.5t-25 -12t-25 -5t-24 -0.5h-234q-19 0 -31.5 1.5t-29.5 8t-26 23.5t-9 43q0 42 21.5 58.5t64.5 19.5l-148 202l-141 -202q46 -2 68 -18t22 -60 q0 -26 -9 -43t-26 -23.5t-29.5 -8t-31.5 -1.5h-233q-14 0 -24 0.5t-25.5 5t-25 12t-17 22.5t-7.5 36z" />
<glyph unicode="y" d="M49 815q0 22 6.5 37.5t15.5 23t24 12t25 5t25 0.5h234q15 0 25 -0.5t25 -5t24 -12t15.5 -23t6.5 -37.5q0 -26 -9 -43t-26 -23.5t-29.5 -8t-31.5 -1.5h-27l203 -534l176 534h-33q-15 0 -25 0.5t-25 5t-24 12t-15.5 23t-6.5 37.5q0 25 9 42t25.5 23.5t30 8.5t31.5 2h234 q15 0 25 -0.5t25 -5t24 -12t15.5 -23t6.5 -37.5q0 -26 -9 -43t-26 -23.5t-29.5 -8t-31.5 -1.5h-49l-305 -899q-6 -17 -16 -40.5t-39 -72t-62 -86t-86 -67t-111 -29.5q-77 0 -128.5 54.5t-51.5 126.5q0 45 27.5 73.5t74.5 28.5q44 0 73.5 -29t29.5 -73q0 -14 -5 -23 t-11 -14.5t-7 -7.5q31 0 73 34t71 90q10 20 26 66t31 94t16 51l-286 723h-52q-19 0 -31.5 1.5t-29.5 8t-26 23.5t-9 43z" />
<glyph unicode="z" d="M63 84q0 30 7 44t43 48l594 563h-443v-37q0 -24 -1.5 -37t-9 -29.5t-26 -24t-49.5 -7.5q-29 0 -47.5 8t-25.5 25t-9 30t-2 35v93q0 58 20 78t79 20h679q22 0 35 -2t29.5 -9t24.5 -25.5t8 -47.5q0 -31 -7 -45.5t-42 -46.5l-592 -563h479v59q0 24 2 37t9.5 29.5t26 24 t48.5 7.5q29 0 47.5 -8t25.5 -24.5t9 -29.5t2 -36v-115q0 -18 -1.5 -29.5t-6.5 -27t-17 -26t-32 -15.5h-758q-23 0 -36 2t-30 9t-25 25.5t-8 47.5z" />
<glyph unicode="{" d="M111 627q0 40 24.5 57.5t44.5 17.5q136 0 211 31q42 20 52 43t10 76l2 350q1 63 42.5 108.5t109 67t129.5 30.5t126 9q21 0 34.5 -2t31 -8.5t26.5 -23.5t9 -44q0 -40 -24.5 -57.5t-45.5 -17.5q-8 0 -35 1t-47.5 1t-50.5 -1.5t-51.5 -7t-42 -14.5t-32 -25t-11.5 -38v-389 q0 -41 -25.5 -85.5t-77.5 -80.5q103 -65 103 -193v-319q0 -23 2 -35.5t15 -31.5t38.5 -29t76.5 -18.5t124 -10.5q84 0 84 -76q0 -27 -9 -44t-26.5 -23.5t-31 -8.5t-34.5 -2q-184 0 -297 62q-39 22 -64 50.5t-34 62t-11.5 54.5t-2.5 54v332q-4 90 -258 100q-84 0 -84 78z" />
<glyph unicode="|" d="M451 -55v1362q0 110 86 110t86 -110v-1362q0 -111 -86 -111t-86 111z" />
<glyph unicode="}" d="M111 -88q0 40 24.5 58t44.5 18q78 1 132 9t81 18t41.5 27.5t16.5 29.5t2 34v355q0 6 1 14t6.5 28t15 38.5t29.5 42.5t48 43q-100 64 -100 190v320q0 24 -2 37t-15.5 32.5t-39.5 29.5t-77 18.5t-126 9.5q-82 0 -82 75q0 27 9 44t26.5 23.5t30.5 8.5t34 2q186 0 299 -61 q39 -22 64 -50.5t34.5 -61.5t12 -54.5t2.5 -52.5v-332q4 -92 256 -103q84 0 84 -77q0 -40 -25 -58t-45 -18q-134 0 -209 -31q-23 -11 -35.5 -21t-18 -26.5t-6.5 -29.5t-1 -42l-2 -350q0 -64 -65.5 -115t-158 -75.5t-186.5 -24.5q-21 0 -34 2t-30.5 8.5t-26.5 23.5t-9 44z " />
<glyph unicode="~" d="M174 569q0 46 105 123q89 70 163 70q34 0 66.5 -15t43.5 -24.5t36 -32.5q5 -4 13 -11.5t12.5 -11.5t9.5 -8t9 -6t7 -2q35 0 129 84q31 27 57 27q30 0 54 -25t24 -55q0 -47 -104 -123q-94 -70 -164 -70q-34 0 -65.5 14.5t-45 26t-35.5 33.5q-43 37 -51 37q-39 0 -129 -84 q-31 -27 -57 -27q-30 0 -54 25t-24 55z" />
<glyph unicode="&#xa0;" />
<glyph unicode="&#xa1;" d="M420 -336l18 666q5 71 21.5 90.5t77.5 19.5q94 0 96 -63l20 -713q0 -42 -14.5 -70.5t-37 -40t-37 -15t-27.5 -3.5q-9 0 -20 1.5t-29.5 9t-32.5 20.5t-24.5 38.5t-10.5 59.5zM420 692q0 50 34 83.5t83 33.5t82.5 -33.5t33.5 -83.5q0 -49 -33 -81.5t-83 -32.5t-83.5 32.5 t-33.5 81.5z" />
<glyph unicode="&#xa2;" d="M143 446q0 51 12 104.5t40.5 110t70 103.5t106 83.5t142.5 51.5l-2 100q0 32 24 55t56 23q31 0 54.5 -23t23.5 -55v-90q266 -10 266 -161q0 -49 -31 -78t-76 -29t-73 27.5t-29 85.5q-30 2 -57 2v-609q93 19 123 105q13 33 30.5 43t50.5 10q10 0 20.5 -1.5t27.5 -7.5 t28 -22.5t11 -40.5q0 -12 -7.5 -34.5t-28.5 -55.5t-52 -62.5t-84.5 -54.5t-118.5 -34v-101q0 -31 -23.5 -54t-54.5 -23q-32 0 -56 23t-24 54v105q-161 31 -265 157.5t-104 292.5zM309 446q0 -99 56.5 -176.5t144.5 -109.5v581q-58 -19 -100 -56.5t-62.5 -82.5t-29.5 -83.5 t-9 -72.5z" />
<glyph unicode="&#xa3;" d="M33 180q0 90 80 146.5t188 56.5q32 0 74 -10q-17 47 -76 168h-119q-36 0 -61 25t-25 61q0 35 25.5 60.5t60.5 25.5h41q-33 93 -33 164q0 155 110 264.5t267 109.5q152 0 262.5 -97t110.5 -239q0 -41 -30.5 -71.5t-73.5 -30.5q-41 0 -72 30.5t-31 71.5q0 33 21 64 q-23 46 -74.5 73t-112.5 27q-85 0 -145 -59.5t-60 -142.5q0 -71 33 -164h312q35 0 60.5 -25.5t25.5 -60.5q0 -36 -25 -61t-61 -25h-230q29 -59 45 -95.5t31.5 -90t17.5 -99.5q45 -35 73.5 -53.5t72.5 -35.5t86 -17q69 0 69 153q0 35 25.5 60.5t60.5 25.5q36 0 61 -25t25 -61 q0 -131 -66.5 -228.5t-174.5 -97.5q-44 0 -96 21.5t-86 43.5t-89 62q-43 -58 -121 -92.5t-167 -34.5q-86 0 -147.5 59t-61.5 144zM199 180q0 -13 11.5 -21.5t25.5 -8.5q110 0 145 45q-43 16 -86 16q-22 0 -34 -0.5t-29 -3t-25 -9.5t-8 -18z" />
<glyph unicode="&#xa4;" d="M184 891q-4 35 25 63q52 54 133 -11q1 -1 2 -1.5t2 -1.5l39 -39q70 39 154 39q78 0 151 -39l35 37l7 6q8 6 11 8t11.5 8t13 8t13.5 5.5t15.5 4t15.5 0.5t17 -3t16.5 -8.5t16.5 -14.5q9 -8 14.5 -16.5t8.5 -16.5t3 -17t-0.5 -15.5t-4 -15.5t-5.5 -13.5t-8 -13t-8 -11.5 t-8 -11l-6 -7l-37 -35q39 -73 39 -153q0 -81 -39 -154l39 -37q36 -46 39 -74q4 -35 -25 -63q-52 -54 -133 11q-1 1 -2 1.5t-2 1.5l-37 39q-73 -39 -151 -39q-84 0 -154 39l-37 -37l-8 -6q-7 -6 -10 -8t-11.5 -8t-13 -8t-13.5 -5.5t-15.5 -4t-15.5 -0.5t-17 3t-16.5 8.5 t-16.5 14.5q-9 8 -14.5 16.5t-8.5 16.5t-3 17t0.5 15.5t4 15.5t5.5 13.5t8 13t8 11.5t8 10l6 8l39 37q-39 70 -39 152q0 81 39 151l-41 39q-36 46 -39 74zM397 627q0 -59 41 -100.5t101 -41.5q58 0 98.5 41.5t40.5 100.5t-40.5 100t-98.5 41q-60 0 -101 -41t-41 -100z" />
<glyph unicode="&#xa5;" d="M35 1176q0 26 9 42.5t26 23t29.5 8t31.5 1.5h209q18 0 30 -1.5t29 -8t26 -23t9 -42.5q0 -44 -21 -60t-61 -18l109 -230h160l100 230q-39 2 -60.5 18.5t-21.5 59.5q0 26 9 42.5t26 23t29 8t30 1.5h209q16 0 25.5 -0.5t24.5 -4.5t24 -12t15.5 -23t6.5 -37q0 -26 -9 -43 t-26 -23.5t-29.5 -8t-31.5 -1.5h-33l-110 -230h53q35 0 60.5 -25.5t25.5 -60.5q0 -36 -25 -61t-61 -25h-135l-68 -139h203q36 0 61 -25t25 -61q0 -35 -25.5 -60.5t-60.5 -25.5h-229v-231h32q20 0 33 -2t30 -8.5t25.5 -23.5t8.5 -44q0 -21 -7 -36t-16 -22.5t-24 -12t-25 -5 t-25 -0.5h-235q-20 0 -33 2t-29.5 8.5t-25 23.5t-8.5 44q0 26 9 43t26 23.5t29.5 8t31.5 1.5h33v231h-230q-35 0 -60.5 25.5t-25.5 60.5q0 36 25 61t61 25h203l-70 139h-133q-36 0 -61 25t-25 61q0 35 25.5 60.5t60.5 25.5h51l-110 230h-33q-15 0 -25 0.5t-25 5t-24 12 t-15.5 23t-6.5 37.5zM518 696l21 -51l22 51h-43z" />
<glyph unicode="&#xa6;" d="M451 -55v479q0 32 25.5 55t60.5 23t60.5 -23t25.5 -55v-479q0 -111 -86 -111t-86 111zM451 827v480q0 110 86 110t86 -110v-480q0 -32 -25.5 -54.5t-60.5 -22.5t-60.5 22.5t-25.5 54.5z" />
<glyph unicode="&#xa7;" d="M88 627q0 116 90 196q-49 65 -49 144q0 92 59 163t151.5 107.5t199.5 36.5q106 0 196.5 -27t151.5 -87.5t61 -145.5q0 -43 -30.5 -74t-73.5 -31t-74 31t-31 74q0 30 15 51q-20 17 -59.5 26t-69.5 10t-86 1q-100 0 -169 -33t-69 -102q0 -18 6.5 -33.5t24.5 -30t29.5 -23.5 t41.5 -22t39.5 -17t44.5 -18l203 -75q130 -47 214.5 -139.5t84.5 -211.5q0 -118 -90 -198q49 -65 49 -142q0 -92 -58.5 -163t-151 -107.5t-199.5 -36.5q-106 0 -196.5 27t-152 87.5t-61.5 145.5q0 43 30.5 74t73.5 31t74 -31t31 -74q0 -31 -14 -51q20 -17 59.5 -26t69.5 -10 t86 -1q99 0 168 33t69 102q0 18 -6.5 33.5t-24.5 30t-29.5 23.5t-41.5 22t-39.5 17t-44.5 18l-203 75q-130 47 -214.5 139.5t-84.5 211.5zM260 627q0 -118 186 -191l203 -76q78 -29 123 -57q45 31 45 94q0 118 -186 191l-203 76q-78 29 -123 57q-45 -36 -45 -94z" />
<glyph unicode="&#xa8;" d="M262 1126q0 44 31.5 74.5t75.5 30.5t75 -30.5t31 -74.5t-31 -75t-75 -31t-75.5 31t-31.5 75zM600 1126q0 44 31.5 74.5t75.5 30.5t75 -30.5t31 -74.5t-31 -75t-75 -31t-75.5 31t-31.5 75z" />
<glyph unicode="&#xa9;" d="M-2 541q0 146 72.5 270t197 196t271.5 72q146 0 270 -72t196 -196t72 -270q0 -147 -72 -271.5t-196 -197t-270 -72.5q-147 0 -271.5 72.5t-197 197t-72.5 271.5zM84 541q0 -92 36 -176t97 -145.5t145 -97.5t177 -36q187 0 319.5 133.5t132.5 321.5t-132.5 321t-319.5 133 q-124 0 -229 -61t-165.5 -165.5t-60.5 -227.5zM287 541q0 137 74 229t176 92q62 0 118 -39q5 6 9 15q2 2 6.5 7.5t7.5 8.5t9.5 5.5t14.5 2.5q46 0 46 -55v-135q0 -13 -1.5 -21t-6 -16.5t-15.5 -12.5t-29 -4q-7 0 -13.5 1t-10.5 2.5t-7.5 5t-5 5.5t-3.5 7.5t-2.5 7t-1.5 8 t-1 7.5q-10 52 -40 81t-70 29q-63 0 -110.5 -66t-47.5 -165q0 -101 46.5 -167.5t111.5 -66.5q37 0 71.5 25t38.5 80q4 41 45 41q52 0 52 -47q0 -72 -61.5 -129.5t-149.5 -57.5q-102 0 -176 92.5t-74 229.5z" />
<glyph unicode="&#xaa;" d="M193 821q0 101 114 159.5t305 63.5q-11 111 -161 111h-50l-14 2q-1 -45 -25.5 -63.5t-52.5 -18.5q-33 0 -55.5 21.5t-22.5 58.5q0 119 218 119q77 0 136 -21.5t91.5 -56.5t48.5 -74t16 -80v-292q35 -7 70 -7q72 0 72 -57q0 -20 -6.5 -32.5t-19.5 -18t-26 -7t-34 -1.5 q-115 0 -156 41q-87 -50 -201 -50q-111 0 -179 60.5t-68 142.5zM256 530q0 24 22.5 42t55.5 18h407q33 0 55.5 -18t22.5 -42t-22.5 -40.5t-55.5 -16.5h-407q-33 0 -55.5 16.5t-22.5 40.5zM322 821q0 -36 35.5 -60t91.5 -24q69 0 124 25q13 7 21 15t11.5 17.5t4 16t0.5 18.5 v103q-136 -6 -212 -35t-76 -76z" />
<glyph unicode="&#xab;" d="M88 627q0 38 33 71l430 373q29 21 45 21q24 0 41.5 -21.5t17.5 -58.5q0 -42 -34 -72l-361 -313l361 -314q34 -30 34 -71q0 -37 -17.5 -58.5t-41.5 -21.5q-18 0 -45 22l-436 375q-27 27 -27 68zM420 627q0 38 33 71l430 373q29 21 45 21q24 0 41.5 -21.5t17.5 -58.5 q0 -41 -35 -72l-360 -313l360 -314q11 -10 17 -16t12 -21t6 -34q0 -37 -17.5 -58.5t-41.5 -21.5q-17 0 -45 22l-437 375q-26 26 -26 68z" />
<glyph unicode="&#xac;" d="M74 778q0 35 25.5 60.5t60.5 25.5h753q35 0 60.5 -25.5t25.5 -60.5v-303q0 -35 -25.5 -60.5t-60.5 -25.5t-60.5 25.5t-25.5 60.5v217h-667q-35 0 -60.5 25.5t-25.5 60.5z" />
<glyph unicode="&#xad;" d="M109 627q0 86 110 86h635q111 0 111 -86t-111 -86h-635q-110 0 -110 86z" />
<glyph unicode="&#xae;" d="M-2 541q0 146 72.5 270t197 196t271.5 72q146 0 270 -72t196 -196t72 -270q0 -147 -72 -271.5t-196 -197t-270 -72.5q-147 0 -271.5 72.5t-197 197t-72.5 271.5zM84 541q0 -92 36 -176t97 -145.5t145 -97.5t177 -36q187 0 319.5 133.5t132.5 321.5t-132.5 321t-319.5 133 q-124 0 -229 -61t-165.5 -165.5t-60.5 -227.5zM303 279q0 45 51 45h11v444h-11q-51 0 -51 43q0 45 51 45h172q89 0 146 -53t57 -125q0 -33 -17 -70.5t-55 -64.5q24 -29 35 -51q7 -20 8.5 -34t1.5 -65q0 -82 13 -82l2 4q1 25 6.5 40.5t15 21t15 7t14.5 1.5q7 0 12.5 -1 t14 -4.5t13.5 -13.5t5 -26q0 -42 -24.5 -78.5t-73.5 -36.5q-61 0 -88 49q-21 43 -21 132q0 57 -16 71q-27 25 -68 25h-63v-178h10q16 0 25.5 -2t18.5 -12.5t9 -30.5q0 -43 -53 -43h-115q-51 0 -51 43zM459 588h55q55 0 87 28t32 62t-32 62t-87 28h-55v-180z" />
<glyph unicode="&#xaf;" d="M145 1126q0 27 9 44t26 23.5t29.5 8.5t32.5 2h594q20 0 33 -2t29.5 -8.5t25 -24t8.5 -45.5q0 -22 -6.5 -37t-15.5 -23t-24 -12t-24.5 -4.5t-25.5 -0.5h-592q-21 0 -33.5 1.5t-30 8.5t-26.5 24t-9 45z" />
<glyph unicode="&#xb0;" d="M375 1114q0 55 46 107.5t114 52.5q74 0 116.5 -48.5t42.5 -111.5q0 -62 -43 -111t-116 -49q-69 0 -114.5 51t-45.5 109zM461 1114q0 -27 21 -50.5t53 -23.5q33 0 53 22.5t20 51.5t-20 51.5t-53 22.5q-32 0 -53 -23.5t-21 -50.5z" />
<glyph unicode="&#xb1;" d="M74 86q0 86 110 86h267v207h-267q-110 0 -110 86t110 86h267v270q0 109 86 109t86 -109v-270h266q110 0 110 -86t-110 -86h-266v-207h266q110 0 110 -86t-110 -86h-705q-110 0 -110 86z" />
<glyph unicode="&#xb2;" d="M313 668q0 20 19 39l223 186q107 89 107 170q0 57 -41 88t-101 31q-71 0 -98 -58q10 -12 10 -37q0 -28 -17 -43.5t-42 -15.5q-21 0 -40.5 15t-19.5 49q0 72 59.5 127t151.5 55q101 0 170.5 -58.5t69.5 -152.5q0 -111 -115 -211l-164 -137h179q0 24 10.5 34.5t40.5 10.5 q22 0 33.5 -9t13.5 -19t2 -27v-27q0 -33 -11 -45t-44 -12h-340q-16 0 -26 2t-20 13t-10 32z" />
<glyph unicode="&#xb3;" d="M305 772q0 30 18 47t42 17q26 0 42.5 -17.5t16.5 -42.5q0 -24 -6 -33q34 -41 123 -41q57 0 93 33.5t36 75.5t-35.5 75.5t-97.5 33.5h-45q-17 0 -27 2t-20.5 13t-10.5 32q0 28 17 37t71 12q55 3 84 26q37 29 37 74q0 29 -29.5 47.5t-72.5 18.5q-57 0 -90 -21q4 -12 4 -22 q0 -26 -19 -44t-41 -18q-23 0 -42 16.5t-19 47.5q0 59 54.5 96t150.5 37q91 0 146.5 -46.5t55.5 -109.5q0 -88 -69 -145q46 -27 73 -69t27 -93q0 -79 -65.5 -140t-165.5 -61q-102 0 -169 46t-67 116z" />
<glyph unicode="&#xb4;" d="M311 1069q0 31 14.5 46.5t45.5 27.5l264 119q12 5 23.5 8t16.5 4h5q37 0 61.5 -24.5t24.5 -61.5q0 -55 -66 -84l-264 -119q-23 -10 -43 -10q-29 0 -49 20.5t-26.5 40.5t-6.5 33z" />
<glyph unicode="&#xb5;" d="M20 -408q0 22 7 37.5t16 23t24.5 12t26 5t25.5 0.5h71v1069h-73q-13 0 -22.5 0.5t-24.5 5t-24 12t-16 22.5t-7 36q0 26 9 43t25.5 24t29.5 9t32 2h145q60 0 78 -20t18 -78v-539q0 -28 3 -43.5t15.5 -34.5t43 -28t80.5 -9q22 0 45 3.5t54 15.5t55 31.5t40.5 55.5t16.5 83 v409h-74q-14 0 -24 0.5t-24.5 5t-24 12t-16.5 22.5t-7 36q0 26 9 43t26 24t30.5 9t32.5 2h145q59 0 78 -20.5t19 -77.5v-641h73q17 0 29.5 -2t29.5 -8t26.5 -23t9.5 -43q0 -27 -9 -44t-26 -23.5t-29.5 -8.5t-32.5 -2h-145q-18 0 -29.5 1t-26 6t-24 16t-14.5 28 q-98 -63 -223 -63q-66 0 -132 12v-330h72q20 0 32.5 -2t30 -8.5t26.5 -23.5t9 -44q0 -26 -9 -42.5t-26.5 -23t-29.5 -8t-31 -1.5h-317q-19 0 -31 1.5t-29.5 8t-27 23t-9.5 42.5z" />
<glyph unicode="&#xb6;" d="M94 940q0 128 59 238t161.5 174.5t224.5 64.5h417q72 0 72 -55q0 -25 -12.5 -38.5t-26 -16t-33.5 -2.5h-69v-1610q0 -82 -51 -82q-52 0 -52 82v1610h-88v-1610q0 -82 -49 -82t-49 82v766q-70 4 -139 24.5t-135.5 60t-117 93.5t-81.5 132t-31 169z" />
<glyph unicode="&#xb7;" d="M397 627q0 55 40 97t102 42q56 0 97.5 -40t41.5 -101q0 -55 -39.5 -97.5t-101.5 -42.5q-56 0 -98 40.5t-42 101.5z" />
<glyph unicode="&#xb8;" d="M324 -338q0 50 30 64t105 14q258 0 258 65q0 25 -31.5 43t-87.5 21q-28 1 -45 9.5t-24 24.5t-9 28.5t-2 35.5v56q0 23 2 36t9.5 29.5t26 24.5t48.5 8q54 0 69 -23.5t15 -87.5q99 -23 148 -80.5t49 -124.5q0 -44 -17.5 -79t-43.5 -58t-68.5 -39.5t-80.5 -25t-92.5 -13 t-91.5 -5.5t-90 -1q-33 0 -55 19t-22 59z" />
<glyph unicode="&#xb9;" d="M352 1106q0 45 54 45q49 6 86 70q15 32 24.5 42.5t28.5 10.5q29 0 37 -15.5t8 -41.5v-502h76q17 0 27 -2t20 -13.5t10 -33.5q0 -45 -57 -45h-250q-58 0 -58 45q0 22 10.5 33.5t20.5 13.5t27 2h76v372q-44 -28 -89 -28q-51 0 -51 47z" />
<glyph unicode="&#xba;" d="M236 944q0 137 89 233.5t214 96.5q124 0 212.5 -96.5t88.5 -233.5q0 -136 -89.5 -231t-211.5 -95q-123 0 -213 94t-90 232zM297 530q0 24 23 42t55 18h325q32 0 55 -18t23 -42q0 -23 -23 -40t-55 -17h-325q-32 0 -55 17t-23 40zM362 954q0 -90 52.5 -153.5t124.5 -63.5 q71 0 122.5 63.5t51.5 153.5q0 86 -51.5 143.5t-122.5 57.5t-124 -57.5t-53 -143.5z" />
<glyph unicode="&#xbb;" d="M86 242q0 19 6 34t12 21t17 16l360 314l-360 313q-35 31 -35 72q0 37 17.5 58.5t41.5 21.5q16 0 45 -21l431 -373q32 -32 32 -71q0 -42 -26 -68l-437 -375q-28 -22 -45 -22q-24 0 -41.5 21.5t-17.5 58.5zM418 242q0 19 6 34t12 21t17 16l360 314l-360 313q-35 31 -35 72 q0 37 17.5 58.5t41.5 21.5q16 0 45 -21l430 -373q33 -33 33 -71q0 -41 -27 -68l-436 -375q-28 -22 -45 -22q-24 0 -41.5 21.5t-17.5 58.5z" />
<glyph unicode="&#xbc;" d="M41 1106q0 45 53 45q49 6 86 70q15 32 24.5 42.5t28.5 10.5q46 0 46 -57v-502h75q17 0 27 -2t20.5 -13.5t10.5 -33.5q0 -45 -58 -45h-250q-57 0 -57 45q0 22 10 33.5t20 13.5t27 2h76v372q-44 -28 -88 -28q-51 0 -51 47zM170 33q0 11 9 32.5t16 32.5l628 1139 q23 45 74 45q37 0 37 -59q0 -11 -8.5 -35.5t-14.5 -34.5l-628 -1139q-23 -45 -76 -45q-13 0 -25 20.5t-12 43.5zM535 225q0 21 2 27t12 16l225 357q12 20 21.5 25t33.5 5h29q35 0 45 -11.5t10 -47.5v-334h64q55 0 55 -47q0 -20 -10 -30.5t-20 -12.5t-25 -2h-64v-76h48 q15 0 25 -2t20 -13.5t10 -33.5q0 -20 -10 -30.5t-20 -12.5t-25 -2h-181q-55 0 -55 45q0 22 10 33.5t20 13.5t25 2h45v76h-235q-32 0 -43.5 10.5t-11.5 44.5zM649 262h176v279z" />
<glyph unicode="&#xbd;" d="M41 1106q0 45 53 45q49 6 86 70q15 32 24.5 42.5t28.5 10.5q46 0 46 -57v-502h75q17 0 27 -2t20.5 -13.5t10.5 -33.5q0 -45 -58 -45h-250q-57 0 -57 45q0 22 10 33.5t20 13.5t27 2h76v372q-44 -28 -88 -28q-51 0 -51 47zM143 33q0 11 9 32.5t16 32.5l629 1139 q23 45 73 45q37 0 37 -59q0 -12 -8 -36.5t-14 -33.5l-629 -1139q-23 -45 -76 -45q-13 0 -25 20.5t-12 43.5zM582 47q0 20 22 39l219 186q109 91 109 170q0 57 -42 88t-102 31q-32 0 -58.5 -16.5t-37.5 -42.5q10 -13 10 -35q0 -27 -18.5 -43t-40.5 -16q-24 0 -42.5 14.5 t-18.5 48.5q0 71 60.5 126.5t152.5 55.5q101 0 169 -58t68 -153q0 -111 -112 -211l-164 -137h178q0 24 10 34.5t39 10.5q22 0 33.5 -9.5t13.5 -19.5t2 -26v-27q0 -33 -10.5 -45t-44.5 -12h-338q-57 0 -57 47z" />
<glyph unicode="&#xbe;" d="M35 772q0 30 18 47t43 17t42.5 -17.5t17.5 -42.5q0 -13 -9 -31q33 -43 123 -43q58 0 94.5 33t36.5 76q0 42 -36 75.5t-97 33.5h-45q-16 0 -26.5 2t-20.5 13t-10 32q0 28 16.5 37t71.5 12q54 3 82 26q37 27 37 74q0 29 -30 47.5t-73 18.5q-60 0 -90 -21q4 -12 4 -22 q0 -27 -18 -44.5t-41 -17.5t-41 16.5t-18 47.5q0 59 54 96t150 37q90 0 146.5 -46.5t56.5 -109.5q0 -87 -70 -145q99 -59 99 -162q0 -79 -65.5 -140t-166.5 -61q-99 0 -167 46t-68 116zM193 33q0 11 8.5 33t15.5 32l629 1139q23 45 74 45q36 0 36 -59q0 -12 -8 -36.5 t-14 -33.5l-629 -1139q-23 -45 -76 -45q-13 0 -24.5 20.5t-11.5 43.5zM535 225q0 21 2 27t12 16l225 357q12 20 21.5 25t33.5 5h29q35 0 45 -11.5t10 -47.5v-334h64q55 0 55 -47q0 -20 -10 -30.5t-20 -12.5t-25 -2h-64v-76h48q15 0 25 -2t20 -13.5t10 -33.5q0 -20 -10 -30.5 t-20 -12.5t-25 -2h-181q-55 0 -55 45q0 22 10 33.5t20 13.5t25 2h45v76h-235q-32 0 -43.5 10.5t-11.5 44.5zM649 262h176v279z" />
<glyph unicode="&#xbf;" d="M121 -193q0 43 13.5 79.5t39 64.5t44.5 44t48 36q146 109 146 278v35q0 62 18.5 79t75.5 17q24 0 40 -2t27 -9t16.5 -14t8.5 -23t3.5 -29.5t0.5 -40.5q0 -25 -0.5 -41t-5.5 -49.5t-14 -59.5t-28 -64t-45.5 -71t-68 -72t-94.5 -74q-16 -11 -24.5 -18t-19.5 -25.5 t-11 -40.5q0 -108 219 -108q176 0 246 53q-15 27 -15 55q0 48 32.5 77.5t72.5 29.5q41 0 73.5 -28.5t32.5 -80.5t-21.5 -94.5t-53.5 -69t-79 -46t-86 -29t-86.5 -14.5t-70.5 -6t-47 -1q-105 0 -182.5 23.5t-115.5 54t-59.5 72t-25.5 65.5t-4 47zM389 692q0 50 33.5 83.5 t83.5 33.5t83.5 -33.5t33.5 -83.5q0 -49 -33.5 -81.5t-83.5 -32.5t-83.5 32.5t-33.5 81.5z" />
<glyph unicode="&#xc0;" d="M51 76q0 49 43 71q21 7 80 7l240 1034q7 32 17 50t27.5 26t32.5 10t46 2q60 0 84 -15t38 -75l240 -1032q62 0 80 -9q43 -18 43 -69q0 -25 -9.5 -42t-27 -23.5t-31.5 -8.5t-34 -2h-203q-22 0 -35.5 1.5t-31 8.5t-26 23.5t-8.5 42.5q0 48 24.5 62t84.5 16l-39 176h-299 l-39 -176q60 -2 84.5 -16t24.5 -62q0 -26 -8.5 -42.5t-26 -23.5t-31 -8.5t-35.5 -1.5h-202q-20 0 -34 2t-32 8.5t-27.5 23.5t-9.5 42zM309 1591q0 37 24.5 61.5t61.5 24.5q18 0 45 -12l265 -119q31 -12 45 -27t14 -46q0 -13 -6.5 -33t-26.5 -41t-49 -21q-17 0 -43 11 l-264 118q-66 31 -66 84zM424 483h225l-112 533z" />
<glyph unicode="&#xc1;" d="M51 76q0 49 43 71q21 7 80 7l240 1034q7 32 17 50t27.5 26t32.5 10t46 2q60 0 84 -15t38 -75l240 -1032q62 0 80 -9q43 -18 43 -69q0 -25 -9.5 -42t-27 -23.5t-31.5 -8.5t-34 -2h-203q-22 0 -35.5 1.5t-31 8.5t-26 23.5t-8.5 42.5q0 48 24.5 62t84.5 16l-39 176h-299 l-39 -176q60 -2 84.5 -16t24.5 -62q0 -26 -8.5 -42.5t-26 -23.5t-31 -8.5t-35.5 -1.5h-202q-20 0 -34 2t-32 8.5t-27.5 23.5t-9.5 42zM311 1473q0 31 14.5 46t45.5 27l264 119q12 5 23.5 8t16.5 3l5 1q37 0 61.5 -24.5t24.5 -61.5q0 -53 -66 -84l-264 -118q-26 -11 -43 -11 q-29 0 -49 21t-26.5 41t-6.5 33zM424 483h225l-112 533z" />
<glyph unicode="&#xc2;" d="M51 76q0 49 43 71q21 7 80 7l240 1034q7 32 17 50t27.5 26t32.5 10t46 2q60 0 84 -15t38 -75l240 -1032q62 0 80 -9q43 -18 43 -69q0 -25 -9.5 -42t-27 -23.5t-31.5 -8.5t-34 -2h-203q-22 0 -35.5 1.5t-31 8.5t-26 23.5t-8.5 42.5q0 48 24.5 62t84.5 16l-39 176h-299 l-39 -176q60 -2 84.5 -16t24.5 -62q0 -26 -8.5 -42.5t-26 -23.5t-31 -8.5t-35.5 -1.5h-202q-20 0 -34 2t-32 8.5t-27.5 23.5t-9.5 42zM229 1438q0 28 28 47t87 41l160 57q20 7 32.5 7t32.5 -7l160 -57q59 -22 87 -41t28 -47q0 -32 -18 -56t-56 -24q-16 0 -98 24l-135 41 l-136 -41q-82 -24 -98 -24q-38 0 -56 24t-18 56zM424 483h225l-112 533z" />
<glyph unicode="&#xc3;" d="M51 76q0 49 43 71q21 7 80 7l240 1034q7 32 17 50t27.5 26t32.5 10t46 2q60 0 84 -15t38 -75l240 -1032q62 0 80 -9q43 -18 43 -69q0 -25 -9.5 -42t-27 -23.5t-31.5 -8.5t-34 -2h-203q-22 0 -35.5 1.5t-31 8.5t-26 23.5t-8.5 42.5q0 48 24.5 62t84.5 16l-39 176h-299 l-39 -176q60 -2 84.5 -16t24.5 -62q0 -26 -8.5 -42.5t-26 -23.5t-31 -8.5t-35.5 -1.5h-202q-20 0 -34 2t-32 8.5t-27.5 23.5t-9.5 42zM174 1438q0 46 105 123q88 69 163 69q34 0 66 -14.5t44 -24.5t36 -32q5 -4 13 -11.5t12.5 -11.5t9.5 -8t9 -6t7 -2q35 0 129 84 q26 26 57 26t54.5 -24.5t23.5 -55.5q0 -47 -104 -123q-93 -69 -164 -69q-34 0 -65.5 14.5t-45 26t-35.5 33.5q-41 36 -51 36q-39 0 -129 -84q-30 -26 -57 -26q-30 0 -54 25t-24 55zM424 483h225l-112 533z" />
<glyph unicode="&#xc4;" d="M51 76q0 49 43 71q21 7 80 7l240 1034q7 32 17 50t27.5 26t32.5 10t46 2q60 0 84 -15t38 -75l240 -1032q62 0 80 -9q43 -18 43 -69q0 -25 -9.5 -42t-27 -23.5t-31.5 -8.5t-34 -2h-203q-22 0 -35.5 1.5t-31 8.5t-26 23.5t-8.5 42.5q0 48 24.5 62t84.5 16l-39 176h-299 l-39 -176q60 -2 84.5 -16t24.5 -62q0 -26 -8.5 -42.5t-26 -23.5t-31 -8.5t-35.5 -1.5h-202q-20 0 -34 2t-32 8.5t-27.5 23.5t-9.5 42zM231 1464q0 45 31 75t76 30t75.5 -30t30.5 -75q0 -44 -31 -75t-75 -31t-75.5 31t-31.5 75zM424 483h225l-112 533zM631 1464q0 45 30.5 75 t75.5 30t76 -30t31 -75q0 -44 -31.5 -75t-75.5 -31t-75 31t-31 75z" />
<glyph unicode="&#xc5;" d="M51 76q0 49 43 71q21 7 80 7l240 1034q7 32 17 50t27.5 26t32.5 10t46 2q60 0 84 -15t38 -75l240 -1032q62 0 80 -9q43 -18 43 -69q0 -25 -9.5 -42t-27 -23.5t-31.5 -8.5t-34 -2h-203q-22 0 -35.5 1.5t-31 8.5t-26 23.5t-8.5 42.5q0 48 24.5 62t84.5 16l-39 176h-299 l-39 -176q60 -2 84.5 -16t24.5 -62q0 -26 -8.5 -42.5t-26 -23.5t-31 -8.5t-35.5 -1.5h-202q-20 0 -34 2t-32 8.5t-27.5 23.5t-9.5 42zM360 1415q0 53 51.5 94t127.5 41t127 -41t51 -94q0 -56 -51 -97.5t-127 -41.5t-127.5 41.5t-51.5 97.5zM424 483h225l-112 533zM475 1413 q0 -18 19.5 -29.5t44.5 -11.5t44 11.5t19 29.5q0 19 -19 30t-44 11t-44.5 -11t-19.5 -30z" />
<glyph unicode="&#xc6;" d="M43 76q0 48 24.5 63t73.5 15l193 944q-76 4 -76 78q0 26 8.5 42.5t25.5 23t29 8t31 1.5h561q60 0 78.5 -20.5t18.5 -77.5v-145q0 -99 -72 -99q-25 0 -40.5 9.5t-22 27.5t-8 31t-1.5 31v90h-198v-373h215q20 0 32 -2t28.5 -8.5t25 -23.5t8.5 -44q0 -26 -9 -43t-25.5 -23.5 t-29 -8t-30.5 -1.5h-215v-417h215v120q0 15 0.5 24.5t4.5 25t11 25t21 17t34 7.5q72 0 72 -99v-176q0 -59 -19 -78.5t-77 -19.5h-387q-15 0 -25.5 0.5t-26 5t-24.5 12t-16 23t-7 37.5q0 71 80 76v211h-192l-43 -211q42 -2 65 -17.5t23 -60.5q0 -26 -9 -43t-26 -23.5 t-29.5 -8t-31.5 -1.5h-142q-19 0 -31.5 1.5t-29.5 8t-26 23.5t-9 43zM360 518h162v580h-45z" />
<glyph unicode="&#xc7;" d="M78 627q0 137 40.5 258t108 206t158.5 134t190 49q137 0 254 -88q20 43 21 45q29 43 70 43q26 0 42.5 -9t23 -26.5t8 -30t1.5 -32.5v-277q0 -24 -2 -37t-9.5 -29.5t-26 -24t-48.5 -7.5q-26 0 -42.5 5.5t-25 19t-11.5 23t-7 30.5q-18 113 -85 177t-156 64 q-132 0 -233 -142t-101 -351q0 -211 101 -353.5t235 -142.5q26 0 54 6t61 22t59 40.5t45 66t22 94.5q6 72 84 72q12 0 19.5 -0.5t22 -4.5t22.5 -12t15 -24t7 -39q0 -110 -72 -207t-190 -139q89 -26 132.5 -82t43.5 -119q0 -44 -17 -79t-43.5 -58t-69 -39.5t-80.5 -25 t-92.5 -13t-92 -5.5t-90.5 -1q-32 0 -55 19.5t-23 58.5q0 50 31 64t106 14q256 0 256 65q0 26 -30.5 43.5t-85.5 20.5q-28 1 -45 9.5t-24 24.5t-9 28.5t-2 35.5v13q-126 10 -232 95t-169.5 231t-63.5 321z" />
<glyph unicode="&#xc8;" d="M49 76q0 27 9 44t26.5 23.5t30 8.5t32.5 2h43v944h-43q-19 0 -32 2t-30 8.5t-26.5 23.5t-9.5 44q0 21 7 36t16.5 22.5t24.5 11.5t25 4.5t25 0.5h746q58 0 76 -20t18 -78v-145q0 -24 -1.5 -36.5t-9 -29.5t-26 -25t-49.5 -8q-29 0 -47.5 8.5t-25.5 25t-9 30t-2 35.5v90 h-457v-373h230q2 66 17 89.5t69 23.5q29 0 47.5 -8t25.5 -24.5t9 -29.5t2 -35v-186q0 -23 -2 -36t-9 -29.5t-25.5 -24.5t-47.5 -8q-54 0 -69 23t-17 91h-230v-417h502v120q0 24 2 37t9.5 30t26 24.5t48.5 7.5q29 0 47.5 -8t25.5 -25t9 -30t2 -36v-176q0 -59 -19 -78.5 t-77 -19.5h-789q-19 0 -32 1.5t-30 8t-26.5 23.5t-9.5 43zM309 1591q0 37 24.5 61.5t61.5 24.5q18 0 45 -12l265 -119q31 -12 45 -27t14 -46q0 -13 -6.5 -33t-26.5 -41t-49 -21q-17 0 -43 11l-264 118q-66 31 -66 84z" />
<glyph unicode="&#xc9;" d="M49 76q0 27 9 44t26.5 23.5t30 8.5t32.5 2h43v944h-43q-19 0 -32 2t-30 8.5t-26.5 23.5t-9.5 44q0 21 7 36t16.5 22.5t24.5 11.5t25 4.5t25 0.5h746q58 0 76 -20t18 -78v-145q0 -24 -1.5 -36.5t-9 -29.5t-26 -25t-49.5 -8q-29 0 -47.5 8.5t-25.5 25t-9 30t-2 35.5v90 h-457v-373h230q2 66 17 89.5t69 23.5q29 0 47.5 -8t25.5 -24.5t9 -29.5t2 -35v-186q0 -23 -2 -36t-9 -29.5t-25.5 -24.5t-47.5 -8q-54 0 -69 23t-17 91h-230v-417h502v120q0 24 2 37t9.5 30t26 24.5t48.5 7.5q29 0 47.5 -8t25.5 -25t9 -30t2 -36v-176q0 -59 -19 -78.5 t-77 -19.5h-789q-19 0 -32 1.5t-30 8t-26.5 23.5t-9.5 43zM311 1473q0 31 14.5 46t45.5 27l264 119q12 5 23.5 8t16.5 3l5 1q37 0 61.5 -24.5t24.5 -61.5q0 -53 -66 -84l-264 -118q-26 -11 -43 -11q-29 0 -49 21t-26.5 41t-6.5 33z" />
<glyph unicode="&#xca;" d="M49 76q0 27 9 44t26.5 23.5t30 8.5t32.5 2h43v944h-43q-19 0 -32 2t-30 8.5t-26.5 23.5t-9.5 44q0 21 7 36t16.5 22.5t24.5 11.5t25 4.5t25 0.5h746q58 0 76 -20t18 -78v-145q0 -24 -1.5 -36.5t-9 -29.5t-26 -25t-49.5 -8q-29 0 -47.5 8.5t-25.5 25t-9 30t-2 35.5v90 h-457v-373h230q2 66 17 89.5t69 23.5q29 0 47.5 -8t25.5 -24.5t9 -29.5t2 -35v-186q0 -23 -2 -36t-9 -29.5t-25.5 -24.5t-47.5 -8q-54 0 -69 23t-17 91h-230v-417h502v120q0 24 2 37t9.5 30t26 24.5t48.5 7.5q29 0 47.5 -8t25.5 -25t9 -30t2 -36v-176q0 -59 -19 -78.5 t-77 -19.5h-789q-19 0 -32 1.5t-30 8t-26.5 23.5t-9.5 43zM229 1438q0 28 28 47t87 41l160 57q20 7 32.5 7t32.5 -7l160 -57q59 -22 87 -41t28 -47q0 -32 -18 -56t-56 -24q-16 0 -98 24l-135 41l-136 -41q-82 -24 -98 -24q-38 0 -56 24t-18 56z" />
<glyph unicode="&#xcb;" d="M49 76q0 27 9 44t26.5 23.5t30 8.5t32.5 2h43v944h-43q-19 0 -32 2t-30 8.5t-26.5 23.5t-9.5 44q0 21 7 36t16.5 22.5t24.5 11.5t25 4.5t25 0.5h746q58 0 76 -20t18 -78v-145q0 -24 -1.5 -36.5t-9 -29.5t-26 -25t-49.5 -8q-29 0 -47.5 8.5t-25.5 25t-9 30t-2 35.5v90 h-457v-373h230q2 66 17 89.5t69 23.5q29 0 47.5 -8t25.5 -24.5t9 -29.5t2 -35v-186q0 -23 -2 -36t-9 -29.5t-25.5 -24.5t-47.5 -8q-54 0 -69 23t-17 91h-230v-417h502v120q0 24 2 37t9.5 30t26 24.5t48.5 7.5q29 0 47.5 -8t25.5 -25t9 -30t2 -36v-176q0 -59 -19 -78.5 t-77 -19.5h-789q-19 0 -32 1.5t-30 8t-26.5 23.5t-9.5 43zM231 1464q0 45 31 75t76 30t75.5 -30t30.5 -75q0 -44 -31 -75t-75 -31t-75.5 31t-31.5 75zM631 1464q0 45 30.5 75t75.5 30t76 -30t31 -75q0 -44 -31.5 -75t-75.5 -31t-75 31t-31 75z" />
<glyph unicode="&#xcc;" d="M156 78q0 26 9.5 43t26.5 23.5t30 8t32 1.5h199v944h-199q-19 0 -32 2t-30 8.5t-26.5 23.5t-9.5 44q0 21 7 36t16.5 22.5t24.5 11.5t25 4.5t25 0.5h567q20 0 32.5 -1.5t30 -8t27 -23.5t9.5 -44q0 -26 -9.5 -43t-27 -23.5t-30.5 -8t-32 -1.5h-198v-944h198q19 0 32 -2 t30.5 -8.5t27 -23.5t9.5 -44q0 -26 -9.5 -43t-27 -23.5t-30.5 -8t-32 -1.5h-567q-19 0 -32 2t-30 8.5t-26.5 23.5t-9.5 44zM309 1591q0 37 24.5 61.5t61.5 24.5q18 0 45 -12l265 -119q31 -12 45 -27t14 -46q0 -13 -6.5 -33t-26.5 -41t-49 -21q-17 0 -43 11l-264 118 q-66 31 -66 84z" />
<glyph unicode="&#xcd;" d="M156 78q0 26 9.5 43t26.5 23.5t30 8t32 1.5h199v944h-199q-19 0 -32 2t-30 8.5t-26.5 23.5t-9.5 44q0 21 7 36t16.5 22.5t24.5 11.5t25 4.5t25 0.5h567q20 0 32.5 -1.5t30 -8t27 -23.5t9.5 -44q0 -26 -9.5 -43t-27 -23.5t-30.5 -8t-32 -1.5h-198v-944h198q19 0 32 -2 t30.5 -8.5t27 -23.5t9.5 -44q0 -26 -9.5 -43t-27 -23.5t-30.5 -8t-32 -1.5h-567q-19 0 -32 2t-30 8.5t-26.5 23.5t-9.5 44zM311 1473q0 31 14.5 46t45.5 27l264 119q12 5 23.5 8t16.5 3l5 1q37 0 61.5 -24.5t24.5 -61.5q0 -53 -66 -84l-264 -118q-26 -11 -43 -11 q-29 0 -49 21t-26.5 41t-6.5 33z" />
<glyph unicode="&#xce;" d="M156 78q0 26 9.5 43t26.5 23.5t30 8t32 1.5h199v944h-199q-19 0 -32 2t-30 8.5t-26.5 23.5t-9.5 44q0 21 7 36t16.5 22.5t24.5 11.5t25 4.5t25 0.5h567q20 0 32.5 -1.5t30 -8t27 -23.5t9.5 -44q0 -26 -9.5 -43t-27 -23.5t-30.5 -8t-32 -1.5h-198v-944h198q19 0 32 -2 t30.5 -8.5t27 -23.5t9.5 -44q0 -26 -9.5 -43t-27 -23.5t-30.5 -8t-32 -1.5h-567q-19 0 -32 2t-30 8.5t-26.5 23.5t-9.5 44zM229 1438q0 28 28 47t87 41l160 57q20 7 32.5 7t32.5 -7l160 -57q59 -22 87 -41t28 -47q0 -32 -18 -56t-56 -24q-16 0 -98 24l-135 41l-136 -41 q-82 -24 -98 -24q-38 0 -56 24t-18 56z" />
<glyph unicode="&#xcf;" d="M156 78q0 26 9.5 43t26.5 23.5t30 8t32 1.5h199v944h-199q-19 0 -32 2t-30 8.5t-26.5 23.5t-9.5 44q0 21 7 36t16.5 22.5t24.5 11.5t25 4.5t25 0.5h567q20 0 32.5 -1.5t30 -8t27 -23.5t9.5 -44q0 -26 -9.5 -43t-27 -23.5t-30.5 -8t-32 -1.5h-198v-944h198q19 0 32 -2 t30.5 -8.5t27 -23.5t9.5 -44q0 -26 -9.5 -43t-27 -23.5t-30.5 -8t-32 -1.5h-567q-19 0 -32 2t-30 8.5t-26.5 23.5t-9.5 44zM231 1464q0 45 31 75t76 30t75.5 -30t30.5 -75q0 -44 -31 -75t-75 -31t-75.5 31t-31.5 75zM631 1464q0 45 30.5 75t75.5 30t76 -30t31 -75 q0 -44 -31.5 -75t-75.5 -31t-75 31t-31 75z" />
<glyph unicode="&#xd0;" d="M35 76q0 27 9 44t26.5 23.5t30 8.5t32.5 2h29v395h-41q-33 0 -55.5 22.5t-22.5 55.5q0 32 23 55t55 23h41v393h-29q-19 0 -32 1.5t-30 8t-26.5 23.5t-9.5 43q0 27 9 44t26.5 23.5t30 8t32.5 1.5h412q132 0 237 -90.5t160 -234.5t55 -310q0 -165 -56.5 -305.5t-161 -225.5 t-234.5 -85h-412q-19 0 -32 1.5t-30 8t-26.5 23.5t-9.5 43zM332 154h176q77 0 139.5 40t101.5 106.5t59.5 148t20.5 167.5t-20 169.5t-58.5 154.5t-101.5 114.5t-141 43.5h-176v-393h102q32 0 55 -23t23 -55q0 -33 -22.5 -55.5t-55.5 -22.5h-102v-395z" />
<glyph unicode="&#xd1;" d="M53 78q0 21 7 36t16 22.5t24 12t25 5t25 0.5h34v944h-34q-20 0 -32.5 2t-29.5 8.5t-26 23.5t-9 44q0 26 9 42.5t26.5 23t30 8t31.5 1.5h135q51 0 77.5 -15t45.5 -67l337 -915v844h-32q-15 0 -25 0.5t-25 5t-24 12t-16 22.5t-7 36q0 27 9 44t26 23.5t29.5 8t32.5 1.5h211 q16 0 25.5 -0.5t24.5 -4.5t24 -12t15.5 -23t6.5 -37q0 -26 -9 -43t-26 -23.5t-29.5 -8t-31.5 -1.5h-35v-1000q0 -64 -20 -81t-78 -17q-27 0 -41 1.5t-31.5 9t-29.5 25t-23 46.5l-338 915v-843h32q20 0 32.5 -2t29.5 -8.5t26 -23.5t9 -44q0 -21 -7 -36t-16 -22.5t-24 -12 t-25 -5t-25 -0.5h-210q-20 0 -32.5 2t-29.5 8.5t-26 23.5t-9 44zM174 1438q0 46 105 123q88 69 163 69q34 0 66 -14.5t44 -24.5t36 -32q5 -4 13 -11.5t12.5 -11.5t9.5 -8t9 -6t7 -2q35 0 129 84q26 26 57 26t54.5 -24.5t23.5 -55.5q0 -47 -104 -123q-93 -69 -164 -69 q-34 0 -65.5 14.5t-45 26t-35.5 33.5q-41 36 -51 36q-39 0 -129 -84q-30 -26 -57 -26q-30 0 -54 25t-24 55z" />
<glyph unicode="&#xd2;" d="M109 625q0 119 2.5 199.5t11.5 153t20.5 115.5t37 79.5t53 54t76.5 29.5t99 15t128 3t128.5 -3t99 -15.5t76 -29.5t53 -54t37 -80t20.5 -115.5t11.5 -152.5t2.5 -199t-2.5 -199t-11.5 -152t-21 -115.5t-37.5 -80t-53 -53.5t-76 -29.5t-98.5 -15.5t-128 -3t-128.5 3 t-99 15.5t-76 29.5t-53 53.5t-37 79.5t-20.5 115.5t-11.5 152.5t-2.5 199zM279 643q0 -287 24 -381q18 -73 66.5 -102t167.5 -29q122 0 171 30.5t64 110.5q23 106 23 371q0 269 -25 361q-19 72 -69.5 94t-163.5 22q-120 0 -169.5 -27.5t-70.5 -117.5q-18 -90 -18 -332z M309 1591q0 37 24.5 61.5t61.5 24.5q18 0 45 -12l265 -119q31 -12 45 -27t14 -46q0 -13 -6.5 -33t-26.5 -41t-49 -21q-17 0 -43 11l-264 118q-66 31 -66 84z" />
<glyph unicode="&#xd3;" d="M109 625q0 119 2.5 199.5t11.5 153t20.5 115.5t37 79.5t53 54t76.5 29.5t99 15t128 3t128.5 -3t99 -15.5t76 -29.5t53 -54t37 -80t20.5 -115.5t11.5 -152.5t2.5 -199t-2.5 -199t-11.5 -152t-21 -115.5t-37.5 -80t-53 -53.5t-76 -29.5t-98.5 -15.5t-128 -3t-128.5 3 t-99 15.5t-76 29.5t-53 53.5t-37 79.5t-20.5 115.5t-11.5 152.5t-2.5 199zM279 643q0 -287 24 -381q18 -73 66.5 -102t167.5 -29q122 0 171 30.5t64 110.5q23 106 23 371q0 269 -25 361q-19 72 -69.5 94t-163.5 22q-120 0 -169.5 -27.5t-70.5 -117.5q-18 -90 -18 -332z M311 1473q0 31 14.5 46t45.5 27l264 119q12 5 23.5 8t16.5 3l5 1q37 0 61.5 -24.5t24.5 -61.5q0 -53 -66 -84l-264 -118q-26 -11 -43 -11q-29 0 -49 21t-26.5 41t-6.5 33z" />
<glyph unicode="&#xd4;" d="M109 625q0 119 2.5 199.5t11.5 153t20.5 115.5t37 79.5t53 54t76.5 29.5t99 15t128 3t128.5 -3t99 -15.5t76 -29.5t53 -54t37 -80t20.5 -115.5t11.5 -152.5t2.5 -199t-2.5 -199t-11.5 -152t-21 -115.5t-37.5 -80t-53 -53.5t-76 -29.5t-98.5 -15.5t-128 -3t-128.5 3 t-99 15.5t-76 29.5t-53 53.5t-37 79.5t-20.5 115.5t-11.5 152.5t-2.5 199zM229 1438q0 28 28 47t87 41l160 57q20 7 32.5 7t32.5 -7l160 -57q59 -22 87 -41t28 -47q0 -32 -18 -56t-56 -24q-16 0 -98 24l-135 41l-136 -41q-82 -24 -98 -24q-38 0 -56 24t-18 56zM279 643 q0 -287 24 -381q18 -73 66.5 -102t167.5 -29q122 0 171 30.5t64 110.5q23 106 23 371q0 269 -25 361q-19 72 -69.5 94t-163.5 22q-120 0 -169.5 -27.5t-70.5 -117.5q-18 -90 -18 -332z" />
<glyph unicode="&#xd5;" d="M109 625q0 119 2.5 199.5t11.5 153t20.5 115.5t37 79.5t53 54t76.5 29.5t99 15t128 3t128.5 -3t99 -15.5t76 -29.5t53 -54t37 -80t20.5 -115.5t11.5 -152.5t2.5 -199t-2.5 -199t-11.5 -152t-21 -115.5t-37.5 -80t-53 -53.5t-76 -29.5t-98.5 -15.5t-128 -3t-128.5 3 t-99 15.5t-76 29.5t-53 53.5t-37 79.5t-20.5 115.5t-11.5 152.5t-2.5 199zM174 1438q0 46 105 123q88 69 163 69q34 0 66 -14.5t44 -24.5t36 -32q5 -4 13 -11.5t12.5 -11.5t9.5 -8t9 -6t7 -2q35 0 129 84q26 26 57 26t54.5 -24.5t23.5 -55.5q0 -47 -104 -123 q-93 -69 -164 -69q-34 0 -65.5 14.5t-45 26t-35.5 33.5q-41 36 -51 36q-39 0 -129 -84q-30 -26 -57 -26q-30 0 -54 25t-24 55zM279 643q0 -287 24 -381q18 -73 66.5 -102t167.5 -29q122 0 171 30.5t64 110.5q23 106 23 371q0 269 -25 361q-19 72 -69.5 94t-163.5 22 q-120 0 -169.5 -27.5t-70.5 -117.5q-18 -90 -18 -332z" />
<glyph unicode="&#xd6;" d="M109 625q0 119 2.5 199.5t11.5 153t20.5 115.5t37 79.5t53 54t76.5 29.5t99 15t128 3t128.5 -3t99 -15.5t76 -29.5t53 -54t37 -80t20.5 -115.5t11.5 -152.5t2.5 -199t-2.5 -199t-11.5 -152t-21 -115.5t-37.5 -80t-53 -53.5t-76 -29.5t-98.5 -15.5t-128 -3t-128.5 3 t-99 15.5t-76 29.5t-53 53.5t-37 79.5t-20.5 115.5t-11.5 152.5t-2.5 199zM231 1464q0 45 31 75t76 30t75.5 -30t30.5 -75q0 -44 -31 -75t-75 -31t-75.5 31t-31.5 75zM279 643q0 -287 24 -381q18 -73 66.5 -102t167.5 -29q122 0 171 30.5t64 110.5q23 106 23 371 q0 269 -25 361q-19 72 -69.5 94t-163.5 22q-120 0 -169.5 -27.5t-70.5 -117.5q-18 -90 -18 -332zM631 1464q0 45 30.5 75t75.5 30t76 -30t31 -75q0 -44 -31.5 -75t-75.5 -31t-75 31t-31 75z" />
<glyph unicode="&#xd7;" d="M184 891q-4 35 25 63q52 54 133 -11q1 -1 2 -1.5t2 -1.5l191 -192l188 190l7 6q8 6 11 8t11.5 8t13 8t13.5 5.5t15.5 4t15.5 0.5t17 -3t16.5 -8.5t16.5 -14.5q9 -8 14.5 -16.5t8.5 -16.5t3 -17t-0.5 -15.5t-4 -15.5t-5.5 -13.5t-8 -13t-8 -11.5t-8 -11l-6 -7l-191 -188 l193 -191q36 -46 39 -74q4 -35 -25 -63q-52 -54 -133 11q-1 1 -2 1.5t-2 1.5l-190 193l-189 -191l-8 -6q-7 -6 -10 -8t-11.5 -8t-13 -8t-13.5 -5.5t-15.5 -4t-15.5 -0.5t-17 3t-16.5 8.5t-16.5 14.5q-9 8 -14.5 16.5t-8.5 16.5t-3 17t0.5 15.5t4 15.5t5.5 13.5t8 13t8 11.5 t8 10l6 8l191 189l-193 190q-36 46 -39 74z" />
<glyph unicode="&#xd8;" d="M109 625q0 119 2.5 199.5t11.5 153t20.5 115.5t37 79.5t53 54t76.5 29.5t99 15t128 3q82 0 129 -4l24 80q6 21 12.5 34t23 25t40.5 12q3 0 8.5 -1t19.5 -5.5t24.5 -11.5t19 -22t8.5 -35q0 -17 -31 -111q90 -43 120 -170.5t30 -439.5q0 -119 -2.5 -199t-11.5 -152 t-21 -115.5t-37.5 -80t-53 -53.5t-76 -29.5t-98.5 -15.5t-128 -3q-70 0 -129 5l-25 -80q-6 -21 -12.5 -34t-23 -25.5t-40.5 -12.5q-3 0 -8.5 1t-19.5 6t-24.5 12t-19 22t-8.5 35q0 16 31 110q-67 34 -96.5 100.5t-42.5 190.5q-10 96 -10 318zM250 625q0 -232 15.5 -322 t45.5 -119l301 934q-25 2 -77 2q-50 0 -81 -2t-64 -9t-52.5 -20t-36 -36t-25.5 -56q-26 -91 -26 -372zM461 133q25 -2 78 -2q50 0 81 2t63.5 9t52.5 20t36 36t25 56q26 91 26 373q0 160 -8.5 255.5t-20.5 130.5t-32 54z" />
<glyph unicode="&#xd9;" d="M6 1176q0 21 7 36t16.5 22.5t24.5 11.5t25 4.5t25 0.5h256q20 0 32.5 -1.5t30 -8t27 -23t9.5 -42.5q0 -27 -9.5 -44t-27 -23.5t-30.5 -8.5t-32 -2h-43v-666q0 -140 68 -220.5t152 -80.5q83 0 151 80.5t68 220.5v666h-43q-19 0 -32 2t-30.5 8.5t-27 23.5t-9.5 44 q0 26 9.5 42.5t27 23t30 8t32.5 1.5h256q15 0 25 -0.5t25 -4.5t24.5 -11.5t16.5 -22.5t7 -36q0 -27 -9 -44t-26.5 -23.5t-30 -8.5t-32.5 -2h-43v-674q0 -189 -115.5 -318t-273.5 -129t-274 129t-116 318v674h-43q-19 0 -32 2t-30 8.5t-26.5 23.5t-9.5 44zM309 1591 q0 37 24.5 61.5t61.5 24.5q18 0 45 -12l265 -119q31 -12 45 -27t14 -46q0 -13 -6.5 -33t-26.5 -41t-49 -21q-17 0 -43 11l-264 118q-66 31 -66 84z" />
<glyph unicode="&#xda;" d="M6 1176q0 21 7 36t16.5 22.5t24.5 11.5t25 4.5t25 0.5h256q20 0 32.5 -1.5t30 -8t27 -23t9.5 -42.5q0 -27 -9.5 -44t-27 -23.5t-30.5 -8.5t-32 -2h-43v-666q0 -140 68 -220.5t152 -80.5q83 0 151 80.5t68 220.5v666h-43q-19 0 -32 2t-30.5 8.5t-27 23.5t-9.5 44 q0 26 9.5 42.5t27 23t30 8t32.5 1.5h256q15 0 25 -0.5t25 -4.5t24.5 -11.5t16.5 -22.5t7 -36q0 -27 -9 -44t-26.5 -23.5t-30 -8.5t-32.5 -2h-43v-674q0 -189 -115.5 -318t-273.5 -129t-274 129t-116 318v674h-43q-19 0 -32 2t-30 8.5t-26.5 23.5t-9.5 44zM311 1473 q0 31 14.5 46t45.5 27l264 119q12 5 23.5 8t16.5 3l5 1q37 0 61.5 -24.5t24.5 -61.5q0 -53 -66 -84l-264 -118q-26 -11 -43 -11q-29 0 -49 21t-26.5 41t-6.5 33z" />
<glyph unicode="&#xdb;" d="M6 1176q0 21 7 36t16.5 22.5t24.5 11.5t25 4.5t25 0.5h256q20 0 32.5 -1.5t30 -8t27 -23t9.5 -42.5q0 -27 -9.5 -44t-27 -23.5t-30.5 -8.5t-32 -2h-43v-666q0 -140 68 -220.5t152 -80.5q83 0 151 80.5t68 220.5v666h-43q-19 0 -32 2t-30.5 8.5t-27 23.5t-9.5 44 q0 26 9.5 42.5t27 23t30 8t32.5 1.5h256q15 0 25 -0.5t25 -4.5t24.5 -11.5t16.5 -22.5t7 -36q0 -27 -9 -44t-26.5 -23.5t-30 -8.5t-32.5 -2h-43v-674q0 -189 -115.5 -318t-273.5 -129t-274 129t-116 318v674h-43q-19 0 -32 2t-30 8.5t-26.5 23.5t-9.5 44zM229 1438 q0 28 28 47t87 41l160 57q20 7 32.5 7t32.5 -7l160 -57q59 -22 87 -41t28 -47q0 -32 -18 -56t-56 -24q-16 0 -98 24l-135 41l-136 -41q-82 -24 -98 -24q-38 0 -56 24t-18 56z" />
<glyph unicode="&#xdc;" d="M6 1176q0 21 7 36t16.5 22.5t24.5 11.5t25 4.5t25 0.5h256q20 0 32.5 -1.5t30 -8t27 -23t9.5 -42.5q0 -27 -9.5 -44t-27 -23.5t-30.5 -8.5t-32 -2h-43v-666q0 -140 68 -220.5t152 -80.5q83 0 151 80.5t68 220.5v666h-43q-19 0 -32 2t-30.5 8.5t-27 23.5t-9.5 44 q0 26 9.5 42.5t27 23t30 8t32.5 1.5h256q15 0 25 -0.5t25 -4.5t24.5 -11.5t16.5 -22.5t7 -36q0 -27 -9 -44t-26.5 -23.5t-30 -8.5t-32.5 -2h-43v-674q0 -189 -115.5 -318t-273.5 -129t-274 129t-116 318v674h-43q-19 0 -32 2t-30 8.5t-26.5 23.5t-9.5 44zM231 1464 q0 45 31 75t76 30t75.5 -30t30.5 -75q0 -44 -31 -75t-75 -31t-75.5 31t-31.5 75zM631 1464q0 45 30.5 75t75.5 30t76 -30t31 -75q0 -44 -31.5 -75t-75.5 -31t-75 31t-31 75z" />
<glyph unicode="&#xdd;" d="M35 1176q0 26 9 42.5t26 23t29.5 8t31.5 1.5h209q18 0 30 -1.5t29 -8t26 -23t9 -42.5q0 -43 -21.5 -59.5t-60.5 -18.5l187 -416l182 416q-39 2 -60.5 18.5t-21.5 59.5q0 26 9 42.5t26 23t29 8t30 1.5h209q16 0 25.5 -0.5t24.5 -4.5t24 -12t15.5 -23t6.5 -37q0 -26 -9 -43 t-26 -23.5t-29.5 -8t-31.5 -1.5h-33l-286 -598v-346h32q20 0 33 -2t30 -8.5t25.5 -23.5t8.5 -44q0 -21 -7 -36t-16 -22.5t-24 -12t-25 -5t-25 -0.5h-235q-20 0 -33 2t-29.5 8.5t-25 23.5t-8.5 44q0 26 9 43t26 23.5t29.5 8t31.5 1.5h33v346l-289 598h-33q-15 0 -25 0.5 t-25 5t-24 12t-15.5 23t-6.5 37.5zM311 1473q0 31 14.5 46t45.5 27l264 119q12 5 23.5 8t16.5 3l5 1q37 0 61.5 -24.5t24.5 -61.5q0 -53 -66 -84l-264 -118q-26 -11 -43 -11q-29 0 -49 21t-26.5 41t-6.5 33z" />
<glyph unicode="&#xde;" d="M41 76q0 22 6.5 37.5t15.5 23t24 12t25 5t25 0.5h33v944h-33q-19 0 -31.5 1.5t-29.5 8t-26 23.5t-9 43q0 22 6.5 37t15.5 23t24 12t24.5 4.5t25.5 0.5h238q20 0 32 -1.5t28.5 -8t25 -23.5t8.5 -44q0 -21 -6.5 -36t-15.5 -22.5t-23.5 -12t-24 -5t-24.5 -0.5h-35v-90h233 q116 0 207.5 -55t139 -141t47.5 -185t-47 -185t-138.5 -141t-208.5 -55h-233v-92h35q20 0 32 -2t28.5 -8.5t25 -23.5t8.5 -44q0 -21 -6.5 -36t-15.5 -22.5t-23.5 -12t-24 -5t-24.5 -0.5h-238q-19 0 -31.5 1.5t-29.5 8t-26 23.5t-9 43zM342 399h195q64 0 116 21.5t83 55.5 t47 73t16 78q0 38 -16 77t-47 73t-83 55.5t-116 21.5h-195v-455z" />
<glyph unicode="&#xdf;" d="M31 76q0 22 6.5 37.5t15.5 23t24 12t25 5t25 0.5h92v585h-92q-19 0 -31.5 1.5t-29.5 8t-26 23.5t-9 43q0 22 6.5 37.5t15.5 23t24 12t25 5t25 0.5h92v123q0 56 26 100.5t66 71.5t91.5 44.5t97.5 24.5t90 7q154 0 261 -66.5t107 -167.5q0 -137 -151 -227 q64 -49 109 -111.5t65.5 -124.5t28.5 -110t8 -92q0 -110 -56 -198t-142.5 -133.5t-182.5 -45.5q-105 0 -163 50t-58 116q0 45 29.5 72.5t68.5 27.5q47 0 78 -39q11 -15 13.5 -26.5t2.5 -43.5q16 -4 29 -4q80 0 145.5 61.5t65.5 162.5q0 36 -7.5 78t-29 94.5t-54.5 94t-91 72 t-131 35.5q-3 1 -7 2t-14.5 6.5t-19 13.5t-15 22t-6.5 32q0 41 29.5 58.5t101.5 23.5q94 13 140.5 54t46.5 77q0 33 -59.5 57.5t-143.5 24.5q-74 0 -142 -27q-39 -18 -48 -34.5t-9 -47.5v-903q0 -59 -19 -78.5t-77 -19.5h-166q-19 0 -31.5 1.5t-29.5 8t-26 23.5t-9 43z" />
<glyph unicode="&#xe0;" d="M109 272q0 143 163 224.5t435 87.5q-4 87 -68 129.5t-170 42.5l-98 -6q-1 -58 -35 -83.5t-70 -25.5q-44 0 -74 28.5t-30 78.5q0 161 305 161q107 0 189.5 -29.5t128.5 -77.5t69 -103t23 -113v-420q32 -12 104 -12q19 0 31.5 -1.5t29.5 -8t26 -23.5t9 -43q0 -50 -27.5 -64 t-88.5 -14q-75 0 -130.5 11t-89.5 48q-117 -71 -286 -71q-155 0 -250.5 85t-95.5 199zM276 272q0 -55 53 -93t136 -38q102 0 172 33q24 11 39 23.5t20.5 28.5t7 27t1.5 30v151q-199 -7 -314 -50.5t-115 -111.5zM309 1214q0 37 24.5 61.5t61.5 24.5q18 0 45 -12l265 -119 q31 -12 45 -27t14 -46q0 -13 -6.5 -33t-26.5 -41t-49 -21q-17 0 -43 11l-264 118q-66 29 -66 84z" />
<glyph unicode="&#xe1;" d="M109 272q0 143 163 224.5t435 87.5q-4 87 -68 129.5t-170 42.5l-98 -6q-1 -58 -35 -83.5t-70 -25.5q-44 0 -74 28.5t-30 78.5q0 161 305 161q107 0 189.5 -29.5t128.5 -77.5t69 -103t23 -113v-420q32 -12 104 -12q19 0 31.5 -1.5t29.5 -8t26 -23.5t9 -43q0 -50 -27.5 -64 t-88.5 -14q-75 0 -130.5 11t-89.5 48q-117 -71 -286 -71q-155 0 -250.5 85t-95.5 199zM276 272q0 -55 53 -93t136 -38q102 0 172 33q24 11 39 23.5t20.5 28.5t7 27t1.5 30v151q-199 -7 -314 -50.5t-115 -111.5zM311 1096q0 31 14.5 46t45.5 27l264 119q12 5 23.5 8t16.5 4h5 q37 0 61.5 -24.5t24.5 -61.5q0 -55 -66 -84l-264 -118q-26 -11 -43 -11q-29 0 -49 21t-26.5 41t-6.5 33z" />
<glyph unicode="&#xe2;" d="M109 272q0 143 163 224.5t435 87.5q-4 87 -68 129.5t-170 42.5l-98 -6q-1 -58 -35 -83.5t-70 -25.5q-44 0 -74 28.5t-30 78.5q0 161 305 161q107 0 189.5 -29.5t128.5 -77.5t69 -103t23 -113v-420q32 -12 104 -12q19 0 31.5 -1.5t29.5 -8t26 -23.5t9 -43q0 -50 -27.5 -64 t-88.5 -14q-75 0 -130.5 11t-89.5 48q-117 -71 -286 -71q-155 0 -250.5 85t-95.5 199zM227 1065q-1 17 3.5 29.5t21.5 27.5t25.5 21t41.5 28l185 119q32 23 65 0l185 -119q63 -42 75 -57q18 -22 17 -49q-3 -66 -82 -66q-15 0 -88 43l-139 86l-140 -86q-71 -43 -88 -43 q-79 0 -82 66zM276 272q0 -55 53 -93t136 -38q102 0 172 33q24 11 39 23.5t20.5 28.5t7 27t1.5 30v151q-199 -7 -314 -50.5t-115 -111.5z" />
<glyph unicode="&#xe3;" d="M109 272q0 143 163 224.5t435 87.5q-4 87 -68 129.5t-170 42.5l-98 -6q-1 -58 -35 -83.5t-70 -25.5q-44 0 -74 28.5t-30 78.5q0 161 305 161q107 0 189.5 -29.5t128.5 -77.5t69 -103t23 -113v-420q32 -12 104 -12q19 0 31.5 -1.5t29.5 -8t26 -23.5t9 -43q0 -50 -27.5 -64 t-88.5 -14q-75 0 -130.5 11t-89.5 48q-117 -71 -286 -71q-155 0 -250.5 85t-95.5 199zM174 1096q0 46 105 123q88 69 163 69q34 0 66 -14.5t44 -24.5t36 -32q5 -4 13 -11.5t12.5 -11.5t9.5 -8t9 -6t7 -2q35 0 129 84q30 26 57 26q30 0 54 -25t24 -55q0 -47 -104 -123 q-93 -69 -164 -69q-34 0 -65.5 14.5t-45 26t-35.5 33.5q-41 36 -51 36q-39 0 -129 -84q-30 -26 -57 -26q-30 0 -54 25t-24 55zM276 272q0 -55 53 -93t136 -38q102 0 172 33q24 11 39 23.5t20.5 28.5t7 27t1.5 30v151q-199 -7 -314 -50.5t-115 -111.5z" />
<glyph unicode="&#xe4;" d="M109 272q0 143 163 224.5t435 87.5q-4 87 -68 129.5t-170 42.5l-98 -6q-1 -58 -35 -83.5t-70 -25.5q-44 0 -74 28.5t-30 78.5q0 161 305 161q107 0 189.5 -29.5t128.5 -77.5t69 -103t23 -113v-420q32 -12 104 -12q19 0 31.5 -1.5t29.5 -8t26 -23.5t9 -43q0 -50 -27.5 -64 t-88.5 -14q-75 0 -130.5 11t-89.5 48q-117 -71 -286 -71q-155 0 -250.5 85t-95.5 199zM262 1153q0 44 31 74t76 30q44 0 75 -30t31 -74t-31 -75t-75 -31t-75.5 31t-31.5 75zM276 272q0 -55 53 -93t136 -38q102 0 172 33q24 11 39 23.5t20.5 28.5t7 27t1.5 30v151 q-199 -7 -314 -50.5t-115 -111.5zM600 1153q0 44 31 74t76 30q44 0 75 -30t31 -74t-31 -75t-75 -31t-75.5 31t-31.5 75z" />
<glyph unicode="&#xe5;" d="M109 272q0 143 163 224.5t435 87.5q-4 87 -68 129.5t-170 42.5l-98 -6q-1 -58 -35 -83.5t-70 -25.5q-44 0 -74 28.5t-30 78.5q0 161 305 161q107 0 189.5 -29.5t128.5 -77.5t69 -103t23 -113v-420q32 -12 104 -12q19 0 31.5 -1.5t29.5 -8t26 -23.5t9 -43q0 -50 -27.5 -64 t-88.5 -14q-75 0 -130.5 11t-89.5 48q-117 -71 -286 -71q-155 0 -250.5 85t-95.5 199zM276 272q0 -55 53 -93t136 -38q102 0 172 33q24 11 39 23.5t20.5 28.5t7 27t1.5 30v151q-199 -7 -314 -50.5t-115 -111.5zM360 1174q0 53 51.5 94t127.5 41t127 -41t51 -94 q0 -56 -51 -98t-127 -42t-127.5 42t-51.5 98zM475 1171q0 -18 19.5 -29.5t44.5 -11.5t44 11.5t19 29.5t-19 29.5t-44 11.5t-44.5 -11.5t-19.5 -29.5z" />
<glyph unicode="&#xe6;" d="M63 252q0 122 113.5 195.5t288.5 78.5v52q0 86 -37 132t-106 46q-16 0 -35 -11q-2 -34 -15.5 -57t-32.5 -32t-31.5 -12t-23.5 -3q-45 0 -75.5 28.5t-30.5 78.5q0 30 11.5 56t38 51t78 39.5t122.5 14.5q147 0 229 -129q43 66 100 97.5t113 31.5q118 0 192 -113t74 -315 q0 -59 -17 -79.5t-79 -20.5h-326q14 -108 69 -174t118 -66q24 0 45.5 17.5t34.5 50.5q7 23 13 37t15.5 29.5t23.5 22.5t32 7q30 0 50.5 -21t20.5 -51q0 -15 -7.5 -42t-26.5 -62.5t-45.5 -66.5t-70.5 -52.5t-95 -21.5q-124 0 -226 127q-42 -60 -112 -93.5t-146 -33.5 q-109 0 -176.5 81t-67.5 183zM203 254q0 -44 29.5 -78.5t80.5 -34.5q59 0 107 39q17 14 26 34t10 33t1 36l2 94q-112 -6 -184 -37.5t-72 -85.5zM621 532h274q-8 116 -41.5 170t-77.5 54q-55 0 -99.5 -68t-55.5 -156z" />
<glyph unicode="&#xe7;" d="M143 446q0 58 15.5 118.5t52 123t90 111t137 79.5t185.5 31q313 0 313 -161q0 -49 -31 -78t-76 -29t-73 27.5t-29 85.5l-104 2q-73 0 -130 -24t-90 -58.5t-54.5 -79t-28.5 -80.5t-7 -68q0 -128 88 -216.5t209 -88.5q46 0 81.5 13t56 34t30 35.5t15.5 28.5q12 34 30 43.5 t51 9.5q10 0 20.5 -1.5t27.5 -7.5t28 -22.5t11 -40.5q0 -11 -6 -30.5t-22.5 -48.5t-41 -56t-66 -52.5t-92.5 -39.5q89 -26 132.5 -82t43.5 -119q0 -44 -17 -79t-43 -58t-68.5 -39.5t-80.5 -25t-92.5 -13t-91.5 -5.5t-90 -1q-33 0 -55.5 19t-22.5 59q0 50 30 64t105 14 q258 0 258 65q0 26 -31.5 43.5t-86.5 20.5q-28 1 -45 9.5t-24 24.5t-9 28.5t-2 35.5v25q-172 20 -286 150.5t-114 303.5z" />
<glyph unicode="&#xe8;" d="M106 449q0 190 131 325t316 135q98 0 175.5 -35t126.5 -95.5t75 -139t26 -168.5q0 -32 -7 -51.5t-23 -27.5t-28.5 -9.5t-37.5 -1.5h-575q27 -110 115.5 -175t195.5 -65q23 0 46.5 4.5t52.5 15.5t54 34.5t39 56.5q13 33 30 43t52 10q10 0 20 -1.5t27.5 -7.5t28 -22.5 t10.5 -40.5q0 -18 -11.5 -46t-40.5 -63t-69.5 -65t-107 -50.5t-145.5 -20.5q-130 0 -240 62.5t-173 168.5t-63 230zM287 532h493q-8 64 -31.5 109.5t-56 69.5t-67 34.5t-72.5 10.5q-94 0 -167.5 -63t-98.5 -161zM309 1214q0 37 24.5 61.5t61.5 24.5q18 0 45 -12l265 -119 q31 -12 45 -27t14 -46q0 -13 -6.5 -33t-26.5 -41t-49 -21q-17 0 -43 11l-264 118q-66 29 -66 84z" />
<glyph unicode="&#xe9;" d="M106 449q0 190 131 325t316 135q98 0 175.5 -35t126.5 -95.5t75 -139t26 -168.5q0 -32 -7 -51.5t-23 -27.5t-28.5 -9.5t-37.5 -1.5h-575q27 -110 115.5 -175t195.5 -65q23 0 46.5 4.5t52.5 15.5t54 34.5t39 56.5q13 33 30 43t52 10q10 0 20 -1.5t27.5 -7.5t28 -22.5 t10.5 -40.5q0 -18 -11.5 -46t-40.5 -63t-69.5 -65t-107 -50.5t-145.5 -20.5q-130 0 -240 62.5t-173 168.5t-63 230zM287 532h493q-8 64 -31.5 109.5t-56 69.5t-67 34.5t-72.5 10.5q-94 0 -167.5 -63t-98.5 -161zM311 1096q0 31 14.5 46t45.5 27l264 119q12 5 23.5 8t16.5 4 h5q37 0 61.5 -24.5t24.5 -61.5q0 -55 -66 -84l-264 -118q-26 -11 -43 -11q-29 0 -49 21t-26.5 41t-6.5 33z" />
<glyph unicode="&#xea;" d="M106 449q0 190 131 325t316 135q98 0 175.5 -35t126.5 -95.5t75 -139t26 -168.5q0 -32 -7 -51.5t-23 -27.5t-28.5 -9.5t-37.5 -1.5h-575q27 -110 115.5 -175t195.5 -65q23 0 46.5 4.5t52.5 15.5t54 34.5t39 56.5q13 33 30 43t52 10q10 0 20 -1.5t27.5 -7.5t28 -22.5 t10.5 -40.5q0 -18 -11.5 -46t-40.5 -63t-69.5 -65t-107 -50.5t-145.5 -20.5q-130 0 -240 62.5t-173 168.5t-63 230zM227 1065q-1 17 3.5 29.5t21.5 27.5t25.5 21t41.5 28l185 119q32 23 65 0l185 -119q63 -42 75 -57q18 -22 17 -49q-3 -66 -82 -66q-15 0 -88 43l-139 86 l-140 -86q-71 -43 -88 -43q-79 0 -82 66zM287 532h493q-8 64 -31.5 109.5t-56 69.5t-67 34.5t-72.5 10.5q-94 0 -167.5 -63t-98.5 -161z" />
<glyph unicode="&#xeb;" d="M106 449q0 190 131 325t316 135q98 0 175.5 -35t126.5 -95.5t75 -139t26 -168.5q0 -32 -7 -51.5t-23 -27.5t-28.5 -9.5t-37.5 -1.5h-575q27 -110 115.5 -175t195.5 -65q23 0 46.5 4.5t52.5 15.5t54 34.5t39 56.5q13 33 30 43t52 10q10 0 20 -1.5t27.5 -7.5t28 -22.5 t10.5 -40.5q0 -18 -11.5 -46t-40.5 -63t-69.5 -65t-107 -50.5t-145.5 -20.5q-130 0 -240 62.5t-173 168.5t-63 230zM262 1153q0 44 31 74t76 30q44 0 75 -30t31 -74t-31 -75t-75 -31t-75.5 31t-31.5 75zM287 532h493q-8 64 -31.5 109.5t-56 69.5t-67 34.5t-72.5 10.5 q-94 0 -167.5 -63t-98.5 -161zM600 1153q0 44 31 74t76 30q44 0 75 -30t31 -74t-31 -75t-75 -31t-75.5 31t-31.5 75z" />
<glyph unicode="&#xec;" d="M154 76q0 27 9 44t26.5 23.5t30 8.5t32.5 2h225v585h-209q-19 0 -32 2t-30 8.5t-26.5 23.5t-9.5 44q0 76 98 76h283q60 0 78 -20t18 -78v-641h193q19 0 32 -2t30 -8.5t26.5 -23.5t9.5 -44q0 -26 -9.5 -43t-26.5 -23.5t-30 -8t-32 -1.5h-588q-19 0 -32 1.5t-30 8 t-26.5 23.5t-9.5 43zM309 1188q0 37 24.5 61.5t61.5 24.5q18 0 45 -12l265 -119q30 -12 44.5 -27.5t14.5 -46.5q0 -13 -6.5 -33t-26.5 -40.5t-49 -20.5q-20 0 -43 10l-264 119q-66 29 -66 84z" />
<glyph unicode="&#xed;" d="M154 76q0 27 9 44t26.5 23.5t30 8.5t32.5 2h225v585h-209q-19 0 -32 2t-30 8.5t-26.5 23.5t-9.5 44q0 76 98 76h283q60 0 78 -20t18 -78v-641h193q19 0 32 -2t30 -8.5t26.5 -23.5t9.5 -44q0 -26 -9.5 -43t-26.5 -23.5t-30 -8t-32 -1.5h-588q-19 0 -32 1.5t-30 8 t-26.5 23.5t-9.5 43zM311 1069q0 31 14.5 46.5t45.5 27.5l264 119q12 5 23.5 8t16.5 4h5q37 0 61.5 -24.5t24.5 -61.5q0 -55 -66 -84l-264 -119q-23 -10 -43 -10q-29 0 -49 20.5t-26.5 40.5t-6.5 33z" />
<glyph unicode="&#xee;" d="M154 76q0 27 9 44t26.5 23.5t30 8.5t32.5 2h225v585h-209q-19 0 -32 2t-30 8.5t-26.5 23.5t-9.5 44q0 76 98 76h283q60 0 78 -20t18 -78v-641h193q19 0 32 -2t30 -8.5t26.5 -23.5t9.5 -44q0 -26 -9.5 -43t-26.5 -23.5t-30 -8t-32 -1.5h-588q-19 0 -32 1.5t-30 8 t-26.5 23.5t-9.5 43zM227 1038q-1 22 12 41.5t27 29.5t53 36l185 119q32 23 65 0l185 -119q63 -42 76 -59q17 -20 16 -48q-3 -65 -82 -65q-15 0 -88 43l-139 86l-140 -86q-71 -43 -88 -43q-79 0 -82 65z" />
<glyph unicode="&#xef;" d="M154 76q0 27 9 44t26.5 23.5t30 8.5t32.5 2h225v585h-209q-19 0 -32 2t-30 8.5t-26.5 23.5t-9.5 44q0 76 98 76h283q60 0 78 -20t18 -78v-641h193q19 0 32 -2t30 -8.5t26.5 -23.5t9.5 -44q0 -26 -9.5 -43t-26.5 -23.5t-30 -8t-32 -1.5h-588q-19 0 -32 1.5t-30 8 t-26.5 23.5t-9.5 43zM262 1126q0 44 31.5 74.5t75.5 30.5t75 -30.5t31 -74.5t-31 -75t-75 -31t-75.5 31t-31.5 75zM600 1126q0 44 31.5 74.5t75.5 30.5t75 -30.5t31 -74.5t-31 -75t-75 -31t-75.5 31t-31.5 75z" />
<glyph unicode="&#xf0;" d="M111 446q0 193 125.5 328t300.5 135q118 0 215 -63q-21 82 -58 143l-22 -22q-25 -25 -58 -25q-32 0 -54.5 23t-22.5 55q0 26 22 55l19 19q-46 16 -93 16q-32 0 -54.5 23t-22.5 55t22.5 55t54.5 23q114 0 203 -58l33 35q23 23 55 23q33 0 55.5 -22.5t22.5 -55.5t-20 -53 l-35 -35q83 -113 123.5 -285.5t40.5 -368.5q0 -91 -33 -176t-94 -149q-127 -133 -299 -133q-173 0 -299.5 132.5t-126.5 325.5zM281 461q0 -132 75.5 -226t180.5 -94t180.5 94t75.5 226q0 126 -76 210.5t-180 84.5q-103 0 -179.5 -84.5t-76.5 -210.5z" />
<glyph unicode="&#xf1;" d="M23 76q0 22 6.5 37.5t15.5 23t24 12t25 5t25 0.5h71v585h-73q-13 0 -22.5 0.5t-24.5 5t-24 12t-16 22.5t-7 36q0 26 9 43t25.5 24t29.5 9t32 2h145q57 0 75.5 -17.5t20.5 -58.5q108 86 246 86q131 0 204 -74t73 -229v-446h71q20 0 32.5 -2t29.5 -8.5t26 -23.5t9 -44 q0 -26 -9.5 -43t-26.5 -23t-29.5 -8t-29.5 -2h-305q-14 0 -24 0.5t-25 5t-25 12t-17 22.5t-7 36q0 27 9 44t26.5 23.5t30 8.5t32.5 2h62v436q0 86 -25 123t-94 37q-38 0 -77 -15t-75 -44t-59 -81t-23 -118v-338h72q20 0 32.5 -2t30 -8.5t26.5 -23.5t9 -44q0 -21 -7 -36 t-16.5 -22.5t-24 -12t-24.5 -5t-24 -0.5h-317q-13 0 -22.5 0.5t-24.5 5t-24 12t-16 22.5t-7 36zM174 1069q0 46 105 123q89 70 163 70q34 0 66.5 -15t43.5 -24.5t36 -32.5q5 -4 13 -11.5t12.5 -11.5t9.5 -8t9 -6t7 -2q35 0 129 84q31 27 57 27q30 0 54 -25t24 -55 q0 -47 -104 -123q-94 -70 -164 -70q-34 0 -65.5 14.5t-45 26t-35.5 33.5q-43 37 -51 37q-39 0 -129 -84q-31 -27 -57 -27q-30 0 -54 25t-24 55z" />
<glyph unicode="&#xf2;" d="M111 446q0 193 125.5 328t300.5 135t300.5 -135t125.5 -328q0 -192 -126.5 -325t-299.5 -133t-299.5 132.5t-126.5 325.5zM281 461q0 -132 75.5 -226t180.5 -94t180.5 94t75.5 226q0 126 -76 210.5t-180 84.5q-103 0 -179.5 -84.5t-76.5 -210.5zM309 1214q0 37 24.5 61.5 t61.5 24.5q18 0 45 -12l265 -119q31 -12 45 -27t14 -46q0 -13 -6.5 -33t-26.5 -41t-49 -21q-17 0 -43 11l-264 118q-66 29 -66 84z" />
<glyph unicode="&#xf3;" d="M111 446q0 193 125.5 328t300.5 135t300.5 -135t125.5 -328q0 -192 -126.5 -325t-299.5 -133t-299.5 132.5t-126.5 325.5zM281 461q0 -132 75.5 -226t180.5 -94t180.5 94t75.5 226q0 126 -76 210.5t-180 84.5q-103 0 -179.5 -84.5t-76.5 -210.5zM311 1096q0 31 14.5 46 t45.5 27l264 119q12 5 23.5 8t16.5 4h5q37 0 61.5 -24.5t24.5 -61.5q0 -55 -66 -84l-264 -118q-26 -11 -43 -11q-29 0 -49 21t-26.5 41t-6.5 33z" />
<glyph unicode="&#xf4;" d="M111 446q0 193 125.5 328t300.5 135t300.5 -135t125.5 -328q0 -192 -126.5 -325t-299.5 -133t-299.5 132.5t-126.5 325.5zM227 1065q-1 17 3.5 29.5t21.5 27.5t25.5 21t41.5 28l185 119q32 23 65 0l185 -119q63 -42 75 -57q18 -22 17 -49q-3 -66 -82 -66q-15 0 -88 43 l-139 86l-140 -86q-71 -43 -88 -43q-79 0 -82 66zM281 461q0 -132 75.5 -226t180.5 -94t180.5 94t75.5 226q0 126 -76 210.5t-180 84.5q-103 0 -179.5 -84.5t-76.5 -210.5z" />
<glyph unicode="&#xf5;" d="M111 446q0 193 125.5 328t300.5 135t300.5 -135t125.5 -328q0 -192 -126.5 -325t-299.5 -133t-299.5 132.5t-126.5 325.5zM174 1096q0 46 105 123q88 69 163 69q34 0 66 -14.5t44 -24.5t36 -32q5 -4 13 -11.5t12.5 -11.5t9.5 -8t9 -6t7 -2q35 0 129 84q30 26 57 26 q30 0 54 -25t24 -55q0 -47 -104 -123q-93 -69 -164 -69q-34 0 -65.5 14.5t-45 26t-35.5 33.5q-41 36 -51 36q-39 0 -129 -84q-30 -26 -57 -26q-30 0 -54 25t-24 55zM281 461q0 -132 75.5 -226t180.5 -94t180.5 94t75.5 226q0 126 -76 210.5t-180 84.5q-103 0 -179.5 -84.5 t-76.5 -210.5z" />
<glyph unicode="&#xf6;" d="M111 446q0 193 125.5 328t300.5 135t300.5 -135t125.5 -328q0 -192 -126.5 -325t-299.5 -133t-299.5 132.5t-126.5 325.5zM262 1153q0 44 31 74t76 30q44 0 75 -30t31 -74t-31 -75t-75 -31t-75.5 31t-31.5 75zM281 461q0 -132 75.5 -226t180.5 -94t180.5 94t75.5 226 q0 126 -76 210.5t-180 84.5q-103 0 -179.5 -84.5t-76.5 -210.5zM600 1153q0 44 31 74t76 30q44 0 75 -30t31 -74t-31 -75t-75 -31t-75.5 31t-31.5 75z" />
<glyph unicode="&#xf7;" d="M74 627q0 86 116 86h693q116 0 116 -86t-106 -86h-713q-106 0 -106 86zM395 203q0 55 40 98t102 43q56 0 97.5 -41t41.5 -102q0 -55 -39.5 -97.5t-101.5 -42.5q-56 0 -98 41t-42 101zM395 1051q0 55 40 97t102 42q56 0 97.5 -40.5t41.5 -100.5q0 -55 -39.5 -98.5 t-101.5 -43.5q-56 0 -98 41.5t-42 102.5z" />
<glyph unicode="&#xf8;" d="M84 -203q0 17 35 84l127 215q-158 143 -158 350q0 124 59.5 230.5t163 169.5t226.5 63q86 0 161 -30l144 247q27 45 67 45q28 0 54 -20t26 -55q0 -22 -16 -49l-144 -250q74 -71 115 -161.5t41 -189.5q0 -191 -132 -324.5t-316 -133.5q-87 0 -160 30l-146 -251 q-23 -46 -67 -46q-28 0 -54 20.5t-26 55.5zM229 446q0 -124 90 -217l299 516q-37 11 -83 11q-126 0 -216 -90.5t-90 -219.5zM459 152q34 -11 80 -11q126 0 215.5 89t89.5 216q0 129 -88 220z" />
<glyph unicode="&#xf9;" d="M23 815q0 26 9 43t25.5 24t29.5 9t32 2h145q60 0 78 -20t18 -78v-539q0 -28 3 -43.5t15.5 -34.5t43 -28t80.5 -9q22 0 45 3.5t54 15.5t55 31.5t40.5 55.5t16.5 83v409h-74q-14 0 -24 0.5t-24.5 5t-24 12t-16.5 22.5t-7 36q0 26 9 43t26 24t30.5 9t32.5 2h145 q59 0 78 -20.5t19 -77.5v-641h73q17 0 29.5 -2t29.5 -8t26.5 -23t9.5 -43q0 -27 -9 -44t-26 -23.5t-29.5 -8.5t-32.5 -2h-145q-18 0 -29.5 1t-26 6t-24 16t-14.5 28q-98 -63 -223 -63q-302 0 -302 256v495h-73q-13 0 -22.5 0.5t-24.5 5t-24 12t-16 22.5t-7 36zM309 1188 q0 37 24.5 61.5t61.5 24.5q18 0 45 -12l265 -119q30 -12 44.5 -27.5t14.5 -46.5q0 -13 -6.5 -33t-26.5 -40.5t-49 -20.5q-20 0 -43 10l-264 119q-66 29 -66 84z" />
<glyph unicode="&#xfa;" d="M23 815q0 26 9 43t25.5 24t29.5 9t32 2h145q60 0 78 -20t18 -78v-539q0 -28 3 -43.5t15.5 -34.5t43 -28t80.5 -9q22 0 45 3.5t54 15.5t55 31.5t40.5 55.5t16.5 83v409h-74q-14 0 -24 0.5t-24.5 5t-24 12t-16.5 22.5t-7 36q0 26 9 43t26 24t30.5 9t32.5 2h145 q59 0 78 -20.5t19 -77.5v-641h73q17 0 29.5 -2t29.5 -8t26.5 -23t9.5 -43q0 -27 -9 -44t-26 -23.5t-29.5 -8.5t-32.5 -2h-145q-18 0 -29.5 1t-26 6t-24 16t-14.5 28q-98 -63 -223 -63q-302 0 -302 256v495h-73q-13 0 -22.5 0.5t-24.5 5t-24 12t-16 22.5t-7 36zM311 1069 q0 31 14.5 46.5t45.5 27.5l264 119q12 5 23.5 8t16.5 4h5q37 0 61.5 -24.5t24.5 -61.5q0 -55 -66 -84l-264 -119q-23 -10 -43 -10q-29 0 -49 20.5t-26.5 40.5t-6.5 33z" />
<glyph unicode="&#xfb;" d="M23 815q0 26 9 43t25.5 24t29.5 9t32 2h145q60 0 78 -20t18 -78v-539q0 -28 3 -43.5t15.5 -34.5t43 -28t80.5 -9q22 0 45 3.5t54 15.5t55 31.5t40.5 55.5t16.5 83v409h-74q-14 0 -24 0.5t-24.5 5t-24 12t-16.5 22.5t-7 36q0 26 9 43t26 24t30.5 9t32.5 2h145 q59 0 78 -20.5t19 -77.5v-641h73q17 0 29.5 -2t29.5 -8t26.5 -23t9.5 -43q0 -27 -9 -44t-26 -23.5t-29.5 -8.5t-32.5 -2h-145q-18 0 -29.5 1t-26 6t-24 16t-14.5 28q-98 -63 -223 -63q-302 0 -302 256v495h-73q-13 0 -22.5 0.5t-24.5 5t-24 12t-16 22.5t-7 36zM227 1038 q-1 22 12 41.5t27 29.5t53 36l185 119q32 23 65 0l185 -119q63 -42 76 -59q17 -20 16 -48q-3 -65 -82 -65q-15 0 -88 43l-139 86l-140 -86q-71 -43 -88 -43q-79 0 -82 65z" />
<glyph unicode="&#xfc;" d="M23 815q0 26 9 43t25.5 24t29.5 9t32 2h145q60 0 78 -20t18 -78v-539q0 -28 3 -43.5t15.5 -34.5t43 -28t80.5 -9q22 0 45 3.5t54 15.5t55 31.5t40.5 55.5t16.5 83v409h-74q-14 0 -24 0.5t-24.5 5t-24 12t-16.5 22.5t-7 36q0 26 9 43t26 24t30.5 9t32.5 2h145 q59 0 78 -20.5t19 -77.5v-641h73q17 0 29.5 -2t29.5 -8t26.5 -23t9.5 -43q0 -27 -9 -44t-26 -23.5t-29.5 -8.5t-32.5 -2h-145q-18 0 -29.5 1t-26 6t-24 16t-14.5 28q-98 -63 -223 -63q-302 0 -302 256v495h-73q-13 0 -22.5 0.5t-24.5 5t-24 12t-16 22.5t-7 36zM262 1126 q0 44 31.5 74.5t75.5 30.5t75 -30.5t31 -74.5t-31 -75t-75 -31t-75.5 31t-31.5 75zM600 1126q0 44 31.5 74.5t75.5 30.5t75 -30.5t31 -74.5t-31 -75t-75 -31t-75.5 31t-31.5 75z" />
<glyph unicode="&#xfd;" d="M49 815q0 22 6.5 37.5t15.5 23t24 12t25 5t25 0.5h234q15 0 25 -0.5t25 -5t24 -12t15.5 -23t6.5 -37.5q0 -26 -9 -43t-26 -23.5t-29.5 -8t-31.5 -1.5h-27l203 -534l176 534h-33q-15 0 -25 0.5t-25 5t-24 12t-15.5 23t-6.5 37.5q0 25 9 42t25.5 23.5t30 8.5t31.5 2h234 q15 0 25 -0.5t25 -5t24 -12t15.5 -23t6.5 -37.5q0 -26 -9 -43t-26 -23.5t-29.5 -8t-31.5 -1.5h-49l-305 -899q-6 -17 -16 -40.5t-39 -72t-62 -86t-86 -67t-111 -29.5q-77 0 -128.5 54.5t-51.5 126.5q0 45 27.5 73.5t74.5 28.5q44 0 73.5 -29t29.5 -73q0 -14 -5 -23 t-11 -14.5t-7 -7.5q31 0 73 34t71 90q10 20 26 66t31 94t16 51l-286 723h-52q-19 0 -31.5 1.5t-29.5 8t-26 23.5t-9 43zM311 1069q0 31 14.5 46.5t45.5 27.5l264 119q12 5 23.5 8t16.5 4h5q37 0 61.5 -24.5t24.5 -61.5q0 -55 -66 -84l-264 -119q-23 -10 -43 -10 q-29 0 -49 20.5t-26.5 40.5t-6.5 33z" />
<glyph unicode="&#xfe;" d="M20 -367q0 22 7 37.5t16 23t24.5 12t26 5t25.5 0.5h71v1387h-73q-18 0 -30.5 2t-30 8t-27 23t-9.5 43q0 22 7 37t16 23t24.5 12t25.5 4.5t26 0.5h145q60 0 78 -20t18 -78v-328q108 78 238 78q166 0 286 -133.5t120 -323.5q0 -96 -35.5 -182t-94.5 -146t-137 -95t-162 -35 q-121 0 -215 82v-359h72q20 0 32.5 -2t30 -8.5t26.5 -23.5t9 -44q0 -26 -9 -42.5t-26.5 -23t-29.5 -8t-31 -1.5h-317q-19 0 -31 1.5t-29.5 8t-27 23t-9.5 42.5zM362 397q0 -36 13 -78.5t37 -83t66 -67.5t93 -27q104 0 184.5 87t80.5 218q0 124 -72.5 214t-175.5 90 q-88 0 -157 -62t-69 -145v-146z" />
<glyph unicode="&#xff;" d="M49 815q0 22 6.5 37.5t15.5 23t24 12t25 5t25 0.5h234q15 0 25 -0.5t25 -5t24 -12t15.5 -23t6.5 -37.5q0 -26 -9 -43t-26 -23.5t-29.5 -8t-31.5 -1.5h-27l203 -534l176 534h-33q-15 0 -25 0.5t-25 5t-24 12t-15.5 23t-6.5 37.5q0 25 9 42t25.5 23.5t30 8.5t31.5 2h234 q15 0 25 -0.5t25 -5t24 -12t15.5 -23t6.5 -37.5q0 -26 -9 -43t-26 -23.5t-29.5 -8t-31.5 -1.5h-49l-305 -899q-6 -17 -16 -40.5t-39 -72t-62 -86t-86 -67t-111 -29.5q-77 0 -128.5 54.5t-51.5 126.5q0 45 27.5 73.5t74.5 28.5q44 0 73.5 -29t29.5 -73q0 -14 -5 -23 t-11 -14.5t-7 -7.5q31 0 73 34t71 90q10 20 26 66t31 94t16 51l-286 723h-52q-19 0 -31.5 1.5t-29.5 8t-26 23.5t-9 43zM262 1126q0 44 31.5 74.5t75.5 30.5t75 -30.5t31 -74.5t-31 -75t-75 -31t-75.5 31t-31.5 75zM600 1126q0 44 31.5 74.5t75.5 30.5t75 -30.5t31 -74.5 t-31 -75t-75 -31t-75.5 31t-31.5 75z" />
<glyph unicode="&#x152;" d="M55 627q0 194 6.5 290.5t24.5 174.5q25 102 94.5 142t218.5 40q58 0 117 -12q52 -11 90 -11h316q60 0 78 -20t18 -78v-145q0 -99 -72 -99q-25 0 -40.5 9.5t-22 27.5t-8 31t-1.5 31v90h-210v-373h229q20 0 32 -2t28.5 -8.5t25 -23.5t8.5 -44q0 -26 -9 -43t-25.5 -23.5 t-29 -8t-30.5 -1.5h-229v-417h225v120q0 18 1.5 31t8 31t22 27.5t40.5 9.5q71 0 71 -99v-176q0 -59 -19 -78.5t-77 -19.5h-330q-43 0 -82 -8q-75 -15 -125 -15q-85 0 -142.5 12t-92 38.5t-52 60.5t-28.5 86q-14 59 -20.5 143t-7.5 142.5t-1 167.5zM195 643q0 -123 1 -176.5 t7 -127.5t18.5 -101t36 -58.5t59.5 -40t89 -8.5q67 0 88.5 43.5t21.5 183.5v535q0 100 -10.5 147.5t-33.5 63.5t-71 16q-145 0 -175.5 -85t-30.5 -387v-5z" />
<glyph unicode="&#x153;" d="M35 449q0 198 90 329t217 131q133 0 229 -155q89 155 217 155q109 0 179.5 -113.5t70.5 -314.5q0 -59 -18 -79.5t-78 -20.5h-293q14 -101 61.5 -170.5t104.5 -69.5t80 103q2 10 6.5 21.5t22 25.5t43.5 14q28 0 49.5 -20t21.5 -54q0 -19 -12.5 -55t-37 -80t-72 -76 t-107.5 -32q-77 0 -137.5 46.5t-98.5 112.5q-38 -67 -96.5 -113t-134.5 -46q-127 0 -217 131.5t-90 329.5zM174 461q0 -132 49.5 -226t112.5 -94t112.5 94t49.5 226q0 127 -49.5 211t-112.5 84t-112.5 -83.5t-49.5 -211.5zM657 532h240q-8 119 -37 171.5t-65 52.5 q-45 0 -84.5 -65t-53.5 -159z" />
<glyph unicode="&#x178;" d="M35 1176q0 26 9 42.5t26 23t29.5 8t31.5 1.5h209q18 0 30 -1.5t29 -8t26 -23t9 -42.5q0 -43 -21.5 -59.5t-60.5 -18.5l187 -416l182 416q-39 2 -60.5 18.5t-21.5 59.5q0 26 9 42.5t26 23t29 8t30 1.5h209q16 0 25.5 -0.5t24.5 -4.5t24 -12t15.5 -23t6.5 -37q0 -26 -9 -43 t-26 -23.5t-29.5 -8t-31.5 -1.5h-33l-286 -598v-346h32q20 0 33 -2t30 -8.5t25.5 -23.5t8.5 -44q0 -21 -7 -36t-16 -22.5t-24 -12t-25 -5t-25 -0.5h-235q-20 0 -33 2t-29.5 8.5t-25 23.5t-8.5 44q0 26 9 43t26 23.5t29.5 8t31.5 1.5h33v346l-289 598h-33q-15 0 -25 0.5 t-25 5t-24 12t-15.5 23t-6.5 37.5zM231 1464q0 45 31 75t76 30t75.5 -30t30.5 -75q0 -44 -31 -75t-75 -31t-75.5 31t-31.5 75zM631 1464q0 45 30.5 75t75.5 30t76 -30t31 -75q0 -44 -31.5 -75t-75.5 -31t-75 31t-31 75z" />
<glyph unicode="&#x2c6;" d="M227 1038q-1 22 12 41.5t27 29.5t53 36l185 119q32 23 65 0l185 -119q63 -42 76 -59q17 -20 16 -48q-3 -65 -82 -65q-15 0 -88 43l-139 86l-140 -86q-71 -43 -88 -43q-79 0 -82 65z" />
<glyph unicode="&#x2dc;" d="M174 1069q0 46 105 123q89 70 163 70q34 0 66.5 -15t43.5 -24.5t36 -32.5q5 -4 13 -11.5t12.5 -11.5t9.5 -8t9 -6t7 -2q35 0 129 84q31 27 57 27q30 0 54 -25t24 -55q0 -47 -104 -123q-94 -70 -164 -70q-34 0 -65.5 14.5t-45 26t-35.5 33.5q-43 37 -51 37q-39 0 -129 -84 q-31 -27 -57 -27q-30 0 -54 25t-24 55z" />
<glyph unicode="&#x2000;" horiz-adv-x="838" />
<glyph unicode="&#x2001;" horiz-adv-x="1677" />
<glyph unicode="&#x2002;" horiz-adv-x="838" />
<glyph unicode="&#x2003;" horiz-adv-x="1677" />
<glyph unicode="&#x2004;" horiz-adv-x="559" />
<glyph unicode="&#x2005;" horiz-adv-x="419" />
<glyph unicode="&#x2006;" horiz-adv-x="279" />
<glyph unicode="&#x2007;" horiz-adv-x="279" />
<glyph unicode="&#x2008;" horiz-adv-x="209" />
<glyph unicode="&#x2009;" horiz-adv-x="335" />
<glyph unicode="&#x200a;" horiz-adv-x="93" />
<glyph unicode="&#x2010;" d="M109 627q0 86 110 86h635q111 0 111 -86t-111 -86h-635q-110 0 -110 86z" />
<glyph unicode="&#x2011;" d="M109 627q0 86 110 86h635q111 0 111 -86t-111 -86h-635q-110 0 -110 86z" />
<glyph unicode="&#x2012;" d="M109 627q0 86 110 86h635q111 0 111 -86t-111 -86h-635q-110 0 -110 86z" />
<glyph unicode="&#x2013;" d="M109 627q0 86 110 86h635q111 0 111 -86t-111 -86h-635q-110 0 -110 86z" />
<glyph unicode="&#x2014;" d="M109 627q0 86 110 86h635q111 0 111 -86t-111 -86h-635q-110 0 -110 86z" />
<glyph unicode="&#x2018;" d="M362 985q0 75 24 143t59 114.5t74.5 81t71 51t48.5 16.5q28 0 53 -24t25 -56q0 -25 -14.5 -40.5t-51.5 -37.5q-67 -42 -101 -113t-34 -149q16 4 21 4q51 0 83.5 -34t32.5 -83q0 -45 -32 -80t-86 -35q-72 0 -122.5 62.5t-50.5 179.5z" />
<glyph unicode="&#x2019;" d="M356 684q0 25 14.5 40.5t51.5 37.5q67 42 101 113t34 149q-16 -4 -20 -4q-51 0 -84 34.5t-33 82.5q0 45 32.5 79.5t86.5 34.5q72 0 122 -62t50 -179q0 -75 -24 -143t-59 -114.5t-74.5 -81t-71 -51t-48.5 -16.5q-28 0 -53 24t-25 56z" />
<glyph unicode="&#x201a;" d="M432 88q-4 68 29.5 97.5t77.5 29.5q15 0 30.5 -4.5t34.5 -16.5t30 -39.5t9 -66.5l-27 -405q-4 -86 -77 -86q-75 0 -80 88z" />
<glyph unicode="&#x201c;" d="M250 1147q-4 68 29.5 97.5t76.5 29.5q15 0 31 -5t35 -17t30 -39.5t9 -65.5l-27 -408q-4 -84 -78 -84q-75 0 -80 86zM612 1147q-4 68 29.5 97.5t77.5 29.5q15 0 31 -5t34.5 -17t29.5 -39.5t9 -65.5l-26 -408q-4 -84 -78 -84q-75 0 -80 86z" />
<glyph unicode="&#x201d;" d="M250 1147q-4 68 29.5 97.5t76.5 29.5q15 0 31 -5t35 -17t30 -39.5t9 -65.5l-27 -408q-4 -84 -78 -84q-75 0 -80 86zM612 1147q-4 68 29.5 97.5t77.5 29.5q15 0 31 -5t34.5 -17t29.5 -39.5t9 -65.5l-26 -408q-4 -84 -78 -84q-75 0 -80 86z" />
<glyph unicode="&#x201e;" d="M250 88q-4 68 29.5 97.5t76.5 29.5q11 0 23.5 -2.5t28.5 -10.5t28 -21t19.5 -37t5.5 -56l-27 -405q-4 -86 -78 -86q-75 0 -80 88zM612 88q-4 68 29.5 97.5t77.5 29.5q15 0 30.5 -4.5t34.5 -16.5t30 -39.5t9 -66.5l-26 -405q-4 -86 -78 -86q-75 0 -80 88z" />
<glyph unicode="&#x2022;" d="M248 485q0 114 82.5 201.5t210.5 87.5q116 0 202 -83.5t86 -209.5q0 -114 -82 -201t-210 -87q-116 0 -202.5 82.5t-86.5 209.5z" />
<glyph unicode="&#x2026;" d="M39 141q0 55 39.5 97.5t101.5 42.5q56 0 97.5 -40.5t41.5 -101.5q0 -55 -39.5 -97t-101.5 -42q-56 0 -97.5 40.5t-41.5 100.5zM397 141q0 55 40 97.5t102 42.5q56 0 97.5 -40.5t41.5 -101.5q0 -55 -39.5 -97t-101.5 -42q-56 0 -98 40.5t-42 100.5zM756 141 q0 55 39.5 97.5t101.5 42.5q56 0 97.5 -40.5t41.5 -101.5q0 -55 -39.5 -97t-101.5 -42q-56 0 -97.5 40.5t-41.5 100.5z" />
<glyph unicode="&#x202f;" horiz-adv-x="335" />
<glyph unicode="&#x2039;" d="M254 627q0 38 33 71l430 373q29 21 45 21q24 0 41.5 -21.5t17.5 -58.5q0 -41 -35 -72l-360 -313l360 -314q11 -10 17 -16t12 -21t6 -34q0 -37 -17.5 -58.5t-41.5 -21.5q-18 0 -45 22l-436 375q-27 27 -27 68z" />
<glyph unicode="&#x203a;" d="M254 242q0 19 6 34t12 21t17 16l360 314l-360 313q-35 31 -35 72q0 37 17.5 58.5t41.5 21.5q16 0 45 -21l430 -373q33 -33 33 -71q0 -42 -26 -68l-437 -375q-28 -22 -45 -22q-24 0 -41.5 21.5t-17.5 58.5z" />
<glyph unicode="&#x205f;" horiz-adv-x="419" />
<glyph unicode="&#x20ac;" d="M125 498l6 30q5 21 21.5 35.5t37.5 14.5h39v49v49h-45q-31 0 -49.5 24t-9.5 52l6 32q5 20 21 33.5t38 13.5h60q25 131 90 238q55 91 134 148t171 57t166 -41l12 14q20 27 58 27h8q30 0 52 -22t22 -52v-190q0 -30 -22 -52t-52 -22h-25q-29 0 -49.5 18t-23.5 45 q-6 51 -45.5 85t-90.5 34q-92 0 -168 -129q-42 -71 -61 -158h334q31 0 48.5 -23t10.5 -54l-8 -31q-3 -20 -19.5 -33.5t-39.5 -13.5h-351v-49v-49h297q31 0 49.5 -24.5t10.5 -53.5l-8 -33q-5 -20 -21 -32.5t-39 -12.5h-264q20 -91 61 -158q75 -131 168 -131q51 0 90.5 34 t45.5 85q3 27 23.5 45t49.5 18h25q30 0 52 -21.5t22 -51.5v-191q0 -30 -22 -52t-52 -22h-8q-39 0 -58 29l-10 12q-77 -41 -168 -41q-92 0 -171 57t-134 148q-66 112 -90 240h-66q-31 0 -49.5 23.5t-9.5 52.5z" />
<glyph unicode="&#x25fc;" horiz-adv-x="890" d="M0 0v891h891v-891h-891z" />
</font>
</defs>
</svg>
