<?xml version="1.0" standalone="no"?>
<!DOCTYPE svg PUBLIC "-//W3C//DTD SVG 1.1//EN" "http://www.w3.org/Graphics/SVG/1.1/DTD/svg11.dtd" >
<svg xmlns="http://www.w3.org/2000/svg">
<metadata></metadata>
<defs>
<font id="latin_modern_mono_light10Rg" horiz-adv-x="1075" >
<font-face units-per-em="2048" ascent="1577" descent="-471" />
<missing-glyph horiz-adv-x="500" />
<glyph horiz-adv-x="0" />
<glyph horiz-adv-x="682" />
<glyph unicode=" " />
<glyph unicode="!" d="M453 84q0 37 24.5 61.5t59.5 24.5t59.5 -24.5t24.5 -61.5q0 -35 -24.5 -59.5t-59.5 -24.5t-59.5 24.5t-24.5 59.5zM453 1176q0 31 10.5 52.5t26 30.5t27 12t20.5 3t20.5 -3t27 -12t26 -30.5t10.5 -52.5l-19 -705q-3 -53 -13 -67.5t-52 -14.5q-62 0 -64 35z" />
<glyph unicode="&#x22;" d="M276 1182q-4 48 22.5 70t51.5 22t50.5 -20.5t21.5 -71.5l-27 -432q-1 -17 -3.5 -27t-13 -19.5t-28.5 -9.5q-42 0 -47 58zM651 1182q-4 48 22.5 70t51.5 22t50.5 -20.5t21.5 -71.5l-27 -432q-1 -17 -3.5 -27t-13 -19.5t-28.5 -9.5q-42 0 -47 58z" />
<glyph unicode="#" d="M78 397q0 54 78 54h123l43 352h-166q-78 0 -78 53t78 53h182l33 275q7 67 55 67q24 0 40 -17.5t11 -57.5l-33 -267h263l32 275q7 67 56 67q24 0 40 -17.5t11 -57.5l-33 -267h105q77 0 77 -53t-77 -53h-121l-43 -352h164q77 0 77 -54q0 -51 -77 -51h-181l-35 -276 q-14 -70 -55 -70q-24 0 -38.5 16t-14.5 37l37 293h-260l-37 -276q-14 -70 -55 -70q-24 0 -39 16t-15 37l37 293h-106q-78 0 -78 51zM385 451h262l43 352h-262z" />
<glyph unicode="$" d="M125 330q0 27 9 46t23.5 26.5t24.5 10.5t19 3q27 0 49 -21.5t22 -54.5q0 -26 -9 -39t-30 -25q28 -95 93.5 -141t167.5 -59v532q-100 19 -173.5 55.5t-109.5 73.5t-57 82t-25 69.5t-4 47.5q0 56 24.5 109.5t70 98.5t117 76.5t157.5 41.5v100q0 18 1.5 29t12 23.5 t31.5 12.5q20 0 30 -12.5t11.5 -23.5t1.5 -29v-98q92 -8 163.5 -37.5t115 -73t65.5 -96t22 -111.5q0 -42 -22.5 -62t-53.5 -20t-51 21.5t-20 50.5q0 35 35 61q-47 154 -254 179v-482q88 -16 155.5 -49.5t106 -71.5t63.5 -83t33 -81t8 -69q0 -55 -21 -108.5t-63 -103.5 t-115 -87.5t-167 -52.5v-99q0 -13 -1 -21t-4.5 -20t-13 -18t-24.5 -6q-21 0 -31.5 12.5t-12 23.5t-1.5 29v99q-179 18 -274 114t-95 228zM219 944q0 -85 77 -146.5t198 -84.5v465q-124 -22 -199.5 -86.5t-75.5 -147.5zM582 76q125 23 198.5 94.5t73.5 161.5 q0 91 -71.5 161.5t-200.5 96.5v-514z" />
<glyph unicode="%" d="M78 1167q0 109 46 184.5t116 75.5t116.5 -74.5t46.5 -187.5q0 -110 -46 -186t-117 -76q-69 0 -115.5 75t-46.5 189zM154 1167q0 -75 30 -124.5t56 -49.5q28 0 58 49t30 125q0 69 -30 119.5t-58 50.5t-57 -50t-29 -120zM186 -123q0 10 13 39l577 1458q21 53 58 53 q21 0 37 -16t16 -37q0 -10 -13 -39l-585 -1476q-17 -35 -49 -35q-22 0 -38 15.5t-16 37.5zM670 84q0 109 46.5 185.5t117.5 76.5t116 -76t45 -186q0 -109 -45 -184.5t-116 -75.5t-117.5 75.5t-46.5 184.5zM745 84q0 -74 30.5 -122t58.5 -48q27 0 56.5 48t29.5 122 q0 75 -29.5 123.5t-56.5 48.5q-28 0 -58.5 -48t-30.5 -124z" />
<glyph unicode="&#x26;" d="M61 268q0 121 76 215l146 158q-62 186 -62 348q0 137 59 211t140 74q49 0 84.5 -24.5t54 -65.5t27 -85t8.5 -93q0 -165 -217 -392q36 -98 182 -340q73 139 213 510q-27 0 -40 1t-28.5 4.5t-21.5 12.5t-6 25q0 15 6 24.5t17.5 13t19 4.5t20.5 1h195q18 0 28.5 -1.5 t22.5 -12t12 -31.5q0 -14 -5.5 -23.5t-17 -12.5t-19.5 -4t-21 -1h-80l-131 -344q-66 -153 -115 -233q20 -28 47 -56t72.5 -58t83.5 -30t68.5 34.5t38.5 119.5q5 33 36 33q4 0 10 -1.5t16.5 -14t10.5 -33.5q0 -36 -10.5 -74t-31.5 -72.5t-57 -56t-81 -21.5q-40 0 -77.5 15 t-72.5 45.5t-52 48.5t-46 51q-64 -78 -126 -119t-136 -41q-108 0 -174 86.5t-66 204.5zM166 274q0 -27 7 -60t21.5 -68.5t43 -59t65.5 -23.5q109 0 211 144q-45 64 -100 164q-59 94 -99 180q-100 -111 -124.5 -154.5t-24.5 -122.5zM297 989q0 -125 45 -282q98 110 137 179.5 t39 119.5q0 14 -4 39t-13 59.5t-30.5 59t-50.5 24.5q-46 0 -84.5 -51.5t-38.5 -147.5z" />
<glyph unicode="'" d="M465 1182q-4 48 22.5 70t51.5 22t50 -20.5t21 -71.5l-26 -432q-1 -17 -3.5 -27t-13 -19.5t-28.5 -9.5q-42 0 -47 58z" />
<glyph unicode="(" d="M369 627q0 108 23 209.5t60.5 179.5t84 146.5t94.5 116t91.5 81.5t74.5 50.5t45 16.5q24 0 34.5 -12.5t10.5 -25.5q0 -22 -41 -46q-104 -71 -180 -163.5t-116.5 -189.5t-58.5 -186t-18 -177q0 -201 90.5 -394t278.5 -321q25 -14 35 -24t10 -23t-10.5 -26t-34.5 -13 q-39 0 -134 79.5t-171 184.5q-168 243 -168 537z" />
<glyph unicode=")" d="M188 -135q0 12 9.5 21.5t31.5 23.5q105 71 181 163.5t116 190t58 186.5t18 177q0 54 -5.5 108t-29.5 140t-64 163t-117 165t-181 157q-17 13 -17 29q0 13 11 25.5t34 12.5q39 0 135 -79.5t171 -184.5q168 -243 168 -536q0 -108 -23 -209.5t-60.5 -179.5t-84.5 -146.5 t-94.5 -116t-91.5 -82t-75 -51t-45 -16.5q-23 0 -34 13t-11 26z" />
<glyph unicode="*" d="M147 432q0 28 41 51l265 144l-267 143q-14 9 -20 12.5t-12.5 13.5t-6.5 23q0 19 14 34t36 15q8 0 12 -2l280 -164l-2 291q0 68 50 68q49 0 49 -68l-2 -288l284 163q25 -1 39 -13t16.5 -20.5t2.5 -15.5q0 -28 -41 -51l-264 -143l290 -156q15 -22 15 -37q0 -19 -13.5 -34 t-35.5 -15q-10 0 -19 4t-49 27l-223 131v-287q0 -68 -49 -68q-50 0 -50 68v289l-282 -164q-25 1 -39 13t-16.5 20.5t-2.5 15.5z" />
<glyph unicode="+" d="M84 627q0 53 78 53h321v324q0 77 54 77q53 0 53 -77v-324h321q78 0 78 -53q0 -54 -78 -54h-321v-323q0 -78 -53 -78q-54 0 -54 78v323h-321q-78 0 -78 54z" />
<glyph unicode="," d="M385 -248q0 23 29 35q22 7 45 19t54.5 34.5t55 59t31.5 80.5l2 40q-22 -20 -65 -20q-46 0 -78.5 31.5t-32.5 81.5q0 45 30.5 77.5t82.5 32.5q65 0 109 -53t44 -137q0 -62 -21 -117.5t-53 -93t-68.5 -65t-68 -40t-51.5 -12.5q-18 0 -31.5 14.5t-13.5 32.5z" />
<glyph unicode="-" d="M121 627q0 53 80 53h671q80 0 80 -53q0 -54 -80 -54h-671q-80 0 -80 54z" />
<glyph unicode="." d="M426 113q0 43 32 76.5t81 33.5q44 0 77 -32t33 -80q0 -43 -31.5 -77t-80.5 -34q-44 0 -77.5 32.5t-33.5 80.5z" />
<glyph unicode="/" d="M125 -123q0 5 16 41l699 1462q1 1 3.5 6.5t3.5 7.5t4 7t4.5 7t5 6t7 5.5t7.5 3.5t9 3t11 1q21 0 37 -16t16 -37q0 -4 -16 -43l-699 -1460q-8 -15 -12 -22t-16 -16t-27 -9q-23 0 -38 16t-15 37z" />
<glyph unicode="0" d="M109 627q0 181 59 330.5t157 233t212 83.5q112 0 210 -82t158 -232.5t60 -334.5q0 -136 -35 -257.5t-93 -206.5t-136.5 -134.5t-163.5 -49.5q-84 0 -162 49t-136.5 133.5t-94 207t-35.5 260.5zM213 647q0 -160 45 -295.5t119.5 -212t159.5 -76.5t159.5 76.5t119 212 t44.5 295.5q0 119 -27.5 222t-73 172t-103.5 108t-119 39q-129 0 -226.5 -152.5t-97.5 -388.5z" />
<glyph unicode="1" d="M225 973q0 34 37 41q34 4 60 12t66.5 30.5t79.5 71.5t71 121q11 25 39 25q19 0 28.5 -13t10.5 -23.5t1 -29.5v-1122h216q13 0 21 -1t19.5 -4.5t17 -13t5.5 -24.5t-6 -24.5t-17.5 -13t-19 -4.5t-20.5 -1h-533q-13 0 -20.5 1t-19 4.5t-17.5 13t-6 24.5t5.5 24.5t17 13 t19.5 4.5t21 1h215v963q-138 -119 -242 -119q-49 0 -49 43z" />
<glyph unicode="2" d="M113 45q0 20 24 41l467 393q120 100 186 198t66 206q0 142 -105 223.5t-253 81.5q-95 0 -169.5 -51.5t-103.5 -141.5q35 -26 35 -59q0 -32 -23 -53t-51 -21q-26 0 -49.5 19.5t-23.5 60.5q0 133 112 232.5t285 99.5q124 0 226 -46.5t163.5 -136.5t61.5 -208 q0 -191 -185 -371q-75 -69 -259.5 -222.5t-242.5 -203.5h582q0 41 2 58t13.5 29.5t37.5 12.5q24 0 36 -11.5t14 -22.5t2 -31v-55q0 -39 -13 -52.5t-51 -13.5h-719q-18 0 -29 1.5t-23.5 12t-12.5 31.5z" />
<glyph unicode="3" d="M96 266q0 38 22 59t52 21q31 0 51.5 -21.5t20.5 -52.5q0 -15 -4.5 -26t-9 -16.5t-17.5 -18.5q31 -55 96.5 -90.5t122.5 -46.5t111 -11q148 0 239.5 87t91.5 198q0 109 -90 197t-247 88h-99q-18 0 -28.5 1.5t-22.5 12t-12 31.5q0 27 25 35t103 14h5q73 4 116.5 16t92.5 52 q46 37 71 91.5t25 108.5q0 80 -77 136.5t-193 56.5q-17 0 -40 -2t-66.5 -9t-86.5 -26.5t-72 -48.5q27 -30 27 -58q0 -34 -22 -54.5t-50 -20.5t-50.5 21t-22.5 59q0 103 102 164t279 61q167 0 271.5 -81.5t104.5 -195.5q0 -185 -200 -315q127 -57 194.5 -143t67.5 -191 q0 -95 -53 -179t-154.5 -138t-228.5 -54q-190 0 -317.5 79.5t-127.5 209.5z" />
<glyph unicode="4" d="M63 422q0 33 9 49l491 770q16 25 27.5 30t44.5 5h57q41 0 54.5 -13t13.5 -53v-766h186q17 0 28 -1.5t23.5 -12t12.5 -31.5q0 -41 -64 -41h-186v-272h151q18 0 29 -1.5t23 -11.5t12 -30t-12.5 -30t-23.5 -11.5t-28 -1.5h-381q-13 0 -20.5 1t-19 4.5t-17.5 13t-6 24.5 t5.5 24.5t17 13t19.5 4.5t21 1h152v272h-555q-38 0 -51 12.5t-13 51.5zM154 444h528v746h-55z" />
<glyph unicode="5" d="M113 279q0 44 23.5 62.5t49.5 18.5q29 0 51.5 -20t22.5 -53q0 -6 -1 -11.5t-1.5 -9.5t-3.5 -9t-4 -7.5t-5 -7.5t-5 -6.5t-6.5 -7.5t-6.5 -7q25 -48 63 -82t80 -49t75 -21t63 -6q143 0 245.5 92t102.5 226q0 56 -19.5 111t-55 100.5t-92 73.5t-124.5 28q-187 0 -291 -125 q-12 -12 -38 -12q-22 0 -33 11.5t-13 23t-2 31.5v563q0 38 13 51.5t51 13.5h571q18 0 29 -1.5t23 -12t12 -31.5q0 -41 -64 -41h-530v-458q138 73 274 73q115 0 206.5 -57.5t139.5 -148.5t48 -193q0 -110 -60 -203t-164.5 -147t-228.5 -54q-167 0 -281 88t-114 214z" />
<glyph unicode="6" d="M115 612q0 150 47 277t124 210t175 129t201 46q131 0 195.5 -58t64.5 -139q0 -36 -21 -57t-53 -21t-52 21t-20 51q0 21 5.5 32.5t23.5 29.5q-55 55 -146 55q-75 0 -146.5 -34.5t-133.5 -100.5t-105.5 -172.5t-56.5 -239.5q95 86 176.5 121t165.5 35q166 0 282.5 -119.5 t116.5 -290.5q0 -88 -34.5 -165.5t-92 -130.5t-133 -83.5t-157.5 -30.5q-64 0 -122.5 19t-115 66t-97.5 117.5t-66 181.5t-25 251zM240 449q0 -79 18 -138q36 -112 107.5 -180t175.5 -68q127 0 220 91t93 233q0 130 -85.5 225t-219.5 95q-130 0 -219.5 -76t-89.5 -182z" />
<glyph unicode="7" d="M96 1130v89q0 21 1.5 32.5t13.5 23t36 11.5q40 0 54 -35h712q18 0 29 -1.5t23 -12t12 -31.5q0 -13 -8 -24q-502 -490 -502 -1147q-1 -29 -16 -43.5t-35 -14.5q-54 0 -54 78t10 163t41 204.5t80.5 235.5t136 251t199.5 256h-628q0 -58 -8.5 -79t-45.5 -21q-24 0 -36 11.5 t-13.5 22.5t-1.5 31z" />
<glyph unicode="8" d="M96 348q0 240 305 326q-157 52 -216.5 120.5t-59.5 161.5q0 126 118.5 222t293.5 96q174 0 292.5 -95.5t118.5 -222.5q0 -93 -58.5 -161t-215.5 -121q303 -87 303 -326q0 -151 -126.5 -261t-313.5 -110q-186 0 -313.5 110.5t-127.5 260.5zM201 350q0 -119 98 -203 t238 -84t237.5 84t97.5 203q0 109 -92.5 192t-242.5 83q-149 0 -242.5 -83t-93.5 -192zM229 954q0 -95 90.5 -160t217.5 -65q128 0 217.5 64t89.5 161q0 92 -88.5 163t-218.5 71q-131 0 -219.5 -71t-88.5 -163z" />
<glyph unicode="9" d="M115 864q0 89 35.5 166.5t94.5 130.5t137 83t161 30q62 0 118.5 -18t111.5 -64t95.5 -116t65 -182.5t24.5 -254.5q0 -147 -43.5 -273t-115.5 -210t-166 -131.5t-195 -47.5q-71 0 -125.5 15t-84 36t-47.5 49.5t-23.5 51.5t-5.5 45q0 36 20.5 57t52.5 21t52 -21t20 -51 q0 -5 -0.5 -10t-1 -8.5t-2.5 -8t-2.5 -6.5t-4 -7t-4.5 -6.5t-5.5 -8t-6.5 -8.5q73 -54 168 -54q162 0 279 151t137 394q-93 -85 -174.5 -119t-165.5 -34q-166 0 -282.5 119t-116.5 290zM219 864q0 -130 85.5 -224.5t219.5 -94.5q135 0 223.5 79t88.5 179l-7 80q0 22 -24 90 t-62 117q-81 98 -200 98q-129 0 -226.5 -91t-97.5 -233z" />
<glyph unicode=":" d="M426 113q0 43 32 76.5t81 33.5q44 0 77 -32t33 -80q0 -43 -31.5 -77t-80.5 -34q-44 0 -77.5 32.5t-33.5 80.5zM426 760q0 43 32 76.5t81 33.5q44 0 77 -32t33 -80q0 -43 -31.5 -77t-80.5 -34q-44 0 -77.5 32.5t-33.5 80.5z" />
<glyph unicode=";" d="M385 -248q0 19 23 33q25 14 39.5 24t42.5 35.5t48.5 64.5t32.5 91q-78 0 -111.5 33.5t-33.5 79.5q0 45 32 77.5t79 32.5q56 0 89 -48t33 -138q0 -63 -19.5 -119t-48.5 -93.5t-62 -65.5t-59 -41t-40 -13q-18 0 -31.5 14.5t-13.5 32.5zM426 760q0 43 32 76.5t81 33.5 q44 0 77 -32t33 -80q0 -43 -31.5 -77t-80.5 -34q-44 0 -77.5 32.5t-33.5 80.5z" />
<glyph unicode="&#x3c;" d="M121 627q0 30 37 51l696 438q30 19 45 19q20 0 36.5 -14.5t16.5 -39.5q0 -27 -41 -53l-637 -401l637 -402q41 -26 41 -53q0 -25 -16 -39t-37 -14q-17 0 -45 18l-704 443q-29 21 -29 47z" />
<glyph unicode="=" d="M84 465q0 53 74 53h757q74 0 74 -53q0 -51 -86 -51h-733q-86 0 -86 51zM84 788q0 52 86 52h733q86 0 86 -52q0 -53 -74 -53h-757q-74 0 -74 53z" />
<glyph unicode="&#x3e;" d="M121 172q0 27 41 53l637 402l-637 401q-41 26 -41 53q0 25 16.5 39.5t36.5 14.5q15 0 45 -19l705 -442q28 -20 28 -47q0 -31 -37 -52l-698 -438q-26 -18 -43 -18q-21 0 -37 14t-16 39z" />
<glyph unicode="?" d="M135 1026q0 45 21 85.5t63.5 75.5t119 56t177.5 21q88 0 159 -12.5t115 -34t75 -46.5t46 -54t21 -51.5t6 -43.5q0 -114 -127 -186q-75 -40 -126 -86t-75 -92t-33.5 -85.5t-9.5 -83.5v-36q0 -39 -13 -51.5t-50 -12.5q-44 0 -54 17.5t-10 72.5q0 35 2 60t18 75.5t44.5 92.5 t88.5 95.5t144 100.5q30 16 48 28.5t34.5 37t16.5 53.5q0 62 -79.5 109t-240.5 47q-176 0 -264 -95q29 -36 29 -61q0 -32 -22 -53t-50 -21q-29 0 -51.5 21t-22.5 57zM420 84q0 37 24.5 61.5t59.5 24.5q37 0 61.5 -24.5t24.5 -61.5q0 -35 -24.5 -59.5t-61.5 -24.5 q-35 0 -59.5 24.5t-24.5 59.5z" />
<glyph unicode="@" d="M96 627q0 135 44 254.5t117 203t169 131.5t199 48q57 0 105 -17t81.5 -43.5t61 -68t44.5 -80t29 -91t18 -90t9 -87t3.5 -72.5t0.5 -56q0 -99 -20.5 -178t-52 -125.5t-71.5 -77.5t-75 -42t-68 -11q-114 0 -198 114t-84 288q0 169 82 284t202 115q31 0 65 -12t54 -23.5 t61 -38.5q-87 226 -247 226q-85 0 -166.5 -40.5t-145 -111.5t-102.5 -176t-39 -225q0 -152 64 -280t168.5 -199.5t222.5 -71.5q138 0 250 104q10 8 41 8q59 0 59 -39q0 -29 -48.5 -66t-132 -65t-167.5 -28q-106 0 -203.5 49t-170 132.5t-116 203.5t-43.5 254zM483 625 q0 -130 63.5 -222t145.5 -92q79 0 144 90t65 224t-64.5 224.5t-146.5 90.5q-78 0 -142.5 -89t-64.5 -226z" />
<glyph unicode="A" d="M59 43q0 29 25 41q12 2 98 2l260 1126q6 23 14 36.5t22 19t25 7t34 1.5q25 0 36 -1t24.5 -7t20.5 -20t13 -38l260 -1124q84 0 96 -2q27 -11 27 -41q0 -15 -6.5 -24.5t-20 -13t-22 -4.5t-23.5 -1h-215q-15 0 -23.5 1t-20.5 4.5t-18 13t-6 24.5q0 30 24.5 36.5t98.5 6.5 l-57 264h-377l-57 -264q40 0 57 -0.5t35.5 -4.5t24.5 -13t6 -25q0 -15 -6 -24.5t-18 -13t-20.5 -4.5t-23.5 -1h-217q-14 0 -22.5 1t-21.5 4.5t-19.5 13t-6.5 24.5zM371 436h331l-157 754h-15z" />
<glyph unicode="B" d="M51 43q0 15 6 24.5t18 13t20.5 4.5t21.5 1h80v1079h-80q-13 0 -21.5 1t-20.5 4.5t-18 13t-6 24.5q0 43 64 43h479q80 0 146.5 -27.5t108 -72t64.5 -98.5t23 -109q0 -98 -61 -171t-201 -120q163 -39 235 -123.5t72 -197.5q0 -60 -22.5 -118t-64.5 -106.5t-109 -78 t-148 -29.5h-522q-64 0 -64 43zM299 86h291q71 0 128 23t90.5 60t51 80t17.5 87q0 105 -92 188.5t-234 83.5h-252v-522zM299 694h240q79 0 139.5 25t92.5 64.5t47.5 79.5t15.5 79q0 26 -6.5 53.5t-24.5 58.5t-44.5 55t-71.5 40t-101 16h-287v-471z" />
<glyph unicode="C" d="M88 627q0 182 67.5 331.5t179.5 232.5t243 83q149 0 280 -113q39 72 43 88q20 25 41 25q15 0 24.5 -6t13 -18t4.5 -20t1 -22v-293q0 -16 -1 -24.5t-5.5 -19.5t-16 -16t-30.5 -5q-15 0 -25 3.5t-15.5 12.5t-7.5 15t-5 20q-23 134 -105.5 210.5t-187.5 76.5q-74 0 -145 -42 t-127 -114t-90 -178.5t-34 -226.5q0 -121 34 -227.5t89.5 -179.5t127.5 -115t147 -42q31 0 65 7.5t74 27t72 49.5t55 80.5t27 114.5q4 41 51 41q53 0 53 -49q0 -67 -31 -131.5t-84 -114.5t-129.5 -80.5t-160.5 -30.5q-132 0 -244.5 83.5t-180 233.5t-67.5 333z" />
<glyph unicode="D" d="M43 43q0 15 6 24.5t18 13t20.5 4.5t21.5 1h67v1079h-67q-66 0 -66 41q0 16 6 26t18 13.5t20.5 4.5t21.5 1h436q131 0 234 -91.5t155.5 -235t52.5 -308.5t-54 -304.5t-156.5 -225.5t-231.5 -86h-436q-66 0 -66 43zM281 86h223q90 0 164 46t120.5 122t71.5 169.5t25 192.5 q0 98 -24.5 194t-70.5 176t-120.5 129.5t-165.5 49.5h-223v-1079z" />
<glyph unicode="E" d="M57 43q0 15 6 24.5t18 13t20 4.5t22 1h86v1079h-86q-66 0 -66 43t66 43h790q39 0 51.5 -13.5t12.5 -51.5v-156q0 -21 -1.5 -32t-14 -22t-37.5 -11q-24 0 -36 11.5t-14 22.5t-2 31v135h-561v-473h322q0 75 7.5 98t43.5 23q24 0 36 -11.5t13 -22.5t2 -31v-197 q0 -21 -1.5 -32t-13.5 -22.5t-36 -11.5q-36 0 -43.5 23t-7.5 98h-322v-520h609v168q0 21 1.5 32t14 22t37.5 11q24 0 36 -11t13.5 -22t1.5 -32v-188q0 -39 -12.5 -52.5t-50.5 -13.5h-838q-66 0 -66 43z" />
<glyph unicode="F" d="M61 43q0 15 6 24.5t18 13t20.5 4.5t21.5 1h92v1079h-92q-66 0 -66 41q0 16 6 26t18 13.5t20.5 4.5t21.5 1h807q40 0 51.5 -13.5t11.5 -51.5v-156q0 -21 -1.5 -32t-13.5 -22t-36 -11t-36 11.5t-13.5 22.5t-1.5 31v135h-571v-495h329q0 75 8.5 98t45.5 23q24 0 36 -12 t13.5 -23t1.5 -31v-199q0 -20 -1.5 -31t-13.5 -22.5t-36 -11.5q-37 0 -45.5 23t-8.5 98h-329v-496h131q13 0 21 -1t19.5 -4.5t17 -13t5.5 -24.5t-6 -24.5t-17.5 -13t-19 -4.5t-20.5 -1h-328q-66 0 -66 43z" />
<glyph unicode="G" d="M84 627q0 181 61 330t164.5 233t225.5 84q131 0 256 -109q31 71 43 90t34 19q15 0 24.5 -6t13 -18t4.5 -20t1 -22v-293q0 -16 -1 -24.5t-5.5 -19.5t-16 -16t-30.5 -5q-42 0 -49 33q-14 90 -46.5 154.5t-73 95t-76 43t-70.5 12.5q-65 0 -128.5 -41t-114.5 -113 t-82.5 -179.5t-31.5 -229.5q0 -119 30 -225t79.5 -179t114 -115.5t131.5 -42.5q99 0 171.5 92t92.5 287h-113q-17 0 -27.5 1.5t-23 12t-12.5 31.5q0 14 6 23.5t17.5 12.5t19 4t20.5 1h254q66 0 66 -41q0 -16 -6.5 -26t-23 -13.5t-30 -4.5t-41.5 -1v-376q0 -20 -1.5 -31 t-13.5 -23t-36 -12q-37 0 -45 24t-8 101q-62 -72 -127 -110t-145 -38q-121 0 -224.5 83.5t-165 233.5t-61.5 333z" />
<glyph unicode="H" d="M49 43q0 20 12 30t23 11.5t29 1.5h73v1079h-73q-64 0 -64 41q0 21 12 31.5t23 12t29 1.5h252q18 0 28.5 -1.5t22.5 -12t12 -31.5q0 -14 -6 -23.5t-17.5 -12.5t-19 -4t-20.5 -1h-74v-471h491v471h-73q-18 0 -29 1.5t-23 11.5t-12 30t12.5 30t23.5 11.5t28 1.5h252 q18 0 28.5 -1.5t22.5 -12t12 -31.5q0 -14 -6 -23.5t-17.5 -12.5t-19 -4t-20.5 -1h-74v-1079h74q13 0 21 -1t19.5 -4.5t17 -13t5.5 -24.5t-6 -24.5t-17.5 -13t-19 -4.5t-20.5 -1h-252q-18 0 -29 1.5t-23 12t-12 31.5q0 41 64 41h73v522h-491v-522h74q13 0 21 -1t19.5 -4.5 t17 -13t5.5 -24.5t-6 -24.5t-17.5 -13t-19 -4.5t-20.5 -1h-252q-17 0 -28 1.5t-23.5 11.5t-12.5 30z" />
<glyph unicode="I" d="M170 45q0 41 66 41h249v1079h-249q-66 0 -66 43t66 43h604q17 0 28 -1.5t24 -12t13 -31.5q0 -41 -65 -41h-250v-1079h250q65 0 65 -43t-65 -43h-604q-66 0 -66 45z" />
<glyph unicode="J" d="M154 188q0 38 21 58t52 20t51.5 -21t20.5 -50q0 -17 -4.5 -26.5t-20.5 -31.5q82 -74 209 -74q20 0 42.5 2.5t59.5 15t64.5 33t48.5 62.5t21 98v891h-195q-13 0 -21 1t-20 4.5t-18 13t-6 24.5q0 43 65 43h383q66 0 66 -43q0 -15 -6 -24.5t-18 -13t-20.5 -4.5t-21.5 -1h-84 v-903q0 -87 -48.5 -153t-125 -99t-166.5 -33q-147 0 -238 58.5t-91 152.5z" />
<glyph unicode="K" d="M57 45q0 41 66 41h63v1079h-63q-14 0 -22 1t-20 4.5t-18 13t-6 24.5q0 43 66 43h213q18 0 29 -1.5t23.5 -12t12.5 -31.5q0 -41 -65 -41h-68v-645l512 645q-32 0 -46.5 0.5t-32 4.5t-24.5 12.5t-7 23.5q0 21 13 31.5t24 12t28 1.5h187q65 0 65 -43q0 -11 -2.5 -18.5 t-10.5 -12t-14.5 -7t-22 -4t-26 -1.5h-32.5l-338 -426l366 -653q23 0 34 -0.5t27 -2.5t23.5 -6.5t13 -12.5t5.5 -21q0 -15 -6.5 -24.5t-19 -13t-20.5 -4.5t-22 -1h-158q-18 0 -29 1.5t-23.5 12t-12.5 31.5q0 15 6.5 23.5t22.5 12.5t29.5 4.5t41.5 0.5l-330 590l-221 -279 v-311h68q13 0 21 -1t20 -4.5t18 -13t6 -24.5q0 -43 -65 -43h-213q-13 0 -21.5 1t-20.5 4.5t-18 13.5t-6 26z" />
<glyph unicode="L" d="M72 43q0 15 5.5 24.5t17 13t19.5 4.5t21 1h98v1079h-98q-13 0 -21 1t-19.5 4t-17 12.5t-5.5 23.5q0 21 12 31.5t22.5 12t28.5 1.5h342q66 0 66 -45q0 -41 -66 -41h-139v-1079h553v168q0 22 1.5 33t13.5 21.5t36 10.5t36 -11t13.5 -22t1.5 -32v-188q0 -39 -12 -52.5 t-51 -13.5h-795q-13 0 -21 1t-19.5 4.5t-17 13t-5.5 24.5z" />
<glyph unicode="M" d="M39 43q0 11 2.5 18.5t10.5 12t15 7t23.5 4t27 1.5h34.5v1079h-34.5t-27 1.5t-23.5 4t-15 7t-10.5 12t-2.5 18.5q0 15 6 24.5t17.5 13t19 4.5t20.5 1h119q79 0 90 -37l224 -696h4l213 664q12 37 31.5 53t68.5 16h119q13 0 20.5 -1t19 -4.5t17.5 -13t6 -24.5 q0 -11 -2.5 -18.5t-10.5 -12t-15 -7t-23 -4t-26.5 -1.5h-34.5v-1079h34.5t26.5 -1.5t23 -4t15 -7t10.5 -12t2.5 -18.5q0 -15 -6 -24.5t-17.5 -13t-19 -4.5t-20.5 -1h-174q-17 0 -28 1.5t-23.5 11.5t-12.5 30q0 11 2.5 18.5t10.5 12t15 7t23.5 4t27 1.5h34.5v1079h-15 l-227 -698q-5 -18 -26 -26.5t-41 -8.5q-53 0 -62 27l-231 706h-15v-1079h33.5t26.5 -1.5t23 -4t15 -7t10.5 -12t2.5 -18.5q0 -20 -12.5 -30t-23.5 -11.5t-28 -1.5h-174q-13 0 -20.5 1t-19 4.5t-17.5 13t-6 24.5z" />
<glyph unicode="N" d="M61 45q0 41 64 41h76v1079h-76q-18 0 -29 1.5t-23 11.5t-12 30t12.5 30t23.5 11.5t28 1.5h145q41 0 62 -11t37 -50l409 -1104h19v1079h-74q-64 0 -64 41q0 21 12 31.5t23 12t29 1.5h225q18 0 29 -1.5t23 -12t12 -31.5q0 -41 -64 -41h-76v-1099q0 -43 -13.5 -54.5 t-53.5 -11.5q-27 0 -41.5 2.5t-31 16.5t-27.5 42l-410 1104h-19v-1079h74q18 0 29 -1.5t23 -11.5t12 -30t-12.5 -30t-23.5 -11.5t-28 -1.5h-225q-18 0 -29 1.5t-23 12t-12 31.5z" />
<glyph unicode="O" d="M121 625q0 120 2 198.5t10.5 152t19.5 115.5t35 79.5t51 54.5t74.5 30t97 16t126.5 3q61 0 103.5 -2t84 -9.5t68.5 -17t52.5 -30.5t40.5 -44t28.5 -63t19.5 -82t11 -107t6 -132t1 -162q0 -119 -2 -197.5t-10.5 -152t-19.5 -115.5t-35.5 -79.5t-51 -54.5t-73.5 -30 t-97 -16t-126 -3q-61 0 -103.5 2t-84.5 9.5t-68.5 17t-52.5 30t-40.5 43.5t-28 63t-20 82.5t-11.5 107t-6 131.5t-1 162zM225 643q0 -303 27 -414q21 -91 80 -128.5t205 -37.5q102 0 160.5 19t85.5 56.5t40 105.5q25 115 25 399q0 293 -27 393q-25 92 -86.5 122t-197.5 30 q-144 0 -205 -33.5t-82 -132.5q-25 -100 -25 -379z" />
<glyph unicode="P" d="M57 43q0 15 6 24.5t18 13t20 4.5t22 1h86v1079h-86q-66 0 -66 43t66 43h475q110 0 198.5 -53t134.5 -136t46 -177t-45.5 -177t-134 -136.5t-199.5 -53.5h-287v-432h86q66 0 66 -43t-66 -43h-274q-66 0 -66 43zM311 606h246q63 0 116.5 17.5t89.5 46t61 65t36.5 75 t11.5 75.5q0 47 -19 95t-55.5 90t-99.5 68.5t-141 26.5h-246v-559z" />
<glyph unicode="Q" d="M121 625q0 120 2 198.5t10.5 152t19.5 115.5t35 79.5t51 54.5t74.5 30t97 16t126.5 3q61 0 103.5 -2t84 -9.5t68.5 -17t52.5 -30.5t40.5 -44t28.5 -63t19.5 -82t11 -107t6 -132t1 -162q0 -238 -14 -353q-12 -123 -45 -182t-113 -92l80 -148q64 -120 64 -124 q0 -21 -47 -21h-19q-45 0 -55 16l-135 259q-56 -3 -131 -3q-61 0 -103.5 2t-84.5 9.5t-68.5 17t-52.5 30t-40.5 43.5t-28 63t-20 82.5t-11.5 107t-6 131.5t-1 162zM225 625q0 -254 19 -371q8 -40 18.5 -67.5t30 -52.5t48.5 -39.5t73.5 -23t105.5 -8.5h103l-119 230l-2 8 q0 18 47 18h24q23 0 29 -2.5t16 -19.5l113 -205q26 17 39 29.5t31 47t26 86.5t14.5 145.5t6.5 226.5q0 253 -19 370q-20 111 -80 151t-212 40q-105 0 -163 -18.5t-84.5 -54t-41.5 -103.5q-23 -102 -23 -387z" />
<glyph unicode="R" d="M49 43q0 20 12 30t23 11.5t29 1.5h73v1079h-73q-64 0 -64 41q0 21 12 31.5t23 12t29 1.5h374q171 0 280.5 -99.5t109.5 -233.5q0 -75 -44.5 -153.5t-152.5 -139.5q93 -72 123 -140q13 -33 15.5 -61.5t2.5 -128.5q0 -111 16.5 -171.5t63.5 -60.5q29 0 45.5 44t16.5 73 q2 43 51 43q51 0 51 -47q0 -41 -14.5 -84t-53.5 -79t-94 -36q-95 0 -145 78q-28 50 -34.5 101.5t-6.5 165.5q0 83 -9 122.5t-44 73.5q-75 64 -187 64h-186v-496h74q13 0 21 -1t19.5 -4.5t17 -13t5.5 -24.5t-6 -24.5t-17.5 -13t-19 -4.5t-20.5 -1h-252q-17 0 -28 1.5 t-23.5 11.5t-12.5 30zM291 670h174q75 0 136 22.5t97.5 59t56 79.5t19.5 87q0 42 -19 84.5t-55.5 79.5t-97.5 60t-137 23h-174v-495z" />
<glyph unicode="S" d="M113 43v279q0 21 1.5 32t14 22t37.5 11q22 0 33.5 -9t14 -18t3.5 -26q6 -136 109 -201q104 -70 260 -70q86 0 151 40t96 97t31 119q0 56 -20.5 102t-48 72t-67 46t-64 27.5t-52.5 13.5l-241 57q-121 34 -189.5 121t-68.5 190q0 132 105.5 229t266.5 97q174 0 310 -115 q24 85 35 100t30 15q15 0 24.5 -6t13 -18t4.5 -20t1 -22v-278q0 -21 -1.5 -32t-14 -22.5t-37.5 -11.5q-42 0 -49 31q-5 26 -9 43t-15.5 50.5t-25.5 57t-39 52.5t-55 47t-75 30.5t-99 12.5q-119 0 -196.5 -69.5t-77.5 -162.5q0 -78 53 -137t131 -82l172 -39 q135 -31 187.5 -52.5t111.5 -78.5q97 -105 97 -237q0 -140 -105.5 -246.5t-271.5 -106.5q-216 0 -363 111q-19 -70 -30 -90.5t-35 -20.5q-15 0 -24.5 6t-13 18t-4.5 20.5t-1 21.5z" />
<glyph unicode="T" d="M57 1030v156q0 39 13.5 52t52.5 13h829q39 0 51.5 -13.5t12.5 -51.5v-156q0 -21 -1.5 -32t-14 -22t-37.5 -11q-24 0 -36 11.5t-14 22.5t-2 31v135h-321v-1079h131q13 0 21 -1t19.5 -4.5t17 -13t5.5 -24.5t-6 -24.5t-17.5 -13t-19 -4.5t-20.5 -1h-367q-18 0 -28.5 1.5 t-22.5 12t-12 31.5q0 14 6 23.5t17.5 12.5t19 4t20.5 1h131v1079h-323v-135q0 -21 -1.5 -32t-14 -22t-37.5 -11q-24 0 -36 11.5t-14 22.5t-2 31z" />
<glyph unicode="U" d="M12 1208q0 15 6 24.5t18 13t20 4.5t22 1h272q66 0 66 -43t-66 -43h-84v-743q0 -87 25 -158t65.5 -113.5t87 -65t93.5 -22.5q46 0 92.5 22.5t87 65t65.5 113.5t25 158v743h-84q-66 0 -66 43t66 43h272q13 0 21.5 -1t20.5 -4.5t18 -13t6 -24.5t-6 -24.5t-18 -13t-20.5 -4.5 t-21.5 -1h-84v-753q0 -184 -110.5 -309.5t-263.5 -125.5t-264 126t-111 309v753h-84q-14 0 -22 1t-20 4.5t-18 13t-6 24.5z" />
<glyph unicode="V" d="M41 1208q0 43 65 43h218q65 0 65 -43q0 -30 -25.5 -36.5t-99.5 -6.5l266 -1097l15 2l264 1095q-40 0 -57 0.5t-36.5 4.5t-25.5 13t-6 25q0 43 66 43h217q65 0 65 -43q0 -11 -2.5 -18.5t-11 -12t-15.5 -7t-23.5 -4t-28 -1.5h-36.5l-282 -1120q-8 -29 -23 -43t-29 -16 t-44 -2q-24 0 -35 1t-25.5 6.5t-22.5 19t-14 36.5l-282 1118h-36.5t-28 1.5t-23.5 4t-15.5 7t-11 12t-2.5 18.5z" />
<glyph unicode="W" d="M27 1206q0 21 13 31.5t24 12t28 1.5h168q18 0 29 -1.5t23 -12t12 -31.5q0 -41 -64 -41h-70l138 -1095h8l133 632q8 33 68 33q61 0 69 -35l129 -630h8l140 1095h-70q-13 0 -20.5 1t-19 4t-17.5 12.5t-6 23.5q0 21 12 31.5t22.5 12t28.5 1.5h168q66 0 66 -45 q0 -15 -6.5 -24t-20 -12t-23.5 -4t-28 -1l-154 -1126q-8 -55 -76 -55q-59 0 -67 36l-133 619l-140 -627q-15 -28 -65 -28q-68 0 -76 55l-154 1126h-20q-57 0 -57 41z" />
<glyph unicode="X" d="M59 43q0 20 12 30t23 11.5t29 1.5h59l293 582l-264 497h-61q-14 0 -22 1t-20 4.5t-18 13t-6 24.5q0 43 66 43h219q13 0 20.5 -1t19 -4.5t17.5 -13t6 -24.5q0 -21 -14 -30.5t-31.5 -11t-58.5 -1.5l198 -379l185 379h-33.5t-26.5 1.5t-23 4t-15 7t-10.5 12t-2.5 18.5 q0 20 12.5 30t23.5 11.5t28 1.5h221q17 0 28 -1.5t24 -12t13 -31.5q0 -41 -65 -41h-62l-250 -495l312 -584h61q66 0 66 -43t-66 -43h-221q-13 0 -20.5 1t-19 4.5t-17.5 13t-6 24.5q0 11 2.5 18.5t10 12t14 7t22 4t26 1.5h33.5l-246 481l-227 -481q34 0 49 -0.5t33 -4.5 t24.5 -13t6.5 -25q0 -43 -66 -43h-221q-17 0 -28 1.5t-23.5 11.5t-12.5 30z" />
<glyph unicode="Y" d="M43 1208q0 15 6 24.5t17.5 13t19 4.5t20.5 1h222q13 0 20.5 -1t19 -4.5t17.5 -13t6 -24.5q0 -11 -2.5 -18.5t-10.5 -12t-14.5 -7t-22.5 -4t-26.5 -1.5h-33.5l258 -573l252 573q-43 0 -61.5 1.5t-33 11t-14.5 30.5q0 15 6 24.5t17.5 13t19 4.5t20.5 1h222q18 0 28.5 -1.5 t22.5 -12t12 -31.5q0 -14 -6 -23.5t-17.5 -12.5t-19 -4t-20.5 -1h-58l-319 -665v-414h74q13 0 21 -1t19.5 -4.5t17 -13t5.5 -24.5t-6 -24.5t-17.5 -13t-19 -4.5t-20.5 -1h-252q-18 0 -29 1.5t-23 12t-12 31.5q0 41 64 41h73v414l-321 665h-58q-13 0 -21 1t-19.5 4.5t-17 13 t-5.5 24.5z" />
<glyph unicode="Z" d="M104 51q0 25 19 53l719 1061h-609v-135q0 -21 -1.5 -32t-14 -22t-37.5 -11q-24 0 -36 11.5t-13.5 22.5t-1.5 31v156q0 39 14 52t54 13h706q20 0 31 -1.5t23 -13.5t12 -36t-19 -53l-719 -1061h643v174q0 15 1 24t6 20t16.5 16.5t30.5 5.5q24 0 36 -11.5t13.5 -22.5 t1.5 -32v-194q0 -39 -12.5 -52.5t-51.5 -13.5h-745q-20 0 -31 1.5t-23 13.5t-12 36z" />
<glyph unicode="[" d="M473 -111v1473q0 39 12.5 52t51.5 13h383q18 0 28.5 -1.5t22.5 -12t12 -31.5q0 -15 -6 -24.5t-17.5 -13t-19 -4.5t-20.5 -1h-342v-1427h342q18 0 28.5 -1.5t22.5 -12t12 -31.5q0 -15 -6 -24.5t-17.5 -13t-19 -4.5t-20.5 -1h-383q-39 0 -51.5 13.5t-12.5 51.5z" />
<glyph unicode="\" d="M125 1374q0 21 15 37t38 16q15 0 27.5 -9t17 -16.5t10.5 -19.5l701 -1464q14 -23 14 -41q0 -21 -16 -37t-37 -16q-33 0 -55 45l-701 1464q-14 23 -14 41z" />
<glyph unicode="]" d="M90 -131q0 20 12.5 30t23.5 11.5t28 1.5h342v1427h-342q-18 0 -29 1.5t-23 12t-12 31.5q0 20 12.5 30t23.5 11.5t28 1.5h383q39 0 51 -13.5t12 -51.5v-1473q0 -39 -12 -52t-51 -13h-383q-18 0 -29 1.5t-23 12t-12 31.5z" />
<glyph unicode="^" d="M141 1075q0 11 14 23.5t31 21.5l301 144q45 21 91 0l301 -144q17 -9 31 -21.5t14 -23.5q0 -43 -50 -43q-13 0 -61 21l-281 123l-280 -123q-48 -21 -62 -21q-49 0 -49 43z" />
<glyph unicode="_" d="M121 -313q0 53 80 53h671q80 0 80 -53q0 -54 -80 -54h-671q-80 0 -80 54z" />
<glyph unicode="`" d="M334 1223q0 22 15 36.5t38 14.5q13 0 31 -8l282 -127q13 -5 19.5 -8.5t13 -12t6.5 -20.5q0 -10 -3 -23t-15 -27t-31 -14q-10 0 -14 2l-295 131q-47 19 -47 56z" />
<glyph unicode="a" d="M119 250q0 95 80.5 161t221 98.5t333.5 35.5q0 133 -77 195.5t-214 62.5q-141 0 -141 -47q-1 -41 -24.5 -58.5t-49.5 -17.5q-31 0 -52.5 20.5t-21.5 55.5q0 27 12 49t29.5 35.5t46 23.5t51 14.5t55.5 7t50 3t43 0.5q103 0 182.5 -27.5t124.5 -73t67.5 -98t22.5 -108.5 v-471q69 -25 148 -25q13 0 21 -1t20 -4t18 -12.5t6 -23.5q0 -13 -5 -22t-11.5 -13.5t-20 -6.5t-22.5 -2.5t-27 -0.5q-38 0 -60.5 1.5t-57 8t-60.5 23t-45 43.5q-134 -88 -313 -88q-147 0 -238.5 77.5t-91.5 184.5zM223 250q0 -72 67.5 -124t172.5 -52q116 0 196 39 q34 15 54.5 32.5t28.5 39t10 36t2 41.5v201q-249 -7 -390 -67.5t-141 -145.5z" />
<glyph unicode="b" d="M29 1206q0 21 12.5 31.5t23.5 12t29 1.5h154q40 0 51.5 -13.5t11.5 -51.5v-434q145 131 291 131q160 0 275.5 -131t115.5 -316q0 -189 -123 -318.5t-290 -129.5q-132 0 -269 139v-42t-1.5 -31.5t-4.5 -25.5t-8.5 -15t-14 -10.5t-20.5 -2.5q-25 0 -37.5 11.5t-14 22.5 t-1.5 32v1099h-117q-13 0 -20.5 1t-19 4t-17.5 12.5t-6 23.5zM311 383q0 -34 9.5 -74t31 -82t51 -76t74 -55.5t96.5 -21.5q124 0 221 102.5t97 259.5q0 149 -88 255t-213 106q-109 0 -194 -78.5t-85 -179.5v-156z" />
<glyph unicode="c" d="M158 436q0 57 15 116t50.5 120t87.5 109t134 78t182 30q44 0 85 -4.5t93.5 -16.5t84.5 -41t32 -71q0 -34 -22 -55t-52 -21q-32 0 -52 20.5t-20 61.5q0 16 -52 28.5t-97 12.5q-86 0 -153.5 -28t-106 -69t-63.5 -94t-33.5 -95.5t-8.5 -80.5q0 -152 104 -257t248 -105 q47 0 86.5 13t62 27.5t44 42t27.5 39t18 35.5q12 17 43 17q53 0 53 -39q0 -13 -9 -36t-34.5 -56t-62 -61t-100 -48t-140.5 -20q-188 0 -316 132t-128 316z" />
<glyph unicode="d" d="M80 434q0 189 122.5 319t289.5 130q130 0 270 -121v403h-117q-13 0 -20.5 1t-19 4t-17.5 12.5t-6 23.5q0 21 12.5 31.5t23.5 12t29 1.5h154q40 0 51.5 -13.5t11.5 -51.5v-1100h117q13 0 20.5 -1t19 -4t17.5 -12.5t6 -23.5q0 -21 -12.5 -31.5t-23.5 -12t-29 -1.5h-154 q-45 0 -54 23t-9 114q-75 -76 -141.5 -112.5t-147.5 -36.5q-161 0 -277 130t-116 316zM182 434q0 -149 89 -254.5t210 -105.5q83 0 149.5 53t99 124t32.5 138v152q0 98 -77.5 177t-184.5 79q-124 0 -221 -103t-97 -260z" />
<glyph unicode="e" d="M119 438q0 186 127 318.5t307 132.5q126 0 216 -60t131.5 -155t41.5 -213q0 -27 -9.5 -40.5t-20.5 -15.5t-33 -2h-656q20 -105 78.5 -181t135.5 -112t163 -36q29 0 59 6t66.5 20.5t68.5 46.5t52 78q6 14 15.5 18.5t29.5 4.5q51 0 51 -39q0 -16 -11.5 -41.5t-39.5 -57 t-67 -58.5t-101.5 -45.5t-136.5 -18.5q-129 0 -236.5 60.5t-169 164t-61.5 225.5zM225 489h613q-8 92 -36.5 157t-71 97.5t-85.5 46t-92 13.5q-119 0 -209.5 -86t-118.5 -228z" />
<glyph unicode="f" d="M92 45q0 41 66 41h235v698h-235q-64 0 -64 41q0 16 6 26t18 13.5t20 4.5t22 1h233v134q0 122 92 191t220 69q16 0 31 -1t45 -6.5t51 -15.5t38 -31.5t17 -50.5q0 -33 -22.5 -53.5t-49.5 -20.5q-36 0 -54 31.5t-18 61.5q-38 0 -62.5 -1.5t-63 -11.5t-62 -28.5t-41.5 -55.5 t-18 -90v-121h280q18 0 29 -1.5t23 -12t12 -31.5q0 -41 -64 -41h-280v-698h235q66 0 66 -43t-66 -43h-573q-66 0 -66 45z" />
<glyph unicode="g" d="M63 -195q0 12 1 25t10.5 44.5t25.5 59.5t50 63.5t81 63.5q-59 77 -59 160q0 74 47 144q-72 94 -72 200q0 129 95 223.5t233 94.5q108 0 207 -68q105 78 223 78q66 0 99.5 -28t33.5 -64q0 -32 -19.5 -49t-43.5 -17q-18 0 -38 17t-28 57q-90 -7 -170 -51q64 -108 64 -193 q0 -132 -96 -225.5t-232 -93.5q-99 0 -201 63q-24 -63 -24 -92q4 -53 31 -88q22 -26 37.5 -32.5t46.5 -6.5q36 -4 63 -4h150q186 0 296 -57q68 -37 102 -100t34 -124q0 -84 -64.5 -151t-172 -103t-236.5 -36t-236.5 35.5t-172.5 102.5t-65 152zM145 -195q0 -78 114 -141 t278 -63q163 0 277 63t114 141q0 40 -15 72t-38 53t-61 36t-73.5 23t-85.5 12.5t-87 5.5t-89 1q-123 0 -159.5 -5.5t-77.5 -31.5q-51 -32 -74 -79t-23 -87zM250 563q0 -94 65.5 -163.5t159.5 -69.5q92 0 158.5 68t66.5 167q0 94 -65.5 164t-159.5 70q-92 0 -158.5 -68.5 t-66.5 -167.5z" />
<glyph unicode="h" d="M29 43q0 20 12.5 30t23.5 11.5t29 1.5h115v1079h-117q-13 0 -20.5 1t-19 4t-17.5 12.5t-6 23.5q0 21 12.5 31.5t23.5 12t29 1.5h154q40 0 51.5 -13.5t11.5 -51.5v-445q68 66 138 104t161 38q121 0 187.5 -69.5t66.5 -213.5v-514h115q13 0 21 -1t20 -4.5t18 -13t6 -24.5 t-6 -24.5t-17.5 -13t-19 -4.5t-20.5 -1h-324q-65 0 -65 43q0 20 12.5 30t23.5 11.5t29 1.5h105v502q0 111 -36 160t-128 49q-47 0 -95 -18t-92 -53.5t-72 -98.5t-28 -144v-397h115q14 0 22 -1t20 -4.5t18 -13t6 -24.5q0 -20 -12.5 -30t-23.5 -11.5t-28 -1.5h-336 q-13 0 -20.5 1t-19 4.5t-17.5 13t-6 24.5z" />
<glyph unicode="i" d="M168 43q0 20 12.5 30t23.5 11.5t29 1.5h279v698h-262q-66 0 -66 43t66 43h301q40 0 51.5 -13.5t11.5 -51.5v-719h244q66 0 66 -43t-66 -43h-625q-65 0 -65 43zM455 1153q0 37 24.5 61.5t59.5 24.5t59.5 -24.5t24.5 -61.5q0 -35 -24.5 -59.5t-59.5 -24.5t-59.5 24.5 t-24.5 59.5z" />
<glyph unicode="j" d="M104 -342q0 34 22.5 55t51.5 21q28 0 50 -21t22 -53l-10 -35q49 -20 149 -20q28 0 44.5 1.5t44.5 9t53 27t47 50.5q59 83 59 203v888h-297q-64 0 -64 41q0 16 6 26t18 13.5t20 4.5t22 1h334q40 0 51.5 -13.5t11.5 -51.5v-920q0 -42 -9.5 -87t-35 -97t-64 -91.5 t-104.5 -66t-149 -26.5q-29 0 -48 1t-56.5 4.5t-62.5 12.5t-51.5 23.5t-40.5 40t-14 59.5zM569 1153q0 37 24.5 61.5t59.5 24.5t59.5 -24.5t24.5 -61.5q0 -35 -24.5 -59.5t-59.5 -24.5t-59.5 24.5t-24.5 59.5z" />
<glyph unicode="k" d="M47 45q0 41 64 41h110v1079h-110q-18 0 -29 1.5t-23 11.5t-12 30t12.5 30t23.5 11.5t28 1.5h137q40 0 51.5 -13.5t11.5 -51.5v-795l418 393h-131q-13 0 -20.5 1t-19 4t-17.5 12.5t-6 23.5q0 21 12 31.5t22.5 12t28.5 1.5h326q17 0 28 -1.5t24 -12t13 -31.5q0 -41 -65 -41 h-76l-281 -266l332 -432h72q65 0 65 -43t-65 -43h-250q-17 0 -28 1.5t-23.5 11.5t-12.5 30q0 28 21 33.5t91 5.5h24l-287 375l-195 -174v-197h125q18 0 29 -1.5t23 -11.5t12 -30t-12 -30t-23 -11.5t-29 -1.5h-325q-18 0 -29 1.5t-23 12t-12 31.5z" />
<glyph unicode="l" d="M125 43q0 20 12.5 30t23.5 11.5t29 1.5h295v1079h-297q-63 0 -63 41q0 21 12.5 31.5t23.5 12t29 1.5h336q39 0 51.5 -13.5t12.5 -51.5v-1100h297q13 0 21 -1t19.5 -4.5t17 -13t5.5 -24.5t-6 -24.5t-17.5 -13t-19 -4.5t-20.5 -1h-699q-63 0 -63 43z" />
<glyph unicode="m" d="M-2 43q0 30 23.5 36.5t93.5 6.5v698h-37.5t-28.5 1.5t-24 4t-14.5 7t-10 12t-2.5 18.5q0 43 65 43h68q15 0 23 -1.5t19 -9t17.5 -27t8.5 -50.5q60 55 104.5 78t91.5 23q97 0 156 -131q94 131 215 131q34 0 61.5 -13t45 -32t30 -46.5t19 -51t10 -51t4 -41.5t0.5 -27v-535 h37.5t28.5 -1.5t24 -4t14.5 -7t10 -12t2.5 -18.5q0 -43 -66 -43h-158q-65 0 -65 43q0 13 5 21t11 12.5t19.5 6.5t23 2.5t29.5 0.5v516q0 111 -24 153t-70 42q-78 0 -135.5 -82.5t-57.5 -227.5v-401h37.5t28.5 -1.5t24 -4t14.5 -7t10 -12t2.5 -18.5q0 -15 -6 -24.5t-18 -13 t-20 -4.5t-22 -1h-157q-66 0 -66 43q0 13 5 21t11 12.5t19.5 6.5t23 2.5t29.5 0.5v516q0 111 -24 153t-70 42q-76 0 -132 -82.5t-56 -227.5v-401h37.5t28.5 -1.5t23.5 -4t14 -7.5t10 -12t2.5 -18q0 -20 -12.5 -30t-23.5 -11.5t-29 -1.5h-187q-65 0 -65 43z" />
<glyph unicode="n" d="M29 43q0 20 12.5 30t23.5 11.5t29 1.5h115v698h-117q-13 0 -20.5 1t-19 4t-17.5 12.5t-6 23.5q0 21 12.5 31.5t23.5 12t29 1.5h154q45 0 54 -23t9 -106q68 66 138 104t161 38q121 0 187.5 -69.5t66.5 -213.5v-514h115q13 0 21 -1t20 -4.5t18 -13t6 -24.5t-6 -24.5 t-17.5 -13t-19 -4.5t-20.5 -1h-324q-65 0 -65 43q0 20 12.5 30t23.5 11.5t29 1.5h105v502q0 111 -36 160t-128 49q-47 0 -95 -18t-92 -53.5t-72 -98.5t-28 -144v-397h115q14 0 22 -1t20 -4.5t18 -13t6 -24.5q0 -20 -12.5 -30t-23.5 -11.5t-28 -1.5h-336q-13 0 -20.5 1 t-19 4.5t-17.5 13t-6 24.5z" />
<glyph unicode="o" d="M123 436q0 188 122 320.5t292 132.5q111 0 206 -60t151 -164.5t56 -228.5q0 -188 -122.5 -318t-290.5 -130t-291 129.5t-123 318.5zM227 451q0 -156 91.5 -266.5t218.5 -110.5q125 0 217 110.5t92 266.5q0 151 -92 251.5t-217 100.5q-124 0 -217 -100.5t-93 -251.5z" />
<glyph unicode="p" d="M29 -428q0 21 12.5 31.5t23.5 12t29 1.5h115v1167h-117q-13 0 -20.5 1t-19 4t-17.5 12.5t-6 23.5q0 21 12.5 31.5t23.5 12t29 1.5h154q44 0 53.5 -21t9.5 -97q145 131 291 131q160 0 275.5 -131t115.5 -316q0 -189 -123 -318.5t-290 -129.5q-132 0 -269 139v-510h115 q14 0 22 -1t20 -4.5t18 -13.5t6 -26q0 -20 -12.5 -30t-23.5 -11.5t-28 -1.5h-336q-13 0 -20.5 1t-19 4.5t-17.5 13t-6 24.5zM311 383q0 -34 9.5 -74t31 -82t51 -76t74 -55.5t96.5 -21.5q124 0 221 102.5t97 259.5q0 149 -88 255t-213 106q-109 0 -194 -78.5t-85 -179.5v-156 z" />
<glyph unicode="q" d="M88 434q0 94 35.5 178t95 143t138.5 93.5t163 34.5q82 0 148 -36.5t137 -113.5q0 54 1 75t6 43t15.5 27t30.5 5q24 0 36 -11.5t13.5 -22.5t1.5 -32v-1200h125q18 0 29 -1.5t23 -12t12 -31.5q0 -20 -12.5 -30t-23.5 -11.5t-28 -1.5h-354q-18 0 -29 1.5t-23 12t-12 31.5 q0 20 12.5 30t23.5 11.5t28 1.5h125v530q-68 -75 -140.5 -117t-166.5 -42q-167 0 -288.5 130t-121.5 316zM190 434q0 -150 95 -255t223 -105q66 0 124 31t94.5 78.5t57.5 101.5t21 104v84q0 77 -32.5 150t-97 123.5t-145.5 50.5q-137 0 -238.5 -105t-101.5 -258z" />
<glyph unicode="r" d="M72 45q0 14 5.5 23.5t17 12.5t19.5 4t21 1h193v698h-193q-13 0 -21 1t-19.5 4.5t-17 13t-5.5 24.5t5.5 24.5t17 13t19.5 4.5t21 1h232q40 0 51.5 -13.5t11.5 -51.5v-129q183 207 381 207q55 0 93.5 -11.5t55.5 -30t24 -35t7 -34.5q0 -32 -19.5 -51t-47.5 -19 q-31 0 -50.5 25.5t-19.5 69.5q-105 0 -188.5 -36.5t-133.5 -97.5t-76 -135t-26 -155v-287h256q14 0 22 -1t20 -4.5t18 -13t6 -24.5t-6 -24.5t-18 -13t-20 -4.5t-22 -1h-551q-18 0 -28.5 1.5t-22.5 12t-12 31.5z" />
<glyph unicode="s" d="M156 53v205q0 21 1.5 32t14 22.5t37.5 11.5q33 0 47 -25q18 -57 45 -99.5t55.5 -66t64.5 -37.5t66 -18t66 -4q148 0 220.5 49t72.5 121q0 132 -291 178q-52 8 -81 12.5t-77.5 15t-77 21.5t-63.5 29.5t-54 40t-32.5 53t-13.5 68.5q0 25 7 51t32 59t64 57.5t111.5 42 t166.5 17.5q128 0 239 -53q6 21 10 30t14 16t27 7q14 0 23.5 -6t12.5 -18t4 -20.5t1 -21.5v-145q0 -21 -2 -32t-14 -22.5t-37 -11.5q-40 0 -47 31q-4 36 -14 61t-34 49.5t-71 37t-117 12.5q-150 0 -220 -43.5t-70 -97.5q0 -32 24.5 -58.5t62.5 -42.5t71.5 -25t64.5 -14 l145 -24l38.5 -7t52.5 -12.5t63 -21t60.5 -31.5t55.5 -44.5t37 -60t15 -77.5q0 -32 -9 -63.5t-35 -67.5t-66.5 -63t-110.5 -44.5t-160 -17.5q-159 0 -287 94q-13 -42 -27 -64t-21.5 -26t-16.5 -4q-20 0 -30 12.5t-11.5 23.5t-1.5 29z" />
<glyph unicode="t" d="M55 825q0 16 6 26t18 13.5t20.5 4.5t21.5 1h207v195q0 21 1.5 32t13.5 22t36 11t36 -11.5t13.5 -22.5t1.5 -31v-195h369q18 0 28.5 -1.5t22.5 -12t12 -31.5q0 -14 -6 -23.5t-17.5 -12.5t-19 -4t-20.5 -1h-369v-526q0 -26 1 -42.5t11 -46.5t27.5 -48t55 -32.5t89.5 -14.5 q26 0 54 6.5t61.5 23.5t55 54t22.5 90q0 19 1.5 28.5t13.5 20t36 10.5q25 0 37.5 -10.5t14 -20.5t1.5 -30q0 -83 -47.5 -144t-115.5 -87.5t-144 -26.5q-56 0 -104 14.5t-87.5 44t-62 80.5t-22.5 119v538h-209q-64 0 -64 41z" />
<glyph unicode="u" d="M29 825q0 21 12.5 31.5t23.5 12t29 1.5h154q40 0 51.5 -13.5t11.5 -51.5v-572q0 -22 0.5 -34t4 -31.5t10.5 -30.5t20.5 -24.5t33.5 -21t50.5 -12.5t69.5 -5q28 0 57 4t67.5 19.5t67.5 39.5t49.5 69.5t20.5 104.5v473h-117q-13 0 -20.5 1t-19 4t-17.5 12.5t-6 23.5 q0 21 12.5 31.5t23.5 12t29 1.5h154q40 0 51.5 -13.5t11.5 -51.5v-719h117q13 0 20.5 -1t19 -4t17.5 -12.5t6 -23.5q0 -21 -12.5 -31.5t-23.5 -12t-29 -1.5h-154q-15 0 -23 1.5t-19 9t-16.5 27t-6.5 50.5q-132 -100 -273 -100q-278 0 -278 233v563h-117q-13 0 -20.5 1t-19 4 t-17.5 12.5t-6 23.5z" />
<glyph unicode="v" d="M53 825q0 21 12 31.5t23 12t29 1.5h248q18 0 28.5 -1.5t22.5 -12t12 -31.5q0 -14 -6 -23.5t-17.5 -12.5t-19 -4t-20.5 -1h-89l240 -706h41l240 706h-88q-18 0 -29 1.5t-23 11.5t-12 30t12.5 30t23.5 11.5t28 1.5h247q18 0 29 -1.5t23 -12t12 -31.5q0 -41 -64 -41h-75 l-248 -737q-6 -19 -17 -31.5t-26.5 -17t-25.5 -5.5t-27 -1q-25 0 -38.5 2t-31.5 15t-27 40l-247 735h-76q-64 0 -64 41z" />
<glyph unicode="w" d="M37 827q0 20 12 30t23.5 11.5t31.5 1.5h244q15 0 23.5 -1t20.5 -4.5t18 -13.5t6 -26q0 -15 -6 -24t-18 -12t-20.5 -4t-23.5 -1h-121l123 -706h12l113 393q10 35 66 35q62 0 71 -37l101 -391h12l121 706h-121q-15 0 -23.5 1t-20.5 4.5t-18 13t-6 24.5t6 24.5t18 13 t20.5 4.5t23.5 1h244q19 0 30.5 -1.5t24 -11.5t12.5 -30q0 -30 -20.5 -36.5t-79.5 -6.5l-131 -729q-5 -33 -19.5 -48t-56.5 -15q-57 0 -76 24l-104 404h-12l-99 -371q-9 -35 -28 -46t-60 -11q-47 0 -62 14.5t-20 48.5l-131 729q-41 0 -58 1.5t-29.5 11t-12.5 30.5z" />
<glyph unicode="x" d="M59 43q0 43 66 43h96l268 363l-256 335h-94q-65 0 -65 41q0 21 12.5 31.5t23.5 12t29 1.5h248q17 0 28 -1.5t23.5 -11.5t12.5 -30q0 -11 -2.5 -18.5t-11 -12t-16 -7t-25 -4t-29.5 -1.5h-39l202 -274l199 274q-40 0 -57 0.5t-36.5 4.5t-25.5 13t-6 25q0 20 12.5 30 t23.5 11.5t28 1.5h247q66 0 66 -45q0 -41 -66 -41h-94l-248 -335l277 -363h96q66 0 66 -43t-66 -43h-248q-13 0 -21 1t-19.5 4.5t-17 13t-5.5 24.5q0 30 25.5 36.5t99.5 6.5l-230 311l-223 -311q43 0 60.5 -0.5t37 -4.5t25.5 -13t6 -25q0 -15 -5.5 -24.5t-17 -13t-19.5 -4.5 t-21 -1h-248q-66 0 -66 43z" />
<glyph unicode="y" d="M57 825q0 21 12 31.5t23 12t29 1.5h248q18 0 28.5 -1.5t22.5 -12t12 -31.5q0 -14 -6 -23.5t-17.5 -12.5t-19 -4t-20.5 -1h-84l270 -712l236 712h-82q-18 0 -29 1.5t-23 11.5t-12 30t12.5 30t23.5 11.5t28 1.5h247q18 0 29 -1.5t23 -12t12 -31.5q0 -41 -64 -41h-77 l-332 -979q-5 -16 -15.5 -40t-38.5 -70.5t-60 -83.5t-82 -65.5t-103 -28.5q-66 0 -110 46t-44 107q0 31 19.5 51.5t52.5 20.5q31 0 50.5 -19.5t19.5 -50.5q0 -10 -3 -20.5t-7 -15.5l-3 -5q13 -26 25 -26q27 0 44.5 3.5t40.5 16t45 40.5t46 73q13 24 34.5 82.5t36.5 105.5 l15 47q1 3 -78.5 205.5t-159.5 403.5l-79 202h-72q-64 0 -64 41z" />
<glyph unicode="z" d="M74 51q0 22 6 33t33 37l698 663h-600v-77q0 -21 -1.5 -32t-14 -22.5t-37.5 -11.5q-18 0 -29.5 5.5t-16 17t-5.5 20.5t-1 23v98q0 40 13 52.5t53 12.5h721q20 0 31 -1.5t22.5 -13.5t11.5 -36q0 -22 -6 -32.5t-34 -36.5l-699 -664h643v102q0 21 1.5 32t14 22.5t37.5 11.5 q18 0 29.5 -5.5t16 -17t5.5 -20.5t1 -23v-122q0 -56 -29 -66h-799q-21 0 -32 1.5t-22 13.5t-11 36z" />
<glyph unicode="{" d="M123 627q0 21 12.5 32t22.5 11q154 0 239 35q60 27 74 57.5t14 103.5q0 353 2 365q39 196 394 196q21 0 32.5 -1.5t24 -12t12.5 -31.5t-12.5 -32t-22.5 -11q-39 0 -79 -3.5t-92.5 -12t-92 -29.5t-53.5 -51q-4 -8 -6 -118.5t-2 -216.5v-107q-4 -93 -146 -176 q49 -27 81 -56t44.5 -57.5t16.5 -47.5t4 -42v-342q0 -21 1 -32t6.5 -31t17 -32t34.5 -27t56 -23.5t84.5 -15.5t117.5 -9q43 0 43 -41q0 -21 -12.5 -31.5t-24 -12t-32.5 -1.5q-183 0 -295 61q-35 19 -57.5 45t-31 56.5t-10.5 50t-2 49.5v352q-1 35 -29 62.5t-63.5 42 t-86.5 24.5t-80 12.5t-62 4.5q-41 0 -41 43z" />
<glyph unicode="|" d="M483 -98v1448q0 77 54 77q53 0 53 -77v-1448q0 -78 -53 -78q-54 0 -54 78z" />
<glyph unicode="}" d="M123 -131q0 21 12.5 32t22.5 11q94 1 159.5 13t97.5 26t49 39.5t19 40.5t2 43v377q0 5 1.5 14t10 28.5t22.5 39.5t43.5 46t68.5 48q-83 45 -114.5 92t-31.5 108v342q0 22 -1 33.5t-6.5 32t-17 32.5t-34 27t-55.5 23.5t-83.5 14.5t-115.5 7q-49 0 -49 43q0 21 13 31.5 t24 12t30 1.5q186 0 299 -61q35 -19 57.5 -45t31 -56t10.5 -49t2 -47v-354q4 -129 321 -147q15 0 27 -9.5t12 -33.5q0 -21 -12.5 -32t-22.5 -11q-152 0 -237 -35q-60 -27 -74 -57.5t-14 -104.5q0 -353 -2 -365q-38 -196 -398 -196q-19 0 -30 1.5t-24 12t-13 31.5z" />
<glyph unicode="~" d="M188 565q0 6 3 13t10.5 15t13 14t17.5 16.5t17 14.5t19.5 15t16.5 13q89 65 151 65q45 0 96 -37q72 -64 87 -73q13 -7 26 -7q52 0 162 99q18 18 37 18q17 0 31 -14t14 -33q0 -28 -96 -98q-90 -66 -152 -66q-50 0 -96 37q-72 64 -87 73q-13 7 -26 7q-24 0 -67.5 -26 t-94.5 -74q-21 -17 -37 -17q-17 0 -31 14t-14 31z" />
<glyph unicode="&#xa0;" />
<glyph unicode="&#xa1;" d="M453 -393l18 704q3 52 14 66t52 14q61 0 63 -33l21 -751q0 -32 -10.5 -54t-26 -31t-27 -12.5t-20.5 -3.5t-20.5 3.5t-27 12.5t-26 31t-10.5 54zM453 696q0 35 24.5 59.5t59.5 24.5t59.5 -24.5t24.5 -59.5t-24.5 -59.5t-59.5 -24.5t-59.5 24.5t-24.5 59.5z" />
<glyph unicode="&#xa2;" d="M158 436q0 51 12 103.5t41.5 109t73 103.5t112 83t152.5 50v137q0 19 13 32t32 13t32 -13t13 -32v-133q33 -1 52.5 -1.5t53 -3.5t54.5 -8t47 -15t40.5 -23.5t25 -34.5t10.5 -47q0 -34 -22 -55t-52 -21q-69 0 -72 82q0 14 -42 27.5t-95 13.5v-729q44 6 80 20.5t56.5 29.5 t37 37.5t22.5 34t13 29.5q14 23 47 23q53 0 53 -39q0 -12 -8 -33t-30.5 -51t-55 -57.5t-89.5 -50t-126 -29.5v-140q0 -19 -13 -32t-32 -13t-32 13t-13 32v142q-175 29 -283 154t-108 292zM262 436q0 -128 78 -223.5t209 -132.5v719q-68 -17 -121.5 -52t-83.5 -74.5 t-49.5 -86t-26 -82.5t-6.5 -68z" />
<glyph unicode="&#xa3;" d="M41 152q0 82 73.5 130t172.5 48q44 0 135 -35q-28 99 -113 278h-151q-22 0 -38 15.5t-16 38.5q0 22 16 37.5t38 15.5h98q-49 128 -49 211q0 149 104.5 254.5t253.5 105.5q145 0 252 -91.5t107 -225.5q0 -29 -21.5 -50.5t-50.5 -21.5t-50.5 21.5t-21.5 50.5q0 26 29 59 q-28 71 -95.5 111.5t-148.5 40.5q-104 0 -179 -75t-75 -179q0 -88 47 -211h357q22 0 37.5 -15.5t15.5 -37.5q0 -23 -15.5 -38.5t-37.5 -15.5h-305q44 -89 63.5 -131t39.5 -107.5t22 -121.5q59 -45 92.5 -67.5t85.5 -43t102 -20.5q59 0 86 58.5t27 144.5q0 22 15.5 36.5 t37.5 14.5q23 0 38 -14.5t15 -36.5q0 -80 -24.5 -149t-75.5 -114t-119 -45q-42 0 -96 24.5t-93 51t-106 76.5q-46 -75 -125 -113.5t-172 -38.5q-75 0 -128.5 51t-53.5 124zM147 152q0 -28 22.5 -49t53.5 -21q163 0 207 104q-82 39 -143 39q-140 0 -140 -73z" />
<glyph unicode="&#xa4;" d="M215 948q34 34 92 -16l64 -64q83 54 168 54q80 0 166 -54l59 62q56 48 88 20q39 -37 -12 -96l-62 -59q53 -85 53 -168t-53 -168l64 -62q50 -58 16 -92q-33 -33 -92 17l-61 63q-85 -53 -166 -53q-86 0 -168 53l-60 -61l-8 -6q-8 -6 -11.5 -8.5t-12 -8t-14.5 -6.5t-14 -2.5 t-15.5 1.5t-14.5 9q-37 35 9 95l3 3l62 60q-51 83 -51 166t51 166l-64 63q-50 58 -16 92zM350 627q0 -77 55.5 -133t133.5 -56q76 0 131 56t55 133t-55 132.5t-131 55.5q-78 0 -133.5 -55.5t-55.5 -132.5z" />
<glyph unicode="&#xa5;" d="M43 1208q0 15 6 24.5t17.5 13t19 4.5t20.5 1h222q13 0 20.5 -1t19 -4.5t17.5 -13t6 -24.5q0 -11 -2.5 -18.5t-10.5 -12t-14.5 -7t-22.5 -4t-26.5 -1.5h-33.5l151 -321h217l142 321q-43 0 -61.5 1.5t-33 11t-14.5 30.5q0 15 6 24.5t17.5 13t19 4.5t20.5 1h222 q18 0 28.5 -1.5t22.5 -12t12 -31.5q0 -14 -6 -23.5t-17.5 -12.5t-19 -4t-20.5 -1h-58l-153 -321h114q22 0 38 -15t16 -36q0 -23 -16 -38.5t-38 -15.5h-168l-106 -225h274q22 0 38 -15t16 -38q0 -21 -16 -36t-38 -15h-280v-324h74q13 0 21 -1t19.5 -4.5t17 -13t5.5 -24.5 t-6 -24.5t-17.5 -13t-19 -4.5t-20.5 -1h-252q-18 0 -29 1.5t-23 12t-12 31.5q0 41 64 41h73v324h-280q-22 0 -37.5 14.5t-15.5 36.5q0 23 15.5 38t37.5 15h274l-108 225h-166q-22 0 -37.5 15.5t-15.5 38.5q0 22 15.5 36.5t37.5 14.5h112l-153 321h-58q-13 0 -21 1t-19.5 4.5 t-17 13t-5.5 24.5zM481 739l58 -161l65 161h-123z" />
<glyph unicode="&#xa6;" d="M483 -98v510q0 20 15.5 31.5t38.5 11.5t38 -11.5t15 -31.5v-510q0 -78 -53 -78q-54 0 -54 78zM483 840v510q0 77 54 77q53 0 53 -77v-510q0 -20 -15 -31.5t-38 -11.5t-38.5 11.5t-15.5 31.5z" />
<glyph unicode="&#xa7;" d="M55 627q0 73 43 132.5t111 84.5q-47 63 -47 137q0 129 112.5 211t264.5 82q98 0 182 -28.5t139 -89.5t55 -142q0 -31 -21 -52.5t-52 -21.5t-52.5 21.5t-21.5 52.5q0 33 27 57q-26 49 -97 72.5t-159 23.5q-110 0 -190.5 -50t-80.5 -136q0 -31 14 -58.5t34.5 -46 t52.5 -35.5t60.5 -28t66.5 -22l223 -68q130 -40 216.5 -125.5t86.5 -200.5q0 -75 -43 -134t-111 -83q47 -63 47 -137q0 -129 -112 -211t-264 -82q-98 0 -182 28.5t-139.5 89.5t-55.5 142q0 31 21.5 52.5t52.5 21.5t52 -21.5t21 -52.5q0 -34 -26 -57q26 -49 97 -72.5 t159 -23.5q110 0 190 50t80 136q0 39 -19 70.5t-55 54t-70.5 36.5t-82.5 29l-224 68q-130 40 -216.5 125.5t-86.5 200.5zM162 627q0 -80 64.5 -137.5t162.5 -86.5l223 -67q94 -30 164 -74q56 -3 97.5 37t41.5 98q0 80 -64.5 137.5t-162.5 86.5l-223 67q-94 30 -164 74 q-56 3 -97.5 -37t-41.5 -98z" />
<glyph unicode="&#xa8;" d="M289 1153q0 32 21 54t52 22t52.5 -22t21.5 -54q0 -31 -21.5 -52.5t-52.5 -21.5t-52 21.5t-21 52.5zM639 1153q0 32 21.5 54t52.5 22t52 -22t21 -54q0 -31 -21 -52.5t-52 -21.5t-52.5 21.5t-21.5 52.5z" />
<glyph unicode="&#xa9;" d="M2 537q0 144 72 266.5t196 194t269 71.5q144 0 267 -71.5t195 -194t72 -266.5q0 -146 -72 -270t-195 -195.5t-267 -71.5q-109 0 -208 42.5t-171.5 114.5t-115 171.5t-42.5 208.5zM41 537q0 -205 146.5 -351.5t351.5 -146.5q134 0 248 67t180.5 181.5t66.5 249.5 q0 133 -66.5 246.5t-180.5 180t-248 66.5q-135 0 -249.5 -66.5t-181.5 -180t-67 -246.5zM238 535q0 166 86 277.5t208 111.5q91 0 168 -68q25 47 25 53q15 15 25 15q26 0 26 -39v-176q0 -13 -1 -19.5t-9 -13t-23 -6.5q-9 0 -14.5 1.5t-9 8.5t-3.5 8t-3 12 q-13 81 -62.5 126.5t-113.5 45.5q-93 0 -165.5 -96.5t-72.5 -240.5t73 -241t167 -97q24 0 50 8t54 25t47.5 52t22.5 83q4 24 30 24q33 0 33 -31q0 -82 -71.5 -147.5t-172.5 -65.5q-122 0 -208 111.5t-86 278.5z" />
<glyph unicode="&#xaa;" d="M211 834q0 98 117.5 147.5t326.5 52.5q0 193 -209 193h-55q-36 -6 -43.5 -13t-7.5 -26q-1 -25 -15 -36t-30 -11q-20 0 -32.5 12.5t-12.5 34.5q0 86 192 86q71 0 126 -18.5t86.5 -49.5t47 -66t15.5 -73v-336q45 -18 110 -18q37 0 37 -23q0 -12 -8.5 -17.5t-16.5 -6 t-28 -0.5q-26 0 -41 1t-39 5.5t-42.5 17t-31.5 31.5q-101 -66 -223 -66q-99 0 -161 53t-62 126zM272 834q0 -53 47.5 -91t126.5 -38q85 0 140 28q25 11 40 23.5t21 28.5t7 26t1 31v147q-182 -6 -282.5 -50t-100.5 -105zM276 524q0 12 13.5 19.5t32.5 7.5h432q19 0 32 -7.5 t13 -19.5q0 -22 -45 -22h-432q-46 0 -46 22z" />
<glyph unicode="&#xab;" d="M102 627q0 29 23 47l455 393q16 14 24 14q25 0 25 -45q0 -26 -23 -49l-418 -360l418 -361q23 -23 23 -49q0 -45 -25 -45q-8 0 -24 14l-461 398q-17 17 -17 43zM446 627q0 29 23 47l455 393q14 14 24 14q25 0 25 -45q0 -24 -25 -49l-416 -360l416 -361q25 -25 25 -49 q0 -45 -25 -45q-10 0 -24 14l-461 398q-17 14 -17 43z" />
<glyph unicode="&#xac;" d="M84 788q0 22 15.5 37t37.5 15h799q22 0 37.5 -15t15.5 -37v-323q0 -22 -15.5 -36.5t-37.5 -14.5t-36.5 14.5t-14.5 36.5v270h-748q-22 0 -37.5 15.5t-15.5 37.5z" />
<glyph unicode="&#xad;" d="M121 627q0 53 80 53h671q80 0 80 -53q0 -54 -80 -54h-671q-80 0 -80 54z" />
<glyph unicode="&#xae;" d="M2 537q0 144 72 266.5t196 194t269 71.5q144 0 267 -71.5t195 -194t72 -266.5q0 -146 -72 -270t-195 -195.5t-267 -71.5q-109 0 -208 42.5t-171.5 114.5t-115 171.5t-42.5 208.5zM41 537q0 -205 146.5 -351.5t351.5 -146.5q134 0 248 67t180.5 181.5t66.5 249.5 q0 133 -66.5 246.5t-180.5 180t-248 66.5q-135 0 -249.5 -66.5t-181.5 -180t-67 -246.5zM264 193q0 24 37 24h45v647h-45q-37 0 -37 25q0 29 37 29h225q102 0 168 -60.5t66 -140.5q0 -45 -26.5 -92.5t-90.5 -83.5q56 -45 74 -84q7 -20 8.5 -37t1.5 -78q0 -137 47 -137 q19 0 28 25t9 44q2 25 31 25q30 0 30 -27q0 -42 -24 -81t-72 -39q-58 0 -88 47q-12 21 -17.5 46t-6 44t-0.5 69t-5 74t-26 45q-45 37 -113 37h-112v-297h45q39 0 39 -24q0 -27 -39 -27h-152q-37 0 -37 27zM408 567h104q88 0 137 46t49 104q0 56 -49 101.5t-137 45.5h-104 v-297z" />
<glyph unicode="&#xaf;" d="M160 1155q0 21 12 31.5t22.5 12t28.5 1.5h631q14 0 22 -1t19.5 -5t17 -14t5.5 -27q0 -20 -12 -30t-23 -11.5t-29 -1.5h-629q-19 0 -30 1.5t-23 12t-12 31.5z" />
<glyph unicode="&#xb0;" d="M389 1116q0 59 42 107.5t110 48.5q59 0 103 -50t44 -104q0 -59 -41.5 -105t-114.5 -46q-65 0 -104 47.5t-39 101.5zM467 1116q0 -30 22.5 -48.5t49.5 -18.5q31 0 51 19t20 50q0 30 -20 51t-49 21q-31 0 -52.5 -21.5t-21.5 -52.5z" />
<glyph unicode="&#xb1;" d="M84 53q0 53 78 53h321v295h-321q-78 0 -78 54q0 53 78 53h321v323q0 80 54 80q53 0 53 -80v-323h321q78 0 78 -53q0 -54 -78 -54h-321v-295h321q78 0 78 -53t-78 -53h-749q-78 0 -78 53z" />
<glyph unicode="&#xb2;" d="M315 668q0 12 15 24l225 197q53 45 85 89.5t32 98.5q0 65 -48 102.5t-116 37.5q-44 0 -77.5 -25t-43.5 -66q12 -12 12 -28q0 -20 -13 -31.5t-28 -11.5q-6 0 -14 2t-18.5 14t-10.5 31q0 68 56.5 121t142.5 53q96 0 159.5 -56t63.5 -143q0 -39 -15 -77.5t-39 -68.5t-37 -43 t-25 -24l-197 -166h248q0 16 1 23.5t8.5 14.5t23.5 7q15 0 22.5 -7.5t8.5 -14t1 -19.5v-22q0 -35 -22 -41h-357q-43 0 -43 29z" />
<glyph unicode="&#xb3;" d="M307 780q0 45 43 45q18 0 29.5 -11.5t11.5 -29.5q0 -8 -8 -24l-2 -4q0 -9 15 -24.5t51.5 -30.5t82.5 -15q65 0 107.5 39t42.5 92q0 48 -40.5 88.5t-113.5 40.5h-47q-12 0 -18.5 1t-13.5 8.5t-7 21.5q0 27 25 29q20 2 59 4q37 3 64 18t39.5 35.5t18 38t5.5 31.5 q0 36 -34.5 60t-86.5 24q-85 0 -118 -41q8 -11 8 -27q0 -19 -13 -30t-28 -11t-29 10.5t-14 32.5q0 57 53.5 91t140.5 34q82 0 134.5 -41.5t52.5 -101.5q0 -43 -22.5 -84.5t-67.5 -69.5q62 -27 90 -72.5t28 -91.5q0 -75 -60.5 -131.5t-154.5 -56.5t-158.5 43.5t-64.5 109.5z " />
<glyph unicode="&#xb4;" d="M336 1098q0 17 9.5 25t29.5 16l282 127l31 8q23 0 38 -14.5t15 -36.5q0 -37 -47 -56l-295 -131l-14 -2q-27 0 -38 22.5t-11 41.5z" />
<glyph unicode="&#xb5;" d="M29 -428q0 20 12.5 30t23.5 11.5t29 1.5h115v1169h-117q-13 0 -20.5 1t-19 4t-17.5 12.5t-6 23.5q0 21 12.5 31.5t23.5 12t29 1.5h154q40 0 51.5 -13.5t11.5 -51.5v-572q0 -22 0.5 -34t4 -31.5t10.5 -30.5t20.5 -24.5t33.5 -21t50.5 -12.5t69.5 -5q28 0 57 4t67.5 19.5 t67.5 39.5t49.5 69.5t20.5 104.5v473h-117q-13 0 -20.5 1t-19 4t-17.5 12.5t-6 23.5q0 21 12.5 31.5t23.5 12t29 1.5h154q40 0 51.5 -13.5t11.5 -51.5v-719h117q13 0 20.5 -1t19 -4t17.5 -12.5t6 -23.5q0 -21 -12.5 -31.5t-23.5 -12t-29 -1.5h-154q-15 0 -23 1.5t-19 9 t-16.5 27t-6.5 50.5q-132 -100 -273 -100q-113 0 -176 37v-410h115q14 0 22 -1t20 -4.5t18 -13t6 -24.5q0 -20 -12.5 -30t-23.5 -11.5t-28 -1.5h-336q-13 0 -20.5 1t-19 4.5t-17.5 13t-6 24.5z" />
<glyph unicode="&#xb6;" d="M104 958q0 126 58 234t158 171.5t219 63.5h442q12 0 18 -0.5t13.5 -5.5t7.5 -16q0 -21 -39 -21h-111v-1746q0 -15 -8 -32.5t-18 -17.5q-11 0 -20 17.5t-9 32.5v1746h-145v-1746q0 -15 -8.5 -32.5t-18.5 -17.5t-18.5 17.5t-8.5 32.5v847q-75 4 -147 23t-138.5 57.5 t-116.5 92t-80 131t-30 169.5z" />
<glyph unicode="&#xb7;" d="M426 627q0 43 32 76.5t81 33.5q44 0 77 -32t33 -80q0 -43 -31.5 -77t-80.5 -34q-44 0 -77.5 32.5t-33.5 80.5z" />
<glyph unicode="&#xb8;" d="M346 -395q0 16 6.5 25t23.5 12.5t31.5 4.5t45.5 1q41 0 86.5 4t100 14t89.5 33t35 55q0 40 -42.5 71.5t-119.5 35.5q-23 1 -34.5 12t-13 22t-1.5 33v58q0 21 1.5 32.5t14 23t37.5 11.5q15 0 25 -4.5t15 -11t7.5 -23t3 -29.5t0.5 -42q108 -22 158.5 -74t50.5 -115 q0 -32 -11 -58t-26.5 -45t-44.5 -34t-53 -24.5t-64.5 -16t-67 -9.5t-72.5 -5t-68.5 -2h-67.5q-19 0 -32 11t-13 34z" />
<glyph unicode="&#xb9;" d="M358 1122q0 29 37 29q64 5 109 102q10 23 28 23q31 0 31 -41v-537h90q41 0 41 -30q0 -29 -41 -29h-247q-41 0 -41 29q0 30 41 30h90v439q-48 -45 -105 -45q-33 0 -33 30z" />
<glyph unicode="&#xba;" d="M254 963q0 130 83.5 220.5t201.5 90.5q116 0 199 -90.5t83 -220.5q0 -128 -84 -218t-198 -90q-116 0 -200.5 89.5t-84.5 218.5zM313 975q0 -113 67 -191.5t159 -78.5q90 0 156.5 78.5t66.5 191.5q0 108 -66.5 180t-156.5 72t-158 -72.5t-68 -179.5zM322 524 q0 12 12.5 19.5t30.5 7.5h346q18 0 30.5 -7.5t12.5 -19.5q0 -22 -43 -22h-346q-43 0 -43 22z" />
<glyph unicode="&#xbb;" d="M100 217q0 28 25 49l416 361l-416 360q-25 21 -25 49q0 45 25 45q11 0 25 -14l454 -393q23 -18 23 -47t-17 -43l-460 -398q-14 -14 -25 -14q-25 0 -25 45zM442 217q0 24 25 49l418 361l-418 360q-25 25 -25 49q0 21 8 33t19 12q9 0 25 -14l454 -393q23 -23 23 -47 q0 -26 -17 -43l-460 -398q-16 -14 -25 -14q-11 0 -19 12t-8 33z" />
<glyph unicode="&#xbc;" d="M53 1122q0 29 37 29q64 5 109 102q10 23 28 23q31 0 31 -41v-537h90q41 0 41 -30q0 -29 -41 -29h-248q-41 0 -41 29q0 30 41 30h90v439q-47 -45 -104 -45q-33 0 -33 30zM197 12q0 5 7 16.5t7 12.5l670 1214q18 29 45 29q22 0 22 -37q0 -18 -14 -39l-668 -1212 q-18 -29 -39 -29q-19 0 -24.5 10t-5.5 35zM535 213q0 21 8 33l233 375q9 14 15.5 17t25.5 3h25q26 0 33.5 -8t7.5 -35v-367h78q40 0 40 -28q0 -31 -40 -31h-78v-113h61q41 0 41 -28q0 -31 -41 -31h-180q-41 0 -41 31q0 28 41 28h61v113h-250q-23 0 -31.5 7.5t-8.5 33.5z M602 231h223v359z" />
<glyph unicode="&#xbd;" d="M53 1122q0 29 37 29q64 5 109 102q10 23 28 23q31 0 31 -41v-537h90q41 0 41 -30q0 -29 -41 -29h-248q-41 0 -41 29q0 30 41 30h90v439q-47 -45 -104 -45q-33 0 -33 30zM139 12q0 5 7 16t8 13l669 1214q18 29 45 29q12 0 17.5 -12.5t5.5 -24.5q0 -18 -14 -39l-668 -1212 q-18 -29 -39 -29q-19 0 -25 10t-6 35zM592 33q0 13 16 26l226 191q118 99 118 188q0 64 -48.5 100.5t-115.5 36.5q-41 0 -74.5 -22t-43.5 -57q14 -10 14 -33q0 -20 -14 -32.5t-31 -12.5q-18 0 -32.5 11.5t-14.5 37.5q0 67 57.5 118.5t145.5 51.5q97 0 162 -54.5t65 -144.5 q0 -105 -111 -205q-25 -23 -101.5 -86t-100.5 -84h243q0 18 1 26t9 15t25 7q16 0 24.5 -7.5t9.5 -14t1 -19.5v-27q0 -26 -7.5 -34.5t-33.5 -8.5h-346q-43 0 -43 33z" />
<glyph unicode="&#xbe;" d="M45 780q0 23 12 34t29 11q18 0 29.5 -11.5t11.5 -29.5q0 -12 -6 -24l-2 -4q0 -9 14.5 -24.5t50.5 -30.5t82 -15q65 0 107.5 39t42.5 92q0 48 -40.5 88.5t-113.5 40.5h-47q-11 0 -17.5 1t-14 8.5t-7.5 21.5q0 26 27 29l57 4q38 3 65.5 18t39.5 35.5t17 37.5t5 32 q0 36 -34.5 60t-86.5 24q-86 0 -119 -41q9 -11 9 -27q0 -19 -13 -30t-28 -11t-28 10.5t-13 32.5q0 57 53.5 91t138.5 34q82 0 135.5 -41.5t53.5 -101.5q0 -42 -23 -84t-67 -70q62 -27 90 -72.5t28 -91.5q0 -75 -61.5 -131.5t-155.5 -56.5t-157.5 43.5t-63.5 109.5zM197 12 q0 5 7 16.5t7 12.5l670 1214q18 29 45 29q22 0 22 -37q0 -18 -14 -39l-668 -1212q-18 -29 -39 -29q-19 0 -24.5 10t-5.5 35zM535 213q0 21 8 33l233 375q9 14 15.5 17t25.5 3h25q26 0 33.5 -8t7.5 -35v-367h78q40 0 40 -28q0 -31 -40 -31h-78v-113h61q41 0 41 -28 q0 -31 -41 -31h-180q-41 0 -41 31q0 28 41 28h61v113h-250q-23 0 -31.5 7.5t-8.5 33.5zM602 231h223v359z" />
<glyph unicode="&#xbf;" d="M135 -242q0 38 11.5 70.5t35.5 58.5t34.5 35.5t33.5 26.5q190 128 190 342v35q0 41 13.5 53t50.5 12q24 0 36.5 -3.5t18.5 -16.5t7 -25.5t1 -42.5q0 -25 -0.5 -41t-5.5 -49t-14 -58.5t-27.5 -63t-45 -70t-68 -70.5t-93.5 -74q-75 -44 -75 -119q0 -41 24.5 -72t56.5 -46 t75.5 -23.5t68 -10t47.5 -1.5q25 0 53 2t78.5 9.5t98.5 28.5t79 52q-26 28 -26 61q0 34 21.5 54t49.5 20q29 0 51.5 -20.5t22.5 -57.5q0 -49 -21.5 -88t-52 -63t-77 -42t-83 -26t-84.5 -12.5t-67.5 -5t-44.5 -0.5q-100 0 -174 21.5t-110.5 49.5t-58.5 66t-26 60.5t-4 43.5z M420 696q0 35 24.5 59.5t59.5 24.5q37 0 61.5 -24.5t24.5 -59.5t-24.5 -59.5t-61.5 -24.5q-35 0 -59.5 24.5t-24.5 59.5z" />
<glyph unicode="&#xc0;" d="M59 43q0 29 25 41q12 2 98 2l260 1126q6 23 14 36.5t22 19t25 7t34 1.5q25 0 36 -1t24.5 -7t20.5 -20t13 -38l260 -1124q84 0 96 -2q27 -11 27 -41q0 -15 -6.5 -24.5t-20 -13t-22 -4.5t-23.5 -1h-215q-15 0 -23.5 1t-20.5 4.5t-18 13t-6 24.5q0 30 24.5 36.5t98.5 6.5 l-57 264h-377l-57 -264q40 0 57 -0.5t35.5 -4.5t24.5 -13t6 -25q0 -15 -6 -24.5t-18 -13t-20.5 -4.5t-23.5 -1h-217q-14 0 -22.5 1t-21.5 4.5t-19.5 13t-6.5 24.5zM334 1567q0 23 15 38t38 15q13 0 31 -8l282 -127l12 -6t9.5 -6t10 -8.5t5 -9.5t2.5 -13q0 -9 -3 -22 t-15 -27.5t-31 -14.5q-10 2 -14 4l-295 131q-47 19 -47 54zM371 436h331l-157 754h-15z" />
<glyph unicode="&#xc1;" d="M59 43q0 29 25 41q12 2 98 2l260 1126q6 23 14 36.5t22 19t25 7t34 1.5q25 0 36 -1t24.5 -7t20.5 -20t13 -38l260 -1124q84 0 96 -2q27 -11 27 -41q0 -15 -6.5 -24.5t-20 -13t-22 -4.5t-23.5 -1h-215q-15 0 -23.5 1t-20.5 4.5t-18 13t-6 24.5q0 30 24.5 36.5t98.5 6.5 l-57 264h-377l-57 -264q40 0 57 -0.5t35.5 -4.5t24.5 -13t6 -25q0 -15 -6 -24.5t-18 -13t-20.5 -4.5t-23.5 -1h-217q-14 0 -22.5 1t-21.5 4.5t-19.5 13t-6.5 24.5zM336 1442q0 9 2.5 15.5t10 12t11 7.5t15.5 8l282 127l31 8q23 0 38 -15t15 -38q0 -35 -47 -54l-295 -131 l-14 -4q-26 0 -37.5 23t-11.5 41zM371 436h331l-157 754h-15z" />
<glyph unicode="&#xc2;" d="M59 43q0 29 25 41q12 2 98 2l260 1126q6 23 14 36.5t22 19t25 7t34 1.5q25 0 36 -1t24.5 -7t20.5 -20t13 -38l260 -1124q84 0 96 -2q27 -11 27 -41q0 -15 -6.5 -24.5t-20 -13t-22 -4.5t-23.5 -1h-215q-15 0 -23.5 1t-20.5 4.5t-18 13t-6 24.5q0 30 24.5 36.5t98.5 6.5 l-57 264h-377l-57 -264q40 0 57 -0.5t35.5 -4.5t24.5 -13t6 -25q0 -15 -6 -24.5t-18 -13t-20.5 -4.5t-23.5 -1h-217q-14 0 -22.5 1t-21.5 4.5t-19.5 13t-6.5 24.5zM244 1403q0 12 12.5 25t32.5 20l223 82q26 9 53 0l219 -82q20 -7 32.5 -20t12.5 -25q0 -45 -49 -45 q-14 0 -61 14l-182 62l-183 -62q-47 -14 -61 -14q-49 0 -49 45zM371 436h331l-157 754h-15z" />
<glyph unicode="&#xc3;" d="M59 43q0 29 25 41q12 2 98 2l260 1126q6 23 14 36.5t22 19t25 7t34 1.5q25 0 36 -1t24.5 -7t20.5 -20t13 -38l260 -1124q84 0 96 -2q27 -11 27 -41q0 -15 -6.5 -24.5t-20 -13t-22 -4.5t-23.5 -1h-215q-15 0 -23.5 1t-20.5 4.5t-18 13t-6 24.5q0 30 24.5 36.5t98.5 6.5 l-57 264h-377l-57 -264q40 0 57 -0.5t35.5 -4.5t24.5 -13t6 -25q0 -15 -6 -24.5t-18 -13t-20.5 -4.5t-23.5 -1h-217q-14 0 -22.5 1t-21.5 4.5t-19.5 13t-6.5 24.5zM188 1403q0 6 3 13t10 15t13.5 14.5t17.5 15.5t17.5 14.5t19 15t16.5 12.5q90 66 151 66q45 0 96 -37 q72 -64 87 -73q13 -7 26 -7q53 0 162 98q19 19 37 19q17 0 31 -14t14 -33q0 -29 -96 -99q-84 -65 -152 -65q-50 0 -96 37q-72 64 -90 73q-11 5 -23 5q-25 0 -68.5 -26t-93.5 -73q-20 -16 -37 -16t-31 14t-14 31zM371 436h331l-157 754h-15z" />
<glyph unicode="&#xc4;" d="M59 43q0 29 25 41q12 2 98 2l260 1126q6 23 14 36.5t22 19t25 7t34 1.5q25 0 36 -1t24.5 -7t20.5 -20t13 -38l260 -1124q84 0 96 -2q27 -11 27 -41q0 -15 -6.5 -24.5t-20 -13t-22 -4.5t-23.5 -1h-215q-15 0 -23.5 1t-20.5 4.5t-18 13t-6 24.5q0 30 24.5 36.5t98.5 6.5 l-57 264h-377l-57 -264q40 0 57 -0.5t35.5 -4.5t24.5 -13t6 -25q0 -15 -6 -24.5t-18 -13t-20.5 -4.5t-23.5 -1h-217q-14 0 -22.5 1t-21.5 4.5t-19.5 13t-6.5 24.5zM258 1432q0 32 21.5 52.5t52.5 20.5t52.5 -20.5t21.5 -52.5q0 -31 -21.5 -52.5t-52.5 -21.5t-52.5 21.5 t-21.5 52.5zM371 436h331l-157 754h-15zM670 1432q0 32 21 52.5t52 20.5t52.5 -20.5t21.5 -52.5q0 -31 -21.5 -52.5t-52.5 -21.5t-52 21.5t-21 52.5z" />
<glyph unicode="&#xc5;" d="M59 43q0 29 25 41q12 2 98 2l260 1126q6 23 14 36.5t22 19t25 7t34 1.5q25 0 36 -1t24.5 -7t20.5 -20t13 -38l260 -1124q84 0 96 -2q27 -11 27 -41q0 -15 -6.5 -24.5t-20 -13t-22 -4.5t-23.5 -1h-215q-15 0 -23.5 1t-20.5 4.5t-18 13t-6 24.5q0 30 24.5 36.5t98.5 6.5 l-57 264h-377l-57 -264q40 0 57 -0.5t35.5 -4.5t24.5 -13t6 -25q0 -15 -6 -24.5t-18 -13t-20.5 -4.5t-23.5 -1h-217q-14 0 -22.5 1t-21.5 4.5t-19.5 13t-6.5 24.5zM330 1421q0 61 60 105.5t149 44.5t149 -44.5t60 -105.5q0 -60 -60 -102.5t-149 -42.5t-149 42.5t-60 102.5z M371 436h331l-157 754h-15zM432 1421q0 -32 31.5 -50.5t75.5 -18.5t75 18.5t31 50.5q0 34 -31 54t-75 20t-75.5 -20t-31.5 -54z" />
<glyph unicode="&#xc6;" d="M51 43q0 11 3 18.5t10 12t13.5 7t21 4t23.5 1.5h28l219 1079q-25 0 -36.5 1t-26.5 4.5t-21 12.5t-6 25q0 15 6 24.5t17.5 13t19 4.5t20.5 1h594q40 0 51.5 -13.5t11.5 -51.5v-156q0 -65 -36 -65q-39 0 -39 65v135h-285v-473h264q18 0 29 -1.5t23 -12t12 -31.5 q0 -41 -64 -41h-264v-520h301v168q0 65 39 65t39 -65v-188q0 -39 -13 -52.5t-51 -13.5h-411q-13 0 -21.5 1t-20.5 4.5t-18 13.5t-6 26q0 15 6.5 24t21 12t25 4t31.5 1v301h-272l-62 -301q29 0 42.5 -1t30.5 -4.5t23.5 -12.5t6.5 -25q0 -20 -12.5 -30t-23.5 -11.5t-28 -1.5 h-151q-17 0 -28 1.5t-23.5 11.5t-12.5 30zM305 475h256v690h-117z" />
<glyph unicode="&#xc7;" d="M88 627q0 182 67.5 331.5t179.5 232.5t243 83q149 0 280 -113q39 72 43 88q20 25 41 25q15 0 24.5 -6t13 -18t4.5 -20t1 -22v-293q0 -16 -1 -24.5t-5.5 -19.5t-16 -16t-30.5 -5q-15 0 -25 3.5t-15.5 12.5t-7.5 15t-5 20q-23 134 -105.5 210.5t-187.5 76.5q-74 0 -145 -42 t-127 -114t-90 -178.5t-34 -226.5q0 -121 34 -227.5t89.5 -179.5t127.5 -115t147 -42q31 0 65 7.5t74 27t72 49.5t55 80.5t27 114.5q4 41 51 41q53 0 53 -49q0 -72 -32.5 -137.5t-81 -107t-98 -67.5t-89.5 -32v-49q4 0 12 -1.5t29.5 -7t41.5 -13t44.5 -22.5t42 -33.5 t29.5 -47t12 -62.5q0 -32 -11 -58t-26.5 -45t-44.5 -34t-53.5 -24.5t-65 -16t-67.5 -9.5t-73 -5t-68.5 -2h-67.5q-18 0 -31.5 11t-13.5 34q0 11 3 18.5t11 12t15 7t22 4t25 1.5h30q42 0 87.5 4t100 14t89.5 33t35 55q0 40 -42.5 71.5t-119.5 35.5q-22 1 -33 12t-12.5 22 t-1.5 33v47q-211 11 -352.5 195t-141.5 457z" />
<glyph unicode="&#xc8;" d="M57 43q0 15 6 24.5t18 13t20 4.5t22 1h86v1079h-86q-66 0 -66 43t66 43h790q39 0 51.5 -13.5t12.5 -51.5v-156q0 -21 -1.5 -32t-14 -22t-37.5 -11q-24 0 -36 11.5t-14 22.5t-2 31v135h-561v-473h322q0 75 7.5 98t43.5 23q24 0 36 -11.5t13.5 -22.5t1.5 -31v-197 q0 -21 -1.5 -32t-13.5 -22.5t-36 -11.5q-36 0 -43.5 23t-7.5 98h-322v-520h609v168q0 21 1.5 32t14 22t37.5 11q24 0 36 -11t13.5 -22t1.5 -32v-188q0 -39 -12.5 -52.5t-50.5 -13.5h-838q-66 0 -66 43zM334 1567q0 23 15 38t38 15q13 0 31 -8l282 -127l12 -6t9.5 -6t10 -8.5 t5 -9.5t2.5 -13q0 -9 -3 -22t-15 -27.5t-31 -14.5q-10 2 -14 4l-295 131q-47 19 -47 54z" />
<glyph unicode="&#xc9;" d="M57 43q0 15 6 24.5t18 13t20 4.5t22 1h86v1079h-86q-66 0 -66 43t66 43h790q39 0 51.5 -13.5t12.5 -51.5v-156q0 -21 -1.5 -32t-14 -22t-37.5 -11q-24 0 -36 11.5t-14 22.5t-2 31v135h-561v-473h322q0 75 7.5 98t43.5 23q24 0 36 -11.5t13.5 -22.5t1.5 -31v-197 q0 -21 -1.5 -32t-13.5 -22.5t-36 -11.5q-36 0 -43.5 23t-7.5 98h-322v-520h609v168q0 21 1.5 32t14 22t37.5 11q24 0 36 -11t13.5 -22t1.5 -32v-188q0 -39 -12.5 -52.5t-50.5 -13.5h-838q-66 0 -66 43zM336 1442q0 9 2.5 15.5t10 12t11 7.5t15.5 8l282 127l31 8q23 0 38 -15 t15 -38q0 -35 -47 -54l-295 -131l-14 -4q-26 0 -37.5 23t-11.5 41z" />
<glyph unicode="&#xca;" d="M57 43q0 15 6 24.5t18 13t20 4.5t22 1h86v1079h-86q-66 0 -66 43t66 43h790q39 0 51.5 -13.5t12.5 -51.5v-156q0 -21 -1.5 -32t-14 -22t-37.5 -11q-24 0 -36 11.5t-14 22.5t-2 31v135h-561v-473h322q0 75 7.5 98t43.5 23q24 0 36 -11.5t13.5 -22.5t1.5 -31v-197 q0 -21 -1.5 -32t-13.5 -22.5t-36 -11.5q-36 0 -43.5 23t-7.5 98h-322v-520h609v168q0 21 1.5 32t14 22t37.5 11q24 0 36 -11t13.5 -22t1.5 -32v-188q0 -39 -12.5 -52.5t-50.5 -13.5h-838q-66 0 -66 43zM244 1403q0 12 12.5 25t32.5 20l223 82q26 9 53 0l219 -82 q20 -7 32.5 -20t12.5 -25q0 -45 -49 -45q-14 0 -61 14l-182 62l-183 -62q-47 -14 -61 -14q-49 0 -49 45z" />
<glyph unicode="&#xcb;" d="M57 43q0 15 6 24.5t18 13t20 4.5t22 1h86v1079h-86q-66 0 -66 43t66 43h790q39 0 51.5 -13.5t12.5 -51.5v-156q0 -21 -1.5 -32t-14 -22t-37.5 -11q-24 0 -36 11.5t-14 22.5t-2 31v135h-561v-473h322q0 75 7.5 98t43.5 23q24 0 36 -11.5t13.5 -22.5t1.5 -31v-197 q0 -21 -1.5 -32t-13.5 -22.5t-36 -11.5q-36 0 -43.5 23t-7.5 98h-322v-520h609v168q0 21 1.5 32t14 22t37.5 11q24 0 36 -11t13.5 -22t1.5 -32v-188q0 -39 -12.5 -52.5t-50.5 -13.5h-838q-66 0 -66 43zM258 1432q0 32 21.5 52.5t52.5 20.5t52.5 -20.5t21.5 -52.5 q0 -31 -21.5 -52.5t-52.5 -21.5t-52.5 21.5t-21.5 52.5zM670 1432q0 32 21 52.5t52 20.5t52.5 -20.5t21.5 -52.5q0 -31 -21.5 -52.5t-52.5 -21.5t-52 21.5t-21 52.5z" />
<glyph unicode="&#xcc;" d="M170 45q0 41 66 41h249v1079h-249q-66 0 -66 43t66 43h604q17 0 28 -1.5t24 -12t13 -31.5q0 -41 -65 -41h-250v-1079h250q65 0 65 -43t-65 -43h-604q-66 0 -66 45zM334 1567q0 23 15 38t38 15q13 0 31 -8l282 -127l12 -6t9.5 -6t10 -8.5t5 -9.5t2.5 -13q0 -9 -3 -22 t-15 -27.5t-31 -14.5q-10 2 -14 4l-295 131q-47 19 -47 54z" />
<glyph unicode="&#xcd;" d="M170 45q0 41 66 41h249v1079h-249q-66 0 -66 43t66 43h604q17 0 28 -1.5t24 -12t13 -31.5q0 -41 -65 -41h-250v-1079h250q65 0 65 -43t-65 -43h-604q-66 0 -66 45zM336 1442q0 9 2.5 15.5t10 12t11 7.5t15.5 8l282 127l31 8q23 0 38 -15t15 -38q0 -35 -47 -54l-295 -131 l-14 -4q-26 0 -37.5 23t-11.5 41z" />
<glyph unicode="&#xce;" d="M170 45q0 41 66 41h249v1079h-249q-66 0 -66 43t66 43h604q17 0 28 -1.5t24 -12t13 -31.5q0 -41 -65 -41h-250v-1079h250q65 0 65 -43t-65 -43h-604q-66 0 -66 45zM244 1403q0 12 12.5 25t32.5 20l223 82q26 9 53 0l219 -82q20 -7 32.5 -20t12.5 -25q0 -45 -49 -45 q-14 0 -61 14l-182 62l-183 -62q-47 -14 -61 -14q-49 0 -49 45z" />
<glyph unicode="&#xcf;" d="M170 45q0 41 66 41h249v1079h-249q-66 0 -66 43t66 43h604q17 0 28 -1.5t24 -12t13 -31.5q0 -41 -65 -41h-250v-1079h250q65 0 65 -43t-65 -43h-604q-66 0 -66 45zM258 1432q0 32 21.5 52.5t52.5 20.5t52.5 -20.5t21.5 -52.5q0 -31 -21.5 -52.5t-52.5 -21.5t-52.5 21.5 t-21.5 52.5zM670 1432q0 32 21 52.5t52 20.5t52.5 -20.5t21.5 -52.5q0 -31 -21.5 -52.5t-52.5 -21.5t-52 21.5t-21 52.5z" />
<glyph unicode="&#xd0;" d="M43 43q0 15 6 24.5t18 13t20.5 4.5t21.5 1h67v496h-80q-19 0 -32 12.5t-13 32.5q0 19 13 32t32 13h80v493h-67q-66 0 -66 41q0 16 6 26t18 13.5t20.5 4.5t21.5 1h436q131 0 234 -91.5t155.5 -235t52.5 -308.5t-54 -304.5t-156.5 -225.5t-231.5 -86h-436q-66 0 -66 43z M281 86h223q90 0 164 46t120.5 122t71.5 169.5t25 192.5q0 98 -24.5 194t-70.5 176t-120.5 129.5t-165.5 49.5h-223v-493h145q19 0 32 -13t13 -32q0 -20 -13 -32.5t-32 -12.5h-145v-496z" />
<glyph unicode="&#xd1;" d="M61 45q0 41 64 41h76v1079h-76q-18 0 -29 1.5t-23 11.5t-12 30t12.5 30t23.5 11.5t28 1.5h145q41 0 62 -11t37 -50l409 -1104h19v1079h-74q-64 0 -64 41q0 21 12 31.5t23 12t29 1.5h225q18 0 29 -1.5t23 -12t12 -31.5q0 -41 -64 -41h-76v-1099q0 -43 -13.5 -54.5 t-53.5 -11.5q-27 0 -41.5 2.5t-31 16.5t-27.5 42l-410 1104h-19v-1079h74q18 0 29 -1.5t23 -11.5t12 -30t-12.5 -30t-23.5 -11.5t-28 -1.5h-225q-18 0 -29 1.5t-23 12t-12 31.5zM188 1403q0 6 3 13t10 15t13.5 14.5t17.5 15.5t17.5 14.5t19 15t16.5 12.5q90 66 151 66 q45 0 96 -37q72 -64 87 -73q13 -7 26 -7q53 0 162 98q19 19 37 19q17 0 31 -14t14 -33q0 -29 -96 -99q-84 -65 -152 -65q-50 0 -96 37q-72 64 -90 73q-11 5 -23 5q-25 0 -68.5 -26t-93.5 -73q-20 -16 -37 -16t-31 14t-14 31z" />
<glyph unicode="&#xd2;" d="M121 625q0 120 2 198.5t10.5 152t19.5 115.5t35 79.5t51 54.5t74.5 30t97 16t126.5 3q61 0 103.5 -2t84 -9.5t68.5 -17t52.5 -30.5t40.5 -44t28.5 -63t19.5 -82t11 -107t6 -132t1 -162q0 -119 -2 -197.5t-10.5 -152t-19.5 -115.5t-35.5 -79.5t-51 -54.5t-73.5 -30 t-97 -16t-126 -3q-61 0 -103.5 2t-84.5 9.5t-68.5 17t-52.5 30t-40.5 43.5t-28 63t-20 82.5t-11.5 107t-6 131.5t-1 162zM225 643q0 -303 27 -414q21 -91 80 -128.5t205 -37.5q102 0 160.5 19t85.5 56.5t40 105.5q25 115 25 399q0 293 -27 393q-25 92 -86.5 122t-197.5 30 q-144 0 -205 -33.5t-82 -132.5q-25 -100 -25 -379zM334 1567q0 23 15 38t38 15q13 0 31 -8l282 -127l12 -6t9.5 -6t10 -8.5t5 -9.5t2.5 -13q0 -9 -3 -22t-15 -27.5t-31 -14.5q-10 2 -14 4l-295 131q-47 19 -47 54z" />
<glyph unicode="&#xd3;" d="M121 625q0 120 2 198.5t10.5 152t19.5 115.5t35 79.5t51 54.5t74.5 30t97 16t126.5 3q61 0 103.5 -2t84 -9.5t68.5 -17t52.5 -30.5t40.5 -44t28.5 -63t19.5 -82t11 -107t6 -132t1 -162q0 -119 -2 -197.5t-10.5 -152t-19.5 -115.5t-35.5 -79.5t-51 -54.5t-73.5 -30 t-97 -16t-126 -3q-61 0 -103.5 2t-84.5 9.5t-68.5 17t-52.5 30t-40.5 43.5t-28 63t-20 82.5t-11.5 107t-6 131.5t-1 162zM225 643q0 -303 27 -414q21 -91 80 -128.5t205 -37.5q102 0 160.5 19t85.5 56.5t40 105.5q25 115 25 399q0 293 -27 393q-25 92 -86.5 122t-197.5 30 q-144 0 -205 -33.5t-82 -132.5q-25 -100 -25 -379zM336 1442q0 9 2.5 15.5t10 12t11 7.5t15.5 8l282 127l31 8q23 0 38 -15t15 -38q0 -35 -47 -54l-295 -131l-14 -4q-26 0 -37.5 23t-11.5 41z" />
<glyph unicode="&#xd4;" d="M121 625q0 120 2 198.5t10.5 152t19.5 115.5t35 79.5t51 54.5t74.5 30t97 16t126.5 3q61 0 103.5 -2t84 -9.5t68.5 -17t52.5 -30.5t40.5 -44t28.5 -63t19.5 -82t11 -107t6 -132t1 -162q0 -119 -2 -197.5t-10.5 -152t-19.5 -115.5t-35.5 -79.5t-51 -54.5t-73.5 -30 t-97 -16t-126 -3q-61 0 -103.5 2t-84.5 9.5t-68.5 17t-52.5 30t-40.5 43.5t-28 63t-20 82.5t-11.5 107t-6 131.5t-1 162zM225 643q0 -303 27 -414q21 -91 80 -128.5t205 -37.5q102 0 160.5 19t85.5 56.5t40 105.5q25 115 25 399q0 293 -27 393q-25 92 -86.5 122t-197.5 30 q-144 0 -205 -33.5t-82 -132.5q-25 -100 -25 -379zM244 1403q0 12 12.5 25t32.5 20l223 82q26 9 53 0l219 -82q20 -7 32.5 -20t12.5 -25q0 -45 -49 -45q-14 0 -61 14l-182 62l-183 -62q-47 -14 -61 -14q-49 0 -49 45z" />
<glyph unicode="&#xd5;" d="M121 625q0 120 2 198.5t10.5 152t19.5 115.5t35 79.5t51 54.5t74.5 30t97 16t126.5 3q61 0 103.5 -2t84 -9.5t68.5 -17t52.5 -30.5t40.5 -44t28.5 -63t19.5 -82t11 -107t6 -132t1 -162q0 -119 -2 -197.5t-10.5 -152t-19.5 -115.5t-35.5 -79.5t-51 -54.5t-73.5 -30 t-97 -16t-126 -3q-61 0 -103.5 2t-84.5 9.5t-68.5 17t-52.5 30t-40.5 43.5t-28 63t-20 82.5t-11.5 107t-6 131.5t-1 162zM188 1403q0 6 3 13t10 15t13.5 14.5t17.5 15.5t17.5 14.5t19 15t16.5 12.5q90 66 151 66q45 0 96 -37q72 -64 87 -73q13 -7 26 -7q53 0 162 98 q19 19 37 19q17 0 31 -14t14 -33q0 -29 -96 -99q-84 -65 -152 -65q-50 0 -96 37q-72 64 -90 73q-11 5 -23 5q-25 0 -68.5 -26t-93.5 -73q-20 -16 -37 -16t-31 14t-14 31zM225 643q0 -303 27 -414q21 -91 80 -128.5t205 -37.5q102 0 160.5 19t85.5 56.5t40 105.5 q25 115 25 399q0 293 -27 393q-25 92 -86.5 122t-197.5 30q-144 0 -205 -33.5t-82 -132.5q-25 -100 -25 -379z" />
<glyph unicode="&#xd6;" d="M121 625q0 120 2 198.5t10.5 152t19.5 115.5t35 79.5t51 54.5t74.5 30t97 16t126.5 3q61 0 103.5 -2t84 -9.5t68.5 -17t52.5 -30.5t40.5 -44t28.5 -63t19.5 -82t11 -107t6 -132t1 -162q0 -119 -2 -197.5t-10.5 -152t-19.5 -115.5t-35.5 -79.5t-51 -54.5t-73.5 -30 t-97 -16t-126 -3q-61 0 -103.5 2t-84.5 9.5t-68.5 17t-52.5 30t-40.5 43.5t-28 63t-20 82.5t-11.5 107t-6 131.5t-1 162zM225 643q0 -303 27 -414q21 -91 80 -128.5t205 -37.5q102 0 160.5 19t85.5 56.5t40 105.5q25 115 25 399q0 293 -27 393q-25 92 -86.5 122t-197.5 30 q-144 0 -205 -33.5t-82 -132.5q-25 -100 -25 -379zM258 1432q0 32 21.5 52.5t52.5 20.5t52.5 -20.5t21.5 -52.5q0 -31 -21.5 -52.5t-52.5 -21.5t-52.5 21.5t-21.5 52.5zM670 1432q0 32 21 52.5t52 20.5t52.5 -20.5t21.5 -52.5q0 -31 -21.5 -52.5t-52.5 -21.5t-52 21.5 t-21 52.5z" />
<glyph unicode="&#xd7;" d="M215 948q34 34 92 -16l230 -232l225 230l7 5q7 5 9.5 7t10 7t12.5 6.5t12.5 4t13 1.5t12.5 -3.5t13 -7.5q39 -37 -12 -96l-230 -227l232 -230q50 -58 16 -92q-33 -33 -92 17l-229 231l-228 -229q-57 -49 -88 -21q-37 35 9 95l3 3l230 226l-232 229q-50 58 -16 92z" />
<glyph unicode="&#xd8;" d="M121 625q0 120 2 198.5t10.5 152t19.5 115.5t35 79.5t51 54.5t74.5 30t97 16t126.5 3q91 0 163 -4l37 112q5 15 8 23t12.5 17.5t22.5 9.5q6 0 15 -2t20.5 -12.5t11.5 -28.5q-2 -17 -41 -138q38 -16 64.5 -38t45 -60t29.5 -80.5t17 -113.5t8 -145t2 -189q0 -119 -2 -197.5 t-10.5 -152t-19.5 -115.5t-35.5 -79.5t-51 -54.5t-73.5 -30t-97 -16t-126 -3q-74 0 -164 5l-37 -113q-3 -11 -5.5 -16.5t-7.5 -15t-12.5 -13.5t-17.5 -4q-6 0 -15 2t-20.5 12.5t-11.5 28.5q2 16 41 135q-82 37 -112.5 101.5t-43.5 193.5q-10 100 -10 332zM199 625 q0 -128 6.5 -218.5t15 -142t27 -87.5t31.5 -49.5t40 -33.5l351 1080q-40 12 -49 12q-23 2 -84 2q-146 0 -215 -30.5t-97 -127.5q-26 -98 -26 -405zM403 78q40 -12 50 -12q35 -3 84 -3q146 0 214.5 30.5t96.5 127.5q26 98 26 406q0 128 -6.5 218.5t-15 141.5t-27 87 t-31.5 49.5t-40 33.5z" />
<glyph unicode="&#xd9;" d="M12 1208q0 15 6 24.5t18 13t20 4.5t22 1h272q66 0 66 -43t-66 -43h-84v-743q0 -87 25 -158t65.5 -113.5t87 -65t93.5 -22.5q46 0 92.5 22.5t87 65t65.5 113.5t25 158v743h-84q-66 0 -66 43t66 43h272q13 0 21.5 -1t20.5 -4.5t18 -13t6 -24.5t-6 -24.5t-18 -13t-20.5 -4.5 t-21.5 -1h-84v-753q0 -184 -110.5 -309.5t-263.5 -125.5t-264 126t-111 309v753h-84q-14 0 -22 1t-20 4.5t-18 13t-6 24.5zM334 1567q0 23 15 38t38 15q13 0 31 -8l282 -127l12 -6t9.5 -6t10 -8.5t5 -9.5t2.5 -13q0 -9 -3 -22t-15 -27.5t-31 -14.5q-10 2 -14 4l-295 131 q-47 19 -47 54z" />
<glyph unicode="&#xda;" d="M12 1208q0 15 6 24.5t18 13t20 4.5t22 1h272q66 0 66 -43t-66 -43h-84v-743q0 -87 25 -158t65.5 -113.5t87 -65t93.5 -22.5q46 0 92.5 22.5t87 65t65.5 113.5t25 158v743h-84q-66 0 -66 43t66 43h272q13 0 21.5 -1t20.5 -4.5t18 -13t6 -24.5t-6 -24.5t-18 -13t-20.5 -4.5 t-21.5 -1h-84v-753q0 -184 -110.5 -309.5t-263.5 -125.5t-264 126t-111 309v753h-84q-14 0 -22 1t-20 4.5t-18 13t-6 24.5zM336 1442q0 9 2.5 15.5t10 12t11 7.5t15.5 8l282 127l31 8q23 0 38 -15t15 -38q0 -35 -47 -54l-295 -131l-14 -4q-26 0 -37.5 23t-11.5 41z" />
<glyph unicode="&#xdb;" d="M12 1208q0 15 6 24.5t18 13t20 4.5t22 1h272q66 0 66 -43t-66 -43h-84v-743q0 -87 25 -158t65.5 -113.5t87 -65t93.5 -22.5q46 0 92.5 22.5t87 65t65.5 113.5t25 158v743h-84q-66 0 -66 43t66 43h272q13 0 21.5 -1t20.5 -4.5t18 -13t6 -24.5t-6 -24.5t-18 -13t-20.5 -4.5 t-21.5 -1h-84v-753q0 -184 -110.5 -309.5t-263.5 -125.5t-264 126t-111 309v753h-84q-14 0 -22 1t-20 4.5t-18 13t-6 24.5zM244 1403q0 12 12.5 25t32.5 20l223 82q26 9 53 0l219 -82q20 -7 32.5 -20t12.5 -25q0 -45 -49 -45q-14 0 -61 14l-182 62l-183 -62q-47 -14 -61 -14 q-49 0 -49 45z" />
<glyph unicode="&#xdc;" d="M12 1208q0 15 6 24.5t18 13t20 4.5t22 1h272q66 0 66 -43t-66 -43h-84v-743q0 -87 25 -158t65.5 -113.5t87 -65t93.5 -22.5q46 0 92.5 22.5t87 65t65.5 113.5t25 158v743h-84q-66 0 -66 43t66 43h272q13 0 21.5 -1t20.5 -4.5t18 -13t6 -24.5t-6 -24.5t-18 -13t-20.5 -4.5 t-21.5 -1h-84v-753q0 -184 -110.5 -309.5t-263.5 -125.5t-264 126t-111 309v753h-84q-14 0 -22 1t-20 4.5t-18 13t-6 24.5zM258 1432q0 32 21.5 52.5t52.5 20.5t52.5 -20.5t21.5 -52.5q0 -31 -21.5 -52.5t-52.5 -21.5t-52.5 21.5t-21.5 52.5zM670 1432q0 32 21 52.5t52 20.5 t52.5 -20.5t21.5 -52.5q0 -31 -21.5 -52.5t-52.5 -21.5t-52 21.5t-21 52.5z" />
<glyph unicode="&#xdd;" d="M43 1208q0 15 6 24.5t17.5 13t19 4.5t20.5 1h222q13 0 20.5 -1t19 -4.5t17.5 -13t6 -24.5q0 -11 -2.5 -18.5t-10.5 -12t-14.5 -7t-22.5 -4t-26.5 -1.5h-33.5l258 -573l252 573q-43 0 -61.5 1.5t-33 11t-14.5 30.5q0 15 6 24.5t17.5 13t19 4.5t20.5 1h222q18 0 28.5 -1.5 t22.5 -12t12 -31.5q0 -14 -6 -23.5t-17.5 -12.5t-19 -4t-20.5 -1h-58l-319 -665v-414h74q13 0 21 -1t19.5 -4.5t17 -13t5.5 -24.5t-6 -24.5t-17.5 -13t-19 -4.5t-20.5 -1h-252q-18 0 -29 1.5t-23 12t-12 31.5q0 41 64 41h73v414l-321 665h-58q-13 0 -21 1t-19.5 4.5t-17 13 t-5.5 24.5zM336 1442q0 9 2.5 15.5t10 12t11 7.5t15.5 8l282 127l31 8q23 0 38 -15t15 -38q0 -35 -47 -54l-295 -131l-14 -4q-26 0 -37.5 23t-11.5 41z" />
<glyph unicode="&#xde;" d="M49 43q0 20 12 30t23 11.5t29 1.5h73v1079h-73q-64 0 -64 41q0 21 12 31.5t23 12t29 1.5h252q18 0 28.5 -1.5t22.5 -12t12 -31.5q0 -14 -6 -23.5t-17.5 -12.5t-19 -4t-20.5 -1h-74v-172h287q110 0 198 -53t134 -136t46 -177t-45.5 -177t-133.5 -136.5t-199 -53.5h-287 v-174h74q13 0 21 -1t19.5 -4.5t17 -13t5.5 -24.5t-6 -24.5t-17.5 -13t-19 -4.5t-20.5 -1h-252q-17 0 -28 1.5t-23.5 11.5t-12.5 30zM291 348h246q63 0 116.5 17.5t89.5 46t61 65t36.5 75t11.5 75.5q0 47 -19 94.5t-55.5 89.5t-99.5 68t-141 26h-246v-557z" />
<glyph unicode="&#xdf;" d="M39 43q0 15 5.5 24.5t17 13t19.5 4.5t21 1h136v698h-136q-13 0 -20.5 1t-19 4t-17.5 12.5t-6 23.5q0 21 12 31.5t22.5 12t28.5 1.5h136v170q0 53 25 94t63 64.5t88 39t93.5 21t86.5 5.5q148 0 251 -57.5t103 -151.5q0 -132 -196 -238q65 -45 114 -100t75.5 -104t43 -102 t21 -89.5t4.5 -71.5q0 -106 -53.5 -190.5t-137 -128t-176.5 -43.5q-92 0 -143 40.5t-51 96.5q0 31 19 49.5t46 18.5q31 0 49 -25q9 -12 10.5 -23.5t1.5 -54.5q36 -16 68 -16q100 0 181 75.5t81 200.5q0 42 -8.5 90.5t-34 108.5t-64 108.5t-105.5 84t-152 40.5q-33 11 -33 43 q0 41 39 45q82 2 144 23.5t93 52t45.5 58t14.5 49.5q0 44 -74.5 84.5t-177.5 40.5q-93 0 -166 -33q-30 -13 -48 -26t-25.5 -30t-9 -29t-1.5 -36v-958q0 -39 -12 -52.5t-51 -13.5h-177q-13 0 -20.5 1t-19 4.5t-17.5 13t-6 24.5z" />
<glyph unicode="&#xe0;" d="M119 250q0 95 80.5 161t221 98.5t333.5 35.5q0 133 -77 195.5t-214 62.5q-141 0 -141 -47q-1 -41 -24.5 -58.5t-49.5 -17.5q-31 0 -52.5 20.5t-21.5 55.5q0 27 12 49t29.5 35.5t46 23.5t51 14.5t55.5 7t50 3t43 0.5q103 0 182.5 -27.5t124.5 -73t67.5 -98t22.5 -108.5 v-471q69 -25 148 -25q13 0 21 -1t20 -4t18 -12.5t6 -23.5q0 -13 -5 -22t-11.5 -13.5t-20 -6.5t-22.5 -2.5t-27 -0.5q-38 0 -60.5 1.5t-57 8t-60.5 23t-45 43.5q-134 -88 -313 -88q-147 0 -238.5 77.5t-91.5 184.5zM223 250q0 -72 67.5 -124t172.5 -52q116 0 196 39 q34 15 54.5 32.5t28.5 39t10 36t2 41.5v201q-249 -7 -390 -67.5t-141 -145.5zM334 1223q0 22 15 36.5t38 14.5q13 0 31 -8l282 -127q13 -5 19.5 -8.5t13 -12t6.5 -20.5q0 -10 -3 -23t-15 -27t-31 -14q-10 0 -14 2l-295 131q-47 19 -47 56z" />
<glyph unicode="&#xe1;" d="M119 250q0 95 80.5 161t221 98.5t333.5 35.5q0 133 -77 195.5t-214 62.5q-141 0 -141 -47q-1 -41 -24.5 -58.5t-49.5 -17.5q-31 0 -52.5 20.5t-21.5 55.5q0 27 12 49t29.5 35.5t46 23.5t51 14.5t55.5 7t50 3t43 0.5q103 0 182.5 -27.5t124.5 -73t67.5 -98t22.5 -108.5 v-471q69 -25 148 -25q13 0 21 -1t20 -4t18 -12.5t6 -23.5q0 -13 -5 -22t-11.5 -13.5t-20 -6.5t-22.5 -2.5t-27 -0.5q-38 0 -60.5 1.5t-57 8t-60.5 23t-45 43.5q-134 -88 -313 -88q-147 0 -238.5 77.5t-91.5 184.5zM223 250q0 -72 67.5 -124t172.5 -52q116 0 196 39 q34 15 54.5 32.5t28.5 39t10 36t2 41.5v201q-249 -7 -390 -67.5t-141 -145.5zM336 1098q0 17 9.5 25t29.5 16l282 127l31 8q23 0 38 -14.5t15 -36.5q0 -37 -47 -56l-295 -131l-14 -2q-27 0 -38 22.5t-11 41.5z" />
<glyph unicode="&#xe2;" d="M119 250q0 95 80.5 161t221 98.5t333.5 35.5q0 133 -77 195.5t-214 62.5q-141 0 -141 -47q-1 -41 -24.5 -58.5t-49.5 -17.5q-31 0 -52.5 20.5t-21.5 55.5q0 27 12 49t29.5 35.5t46 23.5t51 14.5t55.5 7t50 3t43 0.5q103 0 182.5 -27.5t124.5 -73t67.5 -98t22.5 -108.5 v-471q69 -25 148 -25q13 0 21 -1t20 -4t18 -12.5t6 -23.5q0 -13 -5 -22t-11.5 -13.5t-20 -6.5t-22.5 -2.5t-27 -0.5q-38 0 -60.5 1.5t-57 8t-60.5 23t-45 43.5q-134 -88 -313 -88q-147 0 -238.5 77.5t-91.5 184.5zM223 250q0 -72 67.5 -124t172.5 -52q116 0 196 39 q34 15 54.5 32.5t28.5 39t10 36t2 41.5v201q-249 -7 -390 -67.5t-141 -145.5zM246 1081q0 18 45 45l211 136q34 21 69 0l215 -136q45 -27 45 -45q0 -45 -49 -45q-9 0 -61 31l-182 111l-183 -111q-52 -31 -61 -31q-49 0 -49 45z" />
<glyph unicode="&#xe3;" d="M119 250q0 95 80.5 161t221 98.5t333.5 35.5q0 133 -77 195.5t-214 62.5q-141 0 -141 -47q-1 -41 -24.5 -58.5t-49.5 -17.5q-31 0 -52.5 20.5t-21.5 55.5q0 27 12 49t29.5 35.5t46 23.5t51 14.5t55.5 7t50 3t43 0.5q103 0 182.5 -27.5t124.5 -73t67.5 -98t22.5 -108.5 v-471q69 -25 148 -25q13 0 21 -1t20 -4t18 -12.5t6 -23.5q0 -13 -5 -22t-11.5 -13.5t-20 -6.5t-22.5 -2.5t-27 -0.5q-38 0 -60.5 1.5t-57 8t-60.5 23t-45 43.5q-134 -88 -313 -88q-147 0 -238.5 77.5t-91.5 184.5zM188 1094q0 6 3 13t10 15t13.5 14.5t17.5 15.5t17.5 14.5 t19 15t16.5 12.5q90 66 151 66q45 0 96 -37q72 -64 87 -73q13 -7 26 -7q53 0 162 98q19 19 37 19q17 0 31 -14.5t14 -33.5q0 -28 -96 -98q-89 -65 -152 -65q-51 0 -96 36q-72 64 -87 73q-13 7 -26 7q-24 0 -67.5 -26t-94.5 -74q-20 -16 -37 -16t-31 14t-14 31zM223 250 q0 -72 67.5 -124t172.5 -52q116 0 196 39q34 15 54.5 32.5t28.5 39t10 36t2 41.5v201q-249 -7 -390 -67.5t-141 -145.5z" />
<glyph unicode="&#xe4;" d="M119 250q0 95 80.5 161t221 98.5t333.5 35.5q0 133 -77 195.5t-214 62.5q-141 0 -141 -47q-1 -41 -24.5 -58.5t-49.5 -17.5q-31 0 -52.5 20.5t-21.5 55.5q0 27 12 49t29.5 35.5t46 23.5t51 14.5t55.5 7t50 3t43 0.5q103 0 182.5 -27.5t124.5 -73t67.5 -98t22.5 -108.5 v-471q69 -25 148 -25q13 0 21 -1t20 -4t18 -12.5t6 -23.5q0 -13 -5 -22t-11.5 -13.5t-20 -6.5t-22.5 -2.5t-27 -0.5q-38 0 -60.5 1.5t-57 8t-60.5 23t-45 43.5q-134 -88 -313 -88q-147 0 -238.5 77.5t-91.5 184.5zM223 250q0 -72 67.5 -124t172.5 -52q116 0 196 39 q34 15 54.5 32.5t28.5 39t10 36t2 41.5v201q-249 -7 -390 -67.5t-141 -145.5zM289 1153q0 32 21 54t52 22t52.5 -22t21.5 -54q0 -31 -21.5 -52.5t-52.5 -21.5t-52 21.5t-21 52.5zM639 1153q0 32 21.5 54t52.5 22t52 -22t21 -54q0 -31 -21 -52.5t-52 -21.5t-52.5 21.5 t-21.5 52.5z" />
<glyph unicode="&#xe5;" d="M119 250q0 95 80.5 161t221 98.5t333.5 35.5q0 133 -77 195.5t-214 62.5q-141 0 -141 -47q-1 -41 -24.5 -58.5t-49.5 -17.5q-31 0 -52.5 20.5t-21.5 55.5q0 27 12 49t29.5 35.5t46 23.5t51 14.5t55.5 7t50 3t43 0.5q103 0 182.5 -27.5t124.5 -73t67.5 -98t22.5 -108.5 v-471q69 -25 148 -25q13 0 21 -1t20 -4t18 -12.5t6 -23.5q0 -13 -5 -22t-11.5 -13.5t-20 -6.5t-22.5 -2.5t-27 -0.5q-38 0 -60.5 1.5t-57 8t-60.5 23t-45 43.5q-134 -88 -313 -88q-147 0 -238.5 77.5t-91.5 184.5zM223 250q0 -72 67.5 -124t172.5 -52q116 0 196 39 q34 15 54.5 32.5t28.5 39t10 36t2 41.5v201q-249 -7 -390 -67.5t-141 -145.5zM330 1153q0 61 60 105.5t149 44.5t149 -44.5t60 -105.5q0 -60 -60 -102.5t-149 -42.5t-149 42.5t-60 102.5zM432 1153q0 -32 31.5 -51t75.5 -19t75 19t31 51q0 34 -31 54t-75 20t-75.5 -20 t-31.5 -54z" />
<glyph unicode="&#xe6;" d="M74 229q0 121 117 186.5t307 67.5v90q0 111 -51 170.5t-140 59.5q-27 0 -51.5 -10.5t-24.5 -20.5q0 -3 1 -9t1 -9q-1 -24 -10.5 -40t-22.5 -22.5t-22 -9t-16 -2.5q-31 0 -52.5 20.5t-21.5 55.5q0 55 53 94t172 39q78 0 135.5 -42t108.5 -132q101 174 227 174 q109 0 176.5 -111t67.5 -305q0 -41 -11 -55.5t-52 -14.5h-387q14 -153 84.5 -241t152.5 -88q44 0 80.5 34t54.5 103l2 5q3 5 4.5 8t5 8t7 8t9 5.5t11.5 2.5q17 0 28 -11.5t11 -27.5q0 -14 -7 -38t-24 -56.5t-41.5 -60t-64 -47t-86.5 -19.5q-35 0 -70 13.5t-58.5 30t-49 43.5 t-36.5 41t-26 36q-50 -82 -122 -123t-150 -41q-99 0 -159 74t-60 167zM150 231q0 -61 42 -109t113 -48q77 0 137 49q25 20 37.5 46.5t14.5 44.5t2 48q0 92 4 139q-156 -6 -253 -52t-97 -118zM578 489h372q-8 167 -56 240.5t-110 73.5q-73 0 -134 -93t-72 -221z" />
<glyph unicode="&#xe7;" d="M158 436q0 57 15 116t50.5 120t87.5 109t134 78t182 30q28 0 45 -0.5t51.5 -3t57.5 -7t52 -14.5t46.5 -23.5t30 -35.5t12.5 -49q0 -34 -22 -55t-52 -21q-69 0 -72 82q0 16 -52 28.5t-97 12.5q-86 0 -153.5 -28t-106 -69t-63.5 -94t-33.5 -95.5t-8.5 -80.5 q0 -152 104 -257t248 -105q47 0 86.5 13t62 27.5t44 42t27.5 39t18 35.5q12 17 43 17q7 0 13 -1t18 -4t18 -12t4 -22q-8 -49 -40 -90.5t-73.5 -66.5t-80.5 -40t-70 -18v-51q9 -1 23 -4t50.5 -16t64 -32t50.5 -55.5t23 -81.5q0 -32 -11 -58t-26.5 -45t-44.5 -34t-53.5 -24.5 t-65 -16t-67.5 -9.5t-73 -5t-68.5 -2h-67.5q-18 0 -31.5 11t-13.5 34q0 11 3 18.5t11 12t15 7t22 4t25 1.5h30q42 0 87.5 4t100 14t89.5 33t35 55q0 40 -42.5 71.5t-119.5 35.5q-22 1 -33 12t-12.5 22t-1.5 33v60q-188 17 -306 144.5t-118 303.5z" />
<glyph unicode="&#xe8;" d="M119 438q0 186 127 318.5t307 132.5q126 0 216 -60t131.5 -155t41.5 -213q0 -27 -9.5 -40.5t-20.5 -15.5t-33 -2h-656q20 -105 78.5 -181t135.5 -112t163 -36q29 0 59 6t66.5 20.5t68.5 46.5t52 78q6 14 15.5 18.5t29.5 4.5q51 0 51 -39q0 -16 -11.5 -41.5t-39.5 -57 t-67 -58.5t-101.5 -45.5t-136.5 -18.5q-129 0 -236.5 60.5t-169 164t-61.5 225.5zM225 489h613q-8 92 -36.5 157t-71 97.5t-85.5 46t-92 13.5q-119 0 -209.5 -86t-118.5 -228zM334 1223q0 22 15 36.5t38 14.5q13 0 31 -8l282 -127q13 -5 19.5 -8.5t13 -12t6.5 -20.5 q0 -10 -3 -23t-15 -27t-31 -14q-10 0 -14 2l-295 131q-47 19 -47 56z" />
<glyph unicode="&#xe9;" d="M119 438q0 186 127 318.5t307 132.5q126 0 216 -60t131.5 -155t41.5 -213q0 -27 -9.5 -40.5t-20.5 -15.5t-33 -2h-656q20 -105 78.5 -181t135.5 -112t163 -36q29 0 59 6t66.5 20.5t68.5 46.5t52 78q6 14 15.5 18.5t29.5 4.5q51 0 51 -39q0 -16 -11.5 -41.5t-39.5 -57 t-67 -58.5t-101.5 -45.5t-136.5 -18.5q-129 0 -236.5 60.5t-169 164t-61.5 225.5zM225 489h613q-8 92 -36.5 157t-71 97.5t-85.5 46t-92 13.5q-119 0 -209.5 -86t-118.5 -228zM336 1098q0 17 9.5 25t29.5 16l282 127l31 8q23 0 38 -14.5t15 -36.5q0 -37 -47 -56l-295 -131 l-14 -2q-27 0 -38 22.5t-11 41.5z" />
<glyph unicode="&#xea;" d="M119 438q0 186 127 318.5t307 132.5q126 0 216 -60t131.5 -155t41.5 -213q0 -27 -9.5 -40.5t-20.5 -15.5t-33 -2h-656q20 -105 78.5 -181t135.5 -112t163 -36q29 0 59 6t66.5 20.5t68.5 46.5t52 78q6 14 15.5 18.5t29.5 4.5q51 0 51 -39q0 -16 -11.5 -41.5t-39.5 -57 t-67 -58.5t-101.5 -45.5t-136.5 -18.5q-129 0 -236.5 60.5t-169 164t-61.5 225.5zM225 489h613q-8 92 -36.5 157t-71 97.5t-85.5 46t-92 13.5q-119 0 -209.5 -86t-118.5 -228zM246 1081q0 18 45 45l211 136q34 21 69 0l215 -136q45 -27 45 -45q0 -45 -49 -45q-9 0 -61 31 l-182 111l-183 -111q-52 -31 -61 -31q-49 0 -49 45z" />
<glyph unicode="&#xeb;" d="M119 438q0 186 127 318.5t307 132.5q126 0 216 -60t131.5 -155t41.5 -213q0 -27 -9.5 -40.5t-20.5 -15.5t-33 -2h-656q20 -105 78.5 -181t135.5 -112t163 -36q29 0 59 6t66.5 20.5t68.5 46.5t52 78q6 14 15.5 18.5t29.5 4.5q51 0 51 -39q0 -16 -11.5 -41.5t-39.5 -57 t-67 -58.5t-101.5 -45.5t-136.5 -18.5q-129 0 -236.5 60.5t-169 164t-61.5 225.5zM225 489h613q-8 92 -36.5 157t-71 97.5t-85.5 46t-92 13.5q-119 0 -209.5 -86t-118.5 -228zM289 1153q0 32 21 54t52 22t52.5 -22t21.5 -54q0 -31 -21.5 -52.5t-52.5 -21.5t-52 21.5 t-21 52.5zM639 1153q0 32 21.5 54t52.5 22t52 -22t21 -54q0 -31 -21 -52.5t-52 -21.5t-52.5 21.5t-21.5 52.5z" />
<glyph unicode="&#xec;" d="M168 43q0 20 12.5 30t23.5 11.5t29 1.5h279v698h-262q-66 0 -66 43t66 43h301q40 0 51.5 -13.5t11.5 -51.5v-719h244q66 0 66 -43t-66 -43h-625q-65 0 -65 43zM334 1223q0 22 15 36.5t38 14.5q13 0 31 -8l282 -127q13 -5 19.5 -8.5t13 -12t6.5 -20.5q0 -10 -3 -23 t-15 -27t-31 -14q-10 0 -14 2l-295 131q-47 19 -47 56z" />
<glyph unicode="&#xed;" d="M168 43q0 20 12.5 30t23.5 11.5t29 1.5h279v698h-262q-66 0 -66 43t66 43h301q40 0 51.5 -13.5t11.5 -51.5v-719h244q66 0 66 -43t-66 -43h-625q-65 0 -65 43zM336 1098q0 17 9.5 25t29.5 16l282 127l31 8q23 0 38 -14.5t15 -36.5q0 -37 -47 -56l-295 -131l-14 -2 q-27 0 -38 22.5t-11 41.5z" />
<glyph unicode="&#xee;" d="M168 43q0 20 12.5 30t23.5 11.5t29 1.5h279v698h-262q-66 0 -66 43t66 43h301q40 0 51.5 -13.5t11.5 -51.5v-719h244q66 0 66 -43t-66 -43h-625q-65 0 -65 43zM246 1081q0 18 45 45l211 136q34 21 69 0l215 -136q45 -27 45 -45q0 -45 -49 -45q-9 0 -61 31l-182 111 l-183 -111q-52 -31 -61 -31q-49 0 -49 45z" />
<glyph unicode="&#xef;" d="M168 43q0 20 12.5 30t23.5 11.5t29 1.5h279v698h-262q-66 0 -66 43t66 43h301q40 0 51.5 -13.5t11.5 -51.5v-719h244q66 0 66 -43t-66 -43h-625q-65 0 -65 43zM289 1153q0 32 21 54t52 22t52.5 -22t21.5 -54q0 -31 -21.5 -52.5t-52.5 -21.5t-52 21.5t-21 52.5zM639 1153 q0 32 21.5 54t52.5 22t52 -22t21 -54q0 -31 -21 -52.5t-52 -21.5t-52.5 21.5t-21.5 52.5z" />
<glyph unicode="&#xf0;" d="M123 436q0 188 122 320.5t292 132.5q68 0 134 -28t152 -93q-22 109 -46.5 175.5t-67.5 129.5l-56 -59q-19 -15 -35 -15q-19 0 -31 13t-12 32q0 14 13 31l55 58q-86 45 -162 45q-19 0 -32 13t-13 32q0 17 13 30t32 13q117 0 221 -72l58 59q13 13 31 13q19 0 32 -12t13 -31 q0 -16 -11 -31l-61 -59q186 -239 186 -697q0 -90 -32 -173.5t-93 -145.5q-120 -129 -288 -129t-291 129.5t-123 318.5zM227 451q0 -156 91.5 -266.5t218.5 -110.5q125 0 217 110.5t92 266.5q0 151 -92 251.5t-217 100.5q-124 0 -217 -100.5t-93 -251.5z" />
<glyph unicode="&#xf1;" d="M29 43q0 20 12.5 30t23.5 11.5t29 1.5h115v698h-117q-13 0 -20.5 1t-19 4t-17.5 12.5t-6 23.5q0 21 12.5 31.5t23.5 12t29 1.5h154q45 0 54 -23t9 -106q68 66 138 104t161 38q121 0 187.5 -69.5t66.5 -213.5v-514h115q13 0 21 -1t20 -4.5t18 -13t6 -24.5t-6 -24.5 t-17.5 -13t-19 -4.5t-20.5 -1h-324q-65 0 -65 43q0 20 12.5 30t23.5 11.5t29 1.5h105v502q0 111 -36 160t-128 49q-47 0 -95 -18t-92 -53.5t-72 -98.5t-28 -144v-397h115q14 0 22 -1t20 -4.5t18 -13t6 -24.5q0 -20 -12.5 -30t-23.5 -11.5t-28 -1.5h-336q-13 0 -20.5 1 t-19 4.5t-17.5 13t-6 24.5zM188 1094q0 6 3 13t10 15t13.5 14.5t17.5 15.5t17.5 14.5t19 15t16.5 12.5q90 66 151 66q45 0 96 -37q72 -64 87 -73q13 -7 26 -7q53 0 162 98q19 19 37 19q17 0 31 -14.5t14 -33.5q0 -28 -96 -98q-89 -65 -152 -65q-51 0 -96 36q-72 64 -87 73 q-13 7 -26 7q-24 0 -67.5 -26t-94.5 -74q-20 -16 -37 -16t-31 14t-14 31z" />
<glyph unicode="&#xf2;" d="M123 436q0 188 122 320.5t292 132.5q111 0 206 -60t151 -164.5t56 -228.5q0 -188 -122.5 -318t-290.5 -130t-291 129.5t-123 318.5zM227 451q0 -156 91.5 -266.5t218.5 -110.5q125 0 217 110.5t92 266.5q0 151 -92 251.5t-217 100.5q-124 0 -217 -100.5t-93 -251.5z M334 1223q0 22 15 36.5t38 14.5q13 0 31 -8l282 -127q13 -5 19.5 -8.5t13 -12t6.5 -20.5q0 -10 -3 -23t-15 -27t-31 -14q-10 0 -14 2l-295 131q-47 19 -47 56z" />
<glyph unicode="&#xf3;" d="M123 436q0 188 122 320.5t292 132.5q111 0 206 -60t151 -164.5t56 -228.5q0 -188 -122.5 -318t-290.5 -130t-291 129.5t-123 318.5zM227 451q0 -156 91.5 -266.5t218.5 -110.5q125 0 217 110.5t92 266.5q0 151 -92 251.5t-217 100.5q-124 0 -217 -100.5t-93 -251.5z M336 1098q0 17 9.5 25t29.5 16l282 127l31 8q23 0 38 -14.5t15 -36.5q0 -37 -47 -56l-295 -131l-14 -2q-27 0 -38 22.5t-11 41.5z" />
<glyph unicode="&#xf4;" d="M123 436q0 188 122 320.5t292 132.5q111 0 206 -60t151 -164.5t56 -228.5q0 -188 -122.5 -318t-290.5 -130t-291 129.5t-123 318.5zM227 451q0 -156 91.5 -266.5t218.5 -110.5q125 0 217 110.5t92 266.5q0 151 -92 251.5t-217 100.5q-124 0 -217 -100.5t-93 -251.5z M246 1081q0 18 45 45l211 136q34 21 69 0l215 -136q45 -27 45 -45q0 -45 -49 -45q-9 0 -61 31l-182 111l-183 -111q-52 -31 -61 -31q-49 0 -49 45z" />
<glyph unicode="&#xf5;" d="M123 436q0 188 122 320.5t292 132.5q111 0 206 -60t151 -164.5t56 -228.5q0 -188 -122.5 -318t-290.5 -130t-291 129.5t-123 318.5zM188 1094q0 6 3 13t10 15t13.5 14.5t17.5 15.5t17.5 14.5t19 15t16.5 12.5q90 66 151 66q45 0 96 -37q72 -64 87 -73q13 -7 26 -7 q53 0 162 98q19 19 37 19q17 0 31 -14.5t14 -33.5q0 -28 -96 -98q-89 -65 -152 -65q-51 0 -96 36q-72 64 -87 73q-13 7 -26 7q-24 0 -67.5 -26t-94.5 -74q-20 -16 -37 -16t-31 14t-14 31zM227 451q0 -156 91.5 -266.5t218.5 -110.5q125 0 217 110.5t92 266.5 q0 151 -92 251.5t-217 100.5q-124 0 -217 -100.5t-93 -251.5z" />
<glyph unicode="&#xf6;" d="M123 436q0 188 122 320.5t292 132.5q111 0 206 -60t151 -164.5t56 -228.5q0 -188 -122.5 -318t-290.5 -130t-291 129.5t-123 318.5zM227 451q0 -156 91.5 -266.5t218.5 -110.5q125 0 217 110.5t92 266.5q0 151 -92 251.5t-217 100.5q-124 0 -217 -100.5t-93 -251.5z M289 1153q0 32 21 54t52 22t52.5 -22t21.5 -54q0 -31 -21.5 -52.5t-52.5 -21.5t-52 21.5t-21 52.5zM639 1153q0 32 21.5 54t52.5 22t52 -22t21 -54q0 -31 -21 -52.5t-52 -21.5t-52.5 21.5t-21.5 52.5z" />
<glyph unicode="&#xf7;" d="M84 627q0 53 86 53h733q86 0 86 -53q0 -54 -74 -54h-757q-74 0 -74 54zM424 178q0 43 32 77t81 34q44 0 77 -32.5t33 -80.5q0 -43 -31.5 -76.5t-80.5 -33.5q-44 0 -77.5 32t-33.5 80zM424 1075q0 43 32 77t81 34q44 0 77 -32.5t33 -80.5q0 -43 -31.5 -76.5t-80.5 -33.5 q-44 0 -77.5 32t-33.5 80z" />
<glyph unicode="&#xf8;" d="M94 -254q0 7 33 70l149 256q-178 154 -178 364q0 121 58.5 225.5t159.5 166t221 61.5q78 0 188 -43l168 291q6 10 9 14.5t11 10t19 5.5q16 0 31.5 -11.5t15.5 -31.5q0 -14 -12 -34l-166 -289q174 -160 174 -365q0 -186 -129 -317t-309 -131q-90 0 -185 41l-180 -310 q-12 -16 -31 -16q-16 0 -31.5 11.5t-15.5 31.5zM174 436q0 -160 143 -293l365 631q-55 20 -77.5 24.5t-67.5 4.5q-150 0 -256.5 -107.5t-106.5 -259.5zM395 100q51 -17 74.5 -21.5t67.5 -4.5q150 0 256 105t106 257q0 164 -143 291z" />
<glyph unicode="&#xf9;" d="M29 825q0 21 12.5 31.5t23.5 12t29 1.5h154q40 0 51.5 -13.5t11.5 -51.5v-572q0 -22 0.5 -34t4 -31.5t10.5 -30.5t20.5 -24.5t33.5 -21t50.5 -12.5t69.5 -5q28 0 57 4t67.5 19.5t67.5 39.5t49.5 69.5t20.5 104.5v473h-117q-13 0 -20.5 1t-19 4t-17.5 12.5t-6 23.5 q0 21 12.5 31.5t23.5 12t29 1.5h154q40 0 51.5 -13.5t11.5 -51.5v-719h117q13 0 20.5 -1t19 -4t17.5 -12.5t6 -23.5q0 -21 -12.5 -31.5t-23.5 -12t-29 -1.5h-154q-15 0 -23 1.5t-19 9t-16.5 27t-6.5 50.5q-132 -100 -273 -100q-278 0 -278 233v563h-117q-13 0 -20.5 1t-19 4 t-17.5 12.5t-6 23.5zM334 1223q0 22 15 36.5t38 14.5q13 0 31 -8l282 -127q13 -5 19.5 -8.5t13 -12t6.5 -20.5q0 -10 -3 -23t-15 -27t-31 -14q-10 0 -14 2l-295 131q-47 19 -47 56z" />
<glyph unicode="&#xfa;" d="M29 825q0 21 12.5 31.5t23.5 12t29 1.5h154q40 0 51.5 -13.5t11.5 -51.5v-572q0 -22 0.5 -34t4 -31.5t10.5 -30.5t20.5 -24.5t33.5 -21t50.5 -12.5t69.5 -5q28 0 57 4t67.5 19.5t67.5 39.5t49.5 69.5t20.5 104.5v473h-117q-13 0 -20.5 1t-19 4t-17.5 12.5t-6 23.5 q0 21 12.5 31.5t23.5 12t29 1.5h154q40 0 51.5 -13.5t11.5 -51.5v-719h117q13 0 20.5 -1t19 -4t17.5 -12.5t6 -23.5q0 -21 -12.5 -31.5t-23.5 -12t-29 -1.5h-154q-15 0 -23 1.5t-19 9t-16.5 27t-6.5 50.5q-132 -100 -273 -100q-278 0 -278 233v563h-117q-13 0 -20.5 1t-19 4 t-17.5 12.5t-6 23.5zM336 1098q0 17 9.5 25t29.5 16l282 127l31 8q23 0 38 -14.5t15 -36.5q0 -37 -47 -56l-295 -131l-14 -2q-27 0 -38 22.5t-11 41.5z" />
<glyph unicode="&#xfb;" d="M29 825q0 21 12.5 31.5t23.5 12t29 1.5h154q40 0 51.5 -13.5t11.5 -51.5v-572q0 -22 0.5 -34t4 -31.5t10.5 -30.5t20.5 -24.5t33.5 -21t50.5 -12.5t69.5 -5q28 0 57 4t67.5 19.5t67.5 39.5t49.5 69.5t20.5 104.5v473h-117q-13 0 -20.5 1t-19 4t-17.5 12.5t-6 23.5 q0 21 12.5 31.5t23.5 12t29 1.5h154q40 0 51.5 -13.5t11.5 -51.5v-719h117q13 0 20.5 -1t19 -4t17.5 -12.5t6 -23.5q0 -21 -12.5 -31.5t-23.5 -12t-29 -1.5h-154q-15 0 -23 1.5t-19 9t-16.5 27t-6.5 50.5q-132 -100 -273 -100q-278 0 -278 233v563h-117q-13 0 -20.5 1t-19 4 t-17.5 12.5t-6 23.5zM246 1081q0 18 45 45l211 136q34 21 69 0l215 -136q45 -27 45 -45q0 -45 -49 -45q-9 0 -61 31l-182 111l-183 -111q-52 -31 -61 -31q-49 0 -49 45z" />
<glyph unicode="&#xfc;" d="M29 825q0 21 12.5 31.5t23.5 12t29 1.5h154q40 0 51.5 -13.5t11.5 -51.5v-572q0 -22 0.5 -34t4 -31.5t10.5 -30.5t20.5 -24.5t33.5 -21t50.5 -12.5t69.5 -5q28 0 57 4t67.5 19.5t67.5 39.5t49.5 69.5t20.5 104.5v473h-117q-13 0 -20.5 1t-19 4t-17.5 12.5t-6 23.5 q0 21 12.5 31.5t23.5 12t29 1.5h154q40 0 51.5 -13.5t11.5 -51.5v-719h117q13 0 20.5 -1t19 -4t17.5 -12.5t6 -23.5q0 -21 -12.5 -31.5t-23.5 -12t-29 -1.5h-154q-15 0 -23 1.5t-19 9t-16.5 27t-6.5 50.5q-132 -100 -273 -100q-278 0 -278 233v563h-117q-13 0 -20.5 1t-19 4 t-17.5 12.5t-6 23.5zM289 1153q0 32 21 54t52 22t52.5 -22t21.5 -54q0 -31 -21.5 -52.5t-52.5 -21.5t-52 21.5t-21 52.5zM639 1153q0 32 21.5 54t52.5 22t52 -22t21 -54q0 -31 -21 -52.5t-52 -21.5t-52.5 21.5t-21.5 52.5z" />
<glyph unicode="&#xfd;" d="M57 825q0 21 12 31.5t23 12t29 1.5h248q18 0 28.5 -1.5t22.5 -12t12 -31.5q0 -14 -6 -23.5t-17.5 -12.5t-19 -4t-20.5 -1h-84l270 -712l236 712h-82q-18 0 -29 1.5t-23 11.5t-12 30t12.5 30t23.5 11.5t28 1.5h247q18 0 29 -1.5t23 -12t12 -31.5q0 -41 -64 -41h-77 l-332 -979q-5 -16 -15.5 -40t-38.5 -70.5t-60 -83.5t-82 -65.5t-103 -28.5q-66 0 -110 46t-44 107q0 31 19.5 51.5t52.5 20.5q31 0 50.5 -19.5t19.5 -50.5q0 -10 -3 -20.5t-7 -15.5l-3 -5q13 -26 25 -26q27 0 44.5 3.5t40.5 16t45 40.5t46 73q13 24 34.5 82.5t36.5 105.5 l15 47q1 3 -78.5 205.5t-159.5 403.5l-79 202h-72q-64 0 -64 41zM336 1098q0 17 9.5 25t29.5 16l282 127l31 8q23 0 38 -14.5t15 -36.5q0 -37 -47 -56l-295 -131l-14 -2q-27 0 -38 22.5t-11 41.5z" />
<glyph unicode="&#xfe;" d="M29 -428q0 21 12.5 31.5t23.5 12t29 1.5h115v1548h-117q-13 0 -20.5 1t-19 4t-17.5 12.5t-6 23.5q0 21 12.5 31.5t23.5 12t29 1.5h154q40 0 51.5 -13.5t11.5 -51.5v-434q145 131 291 131q160 0 275.5 -131t115.5 -316q0 -189 -123 -318.5t-290 -129.5q-132 0 -269 139 v-510h115q14 0 22 -1t20 -4.5t18 -13.5t6 -26q0 -20 -12.5 -30t-23.5 -11.5t-28 -1.5h-336q-13 0 -20.5 1t-19 4.5t-17.5 13t-6 24.5zM311 383q0 -34 9.5 -74t31 -82t51 -76t74 -55.5t96.5 -21.5q124 0 221 102.5t97 259.5q0 149 -88 255t-213 106q-109 0 -194 -78.5 t-85 -179.5v-156z" />
<glyph unicode="&#xff;" d="M57 825q0 21 12 31.5t23 12t29 1.5h248q18 0 28.5 -1.5t22.5 -12t12 -31.5q0 -14 -6 -23.5t-17.5 -12.5t-19 -4t-20.5 -1h-84l270 -712l236 712h-82q-18 0 -29 1.5t-23 11.5t-12 30t12.5 30t23.5 11.5t28 1.5h247q18 0 29 -1.5t23 -12t12 -31.5q0 -41 -64 -41h-77 l-332 -979q-5 -16 -15.5 -40t-38.5 -70.5t-60 -83.5t-82 -65.5t-103 -28.5q-66 0 -110 46t-44 107q0 31 19.5 51.5t52.5 20.5q31 0 50.5 -19.5t19.5 -50.5q0 -10 -3 -20.5t-7 -15.5l-3 -5q13 -26 25 -26q27 0 44.5 3.5t40.5 16t45 40.5t46 73q13 24 34.5 82.5t36.5 105.5 l15 47q1 3 -78.5 205.5t-159.5 403.5l-79 202h-72q-64 0 -64 41zM289 1153q0 32 21 54t52 22t52.5 -22t21.5 -54q0 -31 -21.5 -52.5t-52.5 -21.5t-52 21.5t-21 52.5zM639 1153q0 32 21.5 54t52.5 22t52 -22t21 -54q0 -31 -21 -52.5t-52 -21.5t-52.5 21.5t-21.5 52.5z" />
<glyph unicode="&#x152;" d="M63 627q0 202 6.5 301.5t26.5 181.5q21 94 87 129t208 35q58 0 115 -12q58 -11 104 -11h336q39 0 51.5 -13.5t12.5 -51.5v-156q0 -65 -39 -65t-39 65v135h-297v-473h278q18 0 29 -1.5t23 -12t12 -31.5q0 -41 -64 -41h-278v-520h313v168q0 65 37 65q39 0 39 -65v-188 q0 -39 -12.5 -52.5t-50.5 -13.5h-351q-51 0 -94 -8q-75 -15 -125 -15q-106 0 -168 20.5t-89 57t-40 101.5q-14 61 -21.5 148.5t-8.5 148.5t-1 174zM141 643q0 -131 2 -201t10 -147.5t24 -112t46 -67t73 -42.5t107 -10q44 0 70.5 10t47 39.5t28.5 84.5t8 145v567 q0 92 -8.5 148t-29.5 84.5t-47.5 37.5t-72.5 9q-38 0 -68 -3t-55 -13t-43 -20t-32.5 -32.5t-24 -42t-16.5 -57.5t-10.5 -69t-5.5 -87t-2.5 -101t-0.5 -120z" />
<glyph unicode="&#x153;" d="M43 438q0 192 83 321.5t204 129.5q44 0 82.5 -18.5t69 -52t51 -65t42.5 -73.5q49 100 103.5 154.5t124.5 54.5q104 0 165.5 -110t61.5 -306q0 -40 -12 -55t-51 -15h-353q13 -144 78 -236.5t142 -92.5q41 0 73 36.5t47 104.5q7 33 37 33q16 0 27.5 -11.5t11.5 -29.5 q0 -17 -11 -49.5t-32.5 -72.5t-64.5 -68.5t-97 -28.5q-146 0 -247 215q-108 -215 -248 -215q-121 0 -204 129t-83 321zM119 451q0 -156 66 -266.5t145 -110.5q77 0 143 110.5t66 266.5q0 153 -65 252.5t-144 99.5t-145 -99t-66 -253zM616 489h336q-3 73 -15 130.5t-27.5 91 t-35 55.5t-36.5 29.5t-35 7.5q-61 0 -117.5 -89.5t-69.5 -224.5z" />
<glyph unicode="&#x178;" d="M43 1208q0 15 6 24.5t17.5 13t19 4.5t20.5 1h222q13 0 20.5 -1t19 -4.5t17.5 -13t6 -24.5q0 -11 -2.5 -18.5t-10.5 -12t-14.5 -7t-22.5 -4t-26.5 -1.5h-33.5l258 -573l252 573q-43 0 -61.5 1.5t-33 11t-14.5 30.5q0 15 6 24.5t17.5 13t19 4.5t20.5 1h222q18 0 28.5 -1.5 t22.5 -12t12 -31.5q0 -14 -6 -23.5t-17.5 -12.5t-19 -4t-20.5 -1h-58l-319 -665v-414h74q13 0 21 -1t19.5 -4.5t17 -13t5.5 -24.5t-6 -24.5t-17.5 -13t-19 -4.5t-20.5 -1h-252q-18 0 -29 1.5t-23 12t-12 31.5q0 41 64 41h73v414l-321 665h-58q-13 0 -21 1t-19.5 4.5t-17 13 t-5.5 24.5zM258 1432q0 32 21.5 52.5t52.5 20.5t52.5 -20.5t21.5 -52.5q0 -31 -21.5 -52.5t-52.5 -21.5t-52.5 21.5t-21.5 52.5zM670 1432q0 32 21 52.5t52 20.5t52.5 -20.5t21.5 -52.5q0 -31 -21.5 -52.5t-52.5 -21.5t-52 21.5t-21 52.5z" />
<glyph unicode="&#x2c6;" d="M246 1081q0 18 45 45l211 136q34 21 69 0l215 -136q45 -27 45 -45q0 -45 -49 -45q-9 0 -61 31l-182 111l-183 -111q-52 -31 -61 -31q-49 0 -49 45z" />
<glyph unicode="&#x2dc;" d="M188 1094q0 6 3 13t10 15t13.5 14.5t17.5 15.5t17.5 14.5t19 15t16.5 12.5q90 66 151 66q45 0 96 -37q72 -64 87 -73q13 -7 26 -7q53 0 162 98q19 19 37 19q17 0 31 -14.5t14 -33.5q0 -28 -96 -98q-89 -65 -152 -65q-51 0 -96 36q-72 64 -87 73q-13 7 -26 7 q-24 0 -67.5 -26t-94.5 -74q-20 -16 -37 -16t-31 14t-14 31z" />
<glyph unicode="&#x2000;" horiz-adv-x="810" />
<glyph unicode="&#x2001;" horiz-adv-x="1620" />
<glyph unicode="&#x2002;" horiz-adv-x="810" />
<glyph unicode="&#x2003;" horiz-adv-x="1620" />
<glyph unicode="&#x2004;" horiz-adv-x="540" />
<glyph unicode="&#x2005;" horiz-adv-x="405" />
<glyph unicode="&#x2006;" horiz-adv-x="270" />
<glyph unicode="&#x2007;" horiz-adv-x="270" />
<glyph unicode="&#x2008;" horiz-adv-x="202" />
<glyph unicode="&#x2009;" horiz-adv-x="324" />
<glyph unicode="&#x200a;" horiz-adv-x="90" />
<glyph unicode="&#x2010;" d="M121 627q0 53 80 53h671q80 0 80 -53q0 -54 -80 -54h-671q-80 0 -80 54z" />
<glyph unicode="&#x2011;" d="M121 627q0 53 80 53h671q80 0 80 -53q0 -54 -80 -54h-671q-80 0 -80 54z" />
<glyph unicode="&#x2012;" d="M121 627q0 53 80 53h671q80 0 80 -53q0 -54 -80 -54h-671q-80 0 -80 54z" />
<glyph unicode="&#x2013;" d="M121 627q0 53 80 53h671q80 0 80 -53q0 -54 -80 -54h-671q-80 0 -80 54z" />
<glyph unicode="&#x2014;" d="M121 627q0 53 80 53h671q80 0 80 -53q0 -54 -80 -54h-671q-80 0 -80 54z" />
<glyph unicode="&#x2018;" d="M391 1008q0 88 32.5 166.5t76.5 124.5t84 73t61 27q16 0 29.5 -13.5t13.5 -31.5q0 -24 -26 -37q-62 -36 -103 -84t-57 -95.5t-20.5 -75.5t-4.5 -54q0 -18 9.5 -36t21.5 -18q15 2 29 2q37 0 60.5 -24.5t23.5 -59.5q0 -33 -23.5 -58.5t-62.5 -25.5q-62 0 -103 57.5 t-41 162.5z" />
<glyph unicode="&#x2019;" d="M385 686q0 19 27 37q62 35 103 83t56.5 95.5t20 75t4.5 53.5q0 19 -9.5 36t-21.5 17q-16 -2 -28 -2q-37 0 -60.5 25t-23.5 61q0 33 23.5 58.5t62.5 25.5q62 0 102.5 -57.5t40.5 -163.5q0 -71 -21.5 -136t-53.5 -110t-68.5 -79t-65.5 -50t-45 -16t-29.5 14t-13.5 33z" />
<glyph unicode="&#x201a;" d="M465 59q-4 48 23 70.5t51 22.5q14 0 29.5 -6t30 -29t11.5 -58l-26 -432q-1 -17 -3.5 -27t-13 -19t-28.5 -9q-42 0 -47 57z" />
<glyph unicode="&#x201c;" d="M276 1182q-4 48 22.5 70t51.5 22t50.5 -20.5t21.5 -71.5l-27 -432q-1 -17 -3.5 -27t-13 -19.5t-28.5 -9.5q-42 0 -47 58zM651 1182q-4 48 22.5 70t51.5 22t50.5 -20.5t21.5 -71.5l-27 -432q-1 -17 -3.5 -27t-13 -19.5t-28.5 -9.5q-42 0 -47 58z" />
<glyph unicode="&#x201d;" d="M276 1182q-4 48 22.5 70t51.5 22t50.5 -20.5t21.5 -71.5l-27 -432q-1 -17 -3.5 -27t-13 -19.5t-28.5 -9.5q-42 0 -47 58zM651 1182q-4 48 22.5 70t51.5 22t50.5 -20.5t21.5 -71.5l-27 -432q-1 -17 -3.5 -27t-13 -19.5t-28.5 -9.5q-42 0 -47 58z" />
<glyph unicode="&#x201e;" d="M276 59q-4 48 23 70.5t51 22.5q25 0 50.5 -21t21.5 -72l-27 -432q-1 -17 -3.5 -27t-13 -19t-28.5 -9q-42 0 -47 57zM651 59q-4 48 23 70.5t51 22.5q25 0 50.5 -21t21.5 -72l-27 -432q-1 -17 -3.5 -27t-13 -19t-28.5 -9q-42 0 -47 57z" />
<glyph unicode="&#x2022;" d="M268 477q0 106 77 187t196 81q108 0 188 -77.5t80 -194.5q0 -108 -76 -189t-196 -81q-108 0 -188.5 78t-80.5 196z" />
<glyph unicode="&#x2026;" d="M55 113q0 43 32 76.5t81 33.5q44 0 77.5 -32t33.5 -80q0 -43 -32 -77t-81 -34q-44 0 -77.5 32.5t-33.5 80.5zM426 113q0 43 32 76.5t81 33.5q44 0 77 -32t33 -80q0 -43 -31.5 -77t-80.5 -34q-44 0 -77.5 32.5t-33.5 80.5zM797 113q0 43 31.5 76.5t80.5 33.5 q44 0 77.5 -32t33.5 -80q0 -43 -32 -77t-81 -34q-44 0 -77 32.5t-33 80.5z" />
<glyph unicode="&#x202f;" horiz-adv-x="324" />
<glyph unicode="&#x2039;" d="M274 627q0 29 23 47l455 393q16 14 24 14q25 0 25 -45q0 -28 -25 -49l-416 -360l416 -361q25 -21 25 -49q0 -45 -25 -45q-8 0 -24 14l-461 398q-17 14 -17 43z" />
<glyph unicode="&#x203a;" d="M274 217q0 28 25 49l416 361l-416 360q-25 21 -25 49q0 45 25 45q9 0 25 -14l454 -393q23 -18 23 -47t-17 -43l-460 -398q-16 -14 -25 -14q-25 0 -25 45z" />
<glyph unicode="&#x205f;" horiz-adv-x="405" />
<glyph unicode="&#x20ac;" d="M135 479l8 35q8 23 27 23h82q-4 45 -4 90t4 90h-90q-13 0 -21.5 10.5t-5.5 22.5l8 34q8 23 27 23h94q30 161 96 270q54 89 128 143t163 54q98 0 187 -55l32 43q9 12 31 12h8q17 0 29 -11t12 -28v-201q0 -17 -12 -29t-29 -12h-24q-17 0 -28 10t-13 25q-9 67 -61.5 112.5 t-120.5 45.5q-118 0 -211 -156q-52 -93 -80 -223h403q14 0 21.5 -11t3.5 -24l-8 -35q-3 -20 -25 -20h-408q-4 -43 -4 -90t4 -90h351q12 0 20 -12t4 -25l-8 -33q-1 -9 -8.5 -15t-16.5 -6h-329q28 -136 80 -223q92 -157 211 -157q68 0 120.5 45t61.5 112q2 15 13 25t28 10h24 q17 0 29 -12t12 -29v-201q0 -17 -12 -28t-29 -11h-8q-19 0 -31 15l-32 39q-91 -54 -187 -54q-89 0 -163 54t-128 143q-67 114 -96 272h-102q-13 0 -21.5 10.5t-5.5 22.5z" />
<glyph unicode="&#x25fc;" horiz-adv-x="870" d="M0 0v870h870v-870h-870z" />
</font>
</defs>
</svg>
