<?xml version="1.0" encoding="UTF-8" standalone="no"?>
<svg width="185px" height="52px" viewBox="0 0 185 52" version="1.1" xmlns="http://www.w3.org/2000/svg" xmlns:xlink="http://www.w3.org/1999/xlink" xmlns:sketch="http://www.bohemiancoding.com/sketch/ns">
    <!-- Generator: Sketch 3.3.2 (12043) - http://www.bohemiancoding.com/sketch -->
    <title>Logo</title>
    <desc>Created with Sketch.</desc>
    <defs></defs>
    <g id="Page-1" stroke="none" stroke-width="1" fill="none" fill-rule="evenodd" sketch:type="MSPage">
        <g id="Product-Page" sketch:type="MSArtboardGroup" transform="translate(-102.000000, -48.000000)">
            <g id="Logo" sketch:type="MSLayerGroup" transform="translate(102.000000, 50.000000)">
                <path d="M93.6902345,28.0356688 L92.7434887,27.8450739 L91.8144181,27.6222794 L90.962154,27.1750644 L90.2631818,26.5105841 L89.6461581,25.7807291 L89.074447,24.9868004 L88.9362594,24.0139856 L88.7591865,23.0580838 L88.7794325,22.116818 L88.8244239,19.2913945 L88.7585437,18.3488278 L88.7408686,17.4065863 L88.7026259,16.4640195 L88.8758425,15.5221033 L88.7794325,14.5798618 L88.8851621,13.637295 L88.8179965,12.693102 L88.7183729,11.7492343 L88.9246902,10.7858517 L89.2110278,9.86637756 L89.5253243,8.92446131 L90.1709496,8.17541672 L90.9338738,7.56069928 L91.8099189,7.13917875 L92.7225999,6.80059629 L93.6940909,6.82368885 L94.6485495,6.9017482 L95.5512681,7.21300989 L96.4607354,7.55939829 L97.180275,8.22290283 L97.7355964,9.01780729 L98.2166821,9.85369291 L98.5361204,10.7747933 L98.4859873,11.7511858 L98.5634366,12.5382843 L98.6113202,13.3266838 L98.6351013,14.1749289 L97.7776954,14.1355739 L96.9778141,14.1134571 L96.1766474,14.0858111 L95.4304343,14.0591408 L95.382872,13.3055428 L95.3934771,12.4950264 L95.3459149,11.6845101 L95.2430776,10.99401 L94.8185524,10.4466188 L94.2519832,10.0794146 L93.5954314,9.82929936 L92.9073856,9.99354926 L92.3986624,10.4635316 L92.0175217,11.0177531 L91.8552316,11.6835344 L91.8118471,12.6277273 L91.7376115,13.5725708 L91.7504661,14.5167638 L91.9146844,15.461282 L91.7575362,16.4064507 L91.7613926,17.3516195 L91.7501448,18.2967882 L91.9246468,19.2419569 L91.8960452,20.1868004 L91.9082571,21.1319691 L91.8025275,22.0787641 L91.8005993,23.025559 L91.9236827,23.7258165 L92.404447,24.2283236 L92.8900318,24.7428649 L93.5928605,24.8160455 L94.2989027,24.7418891 L94.8783266,24.3193929 L95.2729647,23.7267922 L95.3536277,23.0262095 L95.3343457,22.0738854 L95.4474667,21.119935 L95.3070295,20.1084158 L96.1740764,20.23884 L96.9739577,20.1480959 L97.7751245,20.0879252 L98.6020006,20.1445182 L98.515553,21.1300176 L98.473454,22.0950264 L98.6177475,23.05971 L98.5489751,24.0416317 L98.2983092,24.998184 L97.7821946,25.8369969 L97.0918992,26.51839 L96.4128518,27.2001084 L95.5493399,27.6170755 L94.6578691,27.9979401 L93.6902345,28.0356688" id="Fill-1" fill="#D4563F" sketch:type="MSShapeGroup"></path>
                <path d="M7.52351187,17.2973032 L6.79915171,17.3187695 L6.07511291,17.4069115 L5.3867458,17.6501965 L4.67941807,17.8424177 L4.02254488,18.1657135 L3.39234511,18.5407237 L2.86916039,19.0598184 L2.26499131,19.4806884 L1.8330747,20.0778425 L1.4162623,20.6775986 L1.01551824,21.293617 L0.780277939,21.9925735 L0.544073538,22.6856756 L0.280874349,23.3784524 L0.260949624,24.1203415 L0.190248987,24.852148 L0.184464389,25.5937119 L0.345147655,26.3167367 L0.536360741,27.0293536 L0.760353214,27.7351403 L1.11449913,28.3921399 L1.37094962,29.0914216 L1.6543949,29.7773682 L1.97865373,30.4457515 L2.18689925,31.1642228 L2.55036479,31.8147174 L2.8537348,32.4918824 L3.05298205,33.2142567 L3.36759988,33.8862176 L3.64654603,34.5734652 L3.97369716,35.239897 L4.24268095,35.9313728 L4.57529531,36.5952026 L4.843315,37.2863532 L5.12643891,37.9716493 L5.45648234,38.6361296 L5.73157209,39.3233772 L6.02690793,40.0034693 L6.24929357,40.7151104 L6.51699189,41.4069115 L6.83643023,42.0765957 L7.09705848,42.771324 L7.48141285,43.4127117 L7.73175738,44.1045128 L8.09490156,44.7436238 L8.55863347,45.3115056 L9.08342501,45.8162895 L9.60339606,46.3240005 L10.1886045,46.7556037 L10.8223393,47.1097981 L11.4644296,47.4571622 L12.1585814,47.6867868 L12.8617313,47.8913674 L13.5851274,48.0117089 L14.316879,47.9264941 L15.0489519,47.973655 L15.7585292,47.7928175 L16.4697134,47.6298685 L17.1690069,47.4077246 L17.773176,46.9894566 L18.4445107,46.6996612 L18.9660886,46.1841442 L19.5217313,45.7193658 L19.9870701,45.1622171 L20.460443,44.6040927 L20.7667053,43.9370104 L21.0957846,43.28554 L21.354806,42.5953652 L21.5183816,41.8759181 L21.5736566,41.1421602 L21.6173625,40.4113294 L21.6205761,39.6739938 L21.4290417,38.9613769 L21.24522,38.2533135 L21.0279763,37.5511045 L20.7390677,36.882396 L20.5009351,36.1915707 L20.1959583,35.5313186 L19.9337232,34.8525274 L19.6390301,34.1880472 L19.3305182,33.5365768 L18.6803937,33.7645751 L18.0366966,34.0237973 L17.4023191,34.3002575 L16.8055414,34.6671365 L16.1383845,34.8658626 L15.5322872,35.208348 L14.8641662,35.4461038 L15.1492183,36.1242445 L15.4069543,36.7971812 L15.7440677,37.4349912 L16.0169079,38.0997967 L16.3144933,38.7541943 L16.521132,39.4466459 L16.7512305,40.1101504 L16.7075246,40.8091069 L16.5780139,41.499607 L16.2222611,42.1087952 L15.7816676,42.6734246 L15.117403,42.9319962 L14.4679213,43.1804852 L13.7663781,43.2217916 L13.0751187,43.0594932 L12.5143341,42.6256132 L12.0020759,42.1601843 L11.6675333,41.5474183 L11.3696265,40.8634232 L11.0736479,40.1791029 L10.8126983,39.4807969 L10.5074001,38.8020057 L10.1959959,38.1258165 L9.85695426,37.462312 L9.57318761,36.7740886 L9.37040533,36.0510638 L8.98830052,35.4060984 L8.74149102,34.7025884 L8.48375507,34.0033067 L8.15660394,33.3349234 L7.81756225,32.6714189 L7.57460915,31.9672584 L7.305304,31.2731806 L6.9768674,30.6057731 L6.6667487,29.9312102 L6.38715981,29.2420111 L6.15770411,28.5310205 L5.8610828,27.8496273 L5.60109728,27.1516466 L5.25948466,26.4897683 L5.01524609,25.7849573 L4.79028952,25.1175498 L4.77197163,24.4091611 L4.91947887,23.7108551 L5.27394615,23.0935357 L5.79520266,22.6255048 L6.3518095,22.1821927 L7.05335263,22.0585987 L7.75714534,21.997127 L8.41626809,22.2560239 L9.02011581,22.5975335 L9.54619282,23.0590595 L9.92444123,23.6614175 L10.1818558,24.3496409 L10.4781558,25.0209513 L10.7503532,25.7020192 L10.9942704,26.3944708 L11.3497018,27.006261 L11.9782947,26.791923 L12.6091372,26.5034286 L13.2441575,26.2269684 L13.8650376,25.9170077 L14.5093775,25.6639653 L15.1640012,25.4375932 L15.7652779,25.1146226 L15.5358222,24.4494918 L15.2404864,23.7993224 L14.9676462,23.1403713 L14.6652403,22.4947554 L14.3419456,21.8582464 L14.0559294,21.1859602 L13.7001766,20.5468492 L13.2505848,19.9721371 L12.803564,19.3902697 L12.2501708,18.9115056 L11.6286479,18.5299905 L11.0016618,18.1666893 L10.354751,17.8372137 L9.68855819,17.5308307 L8.9654835,17.4150427 L8.25333526,17.2517685 L7.52351187,17.2973032" id="Fill-2" fill="#D4563F" sketch:type="MSShapeGroup"></path>
                <path d="M33.3,16.0018431 L33.0490127,15.3406153 L32.6579097,14.7441117 L32.0588825,14.3661743 L31.4399305,14.0253151 L30.7361378,13.9257894 L30.0416647,14.0565388 L29.3982889,14.3401545 L28.8391112,14.761675 L28.4393312,15.3373628 L28.1076809,15.9585852 L28.0430863,16.6620951 L28.1311407,17.3587749 L28.3329589,18.0752948 L28.4438303,18.8155577 L28.7234192,19.5115869 L28.8651419,20.2440439 L29.040608,20.967394 L29.2697423,21.6767584 L29.357154,22.4235262 L29.5445107,23.1432985 L29.7360452,23.8627456 L29.9526462,24.5743868 L30.1342183,25.2964358 L30.3353937,26.0129557 L30.4546207,26.7515924 L30.6750782,27.4632335 L30.8450811,28.1882098 L31.1057093,28.8900935 L31.2384337,29.6254777 L31.4347887,30.3432985 L31.657817,31.0549397 L31.8149653,31.7838189 L32.0463492,32.4935086 L32.1401882,33.2406017 L32.3458628,33.9584226 L32.5743544,34.6381895 L32.9985582,35.2210327 L33.5815171,35.6363735 L34.2506022,35.8630709 L34.939612,35.9704025 L35.6212305,35.8285947 L36.2851737,35.6256403 L36.8250695,35.1836292 L37.213923,34.6095677 L37.5285408,33.9883453 L37.6869745,33.293617 L37.601491,32.5793739 L37.3222235,31.8830194 L37.1403301,31.1612956 L37.0484192,30.4158287 L36.8636335,29.6947554 L36.6794904,28.9736821 L36.4947047,28.2526088 L36.2488593,27.5474726 L36.0084771,26.8416859 L35.8275478,26.1196368 L35.6845397,25.3884808 L35.5341401,24.6583006 L35.2944007,23.9518634 L35.2050608,23.2054208 L34.9084395,22.5136197 L34.7377939,21.7886434 L34.5790388,21.0600894 L34.3785061,20.3425938 L34.2416039,19.6091611 L34.0474986,18.8900393 L33.8713897,18.1657135 L33.719062,17.4355333 L33.4854285,16.7248679 L33.3,16.0018431 L33.3,16.0018431 Z M29.0004372,9.49592086 L29.7141922,9.34663234 L30.4404806,9.30044722 L31.166769,9.21588291 L31.88663,9.34305461 L32.5971714,9.48486245 L33.3019282,9.66472422 L33.9845107,9.92589782 L34.6285292,10.2752134 L35.2580863,10.6502236 L35.7954111,11.1520802 L36.3426983,11.6389755 L36.8093225,12.2065321 L37.2315981,12.8095406 L37.5050811,13.4954872 L37.8720816,14.1398021 L38.0436914,14.8598997 L38.2185148,15.5816235 L38.4473277,16.288386 L38.5340967,17.0332023 L38.721132,17.7513484 L38.9120237,18.4685188 L39.127982,19.1788589 L39.3092328,19.8989565 L39.5097655,20.6128744 L39.6283497,21.3492343 L39.8478431,22.0579482 L40.0175246,22.780973 L40.2775101,23.4796043 L40.4092704,24.2127117 L40.605304,24.9285811 L40.8276896,25.6376203 L40.9845165,26.364548 L41.2152577,27.071961 L41.3078112,27.8148259 L41.5125217,28.529069 L41.663564,29.2572977 L41.8377446,29.9799973 L42.0456688,30.6945657 L42.2854082,31.4013281 L42.425524,32.1272801 L42.560498,32.8574604 L42.5187203,33.5996748 L42.4824059,34.3383114 L42.3795686,35.0749966 L42.122154,35.7710259 L41.7811841,36.4254235 L41.4318587,37.0681122 L41.1165981,37.7381217 L40.660579,38.3164114 L40.0869398,38.7769616 L39.5345107,39.2459683 L38.9361262,39.6525274 L38.2998205,39.9950129 L37.6535524,40.3319691 L36.9722554,40.6042011 L36.2540012,40.7554411 L35.5225709,40.8 L34.794033,40.7788589 L34.0632455,40.7730045 L33.3687724,40.5349234 L32.6395918,40.430519 L31.9705067,40.1286895 L31.3396642,39.7546551 L30.7223191,39.3640331 L30.1843515,38.8667299 L29.6585958,38.3622713 L29.2012913,37.7934137 L28.827542,37.1673126 L28.4451158,36.544464 L28.1333903,35.8780323 L27.9328576,35.1686678 L27.8181297,34.4313322 L27.5305067,33.7398563 L27.375608,33.0129286 L27.1583642,32.3029137 L26.9963955,31.5779374 L26.8835958,30.8402765 L26.6923827,30.1231061 L26.5220585,29.4013823 L26.2926028,28.6939694 L26.1142444,27.9745223 L25.9519543,27.249546 L25.720249,26.5434341 L25.5569948,25.8184578 L25.3310741,25.1107196 L25.1572148,24.3886706 L24.9444702,23.6763789 L24.8570585,22.9315625 L24.6571685,22.2169942 L24.3917197,21.5186882 L24.2943457,20.7761485 L24.0713173,20.0664589 L23.8926375,19.3437593 L23.7432021,18.6135791 L23.5201737,17.9061661 L23.4706833,17.1665537 L23.4594354,16.4279171 L23.4832166,15.6873289 L23.6763578,14.97211 L23.9283092,14.2822605 L24.1272351,13.5676921 L24.5501534,12.9604553 L24.9377215,12.3470389 L25.3272177,11.7261418 L25.8632571,11.2314406 L26.4121511,10.7575552 L26.9748639,10.2895243 L27.6622669,10.0384334 L28.291824,9.66342323 L29.0004372,9.49592086 L29.0004372,9.49592086 Z" id="Fill-3" fill="#D4563F" sketch:type="MSShapeGroup"></path>
                <path d="M55.1783121,36.390622 L54.399641,36.4738854 L53.6312536,36.5961783 L52.8564389,36.6596016 L52.083231,36.7357094 L51.3077736,36.8088901 L50.547099,36.8794688 L50.4439404,36.1753083 L50.4073046,35.4474048 L50.3555646,34.720477 L50.1974522,34.0052582 L50.1048987,33.2832091 L50.0136306,32.56116 L49.9847076,31.8322808 L49.9181847,31.1073045 L49.7803185,30.3894837 L49.8076346,29.6537742 L49.672018,28.9366039 L49.6051737,28.2116276 L49.4936595,27.4912048 L49.437099,26.764277 L49.320443,26.0445047 L49.3014823,25.3143244 L49.1719716,24.5958531 L49.0987001,23.8708768 L49.0292849,23.1459005 L48.9833295,22.417997 L48.8464273,21.7001762 L48.8743862,20.9641415 L48.6966705,20.2508741 L48.6703185,19.5206939 L48.64011,18.7911641 L48.4909959,18.0746443 L48.371769,17.3545467 L48.3724117,16.6220897 L48.2602548,15.9013416 L48.1538825,15.1809188 L48.1031065,14.4533406 L47.9732745,13.7348692 L48.0192299,12.9965578 L47.8903619,12.2777612 L47.8325159,11.5508334 L47.7255009,10.8287844 L47.668619,10.1015314 L47.5034366,9.38598726 L47.5400724,8.64865158 L47.3581789,7.93505895 L47.3154372,7.2061797 L47.3202577,6.4707955 L47.1374001,5.71914894 L47.9163926,5.68402223 L48.6481442,5.53050549 L49.3982137,5.5477436 L50.1370353,5.46317929 L50.8781065,5.40040656 L51.6121077,5.26933189 L52.3551071,5.22119528 L53.0948929,5.12817455 L53.8089693,5.05336766 L54.0268558,5.7292316 L54.2968037,6.41908118 L54.4234221,7.15348963 L54.6374522,7.85992682 L54.8842617,8.55660659 L55.1840967,9.23669874 L55.3116792,9.9711072 L55.5472409,10.6710394 L55.8313289,11.3563355 L55.980443,12.0835886 L56.1771193,12.7965307 L56.4467458,13.486055 L56.6090359,14.2094051 L56.8343138,14.9132403 L57.1486103,15.5891042 L57.3096149,16.312129 L57.5001853,17.0266974 L57.768205,17.7162217 L57.952348,18.4327416 L58.2277591,19.1203144 L58.3839433,19.8462664 L58.6394296,20.5403442 L58.8592444,21.2461309 L59.052707,21.960374 L59.2641662,22.669088 L59.498121,23.3696707 L59.6864418,24.0858653 L59.9072206,24.791652 L60.1938796,25.4766228 L60.4117661,26.1846863 L60.5724493,26.9659303 L60.6322235,26.1775308 L60.7022814,24.7018837 L60.8311494,23.9717035 L60.7868008,23.2278629 L60.9256312,22.4980079 L60.8989577,21.7554682 L61.0352171,21.0256132 L61.0741025,20.287627 L61.0895281,19.5486651 L61.1624783,18.8132809 L61.2736711,18.0814745 L61.2441054,17.3382843 L61.3842212,16.6084293 L61.3848639,15.8675159 L61.4549218,15.132457 L61.4841662,14.3938203 L61.5114823,13.6558341 L61.666381,12.9272801 L61.6779502,12.187993 L61.7161928,11.4496815 L61.840883,10.7188508 L61.9106196,9.98314135 L61.96011,9.24580566 L61.979392,7.76462935 L62.0227765,7.02696842 L62.111795,6.29255997 L62.2043486,5.55847676 L62.2997944,4.82341781 L62.2602664,4.03924651 L63.0071222,3.94004608 L63.7234482,3.92085648 L64.4349537,3.85190405 L65.1471019,3.80084022 L65.8602142,3.74945115 L66.5691488,3.65903239 L67.2809757,3.5904052 L67.980912,3.40533948 L68.6843833,3.39167909 L68.7338738,4.10266974 L68.894557,4.81691286 L68.910304,5.54806884 L68.9803619,6.27304513 L69.1494007,6.98631251 L69.1500434,7.71844423 L69.229421,8.44179428 L69.2985148,9.16644532 L69.4582339,9.88166418 L69.5061175,10.6092424 L69.5826028,11.3329177 L69.6835119,12.0539911 L69.7455356,12.7799431 L69.7821714,13.5088223 L69.852872,14.2337986 L69.997487,14.9503185 L70.0193399,15.680824 L70.0919687,16.4058002 L70.1266763,17.1343542 L70.27804,17.8505489 L70.288645,18.5826806 L70.3638448,19.3070064 L70.4798581,20.0274292 L70.5855877,20.7485025 L70.6623943,21.4731535 L70.7758367,22.1935764 L70.7960828,22.9247323 L70.9104893,23.6441794 L70.9853677,24.3691557 L71.082099,25.0905543 L71.0795281,25.823987 L71.2607788,26.5366039 L71.2922727,27.2667841 L71.3600811,27.9920856 L71.4866995,28.7115327 L71.4587406,29.4482179 L71.5400463,30.172869 L71.6255298,30.8971947 L71.7383295,31.6182681 L71.8128865,32.3435696 L71.9089751,33.0665944 L71.9157238,33.8006776 L72.0384858,34.5048381 L71.2790967,34.5659846 L70.5158512,34.7347879 L69.7368587,34.7624339 L68.9659004,34.8606586 L68.1962276,34.9881556 L67.4117719,35.0411709 L67.2787261,34.3148936 L67.3002577,33.5791842 L67.200634,32.8571351 L67.158535,32.1289064 L67.0913694,31.4029543 L66.9882108,30.6812305 L66.8500232,29.9630844 L66.7857499,29.2371324 L66.6562391,28.5180106 L66.6375999,27.7868546 L66.5321917,27.0648055 L66.4148929,26.3453584 L66.3846844,25.6151782 L66.3744007,24.883697 L66.3059496,24.1580702 L66.1246989,23.4451281 L66.0498205,22.7195013 L66.0729589,21.9837918 L65.9948668,21.2588156 L65.9177389,20.533514 L65.8390041,19.8082125 L65.6943891,19.0903917 L65.5552374,18.3719203 L65.4813231,17.6462935 L65.4485437,16.915788 L65.4077302,16.1852826 L65.3045715,15.4996612 L65.173454,16.1686949 L65.2274435,16.8949722 L65.1435669,17.6082396 L65.0465142,18.3198807 L64.9950955,19.0357501 L64.8745831,19.7454398 L64.8160944,20.4609839 L64.7380023,21.1749017 L64.6342009,21.8858924 L64.6187753,22.6056647 L64.5921019,23.3244613 L64.5095107,24.0380539 L64.3652171,24.7444911 L64.4098871,25.4704431 L64.3092994,26.1811086 L64.2768413,26.8992546 L64.1842878,27.6115463 L64.038066,28.3189592 L63.9770064,29.0341781 L63.8937724,29.7477707 L63.8748118,30.4678683 L63.8002548,31.1824366 L63.7077012,31.8947283 L63.6913115,32.6148259 L63.6000434,33.3280932 L63.576905,34.0481908 L63.4968848,34.7637349 L63.4396815,35.5248137 L62.6436566,35.5189592 L61.9000145,35.6184849 L61.1640851,35.7902155 L60.4069456,35.7765551 L59.6568761,35.8998238 L59.4222785,35.2119257 L59.223674,34.5197994 L58.9158049,33.8663776 L58.7178431,33.173926 L58.4854951,32.4938339 L58.2113694,31.8280526 L58.0317255,31.1294213 L57.8376202,30.4350183 L57.5123972,29.7877761 L57.3674609,29.076135 L57.1261146,28.3989701 L56.8166387,27.7471744 L56.6283179,27.0517956 L56.3885785,26.373655 L56.0852085,25.7192574 L55.955055,25.0024123 L55.6166561,24.3597235 L55.386879,23.6776799 L55.1477823,22.9998645 L54.9864563,22.2937525 L54.7001187,21.631549 L54.5018356,20.9384469 L54.2932687,20.2495731 L53.9796149,19.5974522 L53.8002924,18.8971947 L53.4959583,18.2414961 L53.3227417,17.5376609 L53.0553648,16.8156119 L53.0997134,17.5906762 L53.2372583,18.3068708 L53.3291691,19.0279442 L53.3439519,19.7574739 L53.4477533,20.4775715 L53.5059207,21.2022225 L53.5515547,21.928825 L53.683315,22.6456701 L53.7912942,23.3651172 L53.8636016,24.0884673 L53.9619398,24.8092153 L53.9828286,25.5377693 L54.128729,26.2529882 L54.1509033,26.981217 L54.2036074,27.707169 L54.3218703,28.4249898 L54.4012478,29.1483399 L54.4944441,29.8694132 L54.5015142,30.6002439 L54.6888709,31.3115598 L54.7181152,32.0404391 L54.7811031,32.7657406 L54.8717284,33.4874644 L54.9167197,34.2143922 L55.0246989,34.9344898 L55.1477823,35.6542621 L55.1783121,36.390622" id="Fill-4" fill="#D4563F" sketch:type="MSShapeGroup"></path>
                <path d="M129.342959,12.6462664 L129.360634,11.9414555 L129.21152,11.2516059 L128.843234,10.6511993 L128.357328,10.1516195 L127.77469,9.76880336 L127.10207,9.57560645 L126.3941,9.51413471 L125.729514,9.76294891 L125.127273,10.1109635 L124.554598,10.5337851 L124.21877,11.1673669 L124.072869,11.8611194 L123.963605,12.5978046 L123.793602,13.3250576 L123.771427,14.0750779 L123.58857,14.8007047 L123.562539,15.5497493 L123.444276,16.2848082 L123.251135,17.0094593 L123.186219,17.7526494 L123.061207,18.4867326 L122.988578,19.2279713 L122.906309,19.9688847 L122.77487,20.7016669 L122.62672,21.4328229 L122.566303,22.1766635 L122.459609,22.9139992 L122.279965,23.6406017 L122.237224,24.3880201 L122.151419,25.128283 L121.96117,25.8535845 L121.860261,26.5918959 L121.837122,27.3419162 L121.703755,28.07665 L121.617307,28.8191896 L121.582279,29.5204228 L121.765136,30.1975877 L122.081682,30.8279171 L122.594583,31.3109093 L123.163723,31.7353571 L123.858518,31.8745629 L124.561668,31.9594525 L125.227218,31.715517 L125.864166,31.4133622 L126.381566,30.9228893 L126.680437,30.2772733 L126.859117,29.6004337 L126.993448,28.8670009 L127.129065,28.1348692 L127.204586,27.3929801 L127.264039,26.6491394 L127.461036,25.9251389 L127.516954,25.1806478 L127.671853,24.4507928 L127.741268,23.7079279 L127.797186,22.9634368 L127.986149,22.2397615 L128.06392,21.4981976 L128.187968,20.7641144 L128.265096,20.0222252 L128.36954,19.2845643 L128.529902,18.5553598 L128.598031,17.8124949 L128.767713,17.0842662 L128.834878,16.3404255 L128.924218,15.6004879 L129.042481,14.8647784 L129.110611,14.1209378 L129.184204,13.3774224 L129.342959,12.6462664 L129.342959,12.6462664 Z M127.899702,4.94863803 L128.616992,5.08719339 L129.312108,5.31128879 L130.000153,5.55912725 L130.651885,5.89478249 L131.243199,6.3306139 L131.797556,6.80905272 L132.274464,7.36555089 L132.795078,7.88724759 L133.208034,8.49676108 L133.479268,9.18400867 L133.794849,9.84393549 L134.048408,10.5347608 L134.185953,11.2594118 L134.186917,11.9964223 L134.264687,12.7334327 L134.113966,13.4580838 L134.088578,14.2051769 L133.970316,14.9376338 L133.777817,15.6596829 L133.713222,16.4009215 L133.588532,17.1330533 L133.515903,17.8733162 L133.433955,18.6119528 L133.302837,19.3431088 L133.155009,20.0719881 L133.094913,20.8129015 L132.988541,21.5476352 L132.809218,22.2713105 L132.767119,23.0161268 L132.681636,23.7537878 L132.491387,24.4764873 L132.390799,25.2128473 L132.367982,25.9612414 L132.235258,26.6927226 L132.149453,27.431034 L132.023798,28.163491 L131.928674,28.9008267 L131.78438,29.6319827 L131.714323,30.3738718 L131.50672,31.084212 L131.353749,31.8059358 L131.023063,32.4645616 L130.749902,33.150183 L130.298382,33.7307494 L129.828222,34.2888738 L129.356135,34.8541537 L128.789887,35.3228351 L128.170614,35.7115056 L127.520489,36.0387044 L126.865544,36.3561458 L126.181998,36.6199214 L125.450889,36.6703347 L124.733277,36.7870985 L124.007953,36.7308307 L123.282307,36.6940778 L122.555055,36.6065863 L121.877614,36.3213444 L121.191818,36.0761079 L120.556477,35.7183358 L119.935918,35.3329177 L119.375133,34.8606586 L118.906581,34.2953788 L118.420353,33.7476623 L118.069742,33.1036726 L117.689244,32.4811492 L117.390695,31.8124407 L117.190162,31.1069793 L117.013732,30.3924109 L116.916358,29.6589782 L116.939496,28.9190405 L117.037513,28.187234 L117.138422,27.4515246 L117.242545,26.7164656 L117.337348,25.9801057 L117.46943,25.2489497 L117.611795,24.51942 L117.74227,23.7879387 L117.80108,23.0460496 L117.943445,22.3165199 L118.017038,21.5765822 L118.138836,20.8447757 L118.258063,20.1119935 L118.291807,19.3662014 L118.50423,18.6470796 L118.585214,17.9081176 L118.653344,17.1678547 L118.737863,16.4285676 L118.902403,15.701965 L119.02163,14.9685323 L119.14632,14.2357501 L119.134108,13.4831278 L119.300898,12.7562 L119.386381,12.0162624 L119.512357,11.2828297 L119.618408,10.5490717 L119.846257,9.84491123 L120.153162,9.175227 L120.48674,8.52180512 L120.831888,7.86545602 L121.299476,7.2913945 L121.884363,6.83897547 L122.435507,6.35760943 L123.037105,5.95072503 L123.644166,5.54351538 L124.32,5.2680309 L125.010617,5.03287708 L125.725657,4.88586529 L126.452267,4.82374305 L127.175984,4.92229299 L127.899702,4.94863803 L127.899702,4.94863803 Z" id="Fill-5" fill="#D4563F" sketch:type="MSShapeGroup"></path>
                <path d="M153.942281,35.6776799 L153.663335,36.3707819 L153.458625,37.0905543 L153.08359,37.735845 L152.715304,38.3785337 L152.311346,39.0004066 L151.845365,39.5777206 L151.285544,40.0623391 L150.730866,40.5485838 L150.056639,40.9603469 L149.343526,41.2898225 L148.59892,41.5383114 L147.828926,41.7045128 L147.041899,41.80599 L146.386312,41.7578534 L145.743257,41.6267787 L145.085098,41.5753896 L144.461005,41.3633284 L143.823092,41.1005285 L143.139224,40.9489633 L142.553373,40.5710259 L141.934742,40.2526088 L141.451086,39.7452229 L140.940756,39.2827212 L140.520087,38.73533 L140.047035,38.1118309 L139.642113,37.4346659 L139.397554,36.6833446 L139.165848,35.9300718 L138.98524,35.1592357 L138.923538,34.3945792 L138.979777,33.628947 L138.945391,32.8652663 L139.083578,32.1129692 L139.143674,31.35124 L139.294395,30.6015449 L140.011685,30.7999458 L140.753078,30.8832091 L141.48033,31.0328229 L142.184123,31.2926955 L142.910411,31.4533677 L143.678798,31.5047567 L143.51458,32.261282 L143.420098,32.9748746 L143.419777,33.6949722 L143.492085,34.4105163 L143.710614,35.0932105 L143.87901,35.7924922 L144.273969,36.4237973 L144.827041,36.9230519 L145.524728,37.1582057 L146.265156,37.2008131 L147.004942,37.1510503 L147.702307,36.8680851 L148.325116,36.4335547 L148.772779,35.8646971 L149.069722,35.21095 L149.303034,34.5328093 L149.4409,33.8231197 L149.484285,33.1000949 L149.414548,32.3770701 L149.291786,31.6566472 L149.026338,30.9765551 L148.720397,30.3166283 L148.40835,29.6645074 L148.015318,29.0601979 L147.614574,28.4604418 L147.232791,27.8493021 L146.937134,27.187749 L146.559528,26.5736821 L146.206668,25.9446537 L145.846416,25.3195284 L145.455634,24.6755387 L145.105023,24.0084564 L144.790405,23.3238108 L144.563199,22.6017618 L144.297108,21.899878 L144.041621,21.1950671 L143.847837,20.4710665 L143.685226,19.7265754 L143.594922,18.9661472 L143.726039,18.2063694 L143.729253,17.4443149 L143.858764,16.6939694 L144.063153,15.9608619 L144.262721,15.2524732 L144.524314,14.5639247 L144.868819,13.9140805 L145.24771,13.2863532 L145.708871,12.7194471 L146.134039,12.1190405 L146.671364,11.6188101 L147.310562,11.2600623 L147.920515,10.8658626 L148.56839,10.5295569 L149.308176,10.3051362 L150.075599,10.2368343 L150.839809,10.1125898 L151.603376,10.2361838 L152.376905,10.2784659 L153.124404,10.479794 L153.805058,10.7998374 L154.506601,11.0499526 L155.157368,11.4142296 L155.800744,11.7954194 L156.398164,12.2504404 L156.907852,12.8036861 L157.289635,13.3559561 L157.683631,13.9000949 L157.97736,14.5063559 L158.139007,15.1623797 L158.371998,15.7946605 L158.518541,16.5411031 L158.490903,17.3031576 L158.487368,18.0577314 L158.500866,18.8210869 L158.341468,19.5769616 L157.582721,19.5184171 L156.832652,19.4195419 L156.079047,19.3515653 L155.330585,19.2338257 L154.573124,19.1908931 L153.842336,19.043556 L153.924606,18.2805258 L154.009126,17.4690337 L153.840087,16.6712021 L153.650802,15.8808511 L153.270304,15.2830465 L152.679954,14.9106383 L152.044933,14.6514162 L151.27044,14.5229435 L150.494661,14.6904459 L149.861569,15.1753896 L149.391089,15.8076704 L148.93282,16.4597913 L148.710434,17.228676 L148.516972,17.8957582 L148.496404,18.5904865 L148.571925,19.2767584 L148.587351,19.9721371 L148.774386,20.6395447 L148.968813,21.3043502 L149.249366,21.936631 L149.561413,22.5881014 L149.866068,23.2477029 L150.276775,23.8445318 L150.621601,24.4849438 L151.052232,25.0671365 L151.458761,25.6652663 L151.829939,26.2864887 L152.220721,26.8960022 L152.587721,27.529584 L152.888842,28.1973167 L153.155576,28.8796856 L153.419097,29.5630302 L153.644696,30.2593847 L153.839765,30.9658219 L153.978596,31.7779645 L154.057331,32.5959615 L154.08529,33.3677734 L154.131888,34.1412115 L154.028408,34.9065185 L153.942281,35.6776799" id="Fill-6" fill="#D4563F" sketch:type="MSShapeGroup"></path>
                <path d="M168.632267,16.8491123 L168.561566,17.5887248 L168.408917,18.318905 L168.372281,19.0604689 L168.301259,19.7987803 L168.235379,20.5377422 L168.097513,21.2695487 L168.029062,22.0081854 L168.05445,22.755929 L167.907585,23.4861092 L167.871271,24.2273479 L167.768755,24.9617563 L167.735333,25.7033202 L167.686807,26.4429326 L167.515518,27.1701857 L167.557939,27.9198807 L167.435177,28.652663 L167.363512,29.3903239 L167.326233,30.1312373 L167.249427,30.868573 L167.096778,31.5981027 L167.078781,32.3412929 L166.9422,33.0724488 L166.947021,33.8175905 L166.830365,34.5503727 L166.802085,35.3007183 L166.470434,35.9596693 L166.097006,36.5886977 L165.81806,37.2619596 L165.560324,37.9446537 L165.293911,38.6234449 L164.938801,39.2593034 L164.647001,39.9260604 L164.370625,40.5999729 L164.024514,41.2407101 L163.713752,41.898035 L163.395278,42.5514568 L163.096407,43.2139856 L162.795929,43.8761892 L162.527588,44.5523784 L162.25057,45.2253151 L161.924062,45.8741835 L161.596911,46.5224014 L161.236659,47.2073723 L161.998298,47.5209107 L162.729085,47.7989972 L163.433199,48.1330262 L164.136992,48.4667299 L164.801257,48.8869495 L165.515976,49.1429191 L165.785924,48.4901477 L166.07901,47.8220897 L166.410981,47.1738718 L166.797264,46.5519989 L166.991048,45.8390568 L167.295704,45.1794552 L167.696126,44.563762 L167.990819,43.898306 L168.221882,43.2035777 L168.563173,42.5605638 L168.864936,41.8990107 L169.118494,41.2153408 L169.486781,40.5850115 L169.734554,39.8993902 L170.116659,39.2755658 L170.438025,38.6244207 L170.705724,37.9482315 L170.989169,37.2791977 L171.534207,36.7776664 L172.009186,36.2071825 L172.484809,35.6389755 L173.013457,35.1231332 L173.507076,34.5728147 L174.09357,34.1148665 L174.557302,33.5378778 L175.11905,33.0552107 L175.539398,32.4336631 L176.085078,31.9360347 L176.628188,31.4351538 L177.079708,30.8451552 L177.627959,30.349153 L178.156607,29.8359127 L178.631265,29.2677057 L179.121992,28.7173872 L179.623645,28.1781271 L180.142009,27.6544789 L180.677085,27.1464426 L181.170382,26.5997019 L181.717669,26.1059764 L182.217716,25.5641144 L182.710692,25.0147716 L183.219737,24.4816913 L183.777629,23.9967475 L184.230756,23.4386231 L183.60377,23.0824773 L182.917973,22.8034151 L182.27042,22.4433663 L181.594907,22.1447893 L180.940284,21.8019786 L180.266699,21.5014501 L179.568691,21.1885621 L179.136453,21.8240954 L178.609091,22.3357094 L178.114829,22.8759453 L177.658167,23.450332 L177.151372,23.9785337 L176.644577,24.5057596 L176.119464,25.0150969 L175.678228,25.6028188 L175.218353,26.1736279 L174.672351,26.6650766 L174.186445,27.2114921 L173.775096,27.825559 L173.266051,28.3511587 L172.721977,28.8432579 L172.246676,29.3994308 L171.77491,29.9878032 L171.850753,29.231278 L172.038752,28.5124814 L172.01465,27.766364 L172.199757,27.0488684 L172.325411,26.3235669 L172.383257,25.5885079 L172.471633,24.8580024 L172.572863,24.1291232 L172.651598,23.3973167 L172.784001,22.6729909 L172.813246,21.9346795 L172.942435,21.2103537 L172.984213,20.4739938 L173.156786,19.7558477 L173.214954,19.0217645 L173.36214,18.2788996 L172.68727,17.9341374 L171.997939,17.6713376 L171.307001,17.4143922 L170.690298,16.9967746 L169.994861,16.7508877 L169.328025,16.4438542 L168.644479,16.0532321 L168.632267,16.8491123" id="Fill-7" fill="#D4563F" sketch:type="MSShapeGroup"></path>
                <path d="M81.1579039,38.4448841 L81.8649102,38.2942946 L82.5574551,38.0867868 L83.2641401,37.9329448 L83.969861,37.7722727 L84.6318761,37.4613362 L85.3588072,37.368966 L85.9800087,36.9367123 L86.6812305,36.760103 L87.4165171,36.6774902 L88.0245426,36.2296246 L88.7080892,35.9980485 L89.4446613,35.9011248 L90.052044,35.4711479 L90.7458743,35.2587613 L91.4409902,35.0444234 L92.0846873,34.7097439 L92.7746613,34.4762163 L93.3791517,34.061526 L93.969502,33.625044 L94.6414794,33.3521615 L95.2899971,33.0311424 L95.8713492,32.5891313 L96.5584308,32.3321859 L97.2217313,32.0277544 L97.7343109,31.4813389 L98.4271772,31.2172381 L99.0165634,30.7927904 L99.6171975,30.3839545 L100.117244,29.8404662 L100.755156,29.4794417 L101.250382,28.9375796 L101.841697,28.5121561 L102.314748,27.9524055 L102.83022,27.4424177 L103.462669,27.0485432 L103.790463,26.3554411 L104.308827,25.8480553 L104.789913,25.3055428 L105.208011,24.7109906 L105.70388,24.1769345 L106.101089,23.5677463 L106.591815,23.0197046 L106.945318,22.3799431 L107.157742,21.6637485 L107.687032,21.119935 L107.932235,20.4265077 L108.237212,19.7626779 L108.484986,19.0747798 L108.763932,18.3972896 L108.987281,17.6993088 L109.019739,16.952541 L109.173353,16.2415503 L109.388025,15.5390161 L109.328251,14.7955007 L109.603662,14.0897141 L109.503717,13.3520531 L109.644155,12.6241496 L109.636763,11.8832362 L109.542603,11.1455753 L109.609126,10.4017347 L109.419198,9.67318065 L109.444265,8.92966527 L109.230235,8.21216967 L109.249838,7.46442607 L109.107472,6.7387993 L109.043842,5.99398292 L108.772287,5.29957989 L108.550544,4.59541943 L108.311448,3.89451145 L108.024146,3.20889009 L107.516708,2.65531915 L107.128176,2.03442201 L106.644841,1.48150156 L106.128726,0.935086055 L105.433289,0.659601572 L104.731746,0.454370511 L104.034059,0.214012739 L103.299094,0.186366716 L102.565414,0.197099878 L101.844589,0.333378507 L101.117336,0.431603198 L100.463998,0.806613362 L99.7727389,1.02452907 L99.0917632,1.27854723 L98.3776867,1.45970999 L97.6616821,1.65095541 L97.0825796,2.14110313 L96.3488998,2.29917333 L95.7543717,2.75061661 L95.0881789,3.05114514 L94.4284134,3.39070335 L93.6809149,3.37086326 L92.9347018,3.37899444 L92.3218558,2.94316303 L91.6746236,2.61726521 L90.997183,2.35218864 L90.3499508,2.02141212 L89.6435871,1.82236075 L89.0050318,1.47109364 L88.3693688,1.09901071 L87.6148002,1.05510232 L86.9633903,0.707087681 L86.221355,0.693427294 L85.518205,0.553896192 L84.8099131,0.441360618 L84.0897307,0.238731535 L83.3769398,0.438758639 L82.679253,0.605935764 L82.0146671,0.869386096 L81.3388332,1.13641415 L80.6996352,1.51174956 L80.2741459,2.12516601 L79.829696,2.70182952 L79.4623741,3.33248408 L79.2149218,4.02070741 L78.7990735,4.64062881 L78.6448176,5.36300312 L78.4404285,6.06683832 L78.1865489,6.7628676 L78.0660365,7.48914487 L78.0914244,8.23526223 L77.8500782,8.94657813 L77.9808743,9.69497222 L77.9268848,10.4254777 L77.7948031,11.1540317 L77.6916445,11.8874644 L77.7784134,12.6241496 L77.7935177,13.3540046 L77.7665229,14.0880878 L77.9416676,14.8049329 L78.0904603,15.5185255 L78.1046005,16.2561865 L78.1849421,16.9886434 L78.4227533,17.6833717 L78.7862189,18.3328906 L78.9282629,19.0529882 L79.2223133,19.7190947 L79.3923162,20.4404933 L79.7609236,21.0730993 L80.0372988,21.752541 L80.4348292,22.3659574 L80.7526607,23.0278358 L81.3214794,23.5218864 L81.6184221,24.2029543 L82.1763144,24.6895243 L82.5327099,25.334815 L83.0584655,25.8389484 L83.5890417,26.3333243 L83.9557209,26.9867462 L84.4718356,27.498035 L84.9959844,28.0008673 L85.5731587,28.4432037 L86.0895947,28.955143 L86.7599653,29.2758368 L87.2243399,29.857379 L87.8921395,30.1705922 L88.3491228,30.7775037 L88.9854285,31.1307223 L89.6786161,31.3899444 L90.2226896,31.8820436 L90.8657441,32.2141212 L91.475055,32.6037674 L92.1451042,32.8828297 L92.6811436,33.4136333 L93.3682252,33.6588698 L94.014172,33.9821656 L94.6318384,34.3669332 L95.3230979,34.5923296 L95.9353011,34.9969373 L96.637487,35.1917604 L97.3094644,35.4558612 L97.9852982,35.7098794 L98.6244962,36.0614717 L99.3520701,36.1720558 L100.040437,36.3880201 L100.702452,36.6817184 L101.372823,36.9536252 L102.074045,37.1279577 L102.723848,37.4753219 L103.420892,37.6655915 L104.108937,37.8874102 L104.827513,37.9940913 L105.527449,38.1697249 L106.213888,38.4022767" id="Stroke-8" stroke="#D4563F" stroke-width="3" stroke-linecap="round" stroke-linejoin="round" sketch:type="MSShapeGroup"></path>
                <path d="M96.9508193,42.6448028 L97.8908164,46.7299092 L98.6714157,46.7299092 L99.5133961,42.6343949 L99.5133961,46.7299092 L100.484244,46.7299092 L100.484244,40.2122781 L99.1460741,40.2122781 L98.2777417,44.8942133 L97.373095,40.2122781 L95.9802924,40.2122781 L95.9802924,46.7299092 L96.9508193,46.7299092 L96.9508193,42.6448028 L96.9508193,42.6448028 Z M94.1163665,45.238325 C94.1163665,45.3941184 94.062377,45.5268194 93.9543978,45.6361025 C93.84674,45.7450603 93.7156225,45.7997019 93.5616879,45.7997019 C93.407432,45.7997019 93.2756717,45.7450603 93.1660857,45.6361025 C93.0564997,45.5268194 93.0018674,45.3941184 93.0018674,45.238325 L93.0018674,41.6729638 C93.0018674,41.5168451 93.0564997,41.3844694 93.1660857,41.2751863 C93.2756717,41.1662285 93.407432,41.1115869 93.5616879,41.1115869 C93.7156225,41.1115869 93.84674,41.1662285 93.9543978,41.2751863 C94.062377,41.3844694 94.1163665,41.5168451 94.1163665,41.6729638 L94.1163665,45.238325 L94.1163665,45.238325 Z M92.5037493,40.5892397 C92.2023075,40.8923702 92.0519079,41.2605502 92.0519079,41.6937796 L92.0519079,45.2487329 C92.0519079,45.6783846 92.2007006,46.0455888 92.4986074,46.3506708 C92.7965142,46.6554276 93.159337,46.8079686 93.5873972,46.8079686 C94.0119224,46.8079686 94.3747452,46.6564033 94.676187,46.3532728 C94.9773075,46.0501423 95.1280284,45.6819623 95.1280284,45.2487329 L95.1280284,41.6937796 C95.1280284,41.2641279 94.9782716,40.8965985 94.678758,40.5918417 C94.378923,40.287085 94.0151361,40.134544 93.5873972,40.134544 C93.1660857,40.134544 92.8048697,40.2861092 92.5037493,40.5892397 L92.5037493,40.5892397 Z M90.8194673,46.3610787 C91.1205877,46.0595745 91.2713086,45.6923702 91.2713086,45.2591408 L91.2713086,44.349424 L90.2647887,44.349424 L90.2647887,45.2487329 C90.2647887,45.4045264 90.209835,45.5372273 90.1005704,45.6465104 C89.990663,45.7554682 89.8589027,45.8101098 89.7049682,45.8101098 C89.5510336,45.8101098 89.419916,45.7554682 89.3122583,45.6465104 C89.2042791,45.5372273 89.1502895,45.4045264 89.1502895,45.2487329 L89.1502895,41.6833717 C89.1502895,41.527253 89.2042791,41.3939016 89.3122583,41.2829923 C89.419916,41.1720829 89.5510336,41.1167909 89.7049682,41.1167909 C89.8589027,41.1167909 89.990663,41.1720829 90.1005704,41.2829923 C90.209835,41.3939016 90.2647887,41.527253 90.2647887,41.6833717 L90.2647887,42.4473777 L91.2713086,42.4473777 L91.2713086,41.7041876 C91.2713086,41.2745358 91.1225159,40.9070064 90.8246091,40.6022496 C90.5267024,40.2971676 90.1638796,40.1449519 89.7358193,40.1449519 C89.3112942,40.1449519 88.94815,40.2965171 88.6470295,40.5996476 C88.3459091,40.9027782 88.1951882,41.2709581 88.1951882,41.7041876 L88.1951882,45.2591408 C88.1951882,45.6887925 88.344945,46.0553463 88.6444586,46.3584768 C88.9439722,46.6616073 89.3077591,46.8131725 89.7358193,46.8131725 C90.1568095,46.8131725 90.5180255,46.662583 90.8194673,46.3610787 L90.8194673,46.3610787 Z M86.5568616,46.7351132 L87.5273885,46.7351132 L87.5273885,45.7528662 L86.5568616,45.7528662 L86.5568616,46.7351132 Z" id="Fill-10" fill="#D4563F" sketch:type="MSShapeGroup"></path>
            </g>
        </g>
    </g>
</svg>