<?xml version="1.0" encoding="UTF-8" standalone="no"?>
<svg width="17px" height="23px" viewBox="0 0 17 23" version="1.1" xmlns="http://www.w3.org/2000/svg" xmlns:xlink="http://www.w3.org/1999/xlink" xmlns:sketch="http://www.bohemiancoding.com/sketch/ns">
    <!-- Generator: Sketch 3.3.2 (12043) - http://www.bohemiancoding.com/sketch -->
    <title>PDF Copy 7</title>
    <desc>Created with Sketch.</desc>
    <defs></defs>
    <g id="Homepage" stroke="none" stroke-width="1" fill="none" fill-rule="evenodd" sketch:type="MSPage">
        <g id="Menus" sketch:type="MSArtboardGroup" transform="translate(-106.000000, -877.000000)">
            <g id="Morgenmad" sketch:type="MSLayerGroup" transform="translate(106.000000, 873.500000)">
                <g id="Breakfast-+-PDF-Copy-7-+-Served-8am---12pm" sketch:type="MSShapeGroup">
                    <g id="PDF-Copy-7" transform="translate(0.000000, 4.000000)">
                        <path d="M2.06234132,1.4750332 C1.73969986,1.4750332 1.47346723,1.74279127 1.47346723,2.0664218 L1.47346723,19.9262716 C1.47346723,20.2576384 1.73969986,20.5176603 2.06234132,20.5176603 L14.9376587,20.5176603 C15.2679923,20.5176603 15.5342249,20.2580682 15.5342249,19.9262716 L15.5342249,6.49925759 L12.4154999,6.49925759 C11.3847565,6.49925759 10.5377693,5.64870669 10.5377693,4.61076812 L10.5377693,1.4750332 L2.06234132,1.4750332 L2.06234132,1.4750332 Z M1.77635684e-15,19.9262716 L1.77635684e-15,2.0664218 C1.77635684e-15,0.92447448 0.926045097,-1.77635684e-15 2.06234132,-1.77635684e-15 L10.6108444,-1.77635684e-15 L11.867223,-1.77635684e-15 C12.0928584,0.153434398 12.3915688,0.389388135 12.7787386,0.7375166 C13.0116387,0.940806433 13.2770167,1.18320699 13.5847012,1.4750332 C13.8740102,1.75869343 14.1966517,2.07501757 14.5663005,2.44721417 C14.9376587,2.82070015 15.2517533,3.14433068 15.5342249,3.44432286 C15.8239612,3.74388526 16.0658354,4.01164333 16.2679671,4.2463077 C16.6141123,4.64386181 16.8465851,4.93482844 17,5.16175663 L17,6.42576381 L17,19.9258419 C17,21.068219 16.0739549,21.9999999 14.938086,21.9999999 L2.06234132,21.9999999 C0.926045097,22.0004296 1.77635684e-15,21.0686488 1.77635684e-15,19.9262716 L1.77635684e-15,19.9262716 Z M11.6424424,1.4750332 L11.6424424,4.61076812 C11.6424424,5.04098613 11.9890149,5.3891146 12.4154999,5.3891146 L15.5342249,5.3891146 L15.7919107,5.3891146 C15.7115709,5.29112288 15.6303763,5.19485032 15.5342249,5.08052665 C14.6073251,4.02840507 13.0035193,2.41583963 11.9479902,1.4750332 C11.8437194,1.37790106 11.7385938,1.28850511 11.6424424,1.2158709 L11.6424424,1.4750332 L11.6424424,1.4750332 Z" id="Shape" fill="#5D7E90"></path>
                        <path id="Shape" opacity="0.596140392" fill="#5D7E90" d="M16.2656509,5.30376923 L16,5.30376923 L16,5 C16.0991235,5.11253846 16.1828277,5.20730769 16.2656509,5.30376923 L16.2656509,5.30376923 Z"></path>
                        <polygon id="Triangle-1" fill="#5D7E90" transform="translate(8.500000, 16.000000) scale(1, -1) translate(-8.500000, -16.000000) " points="8.5 14 12 18 5 18 "></polygon>
                        <path d="M8.5,13.5 L8.5,7.41723746" id="Line" stroke="#5D7E90" stroke-width="3" stroke-linecap="square"></path>
                        <path id="Shape" opacity="0.596140392" fill="#5D7E90" d="M13.3149924,1.25511538 L13,1.25511538 L13,1 C13.0991235,1.07192308 13.2074985,1.15992308 13.3149924,1.25511538 L13.3149924,1.25511538 Z"></path>
                    </g>
                </g>
            </g>
        </g>
    </g>
</svg>