<?xml version="1.0" encoding="UTF-8" standalone="no"?>
<svg width="51px" height="18px" viewBox="0 0 51 18" version="1.1" xmlns="http://www.w3.org/2000/svg" xmlns:xlink="http://www.w3.org/1999/xlink" xmlns:sketch="http://www.bohemiancoding.com/sketch/ns">
    <!-- Generator: Sketch 3.3.2 (12043) - http://www.bohemiancoding.com/sketch -->
    <title>HOSPITALITY Copy 3</title>
    <desc>Created with Sketch.</desc>
    <defs></defs>
    <g id="Homepage" stroke="none" stroke-width="1" fill="none" fill-rule="evenodd" sketch:type="MSPage">
        <g sketch:type="MSArtboardGroup" transform="translate(-880.000000, -2609.000000)" id="Group" fill="#000000" opacity="0.8">
            <g sketch:type="MSLayerGroup" transform="translate(123.000000, 2542.000000)">
                <g id="Site-by-+-HOSPITALITY-Copy-3" transform="translate(702.125000, 66.000000)" sketch:type="MSShapeGroup">
                    <path d="M80.4244326,18.5223511 C80.4244326,18.5568539 80.4554852,18.5879065 80.489988,18.5879065 L80.7177068,18.5879065 C80.7556599,18.5879065 80.7832622,18.5568539 80.7832622,18.5223511 L80.7832622,17.5252189 L82.0460662,17.5252189 L82.0460662,18.5223511 C82.0460662,18.5568539 82.0736685,18.5879065 82.1116216,18.5879065 L82.3393404,18.5879065 C82.3738432,18.5879065 82.4048958,18.5568539 82.4048958,18.5223511 L82.4048958,16.2382629 C82.4048958,16.2037601 82.3738432,16.1727075 82.3393404,16.1727075 L82.1116216,16.1727075 C82.0736685,16.1727075 82.0460662,16.2037601 82.0460662,16.2382629 L82.0460662,17.2008922 L80.7832622,17.2008922 L80.7832622,16.2382629 C80.7832622,16.2037601 80.7556599,16.1727075 80.7177068,16.1727075 L80.489988,16.1727075 C80.4554852,16.1727075 80.4244326,16.2037601 80.4244326,16.2382629 L80.4244326,18.5223511 Z M83.2541586,17.3837573 C83.2541586,18.0738141 83.8027538,18.6224093 84.4928107,18.6224093 C85.1828675,18.6224093 85.734913,18.0738141 85.734913,17.3837573 C85.734913,16.6937004 85.1828675,16.1382047 84.4928107,16.1382047 C83.8027538,16.1382047 83.2541586,16.6937004 83.2541586,17.3837573 L83.2541586,17.3837573 Z M83.599187,17.3837573 C83.599187,16.8938169 84.0028703,16.4728822 84.4928107,16.4728822 C84.9862013,16.4728822 85.3898846,16.8938169 85.3898846,17.3837573 C85.3898846,17.8771479 84.9862013,18.2877318 84.4928107,18.2877318 C84.0028703,18.2877318 83.599187,17.8771479 83.599187,17.3837573 L83.599187,17.3837573 Z M86.4737667,18.3498369 C86.5289713,18.4015911 86.7946432,18.6224093 87.2155779,18.6224093 C87.6641148,18.6224093 87.9849913,18.3291352 87.9849913,17.9703056 C87.9849913,17.5493709 87.6434131,17.3596053 87.2431801,17.1974419 C86.9568065,17.0801323 86.804994,16.9593723 86.804994,16.7627061 C86.804994,16.6350456 86.9050523,16.4521805 87.1948762,16.4521805 C87.3949926,16.4521805 87.5261035,16.5384376 87.6606645,16.6246947 C87.7089685,16.6557473 87.7538222,16.6350456 87.7814245,16.5901919 L87.8676816,16.4590811 C87.9021844,16.4073268 87.8745822,16.3590229 87.8469799,16.3417714 C87.812477,16.3176194 87.5537057,16.1382047 87.2086773,16.1382047 C86.6600821,16.1382047 86.453065,16.5073851 86.453065,16.7765072 C86.453065,17.1767402 86.7290878,17.3596053 87.0810168,17.5079675 C87.4225949,17.6494292 87.6020097,17.78054 87.6020097,17.987557 C87.6020097,18.1635215 87.4501972,18.3084335 87.2121276,18.3084335 C86.9464557,18.3084335 86.8222455,18.2049249 86.6600821,18.0703639 C86.622129,18.0393113 86.5703747,18.0531124 86.5427724,18.0979661 L86.453065,18.2394278 C86.4151119,18.2980826 86.4427142,18.3222346 86.4737667,18.3498369 L86.4737667,18.3498369 Z M88.8135524,18.5223511 C88.8135524,18.5568539 88.8411547,18.5879065 88.8791078,18.5879065 L89.1033763,18.5879065 C89.1378791,18.5879065 89.1689317,18.5568539 89.1689317,18.5223511 L89.1689317,17.7115343 L89.6692229,17.7115343 C90.0901576,17.7115343 90.4386363,17.3630556 90.4386363,16.9352203 C90.4386363,16.5177359 90.0901576,16.1727075 89.6657726,16.1727075 L88.8791078,16.1727075 C88.8411547,16.1727075 88.8135524,16.2037601 88.8135524,16.2382629 L88.8135524,18.5223511 Z M89.1689317,17.3734064 L89.1689317,16.5177359 L89.658872,16.5177359 C89.8969416,16.5177359 90.083257,16.6971507 90.083257,16.93177 C90.083257,17.1801905 89.8969416,17.3734064 89.658872,17.3734064 L89.1689317,17.3734064 Z M91.2223437,18.5223511 C91.2223437,18.5568539 91.2533963,18.5879065 91.2878991,18.5879065 L91.5156179,18.5879065 C91.5501207,18.5879065 91.5811733,18.5568539 91.5811733,18.5223511 L91.5811733,16.2382629 C91.5811733,16.2037601 91.5501207,16.1727075 91.5156179,16.1727075 L91.2878991,16.1727075 C91.2533963,16.1727075 91.2223437,16.2037601 91.2223437,16.2382629 L91.2223437,18.5223511 Z M92.9824816,18.5223511 C92.9824816,18.5568539 93.0135341,18.5879065 93.048037,18.5879065 L93.2757558,18.5879065 C93.3102586,18.5879065 93.3413112,18.5568539 93.3413112,18.5223511 L93.3413112,16.4970342 L93.9037075,16.4970342 C93.9416606,16.4970342 93.9692629,16.4659817 93.9692629,16.4314788 L93.9692629,16.2382629 C93.9692629,16.2037601 93.9416606,16.1727075 93.9037075,16.1727075 L92.4200852,16.1727075 C92.3821321,16.1727075 92.3545298,16.2037601 92.3545298,16.2382629 L92.3545298,16.4314788 C92.3545298,16.4659817 92.3821321,16.4970342 92.4200852,16.4970342 L92.9824816,16.4970342 L92.9824816,18.5223511 Z M94.3596379,18.5879065 L94.5770058,18.5879065 C94.6184092,18.5879065 94.6460115,18.5603042 94.6563624,18.5361522 L94.8668297,18.0634633 L95.9950727,18.0634633 L96.2089903,18.5361522 C96.2227914,18.5672048 96.2469434,18.5879065 96.2883468,18.5879065 L96.5057147,18.5879065 C96.557469,18.5879065 96.5850713,18.5430528 96.5643696,18.4981991 L95.5120329,16.1761578 C95.501682,16.1554561 95.4706294,16.1382047 95.453378,16.1382047 L95.4188752,16.1382047 C95.4016238,16.1382047 95.3705712,16.1554561 95.3602204,16.1761578 L94.3009831,18.4981991 C94.2802814,18.5430528 94.3078836,18.5879065 94.3596379,18.5879065 L94.3596379,18.5879065 Z M95.0013908,17.7667388 L95.4223255,16.8213609 L95.4395769,16.8213609 L95.8639619,17.7667388 L95.0013908,17.7667388 Z M97.2687205,18.5223511 C97.2687205,18.5568539 97.2963227,18.5879065 97.3342759,18.5879065 L98.5625771,18.5879065 C98.6005302,18.5879065 98.6281325,18.5568539 98.6281325,18.5223511 L98.6281325,18.3325855 C98.6281325,18.2980826 98.6005302,18.2670301 98.5625771,18.2670301 L97.62755,18.2670301 L97.62755,16.2382629 C97.62755,16.2037601 97.5964975,16.1727075 97.5619946,16.1727075 L97.3342759,16.1727075 C97.2963227,16.1727075 97.2687205,16.2037601 97.2687205,16.2382629 L97.2687205,18.5223511 Z M99.3669862,18.5223511 C99.3669862,18.5568539 99.3980388,18.5879065 99.4325416,18.5879065 L99.6602604,18.5879065 C99.6947632,18.5879065 99.7258158,18.5568539 99.7258158,18.5223511 L99.7258158,16.2382629 C99.7258158,16.2037601 99.6947632,16.1727075 99.6602604,16.1727075 L99.4325416,16.1727075 C99.3980388,16.1727075 99.3669862,16.2037601 99.3669862,16.2382629 L99.3669862,18.5223511 Z M101.127124,18.5223511 C101.127124,18.5568539 101.158177,18.5879065 101.192679,18.5879065 L101.420398,18.5879065 C101.454901,18.5879065 101.485954,18.5568539 101.485954,18.5223511 L101.485954,16.4970342 L102.04835,16.4970342 C102.086303,16.4970342 102.113905,16.4659817 102.113905,16.4314788 L102.113905,16.2382629 C102.113905,16.2037601 102.086303,16.1727075 102.04835,16.1727075 L100.564728,16.1727075 C100.526775,16.1727075 100.499172,16.2037601 100.499172,16.2382629 L100.499172,16.4314788 C100.499172,16.4659817 100.526775,16.4970342 100.564728,16.4970342 L101.127124,16.4970342 L101.127124,18.5223511 Z M103.577319,17.076682 L102.956268,16.2037601 C102.945917,16.1899589 102.928665,16.1727075 102.901063,16.1727075 L102.645742,16.1727075 C102.590538,16.1727075 102.562935,16.227912 102.590538,16.2727657 L103.397904,17.4251607 L103.397904,18.5223511 C103.397904,18.5568539 103.425506,18.5879065 103.463459,18.5879065 L103.691178,18.5879065 C103.725681,18.5879065 103.756734,18.5568539 103.756734,18.5223511 L103.756734,17.4217104 L104.574451,16.2727657 C104.602053,16.227912 104.574451,16.1727075 104.519246,16.1727075 L104.260475,16.1727075 C104.236323,16.1727075 104.215621,16.1899589 104.205271,16.2037601 L103.584219,17.076682 L103.577319,17.076682 Z M69.1316365,3.78656149 C69.6713101,3.78656149 70.0891219,3.35134084 70.0891219,2.8464849 C70.0891219,2.28940248 69.6713101,1.87159066 69.1316365,1.87159066 C68.6093717,1.87159066 68.1915599,2.28940248 68.1915599,2.8464849 C68.1915599,3.35134084 68.6093717,3.78656149 69.1316365,3.78656149 Z M68.5223276,13.518095 C68.5223276,13.727001 68.6964159,13.9010892 68.9053218,13.9010892 L69.4275866,13.9010892 C69.6190836,13.9010892 69.8105807,13.727001 69.8105807,13.518095 L69.8105807,6.24120591 C69.8105807,6.04970883 69.6190836,5.85821174 69.4275866,5.85821174 L68.9053218,5.85821174 C68.6964159,5.85821174 68.5223276,6.04970883 68.5223276,6.24120591 L68.5223276,13.518095 Z M72.513667,9.86224165 C72.513667,8.29544734 73.50597,6.86792363 75.107582,6.86792363 C76.4132439,6.86792363 77.2314587,7.84281787 77.2314587,7.84281787 L77.2314587,12.2472508 C77.2314587,12.2472508 76.308791,12.9087861 75.1946261,12.9087861 C73.6626495,12.9087861 72.513667,11.6031242 72.513667,9.86224165 L72.513667,9.86224165 Z M78.5197118,6.24120591 C78.5197118,6.04970883 78.3282148,5.85821174 78.1193089,5.85821174 L77.8755853,5.85821174 C77.6666794,5.85821174 77.5796353,5.98007352 77.4925911,6.13675295 L77.3707293,6.50233829 C77.3707293,6.50233829 76.4132439,5.68412349 74.9683114,5.68412349 C72.7747994,5.68412349 71.2080051,7.58168549 71.2080051,9.87965048 C71.2080051,12.2298419 72.809617,14.0925863 75.0205379,14.0925863 C76.3436086,14.0925863 77.2488676,13.3788244 77.2488676,13.3788244 L77.2488676,13.9533157 C77.2488676,15.8334689 76.2739733,16.5298219 75.0031291,16.5298219 C74.1152789,16.5298219 73.4189259,16.0423748 72.9837053,15.6767894 C72.7922082,15.5027012 72.5833023,15.5027012 72.4614405,15.6941983 L72.113264,16.1990542 C72.0262199,16.320916 72.0610375,16.5472307 72.2003081,16.6690925 C72.6181199,17.0520867 73.7322848,17.713622 75.0031291,17.713622 C76.8310558,17.713622 78.5197118,16.7039101 78.5197118,13.9533157 L78.5197118,6.24120591 Z M80.4219921,13.518095 C80.4219921,13.727001 80.5960804,13.9010892 80.8049863,13.9010892 L81.3272511,13.9010892 C81.5187481,13.9010892 81.7102452,13.727001 81.7102452,13.518095 L81.7102452,7.96467965 C81.7102452,7.96467965 82.6677306,6.85051481 84.1822985,6.85051481 C85.3660986,6.85051481 85.8883634,7.56427666 85.8883634,9.09625332 L85.8883634,13.518095 C85.8883634,13.727001 86.0624516,13.9010892 86.2713576,13.9010892 L86.7936223,13.9010892 C86.9851194,13.9010892 87.1766165,13.727001 87.1766165,13.518095 L87.1766165,9.27034158 C87.1766165,7.19869132 86.6021252,5.68412349 84.2693426,5.68412349 C82.5980953,5.68412349 81.5709746,6.7112442 81.5709746,6.7112442 L81.3968864,6.1019353 C81.3620687,5.92784705 81.2576158,5.85821174 81.0835275,5.85821174 L80.8049863,5.85821174 C80.5960804,5.85821174 80.4219921,6.04970883 80.4219921,6.24120591 L80.4219921,13.518095 Z M89.6011615,3.78656149 C90.1408351,3.78656149 90.5586469,3.35134084 90.5586469,2.8464849 C90.5586469,2.28940248 90.1408351,1.87159066 89.6011615,1.87159066 C89.0788968,1.87159066 88.6610849,2.28940248 88.6610849,2.8464849 C88.6610849,3.35134084 89.0788968,3.78656149 89.6011615,3.78656149 L89.6011615,3.78656149 Z M88.9918526,13.518095 C88.9918526,13.727001 89.1659409,13.9010892 89.3748468,13.9010892 L89.8971116,13.9010892 C90.0886087,13.9010892 90.2801057,13.727001 90.2801057,13.518095 L90.2801057,6.24120591 C90.2801057,6.04970883 90.0886087,5.85821174 89.8971116,5.85821174 L89.3748468,5.85821174 C89.1659409,5.85821174 88.9918526,6.04970883 88.9918526,6.24120591 L88.9918526,13.518095 Z M92.7046508,6.97237659 L92.7046508,11.8642566 C92.7046508,13.1176921 93.0180097,14.0925863 94.5499863,14.0925863 C95.6293335,14.0925863 96.4649571,13.6921833 96.8131336,13.4484597 C97.0220396,13.3091891 97.0568572,13.1873274 96.9524043,12.926195 L96.7957248,12.5606096 C96.7086807,12.3691125 96.6042277,12.2124331 96.2908689,12.4039302 C95.9601012,12.6128361 95.4552452,12.926195 94.7066657,12.926195 C94.2540363,12.926195 93.9929039,12.6128361 93.9929039,11.7772125 L93.9929039,6.97237659 L96.3605042,6.97237659 C96.5868189,6.97237659 96.7609072,6.79828833 96.7609072,6.58938242 L96.7609072,6.24120591 C96.7609072,6.01489117 96.5868189,5.85821174 96.3605042,5.85821174 L93.9929039,5.85821174 L93.9929039,3.5950644 C93.9929039,3.3861585 93.8362245,3.19466141 93.6273185,3.21207024 L93.087645,3.24688789 C92.8961479,3.26429672 92.7046508,3.42097615 92.7046508,3.62988206 L92.7046508,5.85821174 L91.6427124,5.85821174 C91.3989889,5.85821174 91.2423094,6.01489117 91.2423094,6.24120591 L91.2423094,6.58938242 C91.2423094,6.79828833 91.3989889,6.97237659 91.6427124,6.97237659 L92.7046508,6.97237659 Z M97.4619785,9.87965048 C97.4619785,12.1776155 98.9243198,14.0925863 101.361555,14.0925863 C102.754261,14.0925863 103.8162,13.5529127 104.303647,13.1699185 C104.599597,12.9436038 104.529962,12.8565597 104.373282,12.6128361 L104.164376,12.3168861 C103.95547,12.0035272 103.833609,12.0731625 103.555067,12.2646596 C103.102438,12.5606096 102.440903,12.926195 101.378964,12.926195 C99.9166229,12.926195 98.7850492,11.5160801 98.7502316,10.1756005 L104.599597,10.1756005 C104.773685,10.1756005 104.947774,10.0363299 104.965182,9.827424 C104.982591,9.68815339 105,9.47924749 105,9.33997688 C105,7.23350897 103.468023,5.68412349 101.361555,5.68412349 C98.9243198,5.68412349 97.4619785,7.61650314 97.4619785,9.87965048 L97.4619785,9.87965048 Z M98.7676404,9.1484798 C98.9243198,7.89504435 100.003667,6.85051481 101.361555,6.85051481 C102.736853,6.85051481 103.676929,7.96467965 103.711747,9.1484798 L98.7676404,9.1484798 Z M56.1754684,9.56067611 C56.3086346,10.9891405 57.443306,13.3510469 60.2878935,13.8141235 C60.2878935,13.8141235 58.0588316,13.0903526 58.1849165,11.0004789 C58.261064,9.73138273 58.1538321,8.30525807 55.375,7.40322162 C55.375,7.40322162 56.040463,8.13185182 56.1754684,9.56067611 Z M58.100492,5.14030157 C58.100492,5.14030157 57.5679193,5.58538061 57.2634213,6.04197807 C56.6355723,6.98450897 56.8033175,7.4062812 57.095952,7.64024915 C57.566172,8.01657761 57.7327217,8.03394523 58.1426123,8.54183566 C58.4569506,8.93112234 58.626903,9.31446983 58.626903,9.84719687 C58.626903,9.84719687 58.8195709,9.52684075 59.3154494,9.07438272 C59.9435743,8.50062131 60.0687395,7.76317232 58.9800509,6.69780824 C58.3929426,6.12269701 58.100492,5.52841841 58.100492,5.14030157 Z M58.723283,10.7594919 C58.5304311,11.3886857 58.725858,12.145842 59.2699264,12.678749 C59.760011,13.1582034 60.4113113,13.5539691 61.0379648,13.5597284 C61.0379648,13.5597284 60.3601784,13.4641614 60.9070977,12.5785927 C61.7202574,11.2613532 59.0852595,11.1852236 59.9020978,9.27946463 C59.9020978,9.27946463 58.9298377,10.0859342 58.723283,10.7594919 Z M62.1424714,12.8036519 C63.2940645,11.8815482 62.8474796,10.4653222 62.1145139,9.58416289 C61.3430146,8.65737984 61.5974834,8.20618164 61.5974834,8.20618164 C61.5974834,8.20618164 59.8731287,9.1344045 60.4044139,10.2217256 C60.7766905,10.9843711 62.1632556,11.4101928 61.0498283,13.1710716 C61.0498283,13.1710716 61.4637654,13.3470875 62.1424714,12.8036519 Z M60.1378976,7.23593453 C60.1378976,7.23593453 60.3352557,6.75522038 60.9739567,5.94596122 C61.3562576,5.4620975 61.9984533,5.01854825 61.3898251,4.4844714 C60.4083684,3.6171702 61.1166873,1.90317497 61.1166873,1.90317497 C61.1166873,1.90317497 60.6974162,2.02609813 59.6925083,3.09146221 C59.0884783,3.73136456 58.9259751,4.11174246 58.7706453,4.56681013 C58.5614236,5.18160592 58.8970979,5.67311859 59.3995059,6.24661004 C59.7481474,6.64543541 60.1378976,7.23593453 60.1378976,7.23593453 Z M65.7117477,7.68938242 C65.7117477,7.68938242 65.2532993,8.21823999 65.1180179,9.64598443 C64.984116,11.0757086 64.3189289,13.5239133 61.3574532,13.7568014 C61.3574532,13.7568014 63.6681805,12.8875204 63.2247224,10.9167904 C62.9993148,9.91360777 63.1021323,8.53688634 65.7117477,7.68938242 Z M62.4146895,7.55836037 C63.0406993,6.94581427 63.575755,6.49623585 63.6378318,5.75977672 C63.6378318,5.75977672 63.9588837,6.1877581 64.1738072,6.69780824 C64.4667176,7.39440283 64.1945915,7.9370285 63.5977348,8.39830532 C63.0625871,8.8117087 62.7793331,9.1876772 62.8123487,9.73039286 C62.8123487,9.73039286 62.5889643,9.42812427 62.3099407,9.03325835 C61.8386171,8.36752954 62.1405401,7.82652364 62.4146895,7.55836037 Z M62.0797509,4.23907502 C62.0797509,4.23907502 62.9571945,4.77648141 63.0845669,5.71433295 C63.1685314,6.32885878 62.5464762,7.06405808 61.7698269,7.55935023 C61.1087783,7.98139243 60.4190364,8.42368185 60.0415177,8.99780321 C60.0415177,8.99780321 60.3523613,7.42166909 61.2310925,6.41758662 C62.2365522,5.26997381 62.3308169,5.05841279 62.0797509,4.23907502 Z" id="HOSPITALITY-Copy-3"></path>
                </g>
            </g>
        </g>
    </g>
</svg>