<?xml version="1.0" encoding="UTF-8" standalone="no"?>
<svg width="892px" height="60px" viewBox="0 0 892 60" version="1.1" xmlns="http://www.w3.org/2000/svg" xmlns:xlink="http://www.w3.org/1999/xlink" xmlns:sketch="http://www.bohemiancoding.com/sketch/ns">
    <!-- Generator: Sketch 3.3.2 (12043) - http://www.bohemiancoding.com/sketch -->
    <title>70625_Snaps &amp; Rye Logo_Horizontal_White</title>
    <desc>Created with Sketch.</desc>
    <defs>
        <path id="path-1" d="M0.155304348,2.38441667 L891.498725,2.38441667 L891.498725,61.845 L0.155304348,61.845"></path>
        <path id="path-3" d="M0.155304348,2.38441667 L891.498725,2.38441667 L891.498725,61.845 L0.155304348,61.845"></path>
    </defs>
    <g id="Homepage" stroke="none" stroke-width="1" fill="none" fill-rule="evenodd" sketch:type="MSPage">
        <g sketch:type="MSArtboardGroup" transform="translate(-273.000000, -294.000000)" id="70625_Snaps-&amp;-Rye-Logo_Horizontal_White">
            <g sketch:type="MSLayerGroup" transform="translate(273.000000, 292.000000)">
                <g id="Group-4">
                    <mask id="mask-2" sketch:name="Clip 2" fill="white">
                        <use xlink:href="#path-1"></use>
                    </mask>
                    <g id="Clip-2"></g>
                    <path d="M891.498725,35.898 C891.498725,37.7683333 889.987096,39.2873333 888.100148,39.2873333 C886.231319,39.2873333 884.704159,37.7683333 884.704159,35.898 C884.704159,34.0199167 886.231319,32.5009167 888.100148,32.5009167 C889.987096,32.5009167 891.498725,34.0199167 891.498725,35.898" id="Fill-1" fill="#FFFFFF" sketch:type="MSShapeGroup" mask="url(#mask-2)"></path>
                    <path d="M6.79974203,35.898 C6.79974203,37.7683333 5.28293623,39.2873333 3.39598841,39.2873333 C1.52715942,39.2873333 0,37.7683333 0,35.898 C0,34.0199167 1.52715942,32.5009167 3.39598841,32.5009167 C5.28293623,32.5009167 6.79974203,34.0199167 6.79974203,35.898" id="Fill-3" fill="#FFFFFF" sketch:type="MSShapeGroup" mask="url(#mask-2)"></path>
                </g>
                <path d="M58,49.2518291 L60.7680172,47.9070097 C63.3094892,52.6528204 67.3482423,57.1571867 75.9882056,57.1571867 C83.0423528,57.1571867 88.825764,53.044843 88.825764,46.250649 C88.825764,40.0094406 85.3364479,36.6084494 77.8031707,33.132169 L72.8191775,30.8397451 C65.2885043,27.3634647 61.5648311,23.8067029 61.5648311,17.0099127 C61.5648311,9.58225159 67.5044804,5 74.7981925,5 C82.0111817,5 86.0525389,8.70993628 88.5914069,12.7443946 L86.0525389,14.4033514 C83.8365628,10.8465896 80.7430497,7.84540949 74.7981925,7.84540949 C68.4523244,7.84540949 64.7338592,11.4774605 64.7338592,16.9320274 C64.7338592,22.3061128 67.4289653,24.9126741 74.0873095,27.9969318 L79.0817186,30.2867595 C87.791989,34.2381402 92,38.822988 92,46.250649 C92,54.6259146 85.3364479,60 76.0637206,60 C65.8431493,60 60.6143831,54.6259146 58,49.2518291" id="Fill-5" fill="#FFFFFF" sketch:type="MSShapeGroup"></path>
                <path d="M149.143443,15.4314373 C148.139344,14.0866179 146.727971,11.8746755 146.727971,11.8746755 C146.727971,11.8746755 146.963627,14.32287 146.963627,15.9039415 L146.963627,59.3691291 L144,59.3691291 L144,5 L144.9375,5 L178.851434,49.5685627 C179.865779,50.9133821 181.272029,53.1253245 181.272029,53.1253245 C181.272029,53.1253245 181.03125,50.67713 181.03125,49.0960585 L181.03125,5.6308709 L184,5.6308709 L184,60 L183.0625,60 L149.143443,15.4314373" id="Fill-6" fill="#FFFFFF" sketch:type="MSShapeGroup"></path>
                <path d="M271.479316,45.8132939 L259.521092,15.360615 C258.743217,13.4756948 257.962775,10.4948907 257.962775,10.4948907 C257.962775,10.4948907 257.174631,13.4756948 256.391621,15.360615 L244.358947,45.8132939 L271.479316,45.8132939 L271.479316,45.8132939 Z M257.490402,5 L258.422312,5 L280,59 L276.713927,59 L272.652547,48.639385 L243.270436,48.639385 L239.203921,59 L236,59 L257.490402,5 L257.490402,5 Z" id="Fill-7" fill="#FFFFFF" sketch:type="MSShapeGroup"></path>
                <path d="M341.583347,42.5564037 C355.001288,42.5564037 359.706716,35.0720325 359.706716,25.7184888 C359.706716,16.2881299 355.001288,8.80631915 341.583347,8.80631915 L334.210823,8.80631915 L334.210823,42.5564037 L341.583347,42.5564037 L341.583347,42.5564037 Z M331,6 L341.900306,6 C356.330971,6 363,14.185951 363,25.7184888 C363,36.8643896 356.330971,45.3601623 341.900306,45.3601623 L334.210823,45.3601623 L334.210823,59 L331,59 L331,6 L331,6 Z" id="Fill-8" fill="#FFFFFF" sketch:type="MSShapeGroup"></path>
                <path d="M411,49.2518291 L413.775191,47.9070097 C416.313476,52.6528204 420.356508,57.1571867 428.98928,57.1571867 C436.041807,57.1571867 441.829096,53.044843 441.829096,46.250649 C441.829096,40.0094406 438.340582,36.6084494 430.814242,33.132169 L425.826187,30.8397451 C418.297243,27.3634647 414.569219,23.8067029 414.569219,17.0099127 C414.569219,9.58225159 420.512711,5 427.804747,5 C435.013476,5 439.051302,8.70993628 441.594793,12.7443946 L439.051302,14.4033514 C436.835835,10.8465896 433.743032,7.84540949 427.804747,7.84540949 C421.457734,7.84540949 417.732312,11.4774605 417.732312,16.9320274 C417.732312,22.3061128 420.432006,24.9126741 427.088821,27.9969318 L432.079479,30.2867595 C440.795559,34.2381402 445,38.822988 445,46.250649 C445,54.6259146 438.340582,60 429.069985,60 C418.843951,60 413.618989,54.6259146 411,49.2518291" id="Fill-9" fill="#FFFFFF" sketch:type="MSShapeGroup"></path>
                <path d="M626.267051,40.4738974 C640.849948,40.4738974 646.015215,32.1746393 646.015215,22.7883574 C646.015215,13.3994811 640.849948,5.0172045 626.267051,5.0172045 L618.473242,5.0172045 L618.473242,40.4738974 L626.267051,40.4738974 L626.267051,40.4738974 Z M650,59 L645.849948,59 L633.814271,42.7387465 C631.694648,43.239452 629.233998,43.4936962 626.605456,43.4936962 L618.473242,43.4936962 L618.473242,59 L615,59 L615,2 L626.605456,2 C642.200944,2 649.575026,11.2228392 649.575026,22.7883574 C649.575026,31.170634 645.592865,38.380274 637.200944,41.6491284 L650,59 L650,59 Z" id="Fill-10" fill="#FFFFFF" sketch:type="MSShapeGroup"></path>
                <path d="M721.722293,41.2288471 L700,2 L703.890287,2 L722.22722,35.0258067 C722.993766,36.3644805 723.58241,38.4632925 723.58241,38.4632925 C723.58241,38.4632925 724.348956,36.3644805 725.105038,35.0258067 L743.366101,2 L747,2 L725.277707,41.3118656 L725.277707,59 L721.722293,59 L721.722293,41.2288471" id="Fill-11" fill="#FFFFFF" sketch:type="MSShapeGroup"></path>
                <g id="Group-15">
                    <mask id="mask-4" sketch:name="Clip 13" fill="white">
                        <use xlink:href="#path-3"></use>
                    </mask>
                    <g id="Clip-13"></g>
                    <path d="M800.24189,2.38441667 L833.435606,2.38441667 L833.435606,5.38883333 L803.668939,5.38883333 L803.668939,35.7714167 L830.347638,35.7714167 L830.347638,38.7784167 L803.668939,38.7784167 L803.668939,56.1384167 L834.608154,56.1384167 L834.608154,59.1428333 L800.24189,59.1428333 L800.24189,2.38441667" id="Fill-12" fill="#FFFFFF" sketch:type="MSShapeGroup" mask="url(#mask-4)"></path>
                    <path d="M525.974412,5.44566667 L528.749183,5.44566667 L528.749183,61.845 L525.974412,61.845 L525.974412,5.44566667 Z" id="Fill-14" fill="#FFFFFF" sketch:type="MSShapeGroup" mask="url(#mask-4)"></path>
                </g>
                <path d="M499,32 L556,32 L556,35 L499,35 L499,32 Z" id="Fill-16" fill="#FFFFFF" sketch:type="MSShapeGroup"></path>
            </g>
        </g>
    </g>
</svg>