<?xml version="1.0" encoding="UTF-8" standalone="no"?>
<svg width="559px" height="38px" viewBox="0 0 559 38" version="1.1" xmlns="http://www.w3.org/2000/svg" xmlns:xlink="http://www.w3.org/1999/xlink" xmlns:sketch="http://www.bohemiancoding.com/sketch/ns">
    <!-- Generator: Sketch 3.3.2 (12043) - http://www.bohemiancoding.com/sketch -->
    <title>70625_Snaps &amp; Rye Logo_Horizontal_White</title>
    <desc>Created with Sketch.</desc>
    <defs>
        <path id="path-1" d="M0.0972173913,1.499875 L558.060232,1.499875 L558.060232,38.9025 L0.0972173913,38.9025"></path>
        <path id="path-3" d="M0.0972173913,1.499875 L558.060232,1.499875 L558.060232,38.9025 L0.0972173913,38.9025"></path>
    </defs>
    <g id="Page-1" stroke="none" stroke-width="1" fill="none" fill-rule="evenodd" sketch:type="MSPage">
        <g id="70625_Snaps-&amp;-Rye-Logo_Horizontal_White" sketch:type="MSLayerGroup" transform="translate(0.000000, -1.000000)">
            <g id="Group-4">
                <mask id="mask-2" sketch:name="Clip 2" fill="white">
                    <use xlink:href="#path-1"></use>
                </mask>
                <g id="Clip-2"></g>
                <path d="M558.060232,22.581 C558.060232,23.7575 557.113983,24.713 555.932791,24.713 C554.762942,24.713 553.806971,23.7575 553.806971,22.581 C553.806971,21.399625 554.762942,20.444125 555.932791,20.444125 C557.113983,20.444125 558.060232,21.399625 558.060232,22.581" id="Fill-1" fill="#FFFFFF" sketch:type="MSShapeGroup" mask="url(#mask-2)"></path>
                <path d="M4.25650145,22.581 C4.25650145,23.7575 3.30701159,24.713 2.12582029,24.713 C0.955971014,24.713 0,23.7575 0,22.581 C0,21.399625 0.955971014,20.444125 2.12582029,20.444125 C3.30701159,20.444125 4.25650145,21.399625 4.25650145,22.581" id="Fill-3" fill="#FFFFFF" sketch:type="MSShapeGroup" mask="url(#mask-2)"></path>
            </g>
            <path d="M36,30.3556762 L37.7096577,29.5243333 C39.2793904,32.4581072 41.7739144,35.2426245 47.1103623,35.2426245 C51.4673355,35.2426245 55.0394424,32.7004484 55.0394424,28.5004012 C55.0394424,24.6421997 52.8842766,22.5397687 48.2313701,20.3907954 L45.1530214,18.9736606 C40.5017232,16.8246873 38.2018075,14.6259618 38.2018075,10.4243097 C38.2018075,5.83266462 41.8704143,3 46.3753542,3 C50.8304358,3 53.3265681,5.29341515 54.8946925,7.78744395 L53.3265681,8.81298088 C51.957877,6.61425537 50.0471778,4.75898041 46.3753542,4.75898041 C42.4558474,4.75898041 40.1591483,7.00424829 40.1591483,10.3761624 C40.1591483,13.6983243 41.8237727,15.3096531 45.9362794,17.2162851 L49.0210615,18.631815 C54.4009344,21.0744867 57,23.9087562 57,28.5004012 C57,33.6778381 52.8842766,37 47.1570039,37 C40.8442981,37 37.614766,33.6778381 36,30.3556762" id="Fill-5" fill="#FFFFFF" sketch:type="MSShapeGroup"></path>
            <path d="M93.2146516,9.4485249 C92.5870902,8.61718197 91.7049821,7.24979939 91.7049821,7.24979939 C91.7049821,7.24979939 91.8522669,8.7632287 91.8522669,9.74061836 L91.8522669,36.6100071 L90,36.6100071 L90,3 L90.5859375,3 L111.782147,30.5514751 C112.416112,31.382818 113.295018,32.7502006 113.295018,32.7502006 C113.295018,32.7502006 113.144531,31.2367713 113.144531,30.2593816 L113.144531,3.38999292 L115,3.38999292 L115,37 L114.414062,37 L93.2146516,9.4485249" id="Fill-6" fill="#FFFFFF" sketch:type="MSShapeGroup"></path>
            <path d="M170.577747,28.6972591 L162.967968,9.52335021 C162.472956,8.33654856 161.976311,6.45974597 161.976311,6.45974597 C161.976311,6.45974597 161.474765,8.33654856 160.976486,9.52335021 L153.31933,28.6972591 L170.577747,28.6972591 L170.577747,28.6972591 Z M161.67571,3 L162.268744,3 L176,37 L173.908863,37 L171.324348,30.4766498 L152.626641,30.4766498 L150.038859,37 L148,37 L161.67571,3 L161.67571,3 Z" id="Fill-7" fill="#FFFFFF" sketch:type="MSShapeGroup"></path>
            <path d="M213.614592,27.4512778 C222.000805,27.4512778 224.941698,22.6499831 224.941698,16.6495966 C224.941698,10.5999324 222.000805,5.80028021 213.614592,5.80028021 L209.006764,5.80028021 L209.006764,27.4512778 L213.614592,27.4512778 L213.614592,27.4512778 Z M207,4 L213.812691,4 C222.831857,4 227,9.2513648 227,16.6495966 C227,23.7997971 222.831857,29.2499155 213.812691,29.2499155 L209.006764,29.2499155 L209.006764,38 L207,38 L207,4 L207,4 Z" id="Fill-8" fill="#FFFFFF" sketch:type="MSShapeGroup"></path>
            <path d="M257,30.3556762 L258.714089,29.5243333 C260.281853,32.4581072 262.77902,35.2426245 268.111026,35.2426245 C272.466998,35.2426245 276.041501,32.7004484 276.041501,28.5004012 C276.041501,24.6421997 273.88683,22.5397687 269.238208,20.3907954 L266.157351,18.9736606 C261.507121,16.8246873 259.204518,14.6259618 259.204518,10.4243097 C259.204518,5.83266462 262.875498,3 267.379403,3 C271.831853,3 274.325804,5.29341515 275.896784,7.78744395 L274.325804,8.81298088 C272.957427,6.61425537 271.047167,4.75898041 267.379403,4.75898041 C263.459188,4.75898041 261.158193,7.00424829 261.158193,10.3761624 C261.158193,13.6983243 262.825651,15.3096531 266.937213,17.2162851 L270.019678,18.631815 C275.403139,21.0744867 278,23.9087562 278,28.5004012 C278,33.6778381 273.88683,37 268.160873,37 C261.844793,37 258.617611,33.6778381 257,30.3556762" id="Fill-9" fill="#FFFFFF" sketch:type="MSShapeGroup"></path>
            <path d="M392.082147,25.2993036 C401.248538,25.2993036 404.495278,20.0576669 404.495278,14.1294889 C404.495278,8.1996723 401.248538,2.90560284 392.082147,2.90560284 L387.183181,2.90560284 L387.183181,25.2993036 L392.082147,25.2993036 L392.082147,25.2993036 Z M407,37 L404.391396,37 L396.826113,26.7297347 C395.493779,27.0459697 393.947084,27.206545 392.294858,27.206545 L387.183181,27.206545 L387.183181,37 L385,37 L385,1 L392.294858,1 C402.097736,1 406.732874,6.82495107 406.732874,14.1294889 C406.732874,19.4235583 404.229801,23.9770152 398.954879,26.0415548 L407,37 L407,37 Z" id="Fill-10" fill="#FFFFFF" sketch:type="MSShapeGroup"></path>
            <path d="M451.403117,25.776114 L438,1 L440.40039,1 L451.714667,21.8584043 C452.187643,22.7038824 452.550849,24.0294479 452.550849,24.0294479 C452.550849,24.0294479 453.023824,22.7038824 453.490342,21.8584043 L464.757807,1 L467,1 L453.596883,25.8285467 L453.596883,37 L451.403117,37 L451.403117,25.776114" id="Fill-11" fill="#FFFFFF" sketch:type="MSShapeGroup"></path>
            <g id="Group-15">
                <mask id="mask-4" sketch:name="Clip 13" fill="white">
                    <use xlink:href="#path-3"></use>
                </mask>
                <g id="Clip-13"></g>
                <path d="M500.935293,1.499875 L521.71389,1.499875 L521.71389,3.38975 L503.080557,3.38975 L503.080557,22.501375 L519.780884,22.501375 L519.780884,24.392875 L503.080557,24.392875 L503.080557,35.312875 L522.447881,35.312875 L522.447881,37.20275 L500.935293,37.20275 L500.935293,1.499875" id="Fill-12" fill="#FFFFFF" sketch:type="MSShapeGroup" mask="url(#mask-4)"></path>
                <path d="M329.24938,3.4255 L330.98633,3.4255 L330.98633,38.9025 L329.24938,38.9025 L329.24938,3.4255 Z" id="Fill-14" fill="#FFFFFF" sketch:type="MSShapeGroup" mask="url(#mask-4)"></path>
            </g>
            <path d="M312,20 L347,20 L347,22 L312,22 L312,20 Z" id="Fill-16" fill="#FFFFFF" sketch:type="MSShapeGroup"></path>
        </g>
    </g>
</svg>