<?xml version="1.0" encoding="UTF-8" standalone="no"?>
<svg width="560px" height="38px" viewBox="0 0 560 38" version="1.1" xmlns="http://www.w3.org/2000/svg" xmlns:xlink="http://www.w3.org/1999/xlink" xmlns:sketch="http://www.bohemiancoding.com/sketch/ns">
    <!-- Generator: Sketch 3.3.2 (12043) - http://www.bohemiancoding.com/sketch -->
    <title>70625_Snaps &amp; Rye Logo_Horizontal_PMS_BlackU</title>
    <desc>Created with Sketch.</desc>
    <defs>
        <path id="path-1" d="M0.0975,1.499875 L559.6825,1.499875 L559.6825,38.9025 L0.0975,38.9025"></path>
        <path id="path-3" d="M0.0975,1.499875 L559.6825,1.499875 L559.6825,38.9025 L0.0975,38.9025"></path>
    </defs>
    <g id="Page-1" stroke="none" stroke-width="1" fill="none" fill-rule="evenodd" sketch:type="MSPage">
        <g id="70625_Snaps-&amp;-Rye-Logo_Horizontal_PMS_BlackU" sketch:type="MSLayerGroup" transform="translate(0.000000, -1.000000)">
            <g id="Group-4">
                <mask id="mask-2" sketch:name="Clip 2" fill="white">
                    <use xlink:href="#path-1"></use>
                </mask>
                <g id="Clip-2"></g>
                <path d="M559.6825,22.581 C559.6825,23.7575 558.7335,24.713 557.548875,24.713 C556.375625,24.713 555.416875,23.7575 555.416875,22.581 C555.416875,21.399625 556.375625,20.444125 557.548875,20.444125 C558.7335,20.444125 559.6825,21.399625 559.6825,22.581" id="Fill-1" fill="#17160D" sketch:type="MSShapeGroup" mask="url(#mask-2)"></path>
                <path d="M4.268875,22.581 C4.268875,23.7575 3.316625,24.713 2.132,24.713 C0.95875,24.713 0,23.7575 0,22.581 C0,21.399625 0.95875,20.444125 2.132,20.444125 C3.316625,20.444125 4.268875,21.399625 4.268875,22.581" id="Fill-3" fill="#17160D" sketch:type="MSShapeGroup" mask="url(#mask-2)"></path>
            </g>
            <path d="M36.492625,30.870125 L38.22,30.028375 C39.806,32.998875 42.326375,35.81825 47.718125,35.81825 C52.12025,35.81825 55.729375,33.24425 55.729375,28.991625 C55.729375,25.085125 53.551875,22.956375 48.85075,20.7805 L45.7405,19.345625 C41.041,17.16975 38.71725,14.9435 38.71725,10.68925 C38.71725,6.040125 42.423875,3.172 46.9755,3.172 C51.47675,3.172 53.99875,5.494125 55.583125,8.019375 L53.99875,9.05775 C52.615875,6.8315 50.685375,4.953 46.9755,4.953 C43.015375,4.953 40.694875,7.226375 40.694875,10.6405 C40.694875,14.00425 42.37675,15.63575 46.531875,17.56625 L49.648625,18.9995 C55.08425,21.47275 57.71025,24.3425 57.71025,28.991625 C57.71025,34.233875 53.551875,37.597625 47.76525,37.597625 C41.387125,37.597625 38.124125,34.233875 36.492625,30.870125" id="Fill-5" fill="#17160D" sketch:type="MSShapeGroup"></path>
            <path d="M93.82425,9.70125 C93.18725,8.8595 92.291875,7.475 92.291875,7.475 C92.291875,7.475 92.441375,9.007375 92.441375,9.997 L92.441375,37.20275 L90.56125,37.20275 L90.56125,3.172 L91.156,3.172 L112.671,31.068375 C113.3145,31.910125 114.206625,33.294625 114.206625,33.294625 C114.206625,33.294625 114.053875,31.76225 114.053875,30.772625 L114.053875,3.566875 L115.93725,3.566875 L115.93725,37.597625 L115.3425,37.597625 L93.82425,9.70125" id="Fill-6" fill="#17160D" sketch:type="MSShapeGroup"></path>
            <path d="M170.408875,28.8925 L162.839625,9.70125 C162.34725,8.513375 161.85325,6.634875 161.85325,6.634875 C161.85325,6.634875 161.354375,8.513375 160.85875,9.70125 L153.242375,28.8925 L170.408875,28.8925 L170.408875,28.8925 Z M161.55425,3.172 L162.144125,3.172 L175.80225,37.20275 L173.72225,37.20275 L171.1515,30.6735 L152.553375,30.6735 L149.979375,37.20275 L147.951375,37.20275 L161.55425,3.172 L161.55425,3.172 Z" id="Fill-7" fill="#17160D" sketch:type="MSShapeGroup"></path>
            <path d="M214.487,26.767 C222.948375,26.767 225.915625,22.017125 225.915625,16.081 C225.915625,10.096125 222.948375,5.347875 214.487,5.347875 L209.837875,5.347875 L209.837875,26.767 L214.487,26.767 L214.487,26.767 Z M207.813125,3.566875 L214.686875,3.566875 C223.786875,3.566875 227.992375,8.762 227.992375,16.081 C227.992375,23.154625 223.786875,28.546375 214.686875,28.546375 L209.837875,28.546375 L209.837875,37.20275 L207.813125,37.20275 L207.813125,3.566875 L207.813125,3.566875 Z" id="Fill-8" fill="#17160D" sketch:type="MSShapeGroup"></path>
            <path d="M257.778625,30.870125 L259.510875,30.028375 C261.09525,32.998875 263.618875,35.81825 269.007375,35.81825 C273.4095,35.81825 277.021875,33.24425 277.021875,28.991625 C277.021875,25.085125 274.844375,22.956375 270.1465,20.7805 L267.033,19.345625 C262.3335,17.16975 260.0065,14.9435 260.0065,10.68925 C260.0065,6.040125 263.716375,3.172 268.268,3.172 C272.767625,3.172 275.288,5.494125 276.875625,8.019375 L275.288,9.05775 C273.905125,6.8315 271.974625,4.953 268.268,4.953 C264.30625,4.953 261.980875,7.226375 261.980875,10.6405 C261.980875,14.00425 263.666,15.63575 267.821125,17.56625 L270.93625,18.9995 C276.37675,21.47275 279.001125,24.3425 279.001125,28.991625 C279.001125,34.233875 274.844375,37.597625 269.05775,37.597625 C262.67475,37.597625 259.413375,34.233875 257.778625,30.870125" id="Fill-9" fill="#17160D" sketch:type="MSShapeGroup"></path>
            <path d="M392.764125,25.598625 C401.7975,25.598625 404.997125,20.40025 404.997125,14.521 C404.997125,8.640125 401.7975,3.38975 392.764125,3.38975 L387.93625,3.38975 L387.93625,25.598625 L392.764125,25.598625 L392.764125,25.598625 Z M407.4655,37.20275 L404.89475,37.20275 L397.43925,27.01725 C396.12625,27.330875 394.602,27.490125 392.97375,27.490125 L387.93625,27.490125 L387.93625,37.20275 L385.78475,37.20275 L385.78475,1.499875 L392.97375,1.499875 C402.634375,1.499875 407.20225,7.27675 407.20225,14.521 C407.20225,19.771375 404.7355,24.28725 399.537125,26.33475 L407.4655,37.20275 L407.4655,37.20275 Z" id="Fill-10" fill="#17160D" sketch:type="MSShapeGroup"></path>
            <path d="M452.772125,26.0715 L439.27975,1.499875 L441.696125,1.499875 L453.08575,22.186125 C453.561875,23.024625 453.9275,24.33925 453.9275,24.33925 C453.9275,24.33925 454.403625,23.024625 454.87325,22.186125 L466.21575,1.499875 L468.472875,1.499875 L454.9805,26.1235 L454.9805,37.20275 L452.772125,37.20275 L452.772125,26.0715" id="Fill-11" fill="#17160D" sketch:type="MSShapeGroup"></path>
            <g id="Group-15">
                <mask id="mask-4" sketch:name="Clip 13" fill="white">
                    <use xlink:href="#path-3"></use>
                </mask>
                <g id="Clip-13"></g>
                <path d="M502.3915,1.499875 L523.2305,1.499875 L523.2305,3.38975 L504.543,3.38975 L504.543,22.501375 L521.291875,22.501375 L521.291875,24.392875 L504.543,24.392875 L504.543,35.312875 L523.966625,35.312875 L523.966625,37.20275 L502.3915,37.20275 L502.3915,1.499875" id="Fill-12" fill="#17160D" sketch:type="MSShapeGroup" mask="url(#mask-4)"></path>
                <path d="M330.2065,3.4255 L331.9485,3.4255 L331.9485,38.9025 L330.2065,38.9025 L330.2065,3.4255 Z" id="Fill-14" fill="#17160D" sketch:type="MSShapeGroup" mask="url(#mask-4)"></path>
            </g>
            <path d="M313.291875,20.340125 L348.868,20.340125 L348.868,22.085375 L313.291875,22.085375 L313.291875,20.340125 Z" id="Fill-16" fill="#17160D" sketch:type="MSShapeGroup"></path>
        </g>
    </g>
</svg>